<svg class="illustration" width="186" height="186" viewBox="0 0 186 186" fill="none" xmlns="http://www.w3.org/2000/svg">
<g clip-path="url(#clip0_59_843)">
<path d="M40.7028 50.4444C50.5561 36.5739 66.1527 26.9873 82.9374 24.1575C84.2302 23.9267 85.9729 23.7482 86.6542 25.1588C87.3748 26.8741 86.497 28.7549 86.462 30.5311C104.277 28.633 122.717 34.6104 136.012 46.5741C148.359 57.458 156.304 73.1353 157.741 89.5091C158.532 98.7953 157.536 108.273 154.426 117.085C149.137 132.566 137.751 145.862 123.25 153.507C108.649 161.326 90.9563 163.111 75.0583 158.461C60.5797 154.286 47.8744 144.673 39.5716 132.179C33.7365 123.45 30.0066 113.362 28.6133 102.975C27.8053 97.4762 27.9626 91.8992 28.1547 86.3615C29.0282 73.5619 33.291 60.9627 40.7028 50.4444ZM77.8972 33.9139C77.3338 34.1925 76.7835 34.4972 76.2899 34.8847C73.2326 37.3053 70.1928 39.7694 67.546 42.6428C68.948 42.325 70.3675 42.1029 71.7957 41.9419L71.8612 41.8113C74.2546 41.537 76.6655 41.5936 79.0721 41.5196C79.9106 38.2805 80.2906 34.8499 80.9632 31.5368C79.915 32.29 78.7663 32.9474 77.8972 33.9139ZM89.0083 35.4115C87.7985 35.4811 86.5931 35.6422 85.3876 35.7598C85.0513 37.2618 84.7761 38.7725 84.584 40.3006C86.9337 40.749 89.2835 41.2409 91.6726 41.4325C95.2846 42.0159 98.9664 41.9898 102.613 41.8461C103.338 41.7764 104.173 41.8504 104.753 41.3106L104.566 41.5457C107.483 41.3585 110.388 40.5531 112.973 39.186C112.986 39.0772 113.021 38.8639 113.039 38.755C111.401 38.0977 109.684 37.6797 107.99 37.2139C101.823 35.6379 95.3675 34.8542 89.0083 35.4115ZM51.4864 46.2388C48.4029 49.3647 45.7779 52.9216 43.4238 56.6134L43.8387 56.5917L43.3452 56.6439C41.2619 60.105 39.2921 63.6532 37.8726 67.4408L37.7765 67.4713C36.7676 70.2663 35.7805 73.0743 35.0511 75.9608C36.0207 77.9112 37.0952 79.8137 38.3137 81.6204C39.3882 83.2574 40.6024 84.7942 41.8428 86.3136C49.4249 95.3864 60.488 101.629 72.3023 102.914C72.4246 102.944 72.6736 102.997 72.7958 103.027C72.9443 103.192 73.2413 103.528 73.3898 103.697C76.517 104.438 79.7752 104.081 82.9592 104.102C85.2042 103.937 87.6806 103.928 89.6373 102.714C90.537 102.587 91.4367 102.474 92.3146 102.226C92.2316 102.13 92.0613 101.934 91.9783 101.838L92.1224 101.808C93.5594 93.7495 98.0754 86.3397 104.133 80.8672C103.793 80.4275 103.456 79.9922 103.124 79.5568C102.491 78.6382 101.687 77.5846 102.081 76.4048C102.395 74.6373 104.819 73.9146 106.134 75.0857C106.872 75.8824 107.444 76.8097 108.108 77.6674C110.899 75.7692 113.93 74.2411 117.122 73.1484C117.079 72.1644 116.965 71.1892 116.821 70.2184C114.506 69.4347 112.519 67.7717 111.589 65.4948C109.374 65.2422 107.02 66.3785 104.946 65.3075C101.587 59.7524 97.5076 54.4149 91.9346 50.9015C85.1037 46.4173 76.338 45.3725 68.4894 47.4013C65.9387 47.9193 63.4317 48.8336 61.1213 50.0395C60.191 50.4009 59.0467 50.8232 58.1426 50.1484C57.2516 49.6782 57.0157 48.6507 56.7843 47.7583C59.2345 42.6254 63.4754 38.6549 67.498 34.7454C61.3309 37.2269 56.0636 41.4978 51.4864 46.2388ZM120.127 41.8417C118.472 48.3634 115.865 54.65 112.27 60.3488C114.742 60.5143 117.843 60.3053 119.577 62.4255C121.363 65.116 121.726 68.4508 122.084 71.5811C124.482 71.4809 126.832 70.9019 129.243 70.9367C131.653 70.8366 134.047 71.2067 136.449 71.3982L136.484 71.4766C138.205 71.8423 139.974 72.1122 141.598 72.8044C142.393 73.1527 142.603 74.08 143.066 74.7374C142.751 75.4775 142.664 76.3831 141.983 76.9011C141.363 77.6195 140.358 77.4453 139.519 77.5281C135.842 76.2002 131.789 75.7649 127.906 76.2481C124.063 76.1088 120.267 77.3321 116.734 78.7558C108.269 82.3649 101.482 89.5788 98.3157 98.1858C95.6383 105.408 95.4156 113.584 98.023 120.859C98.1846 121.817 98.7612 122.844 98.1672 123.781C97.6343 125.021 96.0882 125.426 94.8915 124.965C94.0311 124.699 93.7472 123.754 93.2187 123.123C93.0178 121.974 92.6858 120.855 92.3714 119.736C91.4542 116.366 91.1878 112.866 91.0698 109.392C90.0041 109.888 88.9341 110.389 87.8684 110.881L87.8815 110.937C81.5179 113.693 74.6302 115.348 67.6727 115.308C58.278 115.348 49.1279 112.087 41.3317 106.989L41.3099 106.906C38.5671 105.112 35.9902 103.071 33.5793 100.855C34.645 109.753 37.6499 118.413 42.2402 126.114C45.315 131.36 49.1453 136.171 53.5697 140.355C58.5706 145.283 64.6721 149.001 71.1362 151.7C78.3558 154.608 86.1519 156.062 93.935 155.927C102.146 155.836 110.305 153.938 117.773 150.559C124.683 147.342 130.998 142.862 136.253 137.351C140.782 132.614 144.477 127.12 147.32 121.225C148.565 118.33 150.041 115.43 150.438 112.274C151.159 110.802 151.325 109.135 151.797 107.576C152.993 101.342 153.373 94.8988 152.509 88.5992C152.43 88.5513 152.277 88.4468 152.199 88.3946L152.391 87.7982C152.129 84.0323 151.032 80.3884 150.019 76.7705L149.941 76.7488C147.875 70.3011 144.634 64.2366 140.511 58.8642C137.58 55.0331 134.208 51.5502 130.444 48.5245C127.967 46.561 125.368 44.7499 122.63 43.1696C121.796 42.7168 120.962 42.2771 120.127 41.8417ZM95.0793 46.9311C96.5118 47.7626 97.7086 48.9163 99.0931 49.8088C101.735 49.0426 104.225 47.8105 106.627 46.487C102.806 47.066 98.9315 47.1009 95.0793 46.9311ZM103.033 53.8359C104.4 55.4946 105.714 57.2012 106.929 58.9774C109.23 55.8777 111.025 52.4427 112.493 48.8858C109.51 50.8406 106.348 52.5211 103.033 53.8359ZM33.5443 83.6579C33.1906 86.7794 32.9416 89.914 32.994 93.0616C34.8677 95.1078 36.8069 97.1409 39.065 98.7779L39.0737 98.8998C45.7954 104.529 53.9017 108.935 62.7111 109.988C66.2357 110.65 69.922 110.659 73.451 109.997C75.6916 109.858 77.871 109.213 80.0111 108.565C72.0621 108.486 64.0519 107.085 56.8017 103.754C49.7088 100.589 43.5243 95.6869 38.3487 89.9532C36.7458 87.8678 35.1036 85.7868 33.5443 83.6579Z" fill="#4F221A"/>
<path d="M88.8511 60.6058C92.5417 60.3707 96.4245 61.6245 99.0407 64.2845C100.382 65.5514 99.6128 68.1723 97.7697 68.4509C95.9571 68.9037 94.8871 67.0665 93.3977 66.4613C90.3928 64.9245 86.7415 65.6864 84.0598 67.5367C82.933 68.2245 81.828 69.461 80.3649 69.0343C78.5567 68.612 77.8229 66.0695 79.2205 64.8113C81.8629 62.443 85.2959 60.8931 88.8511 60.6058Z" fill="#4F221A"/>
<path d="M77.8971 33.9139C78.7662 32.9474 79.9149 32.29 80.9631 31.5369C80.2905 34.8499 79.9106 38.2806 79.072 41.5196C76.6654 41.5936 74.2545 41.537 71.8611 41.8113C73.2238 38.7159 76.2636 36.8395 77.8971 33.9139Z" fill="#F7999B"/>
<path d="M103.032 53.836C106.347 52.5212 109.51 50.8407 112.493 48.886C111.025 52.4429 109.23 55.8778 106.928 58.9776C105.714 57.2013 104.4 55.4947 103.032 53.836Z" fill="#F7999B"/>
<path d="M76.2898 34.8847C76.7834 34.4972 77.3337 34.1924 77.8971 33.9138C76.2636 36.8394 73.2238 38.7158 71.8611 41.8112L71.7956 41.9418C70.3674 42.1029 68.9479 42.3249 67.5459 42.6428C70.1927 39.7694 73.2325 37.3053 76.2898 34.8847Z" fill="#E76D70"/>
<path d="M89.0083 35.4114C95.3675 34.8541 101.823 35.6378 107.99 37.2138C106.872 38.5503 105.832 39.9435 104.753 41.3105C104.173 41.8503 103.338 41.7763 102.613 41.846C98.9664 41.9896 95.2845 42.0158 91.6725 41.4324C91.8123 39.408 92.0219 37.3923 92.2228 35.3722C91.1528 35.3722 90.0784 35.3722 89.0083 35.4114Z" fill="#C7420F"/>
<path d="M121.293 60.2355C121.429 58.4854 122.704 57.1532 123.665 55.7861C125.989 57.8497 128.452 59.8219 130.265 62.3818C128.648 63.1176 127.155 64.3148 125.329 64.4454C123.067 64.5978 121.106 62.4471 121.293 60.2355Z" fill="#C7420F"/>
<path d="M37.8725 67.4406C39.0954 67.0575 40.314 66.6483 41.5238 66.2173C39.9908 71.2457 38.9294 76.4003 38.3136 81.6203C37.0951 79.8135 36.0206 77.911 35.051 75.9606C35.7804 73.0742 36.7675 70.2661 37.7764 67.4711L37.8725 67.4406Z" fill="#C7420F"/>
<path d="M42.24 126.114C44.3408 124.882 46.5464 123.841 48.8001 122.918C51.2067 126.593 54.0674 129.949 57.1553 133.067C55.6136 135.313 54.4518 137.786 53.5695 140.355C49.1451 136.171 45.3148 131.36 42.24 126.114Z" fill="#C7420F"/>
<path d="M132.086 136.349C133.466 136.706 134.863 137.011 136.252 137.35C130.998 142.862 124.683 147.342 117.773 150.559C116.236 149.34 114.633 148.178 113.353 146.676C120.184 144.503 126.661 141.042 132.086 136.349Z" fill="#C7420F"/>
<path d="M71.6338 143.441C77.6174 146.41 84.1077 148.239 90.7246 149.096C91.6942 151.417 92.8298 153.663 93.9348 155.927C86.1517 156.062 78.3556 154.608 71.1359 151.7C71.101 148.935 71.3063 146.184 71.6338 143.441Z" fill="#C7420F"/>
<path d="M51.4863 46.2388C56.0636 41.4978 61.3309 37.2269 67.4979 34.7454C63.4754 38.6549 59.2344 42.6253 56.7842 47.7582C55.0066 47.2837 53.2334 46.8091 51.4863 46.2388Z" fill="#FFA627"/>
<path d="M85.3876 35.7598C86.5931 35.6422 87.7985 35.4812 89.0084 35.4115C90.0784 35.3723 91.1528 35.3723 92.2229 35.3723C92.022 37.3924 91.8123 39.4081 91.6726 41.4325C89.2835 41.2409 86.9337 40.749 84.584 40.3006C84.7762 38.7725 85.0513 37.2618 85.3876 35.7598Z" fill="#F2831F"/>
<path d="M120.128 41.8418C120.962 42.2772 121.796 42.7169 122.63 43.1696C122.464 46.6786 121.438 50.0396 120.328 53.3483C121.377 54.2495 122.53 55.0288 123.766 55.647L123.665 55.7863C122.704 57.1533 121.429 58.4855 121.294 60.2357C121.106 62.4473 123.067 64.598 125.329 64.4456C127.155 64.315 128.649 63.1178 130.265 62.382L130.396 62.3167C132.61 65.2031 135.004 68.0286 136.449 71.3983C134.047 71.2067 131.654 70.8367 129.243 70.9368C126.832 70.902 124.482 71.481 122.084 71.5811C121.726 68.4509 121.364 65.1161 119.577 62.4255C117.843 60.3053 114.742 60.5143 112.27 60.3489C115.865 54.65 118.472 48.3635 120.128 41.8418Z" fill="#F2831F"/>
<path d="M33.5793 100.854C35.9903 103.07 38.5671 105.112 41.31 106.906L41.3318 106.989C42.2621 111.02 44.2275 114.708 46.0444 118.395C46.9092 119.967 47.691 121.669 49.1847 122.753C49.0887 122.792 48.8965 122.879 48.8004 122.918C46.5467 123.841 44.3411 124.882 42.2403 126.114C37.6499 118.413 34.645 109.753 33.5793 100.854Z" fill="#F2831F"/>
<path d="M57.1556 133.067C57.2168 132.984 57.3347 132.814 57.3958 132.731C58.1689 134.377 59.75 135.361 61.0865 136.51C64.3141 139.223 67.9174 141.456 71.6342 143.441C71.3066 146.184 71.1013 148.935 71.1363 151.7C64.6722 149.001 58.5707 145.283 53.5698 140.355C54.4521 137.786 55.6139 135.313 57.1556 133.067Z" fill="#F2831F"/>
<path d="M113.231 146.715L113.353 146.676C114.633 148.178 116.236 149.34 117.773 150.559C110.305 153.938 102.146 155.836 93.935 155.927C92.83 153.664 91.6945 151.417 90.7249 149.097C98.2808 149.758 106.025 149.166 113.231 146.715Z" fill="#F2831F"/>
<path d="M107.99 37.2139C109.684 37.6797 111.401 38.0976 113.039 38.755C113.021 38.8639 112.986 39.0772 112.973 39.186C110.388 40.5531 107.483 41.3585 104.566 41.5457L104.753 41.3106C105.832 39.9436 106.872 38.5504 107.99 37.2139Z" fill="#F28322"/>
<path d="M122.63 43.1697C125.369 44.75 127.967 46.5611 130.444 48.5246C127.993 50.6752 125.644 52.9696 123.766 55.647C122.53 55.0288 121.377 54.2495 120.328 53.3483C121.438 50.0396 122.464 46.6787 122.63 43.1697Z" fill="#FFA725"/>
<path d="M61.1213 50.0396C63.4318 48.8337 65.9387 47.9194 68.4894 47.4014C73.6039 47.5233 78.8231 47.6931 83.6799 49.4911C92.1574 52.347 98.9927 58.9732 102.98 66.8575C103.242 67.4801 103.434 68.1288 103.644 68.7731C102.22 70.6147 100.587 72.5999 98.2021 73.1441C93.8302 74.1062 89.1743 73.8842 85.0338 75.7911C80.2688 77.859 76.6568 82.8482 76.8752 88.1204C76.8184 93.9238 80.9545 99.2438 86.2175 101.438C86.4402 101.847 86.6673 102.252 86.9032 102.657C83.693 102.801 80.4828 103.358 77.2683 102.997C75.6217 102.801 73.9576 102.792 72.3023 102.914C60.488 101.63 49.4249 95.3866 41.8428 86.3137C46.4593 80.6236 51.7921 75.4907 57.933 71.4419C61.0864 69.4131 59.7062 63.8492 55.9108 63.6315C51.1414 63.6402 46.3851 64.6807 41.8471 66.1087C42.6246 62.6607 44.3847 59.5522 45.8173 56.348C49.8311 55.4816 53.9541 55.3554 58.0465 55.2073C59.3393 55.2117 60.654 54.5587 61.1956 53.3397C61.8201 52.3035 61.4532 51.1019 61.1213 50.0396ZM88.8511 60.6058C85.2959 60.8931 81.863 62.443 79.2206 64.8113C77.823 66.0695 78.5567 68.612 80.3649 69.0343C81.828 69.461 82.933 68.2246 84.0599 67.5367C86.7416 65.6864 90.3929 64.9245 93.3978 66.4614C94.8871 67.0665 95.9572 68.9037 97.7697 68.4509C99.6129 68.1723 100.382 65.5515 99.0407 64.2846C96.4245 61.6245 92.5417 60.3707 88.8511 60.6058Z" fill="#FFA725"/>
<path d="M130.396 62.3167C133.593 60.7145 137.004 59.5782 140.511 58.8643C144.634 64.2366 147.875 70.3011 149.941 76.7488C147.639 76.1132 145.442 75.1118 143.066 74.7374C142.603 74.08 142.394 73.1527 141.599 72.8044C139.974 72.1122 138.205 71.8423 136.484 71.4766L136.449 71.3982C135.004 68.0286 132.61 65.2031 130.396 62.3167Z" fill="#FFA725"/>
<path d="M132.396 77.7849C132.702 77.8502 133.012 77.9199 133.322 77.9939C138.026 79.744 142.717 81.664 146.896 84.4807C148.766 85.6518 150.338 87.2148 152.199 88.3946C152.277 88.4468 152.43 88.5513 152.509 88.5992C153.374 94.8988 152.994 101.342 151.797 107.576C142.214 104.181 132.265 101.856 122.189 100.506C120.625 100.219 118.865 100.846 118.136 102.317C117.118 104.046 117.848 106.405 119.59 107.368C127.806 112.592 136.55 117.011 145.63 120.537C144.429 123.367 142.433 125.748 140.52 128.117C138.449 130.681 136.091 132.993 133.698 135.252C133.104 135.905 132.221 136.066 131.383 136.149C124.36 133.881 117.415 130.842 111.794 125.975C110.772 125.152 109.706 124.107 108.296 124.138C106.16 123.998 104.282 126.062 104.574 128.169C105.037 132.44 107.068 136.328 108.986 140.111C110.161 142.457 111.598 144.66 113.231 146.715C106.025 149.166 98.2808 149.758 90.7248 149.097C88.1698 142.753 86.7329 135.91 86.9119 129.061C86.8901 127.559 87.0342 125.905 86.1389 124.599C84.9378 122.666 82.2299 121.891 80.1771 122.871C79.0241 123.371 78.2423 124.416 77.6527 125.478C74.6172 131.06 72.6256 137.176 71.6341 143.441C67.9173 141.456 64.314 139.223 61.0864 136.51C59.7499 135.361 58.1688 134.377 57.3958 132.731C59.2913 130.298 61.4402 128.069 63.8205 126.105C64.9124 125.213 66.0305 124.068 65.9737 122.548C66.1965 120.045 63.5366 117.908 61.1301 118.665C57.0333 119.636 53.0282 121.038 49.1847 122.753C47.691 121.669 46.9092 119.967 46.0444 118.395C44.2275 114.708 42.2621 111.02 41.3318 106.989C49.1279 112.087 58.278 115.348 67.6727 115.308C74.6303 115.348 81.518 113.693 87.8815 110.937C88.6895 115.322 90.1265 119.788 93.2187 123.123C93.7472 123.754 94.0311 124.699 94.8915 124.965C96.0882 125.426 97.6344 125.021 98.1672 123.781C98.7612 122.844 98.1847 121.817 98.0231 120.859C98.0624 115.369 98.3638 109.827 99.8313 104.516C101.77 97.0974 105.828 90.0446 112.026 85.3819C117.848 80.8411 125.146 78.6426 132.396 77.7849Z" fill="#FFA725"/>
<path d="M43.4238 56.6134C45.778 52.9215 48.4029 49.3646 51.4864 46.2388C51.5956 46.4913 51.8096 46.9876 51.9188 47.2357C49.7044 50.1483 47.5992 53.1479 45.8173 56.3478C45.1578 56.4436 44.5026 56.535 43.8387 56.5916L43.4238 56.6134Z" fill="#C44311"/>
<path d="M51.4863 46.2388C53.2333 46.8091 55.0066 47.2836 56.7842 47.7582C57.0156 48.6507 57.2515 49.6781 58.1425 50.1483C59.0466 50.8231 60.1909 50.4008 61.1212 50.0395C61.4531 51.1017 61.82 52.3033 61.1954 53.3395C60.6538 54.5585 59.3392 55.2115 58.0464 55.2072C53.954 55.3552 49.831 55.4814 45.8171 56.3478C47.5991 53.1479 49.7043 50.1483 51.9187 47.2357C51.8095 46.9876 51.5955 46.4913 51.4863 46.2388Z" fill="#E05713"/>
<path d="M130.444 48.5244C134.208 51.5502 137.58 55.033 140.511 58.8642C137.004 59.5782 133.593 60.7144 130.395 62.3166L130.264 62.3819C128.452 59.822 125.989 57.8498 123.665 55.7862L123.765 55.6469C125.644 52.9694 127.993 50.6751 130.444 48.5244Z" fill="#E05713"/>
<path d="M41.8471 66.1085C46.385 64.6806 51.1413 63.6401 55.9107 63.6313C59.7062 63.849 61.0863 69.4129 57.9329 71.4417C51.7921 75.4905 46.4593 80.6234 41.8427 86.3135C40.6023 84.7941 39.3881 83.2573 38.3137 81.6204C38.9296 76.4004 39.9909 71.2458 41.5239 66.2174C41.6069 66.1912 41.7641 66.1347 41.8471 66.1085Z" fill="#E05713"/>
<path d="M143.066 74.7373C145.442 75.1117 147.639 76.113 149.94 76.7487L150.019 76.7704C151.032 80.3883 152.129 84.0322 152.391 87.7981L152.198 88.3945C150.338 87.2147 148.766 85.6517 146.896 84.4806C142.716 81.6639 138.026 79.7439 133.322 77.9938C135.383 77.7587 137.449 77.5845 139.519 77.528C140.358 77.4452 141.363 77.6194 141.983 76.901C142.664 76.383 142.751 75.4774 143.066 74.7373Z" fill="#E05713"/>
<path d="M118.136 102.317C118.865 100.846 120.625 100.219 122.189 100.506C132.265 101.856 142.214 104.181 151.797 107.576C151.325 109.135 151.159 110.802 150.438 112.274C148.643 114.912 147.765 118.051 145.87 120.633L145.63 120.537C136.55 117.011 127.806 112.592 119.59 107.367C117.847 106.405 117.118 104.046 118.136 102.317Z" fill="#E05713"/>
<path d="M49.1846 122.753C53.0281 121.038 57.0332 119.636 61.13 118.665C63.5365 117.907 66.1964 120.045 65.9737 122.548C66.0304 124.068 64.9123 125.213 63.8204 126.105C61.4401 128.069 59.2912 130.298 57.3957 132.731C57.3346 132.814 57.2166 132.984 57.1555 133.067C54.0676 129.949 51.2068 126.593 48.8003 122.918C48.8964 122.879 49.0886 122.792 49.1846 122.753Z" fill="#E05713"/>
<path d="M80.177 122.87C82.2298 121.891 84.9377 122.666 86.1388 124.599C87.0341 125.905 86.89 127.559 86.9118 129.061C86.7328 135.909 88.1697 142.753 90.7248 149.096C84.1079 148.239 77.6176 146.41 71.634 143.441C72.6255 137.176 74.6171 131.06 77.6526 125.478C78.2422 124.416 79.024 123.371 80.177 122.87Z" fill="#E05713"/>
<path d="M104.574 128.169C104.282 126.062 106.16 123.998 108.296 124.138C109.706 124.107 110.772 125.152 111.794 125.975C117.415 130.842 124.36 133.881 131.383 136.149C131.557 136.197 131.911 136.297 132.086 136.349C126.661 141.042 120.184 144.504 113.353 146.676L113.231 146.715C111.597 144.66 110.161 142.457 108.986 140.111C107.068 136.328 105.037 132.44 104.574 128.169Z" fill="#E05713"/>
<path d="M68.4895 47.4012C76.3381 45.3725 85.1038 46.4173 91.9347 50.9015C97.5078 54.4148 101.587 59.7523 104.946 65.3075C105.081 66.6005 104.269 67.715 103.644 68.773C103.435 68.1286 103.242 67.4799 102.98 66.8574C98.9927 58.973 92.1575 52.3469 83.68 49.4909C78.8232 47.6929 73.6039 47.5231 68.4895 47.4012Z" fill="#FAD477"/>
<path d="M95.0793 46.9311C98.9316 47.1009 102.806 47.0661 106.627 46.4871C104.225 47.8105 101.736 49.0426 99.0932 49.8088C97.7086 48.9164 96.5119 47.7627 95.0793 46.9311Z" fill="#FCA72E"/>
<path d="M43.8387 56.5917C44.5026 56.5351 45.1577 56.4437 45.8172 56.3479C44.3846 59.5521 42.6245 62.6606 41.8471 66.1086C41.7641 66.1348 41.6069 66.1914 41.5239 66.2175C40.314 66.6485 39.0955 67.0577 37.8726 67.4408C39.292 63.6532 41.2618 60.105 43.3451 56.6439L43.8387 56.5917Z" fill="#F18321"/>
<path d="M104.946 65.3076C107.02 66.3786 109.374 65.2423 111.589 65.4948C112.519 67.7717 114.506 69.4348 116.821 70.2185C116.965 71.1893 117.079 72.1645 117.122 73.1484C113.93 74.2412 110.899 75.7693 108.108 77.6674C107.444 76.8098 106.872 75.8825 106.134 75.0858C104.819 73.9146 102.395 74.6373 102.08 76.4049C101.687 77.5847 102.491 78.6383 103.124 79.5569C96.9704 83.4621 92.6072 89.7269 89.9517 96.414C89.2747 98.2425 88.4143 100.136 88.7637 102.139C87.9033 101.943 87.0472 101.725 86.2174 101.438C80.9544 99.2438 76.8183 93.9237 76.8751 88.1204C76.6567 82.8482 80.2687 77.859 85.0338 75.7911C89.1742 73.8842 93.8301 74.1062 98.202 73.1441C100.587 72.5999 102.22 70.6146 103.644 68.7731C104.269 67.7152 105.081 66.6006 104.946 65.3076Z" fill="white"/>
<path d="M116.734 78.7558C120.267 77.3322 124.063 76.1088 127.906 76.2481C129.387 76.8098 130.863 77.3844 132.396 77.785C125.146 78.6426 117.848 80.8412 112.026 85.382C105.828 90.0447 101.77 97.0975 99.8312 104.516C98.3637 109.827 98.0624 115.369 98.023 120.859C95.4156 113.584 95.6383 105.408 98.3157 98.1858C101.482 89.5788 108.269 82.3649 116.734 78.7558Z" fill="#FAD576"/>
<path d="M127.906 76.248C131.789 75.7648 135.842 76.2001 139.519 77.528C137.449 77.5846 135.383 77.7587 133.322 77.9938C133.012 77.9198 132.702 77.8501 132.396 77.7848C130.863 77.3843 129.387 76.8096 127.906 76.248Z" fill="#EA701C"/>
<path d="M89.9518 96.414C92.6073 89.7269 96.9706 83.462 103.124 79.5569C103.456 79.9922 103.793 80.4276 104.133 80.8673C98.0756 86.3398 93.5595 93.7496 92.1225 101.808L91.9784 101.839C90.9302 102.108 89.8514 102.313 88.7639 102.139C88.4145 100.136 89.2749 98.2425 89.9518 96.414Z" fill="#D1E2EE"/>
<path d="M33.5444 83.658C35.1036 85.7869 36.7458 87.8679 38.3487 89.9532C38.1784 92.9224 38.851 95.8349 39.065 98.778C36.8069 97.141 34.8677 95.1079 32.994 93.0617C32.9416 89.9141 33.1906 86.7795 33.5444 83.658Z" fill="#25ACA8"/>
<path d="M39.0649 98.7778C38.8509 95.8348 38.1783 92.9223 38.3486 89.9531C43.5242 95.6868 49.7087 100.589 56.8017 103.754C64.0519 107.084 72.062 108.486 80.011 108.565C77.8709 109.213 75.6915 109.858 73.4509 109.997C71.0881 109.775 68.7252 110.215 66.3667 109.984C65.1481 109.879 63.9252 109.923 62.711 109.988C53.9016 108.935 45.7954 104.529 39.0736 98.8997L39.0649 98.7778Z" fill="#6BD7C5"/>
<path d="M86.2174 101.438C87.0472 101.725 87.9033 101.943 88.7637 102.139C89.8512 102.313 90.93 102.108 91.9782 101.839C92.0612 101.934 92.2316 102.13 92.3145 102.226C91.4367 102.474 90.5369 102.587 89.6372 102.714C84.0729 103.523 78.3776 103.802 72.7958 103.027C72.6735 102.997 72.4245 102.944 72.3022 102.914C73.9576 102.792 75.6216 102.801 77.2682 102.997C80.4827 103.358 83.6929 102.801 86.9031 102.657C86.6672 102.252 86.4401 101.847 86.2174 101.438Z" fill="#D8974D"/>
<path d="M72.7959 103.027C78.3777 103.802 84.073 103.523 89.6373 102.714C87.6806 103.928 85.2042 103.937 82.9593 104.102C79.7753 104.081 76.5171 104.438 73.3899 103.698C73.2414 103.528 72.9444 103.193 72.7959 103.027Z" fill="#602906"/>
<path d="M87.8684 110.881C88.9341 110.389 90.0042 109.888 91.0699 109.392C91.1878 112.866 91.4542 116.366 92.3714 119.736C92.6859 120.855 93.0178 121.974 93.2187 123.123C90.1265 119.788 88.6895 115.321 87.8815 110.937L87.8684 110.881Z" fill="#F08322"/>
<path d="M62.7112 109.988C63.9254 109.923 65.1483 109.88 66.3669 109.984C68.7253 110.215 71.0882 109.775 73.4511 109.997C69.9221 110.659 66.2358 110.65 62.7112 109.988Z" fill="#85B1A3"/>
<path d="M145.87 120.633C147.765 118.051 148.643 114.912 150.438 112.274C150.041 115.43 148.565 118.33 147.32 121.225C146.831 121.029 146.35 120.829 145.87 120.633Z" fill="#B84314"/>
<path d="M145.63 120.537L145.87 120.633C146.35 120.829 146.831 121.029 147.32 121.225C144.477 127.12 140.782 132.614 136.252 137.351C134.864 137.011 133.466 136.706 132.086 136.349C131.911 136.297 131.557 136.197 131.383 136.149C132.221 136.066 133.103 135.905 133.697 135.252C136.091 132.993 138.449 130.681 140.52 128.117C142.433 125.748 144.429 123.367 145.63 120.537Z" fill="#F0831F"/>
</g>
<defs>
<clipPath id="clip0_59_843">
<rect width="130" height="137" fill="white" transform="translate(28 24.0002)"/>
</clipPath>
</defs>
</svg>
