<svg width="89" height="24" viewBox="0 0 89 24" fill="none" xmlns="http://www.w3.org/2000/svg">
<path d="M0.5 9.6C0.5 6.23969 0.5 4.55953 1.15396 3.27606C1.7292 2.14708 2.64708 1.2292 3.77606 0.653961C5.05953 0 6.73968 0 10.1 0H78.9C82.2603 0 83.9405 0 85.2239 0.653961C86.3529 1.2292 87.2708 2.14708 87.846 3.27606C88.5 4.55953 88.5 6.23968 88.5 9.6V14.4C88.5 17.7603 88.5 19.4405 87.846 20.7239C87.2708 21.8529 86.3529 22.7708 85.2239 23.346C83.9405 24 82.2603 24 78.9 24H10.1C6.73968 24 5.05953 24 3.77606 23.346C2.64708 22.7708 1.7292 21.8529 1.15396 20.7239C0.5 19.4405 0.5 17.7603 0.5 14.4V9.6Z" fill="#D4237A" fill-opacity="0.2"/>
<path d="M18.7658 16.8516C18.6998 16.4777 18.3919 14.6961 17.6221 12.4966C19.4697 12.1886 21.0973 12.6945 21.2953 12.7605C21.0533 14.4542 20.1076 15.9278 18.7658 16.8516L18.7658 16.8516ZM15.4666 17.9074C14.1028 17.9074 12.8491 17.4235 11.8373 16.6097C11.9473 16.3897 13.135 13.9923 16.4783 12.8045C16.5003 12.8045 16.5003 12.8045 16.5223 12.7825C17.3582 15.0041 17.6881 16.8737 17.7761 17.4016C17.0722 17.7315 16.2804 17.9075 15.4665 17.9075L15.4666 17.9074ZM9.5498 11.7927V11.6168C9.81374 11.6168 12.6731 11.6608 15.6205 10.759C15.7965 11.1109 15.9504 11.4408 16.1044 11.7928C16.0165 11.8148 15.9504 11.8368 15.8625 11.8588C12.8051 12.8706 11.1995 15.642 11.0455 15.8839C10.1437 14.7842 9.54986 13.3545 9.54986 11.7928L9.5498 11.7927ZM12.9591 6.27191C13.1131 6.49189 14.1688 8.00953 15.1586 9.79117C12.3872 10.539 9.94571 10.539 9.68178 10.539C10.0557 8.64744 11.3095 7.08575 12.9591 6.27192L12.9591 6.27191ZM15.4666 5.70001C16.9622 5.70001 18.3479 6.27188 19.3817 7.2397C19.2718 7.39368 18.3919 8.62542 16.2804 9.43923C15.3126 7.61361 14.2348 6.09595 14.0808 5.876C14.5207 5.76603 14.9827 5.70004 15.4666 5.70004L15.4666 5.70001ZM20.0415 7.94355C20.8554 8.97735 21.3612 10.2971 21.3833 11.7487C21.1853 11.7047 19.2277 11.2868 17.2701 11.5508C17.2261 11.4408 17.1822 11.3308 17.1381 11.2429C17.0062 10.9349 16.8742 10.649 16.7422 10.363C18.9418 9.41723 19.9316 8.11951 20.0415 7.94355Z" fill="#D4237A"/>
<path d="M29.5783 13.334C29.5783 13.9043 29.6857 14.3965 29.9005 14.8105C30.1193 15.2246 30.4279 15.5449 30.8263 15.7715C31.2248 15.9941 31.6994 16.1055 32.2502 16.1055C32.8048 16.1055 33.2638 16.0156 33.6271 15.8359C33.9943 15.6523 34.2697 15.4121 34.4533 15.1152C34.6408 14.8145 34.7404 14.4902 34.7521 14.1426H33.5216C33.4904 14.3066 33.4298 14.457 33.34 14.5938C33.2541 14.7266 33.1252 14.832 32.9533 14.9102C32.7853 14.9883 32.5627 15.0273 32.2853 15.0273C31.8478 15.0273 31.5041 14.875 31.2541 14.5703C31.008 14.2656 30.8849 13.8535 30.8849 13.334V12.4668C30.8849 11.9551 31.0041 11.5469 31.2423 11.2422C31.4806 10.9375 31.8263 10.7852 32.2795 10.7852C32.5685 10.7852 32.797 10.8359 32.965 10.9375C33.133 11.0391 33.256 11.1641 33.3341 11.3125C33.4162 11.457 33.467 11.5957 33.4865 11.7285H34.717C34.7091 11.373 34.6095 11.043 34.4181 10.7383C34.2267 10.4297 33.9494 10.1797 33.5861 9.98828C33.2267 9.79688 32.7814 9.70117 32.2502 9.70117C31.7072 9.70117 31.2345 9.81445 30.8322 10.041C30.4338 10.2676 30.1252 10.5859 29.9064 10.9961C29.6877 11.4023 29.5783 11.8828 29.5783 12.4375V13.334ZM36.1117 16H37.4066V12.5605C37.4066 12.2246 37.4633 11.9258 37.5766 11.6641C37.6898 11.4023 37.8559 11.1973 38.0746 11.0488C38.2934 10.8965 38.557 10.8203 38.8656 10.8203C39.1156 10.8203 39.3344 10.8711 39.5219 10.9727C39.7094 11.0703 39.8559 11.2227 39.9613 11.4297C40.0707 11.6328 40.1254 11.8906 40.1254 12.2031V16H41.4203V11.8223C41.4203 11.1152 41.225 10.5879 40.8344 10.2402C40.4477 9.88867 39.9535 9.71289 39.352 9.71289C38.9379 9.71289 38.6 9.7832 38.3383 9.92383C38.0805 10.0605 37.8832 10.2246 37.7465 10.416C37.6098 10.6035 37.518 10.7715 37.4711 10.9199H37.4066V7.58008H36.1117V16ZM44.7955 16.0938C45.1041 16.0938 45.3698 16.0527 45.5924 15.9707C45.819 15.8848 46.0084 15.7734 46.1608 15.6367C46.3131 15.5 46.4342 15.3535 46.5241 15.1973H46.5827V16H47.819V11.8047C47.819 11.2891 47.7096 10.8789 47.4909 10.5742C47.2721 10.2695 46.9791 10.0508 46.612 9.91797C46.2448 9.78125 45.8405 9.71289 45.3991 9.71289C45.0123 9.71289 44.6725 9.75391 44.3795 9.83594C44.0905 9.91797 43.8463 10.0371 43.6471 10.1934C43.4518 10.3457 43.2995 10.5293 43.1901 10.7441C43.0846 10.9551 43.0221 11.1895 43.0026 11.4473H44.2389C44.2741 11.3066 44.3346 11.1855 44.4205 11.084C44.5065 10.9785 44.6256 10.8965 44.778 10.8379C44.9303 10.7754 45.1237 10.7441 45.358 10.7441C45.7135 10.7441 45.9967 10.8301 46.2077 11.002C46.4186 11.1699 46.5241 11.4316 46.5241 11.7871V12.3672H44.9596C44.2448 12.3672 43.6998 12.5371 43.3248 12.877C42.9538 13.2129 42.7682 13.6543 42.7682 14.2012C42.7682 14.7793 42.9557 15.2402 43.3307 15.584C43.7096 15.9238 44.1979 16.0938 44.7955 16.0938ZM45.194 15.0859C44.9049 15.0859 44.6452 15.0098 44.4147 14.8574C44.1881 14.7012 44.0748 14.4609 44.0748 14.1367C44.0748 13.875 44.1608 13.6602 44.3327 13.4922C44.5084 13.3242 44.7858 13.2402 45.1647 13.2402H46.5241V13.9082C46.5241 14.1348 46.4635 14.3359 46.3424 14.5117C46.2252 14.6875 46.067 14.8281 45.8678 14.9336C45.6686 15.0352 45.444 15.0859 45.194 15.0859ZM49.2138 13.334C49.2138 13.9043 49.3212 14.3965 49.536 14.8105C49.7548 15.2246 50.0634 15.5449 50.4618 15.7715C50.8602 15.9941 51.3348 16.1055 51.8856 16.1055C52.4403 16.1055 52.8993 16.0156 53.2626 15.8359C53.6298 15.6523 53.9052 15.4121 54.0888 15.1152C54.2763 14.8145 54.3759 14.4902 54.3876 14.1426H53.1571C53.1259 14.3066 53.0653 14.457 52.9755 14.5938C52.8895 14.7266 52.7606 14.832 52.5888 14.9102C52.4208 14.9883 52.1981 15.0273 51.9208 15.0273C51.4833 15.0273 51.1395 14.875 50.8895 14.5703C50.6434 14.2656 50.5204 13.8535 50.5204 13.334V12.4668C50.5204 11.9551 50.6395 11.5469 50.8778 11.2422C51.1161 10.9375 51.4618 10.7852 51.9149 10.7852C52.204 10.7852 52.4325 10.8359 52.6005 10.9375C52.7684 11.0391 52.8915 11.1641 52.9696 11.3125C53.0516 11.457 53.1024 11.5957 53.122 11.7285H54.3524C54.3446 11.373 54.245 11.043 54.0536 10.7383C53.8622 10.4297 53.5848 10.1797 53.2216 9.98828C52.8622 9.79688 52.4169 9.70117 51.8856 9.70117C51.3427 9.70117 50.87 9.81445 50.4677 10.041C50.0692 10.2676 49.7606 10.5859 49.5419 10.9961C49.3231 11.4023 49.2138 11.8828 49.2138 12.4375V13.334ZM55.7472 16H57.0421V12.5605C57.0421 12.2246 57.0988 11.9258 57.212 11.6641C57.3253 11.4023 57.4913 11.1973 57.7101 11.0488C57.9288 10.8965 58.1925 10.8203 58.5011 10.8203C58.7511 10.8203 58.9698 10.8711 59.1573 10.9727C59.3448 11.0703 59.4913 11.2227 59.5968 11.4297C59.7062 11.6328 59.7609 11.8906 59.7609 12.2031V16H61.0558V11.8223C61.0558 11.1152 60.8605 10.5879 60.4698 10.2402C60.0831 9.88867 59.589 9.71289 58.9874 9.71289C58.5734 9.71289 58.2355 9.7832 57.9738 9.92383C57.7159 10.0605 57.5187 10.2246 57.382 10.416C57.2452 10.6035 57.1534 10.7715 57.1066 10.9199H57.0421V7.58008H55.7472V16ZM64.431 16.0938C64.7396 16.0938 65.0052 16.0527 65.2279 15.9707C65.4545 15.8848 65.6439 15.7734 65.7962 15.6367C65.9486 15.5 66.0697 15.3535 66.1595 15.1973H66.2181V16H67.4545V11.8047C67.4545 11.2891 67.3451 10.8789 67.1263 10.5742C66.9076 10.2695 66.6146 10.0508 66.2474 9.91797C65.8802 9.78125 65.4759 9.71289 65.0345 9.71289C64.6478 9.71289 64.308 9.75391 64.015 9.83594C63.7259 9.91797 63.4818 10.0371 63.2826 10.1934C63.0873 10.3457 62.9349 10.5293 62.8255 10.7441C62.7201 10.9551 62.6576 11.1895 62.638 11.4473H63.8744C63.9095 11.3066 63.9701 11.1855 64.056 11.084C64.142 10.9785 64.2611 10.8965 64.4134 10.8379C64.5658 10.7754 64.7591 10.7441 64.9935 10.7441C65.349 10.7441 65.6322 10.8301 65.8431 11.002C66.0541 11.1699 66.1595 11.4316 66.1595 11.7871V12.3672H64.5951C63.8802 12.3672 63.3353 12.5371 62.9603 12.877C62.5892 13.2129 62.4037 13.6543 62.4037 14.2012C62.4037 14.7793 62.5912 15.2402 62.9662 15.584C63.3451 15.9238 63.8334 16.0938 64.431 16.0938ZM64.8295 15.0859C64.5404 15.0859 64.2806 15.0098 64.0502 14.8574C63.8236 14.7012 63.7103 14.4609 63.7103 14.1367C63.7103 13.875 63.7962 13.6602 63.9681 13.4922C64.1439 13.3242 64.4212 13.2402 64.8002 13.2402H66.1595V13.9082C66.1595 14.1348 66.099 14.3359 65.9779 14.5117C65.8607 14.6875 65.7025 14.8281 65.5033 14.9336C65.3041 15.0352 65.0795 15.0859 64.8295 15.0859ZM70.4547 13.7852L70.9586 13.252L72.898 16H74.4332L71.9313 12.4902L74.275 9.80664H72.7926L70.5133 12.4902H70.4547V7.58008H69.1598V16H70.4547V13.7852ZM77.662 9.70117C77.1229 9.70117 76.6444 9.81641 76.2264 10.0469C75.8123 10.2773 75.4881 10.6016 75.2537 11.0195C75.0194 11.4375 74.9022 11.9297 74.9022 12.4961V13.2988C74.9022 13.8965 75.0194 14.4043 75.2537 14.8223C75.4881 15.2402 75.8104 15.5586 76.2205 15.7773C76.6346 15.9961 77.1151 16.1055 77.662 16.1055C78.201 16.1055 78.6776 15.9961 79.0916 15.7773C79.5057 15.5586 79.828 15.2402 80.0584 14.8223C80.2928 14.4004 80.41 13.8906 80.41 13.293V12.4902C80.41 11.9121 80.2928 11.4141 80.0584 10.9961C79.828 10.5781 79.5057 10.2578 79.0916 10.0352C78.6776 9.8125 78.201 9.70117 77.662 9.70117ZM77.6678 10.75C77.9764 10.75 78.2362 10.8301 78.4471 10.9902C78.662 11.1465 78.8241 11.3613 78.9334 11.6348C79.0467 11.9043 79.1034 12.2129 79.1034 12.5605V13.252C79.1034 13.5996 79.0487 13.9102 78.9393 14.1836C78.8338 14.4531 78.6756 14.666 78.4647 14.8223C78.2537 14.9785 77.9881 15.0566 77.6678 15.0566C77.3475 15.0566 77.078 14.9785 76.8592 14.8223C76.6444 14.666 76.4823 14.4531 76.3729 14.1836C76.2674 13.9102 76.2147 13.5996 76.2147 13.252V12.5605C76.2147 12.2129 76.2713 11.9043 76.3846 11.6348C76.4979 11.3613 76.662 11.1465 76.8768 10.9902C77.0916 10.8301 77.3553 10.75 77.6678 10.75Z" fill="#D4237A"/>
</svg>
