<svg width="248" height="17" viewBox="0 0 248 17" fill="none" xmlns="http://www.w3.org/2000/svg">
<path d="M5.36133 13L7.72559 4.11426H7.80469L10.1689 13H11.9795L15.2139 1.00293H12.999L11.0127 10.1348H10.9072L8.6748 1.00293H6.86426L4.62305 10.1348H4.52637L2.53125 1.00293H0.316406L3.55078 13H5.36133ZM19.9427 13.1582C20.5697 13.1582 21.1117 13.0732 21.5687 12.9033C22.0316 12.7334 22.4125 12.5166 22.7113 12.2529C23.016 11.9834 23.2474 11.6963 23.4056 11.3916C23.5697 11.0869 23.6664 10.7998 23.6957 10.5303H21.7884C21.7416 10.7236 21.6361 10.9023 21.472 11.0664C21.3138 11.2246 21.1029 11.3535 20.8392 11.4531C20.5755 11.5469 20.2738 11.5938 19.9339 11.5938C19.2484 11.5938 18.7152 11.374 18.3343 10.9346C17.9593 10.4893 17.7718 9.93555 17.7718 9.27344V8.81641H23.8011V7.72656C23.8011 6.87109 23.6312 6.13281 23.2914 5.51172C22.9515 4.89062 22.4828 4.41016 21.8851 4.07031C21.2933 3.72461 20.6078 3.55176 19.8285 3.55176C19.0726 3.55176 18.3929 3.71875 17.7894 4.05273C17.1918 4.38086 16.7171 4.85547 16.3656 5.47656C16.014 6.09766 15.8382 6.84766 15.8382 7.72656V8.9834C15.8382 9.85645 16.0052 10.6064 16.3392 11.2334C16.6732 11.8545 17.1478 12.332 17.763 12.666C18.3783 12.9941 19.1048 13.1582 19.9427 13.1582ZM17.7718 7.54199C17.7718 7.52441 17.7718 7.50684 17.7718 7.48926C17.7718 7.46582 17.7718 7.44238 17.7718 7.41895C17.7718 6.9502 17.8568 6.54297 18.0267 6.19727C18.1966 5.8457 18.4369 5.57324 18.7474 5.37988C19.058 5.18652 19.4213 5.08984 19.8373 5.08984C20.2533 5.08984 20.6136 5.18652 20.9183 5.37988C21.2289 5.57324 21.4691 5.8457 21.639 6.19727C21.8089 6.54297 21.8939 6.9502 21.8939 7.41895C21.8939 7.44238 21.8939 7.46582 21.8939 7.48926C21.8939 7.50684 21.8939 7.52441 21.8939 7.54199H17.7718ZM25.9636 13H27.9148V0.370117H25.9636V13ZM30.1124 9.00098C30.1124 9.85645 30.2735 10.5947 30.5958 11.2158C30.9239 11.8369 31.3868 12.3174 31.9845 12.6572C32.5821 12.9912 33.294 13.1582 34.1202 13.1582C34.9522 13.1582 35.6407 13.0234 36.1856 12.7539C36.7364 12.4785 37.1495 12.1182 37.4249 11.6729C37.7061 11.2217 37.8555 10.7354 37.8731 10.2139H36.0274C35.9805 10.46 35.8897 10.6855 35.755 10.8906C35.6261 11.0898 35.4327 11.248 35.1749 11.3652C34.9229 11.4824 34.5889 11.541 34.1729 11.541C33.5167 11.541 33.0011 11.3125 32.6261 10.8555C32.2569 10.3984 32.0723 9.78027 32.0723 9.00098V7.7002C32.0723 6.93262 32.2511 6.32031 32.6085 5.86328C32.9659 5.40625 33.4845 5.17773 34.1641 5.17773C34.5977 5.17773 34.9405 5.25391 35.1925 5.40625C35.4444 5.55859 35.629 5.74609 35.7462 5.96875C35.8692 6.18555 35.9454 6.39355 35.9747 6.59277H37.8204C37.8087 6.05957 37.6593 5.56445 37.3721 5.10742C37.085 4.64453 36.669 4.26953 36.1241 3.98242C35.585 3.69531 34.9171 3.55176 34.1202 3.55176C33.3057 3.55176 32.5968 3.72168 31.9932 4.06152C31.3956 4.40137 30.9327 4.87891 30.6046 5.49414C30.2764 6.10352 30.1124 6.82422 30.1124 7.65625V9.00098ZM43.5776 3.55176C42.769 3.55176 42.0512 3.72461 41.4243 4.07031C40.8032 4.41602 40.3168 4.90234 39.9653 5.5293C39.6137 6.15625 39.4379 6.89453 39.4379 7.74414V8.94824C39.4379 9.84473 39.6137 10.6064 39.9653 11.2334C40.3168 11.8604 40.8002 12.3379 41.4155 12.666C42.0366 12.9941 42.7573 13.1582 43.5776 13.1582C44.3862 13.1582 45.101 12.9941 45.7221 12.666C46.3432 12.3379 46.8266 11.8604 47.1723 11.2334C47.5239 10.6006 47.6996 9.83594 47.6996 8.93945V7.73535C47.6996 6.86816 47.5239 6.12109 47.1723 5.49414C46.8266 4.86719 46.3432 4.38672 45.7221 4.05273C45.101 3.71875 44.3862 3.55176 43.5776 3.55176ZM43.5864 5.125C44.0493 5.125 44.4389 5.24512 44.7553 5.48535C45.0776 5.71973 45.3207 6.04199 45.4848 6.45215C45.6547 6.85645 45.7397 7.31934 45.7397 7.84082V8.87793C45.7397 9.39941 45.6577 9.86523 45.4936 10.2754C45.3354 10.6797 45.0981 10.999 44.7817 11.2334C44.4653 11.4678 44.0668 11.585 43.5864 11.585C43.1059 11.585 42.7016 11.4678 42.3735 11.2334C42.0512 10.999 41.808 10.6797 41.644 10.2754C41.4858 9.86523 41.4067 9.39941 41.4067 8.87793V7.84082C41.4067 7.31934 41.4916 6.85645 41.6616 6.45215C41.8315 6.04199 42.0776 5.71973 42.3998 5.48535C42.7221 5.24512 43.1176 5.125 43.5864 5.125ZM49.8533 13H51.8045V7.2168C51.8045 6.80078 51.8836 6.44336 52.0418 6.14453C52.2 5.8457 52.4168 5.61426 52.6922 5.4502C52.9676 5.28613 53.2811 5.2041 53.6326 5.2041C53.99 5.2041 54.3006 5.28027 54.5643 5.43262C54.8338 5.58496 55.0447 5.80469 55.1971 6.0918C55.3494 6.37305 55.4256 6.71582 55.4256 7.12012V13H57.324V7.23438C57.324 6.82422 57.4061 6.4668 57.5701 6.16211C57.7342 5.85742 57.9568 5.62305 58.2381 5.45898C58.5193 5.28906 58.8328 5.2041 59.1785 5.2041C59.5535 5.2041 59.8699 5.27734 60.1277 5.42383C60.3914 5.57031 60.5936 5.78418 60.7342 6.06543C60.8748 6.34082 60.9451 6.6748 60.9451 7.06738V13H62.8875V6.4873C62.8875 5.57324 62.6209 4.8584 62.0877 4.34277C61.5545 3.82715 60.8133 3.56934 59.8641 3.56934C59.3367 3.56934 58.8826 3.6543 58.5018 3.82422C58.1268 3.98828 57.8191 4.20508 57.5789 4.47461C57.3387 4.73828 57.16 5.0166 57.0428 5.30957H56.9637C56.8641 4.98145 56.7029 4.68555 56.4803 4.42188C56.2576 4.1582 55.9705 3.9502 55.6189 3.79785C55.2732 3.64551 54.866 3.56934 54.3973 3.56934C53.8289 3.56934 53.3719 3.66016 53.0262 3.8418C52.6863 4.02344 52.4256 4.24316 52.2439 4.50098C52.0682 4.75293 51.9422 4.99316 51.866 5.22168H51.7693V3.70996H49.8533V13ZM69.0841 13.1582C69.7111 13.1582 70.2531 13.0732 70.7101 12.9033C71.173 12.7334 71.5539 12.5166 71.8527 12.2529C72.1574 11.9834 72.3888 11.6963 72.547 11.3916C72.7111 11.0869 72.8078 10.7998 72.8371 10.5303H70.9298C70.883 10.7236 70.7775 10.9023 70.6134 11.0664C70.4552 11.2246 70.2443 11.3535 69.9806 11.4531C69.717 11.5469 69.4152 11.5938 69.0754 11.5938C68.3898 11.5938 67.8566 11.374 67.4757 10.9346C67.1007 10.4893 66.9132 9.93555 66.9132 9.27344V8.81641H72.9425V7.72656C72.9425 6.87109 72.7726 6.13281 72.4328 5.51172C72.0929 4.89062 71.6242 4.41016 71.0265 4.07031C70.4347 3.72461 69.7492 3.55176 68.9699 3.55176C68.214 3.55176 67.5343 3.71875 66.9308 4.05273C66.3332 4.38086 65.8586 4.85547 65.507 5.47656C65.1554 6.09766 64.9796 6.84766 64.9796 7.72656V8.9834C64.9796 9.85645 65.1466 10.6064 65.4806 11.2334C65.8146 11.8545 66.2892 12.332 66.9045 12.666C67.5197 12.9941 68.2463 13.1582 69.0841 13.1582ZM66.9132 7.54199C66.9132 7.52441 66.9132 7.50684 66.9132 7.48926C66.9132 7.46582 66.9132 7.44238 66.9132 7.41895C66.9132 6.9502 66.9982 6.54297 67.1681 6.19727C67.338 5.8457 67.5783 5.57324 67.8888 5.37988C68.1994 5.18652 68.5627 5.08984 68.9787 5.08984C69.3947 5.08984 69.755 5.18652 70.0597 5.37988C70.3703 5.57324 70.6105 5.8457 70.7804 6.19727C70.9504 6.54297 71.0353 6.9502 71.0353 7.41895C71.0353 7.44238 71.0353 7.46582 71.0353 7.48926C71.0353 7.50684 71.0353 7.52441 71.0353 7.54199H66.9132ZM79.3417 3.77148H77.9003V5.30078H79.3153V10.3896C79.3153 11.0049 79.3973 11.5117 79.5614 11.9102C79.7255 12.3027 80.0155 12.5928 80.4315 12.7803C80.8534 12.9678 81.4393 13.0615 82.1893 13.0615C82.412 13.0615 82.6552 13.0498 82.9188 13.0264C83.1884 13.0088 83.3612 12.9941 83.4374 12.9824V11.4883C83.3612 11.4941 83.247 11.5029 83.0946 11.5146C82.9481 11.5205 82.8075 11.5234 82.6727 11.5234C82.1513 11.5234 81.7821 11.4355 81.5653 11.2598C81.3544 11.0781 81.2489 10.7354 81.2489 10.2314V5.30078H83.3231V3.77148H81.2489V1.45117H79.3417V3.77148ZM89.0979 3.55176C88.2893 3.55176 87.5715 3.72461 86.9446 4.07031C86.3235 4.41602 85.8372 4.90234 85.4856 5.5293C85.134 6.15625 84.9582 6.89453 84.9582 7.74414V8.94824C84.9582 9.84473 85.134 10.6064 85.4856 11.2334C85.8372 11.8604 86.3205 12.3379 86.9358 12.666C87.5569 12.9941 88.2776 13.1582 89.0979 13.1582C89.9065 13.1582 90.6213 12.9941 91.2424 12.666C91.8635 12.3379 92.3469 11.8604 92.6926 11.2334C93.0442 10.6006 93.22 9.83594 93.22 8.93945V7.73535C93.22 6.86816 93.0442 6.12109 92.6926 5.49414C92.3469 4.86719 91.8635 4.38672 91.2424 4.05273C90.6213 3.71875 89.9065 3.55176 89.0979 3.55176ZM89.1067 5.125C89.5696 5.125 89.9592 5.24512 90.2756 5.48535C90.5979 5.71973 90.8411 6.04199 91.0051 6.45215C91.175 6.85645 91.26 7.31934 91.26 7.84082V8.87793C91.26 9.39941 91.178 9.86523 91.0139 10.2754C90.8557 10.6797 90.6184 10.999 90.302 11.2334C89.9856 11.4678 89.5872 11.585 89.1067 11.585C88.6262 11.585 88.2219 11.4678 87.8938 11.2334C87.5715 10.999 87.3284 10.6797 87.1643 10.2754C87.0061 9.86523 86.927 9.39941 86.927 8.87793V7.84082C86.927 7.31934 87.012 6.85645 87.1819 6.45215C87.3518 6.04199 87.5979 5.71973 87.9202 5.48535C88.2424 5.24512 88.6379 5.125 89.1067 5.125ZM98.6171 9.00098C98.6171 9.85645 98.7783 10.5947 99.1005 11.2158C99.4287 11.8369 99.8916 12.3174 100.489 12.6572C101.087 12.9912 101.799 13.1582 102.625 13.1582C103.457 13.1582 104.145 13.0234 104.69 12.7539C105.241 12.4785 105.654 12.1182 105.93 11.6729C106.211 11.2217 106.36 10.7354 106.378 10.2139H104.532C104.485 10.46 104.394 10.6855 104.26 10.8906C104.131 11.0898 103.937 11.248 103.68 11.3652C103.428 11.4824 103.094 11.541 102.678 11.541C102.021 11.541 101.506 11.3125 101.131 10.8555C100.762 10.3984 100.577 9.78027 100.577 9.00098V7.7002C100.577 6.93262 100.756 6.32031 101.113 5.86328C101.471 5.40625 101.989 5.17773 102.669 5.17773C103.103 5.17773 103.445 5.25391 103.697 5.40625C103.949 5.55859 104.134 5.74609 104.251 5.96875C104.374 6.18555 104.45 6.39355 104.479 6.59277H106.325C106.313 6.05957 106.164 5.56445 105.877 5.10742C105.59 4.64453 105.174 4.26953 104.629 3.98242C104.09 3.69531 103.422 3.55176 102.625 3.55176C101.811 3.55176 101.102 3.72168 100.498 4.06152C99.9004 4.40137 99.4375 4.87891 99.1093 5.49414C98.7812 6.10352 98.6171 6.82422 98.6171 7.65625V9.00098ZM108.417 13H110.36V7.84082C110.36 7.33691 110.445 6.88867 110.615 6.49609C110.784 6.10352 111.034 5.7959 111.362 5.57324C111.69 5.34473 112.085 5.23047 112.548 5.23047C112.923 5.23047 113.251 5.30664 113.533 5.45898C113.814 5.60547 114.034 5.83398 114.192 6.14453C114.356 6.44922 114.438 6.83594 114.438 7.30469V13H116.38V6.7334C116.38 5.67285 116.087 4.88184 115.501 4.36035C114.921 3.83301 114.18 3.56934 113.278 3.56934C112.657 3.56934 112.15 3.6748 111.757 3.88574C111.37 4.09082 111.075 4.33691 110.869 4.62402C110.664 4.90527 110.527 5.15723 110.456 5.37988H110.36V0.370117H108.417V13ZM121.443 13.1406C121.906 13.1406 122.304 13.0791 122.638 12.9561C122.978 12.8271 123.262 12.6602 123.491 12.4551C123.719 12.25 123.901 12.0303 124.036 11.7959H124.124V13H125.978V6.70703C125.978 5.93359 125.814 5.31836 125.486 4.86133C125.158 4.4043 124.718 4.07617 124.168 3.87695C123.617 3.67188 123.01 3.56934 122.348 3.56934C121.768 3.56934 121.258 3.63086 120.819 3.75391C120.385 3.87695 120.019 4.05566 119.72 4.29004C119.427 4.51855 119.199 4.79395 119.035 5.11621C118.877 5.43262 118.783 5.78418 118.754 6.1709H120.608C120.661 5.95996 120.752 5.77832 120.881 5.62598C121.009 5.46777 121.188 5.34473 121.417 5.25684C121.645 5.16309 121.935 5.11621 122.287 5.11621C122.82 5.11621 123.245 5.24512 123.561 5.50293C123.878 5.75488 124.036 6.14746 124.036 6.68066V7.55078H121.689C120.617 7.55078 119.799 7.80566 119.237 8.31543C118.68 8.81934 118.402 9.48145 118.402 10.3018C118.402 11.1689 118.683 11.8604 119.246 12.376C119.814 12.8857 120.547 13.1406 121.443 13.1406ZM122.041 11.6289C121.607 11.6289 121.217 11.5146 120.872 11.2861C120.532 11.0518 120.362 10.6914 120.362 10.2051C120.362 9.8125 120.491 9.49023 120.749 9.23828C121.012 8.98633 121.428 8.86035 121.997 8.86035H124.036V9.8623C124.036 10.2021 123.945 10.5039 123.763 10.7676C123.588 11.0312 123.35 11.2422 123.051 11.4004C122.753 11.5527 122.416 11.6289 122.041 11.6289ZM128.07 9.00098C128.07 9.85645 128.231 10.5947 128.554 11.2158C128.882 11.8369 129.345 12.3174 129.942 12.6572C130.54 12.9912 131.252 13.1582 132.078 13.1582C132.91 13.1582 133.599 13.0234 134.144 12.7539C134.694 12.4785 135.107 12.1182 135.383 11.6729C135.664 11.2217 135.814 10.7354 135.831 10.2139H133.985C133.939 10.46 133.848 10.6855 133.713 10.8906C133.584 11.0898 133.391 11.248 133.133 11.3652C132.881 11.4824 132.547 11.541 132.131 11.541C131.475 11.541 130.959 11.3125 130.584 10.8555C130.215 10.3984 130.03 9.78027 130.03 9.00098V7.7002C130.03 6.93262 130.209 6.32031 130.566 5.86328C130.924 5.40625 131.442 5.17773 132.122 5.17773C132.556 5.17773 132.898 5.25391 133.15 5.40625C133.402 5.55859 133.587 5.74609 133.704 5.96875C133.827 6.18555 133.903 6.39355 133.933 6.59277H135.778C135.767 6.05957 135.617 5.56445 135.33 5.10742C135.043 4.64453 134.627 4.26953 134.082 3.98242C133.543 3.69531 132.875 3.55176 132.078 3.55176C131.264 3.55176 130.555 3.72168 129.951 4.06152C129.354 4.40137 128.891 4.87891 128.563 5.49414C128.234 6.10352 128.07 6.82422 128.07 7.65625V9.00098ZM137.871 13H139.813V7.84082C139.813 7.33691 139.898 6.88867 140.068 6.49609C140.238 6.10352 140.487 5.7959 140.815 5.57324C141.143 5.34473 141.538 5.23047 142.001 5.23047C142.376 5.23047 142.704 5.30664 142.986 5.45898C143.267 5.60547 143.487 5.83398 143.645 6.14453C143.809 6.44922 143.891 6.83594 143.891 7.30469V13H145.833V6.7334C145.833 5.67285 145.54 4.88184 144.954 4.36035C144.374 3.83301 143.633 3.56934 142.731 3.56934C142.11 3.56934 141.603 3.6748 141.21 3.88574C140.824 4.09082 140.528 4.33691 140.323 4.62402C140.118 4.90527 139.98 5.15723 139.91 5.37988H139.813V0.370117H137.871V13ZM150.896 13.1406C151.359 13.1406 151.758 13.0791 152.092 12.9561C152.431 12.8271 152.716 12.6602 152.944 12.4551C153.173 12.25 153.354 12.0303 153.489 11.7959H153.577V13H155.431V6.70703C155.431 5.93359 155.267 5.31836 154.939 4.86133C154.611 4.4043 154.172 4.07617 153.621 3.87695C153.07 3.67188 152.464 3.56934 151.802 3.56934C151.221 3.56934 150.712 3.63086 150.272 3.75391C149.839 3.87695 149.472 4.05566 149.174 4.29004C148.881 4.51855 148.652 4.79395 148.488 5.11621C148.33 5.43262 148.236 5.78418 148.207 6.1709H150.061C150.114 5.95996 150.205 5.77832 150.334 5.62598C150.463 5.46777 150.641 5.34473 150.87 5.25684C151.098 5.16309 151.388 5.11621 151.74 5.11621C152.273 5.11621 152.698 5.24512 153.014 5.50293C153.331 5.75488 153.489 6.14746 153.489 6.68066V7.55078H151.142C150.07 7.55078 149.253 7.80566 148.69 8.31543C148.134 8.81934 147.855 9.48145 147.855 10.3018C147.855 11.1689 148.136 11.8604 148.699 12.376C149.267 12.8857 150 13.1406 150.896 13.1406ZM151.494 11.6289C151.06 11.6289 150.671 11.5146 150.325 11.2861C149.985 11.0518 149.815 10.6914 149.815 10.2051C149.815 9.8125 149.944 9.49023 150.202 9.23828C150.466 8.98633 150.882 8.86035 151.45 8.86035H153.489V9.8623C153.489 10.2021 153.398 10.5039 153.217 10.7676C153.041 11.0312 152.803 11.2422 152.505 11.4004C152.206 11.5527 151.869 11.6289 151.494 11.6289ZM159.932 9.67773L160.688 8.87793L163.597 13H165.9L162.147 7.73535L165.662 3.70996H163.439L160.02 7.73535H159.932V0.370117H157.989V13H159.932V9.67773ZM170.743 3.55176C169.934 3.55176 169.216 3.72461 168.589 4.07031C167.968 4.41602 167.482 4.90234 167.13 5.5293C166.779 6.15625 166.603 6.89453 166.603 7.74414V8.94824C166.603 9.84473 166.779 10.6064 167.13 11.2334C167.482 11.8604 167.965 12.3379 168.581 12.666C169.202 12.9941 169.922 13.1582 170.743 13.1582C171.551 13.1582 172.266 12.9941 172.887 12.666C173.508 12.3379 173.992 11.8604 174.337 11.2334C174.689 10.6006 174.865 9.83594 174.865 8.93945V7.73535C174.865 6.86816 174.689 6.12109 174.337 5.49414C173.992 4.86719 173.508 4.38672 172.887 4.05273C172.266 3.71875 171.551 3.55176 170.743 3.55176ZM170.751 5.125C171.214 5.125 171.604 5.24512 171.92 5.48535C172.243 5.71973 172.486 6.04199 172.65 6.45215C172.82 6.85645 172.905 7.31934 172.905 7.84082V8.87793C172.905 9.39941 172.823 9.86523 172.659 10.2754C172.5 10.6797 172.263 10.999 171.947 11.2334C171.63 11.4678 171.232 11.585 170.751 11.585C170.271 11.585 169.867 11.4678 169.539 11.2334C169.216 10.999 168.973 10.6797 168.809 10.2754C168.651 9.86523 168.572 9.39941 168.572 8.87793V7.84082C168.572 7.31934 168.657 6.85645 168.827 6.45215C168.997 6.04199 169.243 5.71973 169.565 5.48535C169.887 5.24512 170.283 5.125 170.751 5.125ZM176.289 1.00293L176.57 6.24121H178.152L178.433 1.00293H176.289ZM180.13 6.41699C180.13 7.02051 180.268 7.49512 180.543 7.84082C180.819 8.18066 181.191 8.44141 181.659 8.62305C182.128 8.79883 182.644 8.94531 183.206 9.0625C183.622 9.13867 184.006 9.2207 184.358 9.30859C184.709 9.39648 184.99 9.52539 185.201 9.69531C185.412 9.85938 185.518 10.1025 185.518 10.4248C185.518 10.665 185.453 10.8848 185.324 11.084C185.201 11.2832 185.002 11.4414 184.727 11.5586C184.457 11.6758 184.106 11.7344 183.672 11.7344C183.279 11.7344 182.954 11.6846 182.696 11.585C182.439 11.4854 182.242 11.3418 182.108 11.1543C181.973 10.9668 181.888 10.75 181.853 10.5039H179.954C179.954 11.0547 180.101 11.5293 180.394 11.9277C180.693 12.3203 181.114 12.625 181.659 12.8418C182.204 13.0527 182.843 13.1582 183.575 13.1582C184.361 13.1582 185.04 13.0439 185.614 12.8154C186.195 12.5811 186.64 12.2441 186.95 11.8047C187.261 11.3594 187.416 10.8232 187.416 10.1963C187.416 9.61035 187.281 9.14453 187.012 8.79883C186.742 8.45312 186.376 8.18945 185.913 8.00781C185.45 7.82617 184.929 7.68555 184.349 7.58594C184.091 7.54492 183.824 7.49805 183.549 7.44531C183.274 7.39258 183.019 7.32227 182.784 7.23438C182.556 7.14648 182.368 7.02344 182.222 6.86523C182.075 6.70703 182.002 6.49902 182.002 6.24121C182.002 5.84277 182.154 5.53223 182.459 5.30957C182.77 5.08691 183.174 4.97559 183.672 4.97559C184.053 4.97559 184.366 5.03711 184.613 5.16016C184.859 5.2832 185.046 5.43848 185.175 5.62598C185.31 5.81348 185.386 6.00977 185.404 6.21484H187.161C187.161 5.66406 187.015 5.19238 186.722 4.7998C186.435 4.40137 186.033 4.09375 185.518 3.87695C185.008 3.66016 184.41 3.55176 183.725 3.55176C183.098 3.55176 182.509 3.65137 181.958 3.85059C181.413 4.04395 180.971 4.35156 180.631 4.77344C180.297 5.18945 180.13 5.7373 180.13 6.41699ZM197.876 13.1318C198.608 13.1318 199.238 12.9678 199.766 12.6396C200.299 12.3115 200.706 11.8457 200.987 11.2422C201.274 10.6328 201.418 9.90918 201.418 9.07129V7.63867C201.418 6.80078 201.277 6.08008 200.996 5.47656C200.715 4.86719 200.313 4.40137 199.792 4.0791C199.27 3.75098 198.646 3.58691 197.92 3.58691C197.586 3.58691 197.272 3.62207 196.979 3.69238C196.692 3.7627 196.429 3.86816 196.188 4.00879C195.954 4.14941 195.749 4.31934 195.573 4.51855C195.397 4.71777 195.263 4.94043 195.169 5.18652H195.072V3.70996H193.174V16.085H195.125V11.6025H195.222C195.362 11.9307 195.559 12.209 195.81 12.4375C196.062 12.6602 196.364 12.833 196.716 12.9561C197.067 13.0732 197.454 13.1318 197.876 13.1318ZM197.322 11.5322C196.889 11.5322 196.505 11.4326 196.171 11.2334C195.843 11.0342 195.585 10.7529 195.397 10.3896C195.216 10.0264 195.125 9.61035 195.125 9.1416V7.72656C195.125 7.19922 195.213 6.74512 195.389 6.36426C195.564 5.9834 195.813 5.69336 196.136 5.49414C196.458 5.28906 196.842 5.18652 197.287 5.18652C197.744 5.18652 198.134 5.29492 198.456 5.51172C198.778 5.72266 199.021 6.0332 199.185 6.44336C199.355 6.84766 199.44 7.33984 199.44 7.91992V8.81641C199.44 9.39062 199.355 9.87988 199.185 10.2842C199.021 10.6885 198.781 10.999 198.465 11.2158C198.154 11.4268 197.773 11.5322 197.322 11.5322ZM203.642 13H205.593V0.370117H203.642V13ZM210.788 13.1406C211.251 13.1406 211.649 13.0791 211.983 12.9561C212.323 12.8271 212.607 12.6602 212.836 12.4551C213.064 12.25 213.246 12.0303 213.381 11.7959H213.468V13H215.323V6.70703C215.323 5.93359 215.159 5.31836 214.831 4.86133C214.503 4.4043 214.063 4.07617 213.512 3.87695C212.962 3.67188 212.355 3.56934 211.693 3.56934C211.113 3.56934 210.603 3.63086 210.164 3.75391C209.73 3.87695 209.364 4.05566 209.065 4.29004C208.772 4.51855 208.544 4.79395 208.38 5.11621C208.221 5.43262 208.128 5.78418 208.098 6.1709H209.953C210.006 5.95996 210.096 5.77832 210.225 5.62598C210.354 5.46777 210.533 5.34473 210.761 5.25684C210.99 5.16309 211.28 5.11621 211.631 5.11621C212.165 5.11621 212.589 5.24512 212.906 5.50293C213.222 5.75488 213.381 6.14746 213.381 6.68066V7.55078H211.034C209.962 7.55078 209.144 7.80566 208.582 8.31543C208.025 8.81934 207.747 9.48145 207.747 10.3018C207.747 11.1689 208.028 11.8604 208.59 12.376C209.159 12.8857 209.891 13.1406 210.788 13.1406ZM211.385 11.6289C210.952 11.6289 210.562 11.5146 210.216 11.2861C209.877 11.0518 209.707 10.6914 209.707 10.2051C209.707 9.8125 209.836 9.49023 210.093 9.23828C210.357 8.98633 210.773 8.86035 211.341 8.86035H213.381V9.8623C213.381 10.2021 213.29 10.5039 213.108 10.7676C212.932 11.0312 212.695 11.2422 212.396 11.4004C212.097 11.5527 211.76 11.6289 211.385 11.6289ZM217.854 13H219.806V7.84082C219.806 7.33691 219.888 6.88867 220.052 6.49609C220.222 6.10352 220.468 5.7959 220.79 5.57324C221.118 5.34473 221.52 5.23047 221.994 5.23047C222.363 5.23047 222.686 5.30664 222.961 5.45898C223.236 5.60547 223.45 5.83105 223.603 6.13574C223.761 6.43457 223.84 6.82129 223.84 7.2959V13H225.791V6.72461C225.791 5.66406 225.501 4.87305 224.921 4.35156C224.347 3.83008 223.594 3.56934 222.662 3.56934C222.035 3.56934 221.531 3.66895 221.15 3.86816C220.77 4.06738 220.479 4.30762 220.28 4.58887C220.087 4.87012 219.949 5.13379 219.867 5.37988H219.771V3.70996H217.854V13ZM231.988 13.1582C232.615 13.1582 233.157 13.0732 233.614 12.9033C234.077 12.7334 234.457 12.5166 234.756 12.2529C235.061 11.9834 235.292 11.6963 235.451 11.3916C235.615 11.0869 235.711 10.7998 235.741 10.5303H233.833C233.786 10.7236 233.681 10.9023 233.517 11.0664C233.359 11.2246 233.148 11.3535 232.884 11.4531C232.62 11.5469 232.319 11.5938 231.979 11.5938C231.293 11.5938 230.76 11.374 230.379 10.9346C230.004 10.4893 229.817 9.93555 229.817 9.27344V8.81641H235.846V7.72656C235.846 6.87109 235.676 6.13281 235.336 5.51172C234.996 4.89062 234.528 4.41016 233.93 4.07031C233.338 3.72461 232.653 3.55176 231.873 3.55176C231.118 3.55176 230.438 3.71875 229.834 4.05273C229.237 4.38086 228.762 4.85547 228.411 5.47656C228.059 6.09766 227.883 6.84766 227.883 7.72656V8.9834C227.883 9.85645 228.05 10.6064 228.384 11.2334C228.718 11.8545 229.193 12.332 229.808 12.666C230.423 12.9941 231.15 13.1582 231.988 13.1582ZM229.817 7.54199C229.817 7.52441 229.817 7.50684 229.817 7.48926C229.817 7.46582 229.817 7.44238 229.817 7.41895C229.817 6.9502 229.902 6.54297 230.072 6.19727C230.242 5.8457 230.482 5.57324 230.792 5.37988C231.103 5.18652 231.466 5.08984 231.882 5.08984C232.298 5.08984 232.659 5.18652 232.963 5.37988C233.274 5.57324 233.514 5.8457 233.684 6.19727C233.854 6.54297 233.939 6.9502 233.939 7.41895C233.939 7.44238 233.939 7.46582 233.939 7.48926C233.939 7.50684 233.939 7.52441 233.939 7.54199H229.817ZM238.562 3.77148H237.121V5.30078H238.536V10.3896C238.536 11.0049 238.618 11.5117 238.782 11.9102C238.946 12.3027 239.236 12.5928 239.652 12.7803C240.074 12.9678 240.66 13.0615 241.41 13.0615C241.633 13.0615 241.876 13.0498 242.139 13.0264C242.409 13.0088 242.582 12.9941 242.658 12.9824V11.4883C242.582 11.4941 242.467 11.5029 242.315 11.5146C242.169 11.5205 242.028 11.5234 241.893 11.5234C241.372 11.5234 241.003 11.4355 240.786 11.2598C240.575 11.0781 240.469 10.7354 240.469 10.2314V5.30078H242.544V3.77148H240.469V1.45117H238.562V3.77148ZM244.486 11.8047C244.486 12.2031 244.621 12.5312 244.891 12.7891C245.16 13.041 245.488 13.167 245.875 13.167C246.274 13.167 246.607 13.041 246.877 12.7891C247.152 12.5312 247.29 12.2031 247.29 11.8047C247.29 11.3945 247.152 11.0605 246.877 10.8027C246.607 10.5449 246.274 10.416 245.875 10.416C245.488 10.416 245.16 10.5449 244.891 10.8027C244.621 11.0605 244.486 11.3945 244.486 11.8047Z" fill="#917869"/>
</svg>
