<svg width="278" height="123" viewBox="0 0 278 123" fill="none" xmlns="http://www.w3.org/2000/svg">
<path d="M2.268 9V4.758H0.609V3.813H2.268V2.847C2.268 2.385 2.4185 2.0175 2.7195 1.7445C3.0205 1.4715 3.43 1.335 3.948 1.335H5.6385V2.2695H3.948C3.521 2.2695 3.3075 2.4655 3.3075 2.8575V3.813H5.6385V4.758H3.3075V9H2.268ZM9.2254 9.105C8.5464 9.105 8.0039 8.9055 7.5979 8.5065C7.1919 8.1075 6.9889 7.565 6.9889 6.879V3.225H8.0284V6.879C8.0284 7.299 8.1334 7.6245 8.3434 7.8555C8.5604 8.0795 8.8544 8.1915 9.2254 8.1915C9.6034 8.1915 9.9009 8.0795 10.1179 7.8555C10.3349 7.6245 10.4434 7.299 10.4434 6.879V3.225H11.4829V6.879C11.4829 7.565 11.2764 8.1075 10.8634 8.5065C10.4574 8.9055 9.9114 9.105 9.2254 9.105ZM13.0958 9V3.225H14.1248V4.3275H14.1458C14.1948 3.9425 14.3523 3.645 14.6183 3.435C14.8843 3.225 15.2378 3.12 15.6788 3.12C16.2528 3.12 16.7113 3.302 17.0543 3.666C17.3973 4.03 17.5688 4.52 17.5688 5.136V9H16.5293V5.2515C16.5293 4.8595 16.4243 4.5585 16.2143 4.3485C16.0043 4.1315 15.7173 4.023 15.3533 4.023C14.9753 4.023 14.6778 4.1385 14.4608 4.3695C14.2438 4.5935 14.1353 4.9155 14.1353 5.3355V9H13.0958Z" fill="#B973A9"/>
<path d="M27.5356 9.105C26.8286 9.105 26.2616 8.909 25.8346 8.517C25.4076 8.118 25.1941 7.572 25.1941 6.879V5.3355C25.1941 4.6495 25.4076 4.1105 25.8346 3.7185C26.2616 3.3195 26.8286 3.12 27.5356 3.12C28.2146 3.12 28.7606 3.302 29.1736 3.666C29.5866 4.023 29.8036 4.513 29.8246 5.136H28.7956C28.7746 4.786 28.6521 4.5165 28.4281 4.3275C28.2041 4.1315 27.9066 4.0335 27.5356 4.0335C27.1366 4.0335 26.8181 4.149 26.5801 4.38C26.3491 4.604 26.2336 4.9225 26.2336 5.3355V6.879C26.2336 7.299 26.3491 7.621 26.5801 7.845C26.8181 8.069 27.1366 8.181 27.5356 8.181C27.9066 8.181 28.2041 8.0865 28.4281 7.8975C28.6521 7.7085 28.7746 7.439 28.7956 7.089H29.8246C29.8036 7.712 29.5866 8.2055 29.1736 8.5695C28.7606 8.9265 28.2146 9.105 27.5356 9.105ZM31.3535 9V1.335H32.393V3.225L32.3825 4.3275H32.4035C32.4525 3.9425 32.61 3.645 32.876 3.435C33.142 3.225 33.4955 3.12 33.9365 3.12C34.5105 3.12 34.969 3.302 35.312 3.666C35.655 4.03 35.8265 4.52 35.8265 5.136V9H34.787V5.2515C34.787 4.8595 34.682 4.555 34.472 4.338C34.262 4.114 33.975 4.002 33.611 4.002C33.233 4.002 32.9355 4.121 32.7185 4.359C32.5015 4.59 32.393 4.9155 32.393 5.3355V9H31.3535ZM39.1299 9.105C38.5209 9.105 38.0414 8.951 37.6914 8.643C37.3484 8.328 37.1769 7.9045 37.1769 7.3725C37.1769 6.8265 37.3554 6.3995 37.7124 6.0915C38.0764 5.7765 38.5699 5.619 39.1929 5.619H40.8729V5.073C40.8729 4.737 40.7679 4.478 40.5579 4.296C40.3549 4.107 40.0714 4.0125 39.7074 4.0125C39.3784 4.0125 39.1019 4.086 38.8779 4.233C38.6609 4.373 38.5279 4.5585 38.4789 4.7895H37.4604C37.4884 4.4535 37.6039 4.163 37.8069 3.918C38.0099 3.666 38.2759 3.47 38.6049 3.33C38.9339 3.19 39.3049 3.12 39.7179 3.12C40.3899 3.12 40.9219 3.295 41.3139 3.645C41.7129 3.988 41.9124 4.4535 41.9124 5.0415V9H40.8939V7.929H40.8834C40.8344 8.293 40.6524 8.58 40.3374 8.79C40.0224 9 39.6199 9.105 39.1299 9.105ZM39.4134 8.2965C39.8334 8.2965 40.1799 8.1915 40.4529 7.9815C40.7329 7.7645 40.8729 7.488 40.8729 7.152V6.3645H39.2139C38.9059 6.3645 38.6609 6.4485 38.4789 6.6165C38.3039 6.7845 38.2164 7.012 38.2164 7.299C38.2164 7.614 38.3214 7.859 38.5314 8.034C38.7414 8.209 39.0354 8.2965 39.4134 8.2965ZM45.7933 9.105C45.0863 9.105 44.5193 8.909 44.0923 8.517C43.6653 8.118 43.4518 7.572 43.4518 6.879V5.3355C43.4518 4.6495 43.6653 4.1105 44.0923 3.7185C44.5193 3.3195 45.0863 3.12 45.7933 3.12C46.4723 3.12 47.0183 3.302 47.4313 3.666C47.8443 4.023 48.0613 4.513 48.0823 5.136H47.0533C47.0323 4.786 46.9098 4.5165 46.6858 4.3275C46.4618 4.1315 46.1643 4.0335 45.7933 4.0335C45.3943 4.0335 45.0758 4.149 44.8378 4.38C44.6068 4.604 44.4913 4.9225 44.4913 5.3355V6.879C44.4913 7.299 44.6068 7.621 44.8378 7.845C45.0758 8.069 45.3943 8.181 45.7933 8.181C46.1643 8.181 46.4618 8.0865 46.6858 7.8975C46.9098 7.7085 47.0323 7.439 47.0533 7.089H48.0823C48.0613 7.712 47.8443 8.2055 47.4313 8.5695C47.0183 8.9265 46.4723 9.105 45.7933 9.105ZM49.6112 9V1.335H50.6507V3.225L50.6402 4.3275H50.6612C50.7102 3.9425 50.8677 3.645 51.1337 3.435C51.3997 3.225 51.7532 3.12 52.1942 3.12C52.7682 3.12 53.2267 3.302 53.5697 3.666C53.9127 4.03 54.0842 4.52 54.0842 5.136V9H53.0447V5.2515C53.0447 4.8595 52.9397 4.555 52.7297 4.338C52.5197 4.114 52.2327 4.002 51.8687 4.002C51.4907 4.002 51.1932 4.121 50.9762 4.359C50.7592 4.59 50.6507 4.9155 50.6507 5.3355V9H49.6112ZM57.3876 9.105C56.7786 9.105 56.2991 8.951 55.9491 8.643C55.6061 8.328 55.4346 7.9045 55.4346 7.3725C55.4346 6.8265 55.6131 6.3995 55.9701 6.0915C56.3341 5.7765 56.8276 5.619 57.4506 5.619H59.1306V5.073C59.1306 4.737 59.0256 4.478 58.8156 4.296C58.6126 4.107 58.3291 4.0125 57.9651 4.0125C57.6361 4.0125 57.3596 4.086 57.1356 4.233C56.9186 4.373 56.7856 4.5585 56.7366 4.7895H55.7181C55.7461 4.4535 55.8616 4.163 56.0646 3.918C56.2676 3.666 56.5336 3.47 56.8626 3.33C57.1916 3.19 57.5626 3.12 57.9756 3.12C58.6476 3.12 59.1796 3.295 59.5716 3.645C59.9706 3.988 60.1701 4.4535 60.1701 5.0415V9H59.1516V7.929H59.1411C59.0921 8.293 58.9101 8.58 58.5951 8.79C58.2801 9 57.8776 9.105 57.3876 9.105ZM57.6711 8.2965C58.0911 8.2965 58.4376 8.1915 58.7106 7.9815C58.9906 7.7645 59.1306 7.488 59.1306 7.152V6.3645H57.4716C57.1636 6.3645 56.9186 6.4485 56.7366 6.6165C56.5616 6.7845 56.4741 7.012 56.4741 7.299C56.4741 7.614 56.5791 7.859 56.7891 8.034C56.9991 8.209 57.2931 8.2965 57.6711 8.2965ZM61.8145 9V1.335H62.854V5.577H63.925L65.5315 3.225H66.7075L64.8175 5.9865L66.739 9H65.542L63.925 6.4695H62.854V9H61.8145ZM70.0949 9.084C69.3879 9.084 68.8279 8.888 68.4149 8.496C68.0019 8.097 67.7954 7.5545 67.7954 6.8685V5.3565C67.7954 4.6705 68.0019 4.1315 68.4149 3.7395C68.8279 3.3405 69.3879 3.141 70.0949 3.141C70.8019 3.141 71.3619 3.3405 71.7749 3.7395C72.1879 4.1315 72.3944 4.667 72.3944 5.346V6.8685C72.3944 7.5545 72.1879 8.097 71.7749 8.496C71.3619 8.888 70.8019 9.084 70.0949 9.084ZM70.0949 8.1705C70.4869 8.1705 70.7949 8.062 71.0189 7.845C71.2429 7.621 71.3549 7.2955 71.3549 6.8685V5.3565C71.3549 4.9295 71.2429 4.6075 71.0189 4.3905C70.7949 4.1665 70.4869 4.0545 70.0949 4.0545C69.7029 4.0545 69.3949 4.1665 69.1709 4.3905C68.9469 4.6075 68.8349 4.9295 68.8349 5.3565V6.8685C68.8349 7.2955 68.9469 7.621 69.1709 7.845C69.3949 8.062 69.7029 8.1705 70.0949 8.1705Z" fill="#4A6FF2"/>
<path d="M78.1233 10.26C77.1153 10.008 76.3313 9.525 75.7713 8.811C75.2113 8.09 74.9313 7.208 74.9313 6.165V4.275C74.9313 3.596 75.0573 2.98 75.3093 2.427C75.5683 1.867 75.9358 1.3945 76.4118 1.0095C76.8948 0.6245 77.4653 0.348 78.1233 0.18V1.1775C77.6823 1.2825 77.3008 1.4785 76.9788 1.7655C76.6568 2.0455 76.4083 2.4025 76.2333 2.8365C76.0583 3.2635 75.9708 3.743 75.9708 4.275V6.165C75.9708 6.69 76.0583 7.166 76.2333 7.593C76.4083 8.013 76.6568 8.3665 76.9788 8.6535C77.3008 8.9335 77.6823 9.126 78.1233 9.231V10.26ZM80.3242 10.26V9.231C80.7652 9.126 81.1467 8.9335 81.4687 8.6535C81.7907 8.3665 82.0392 8.013 82.2142 7.593C82.3962 7.166 82.4872 6.69 82.4872 6.165V4.275C82.4872 3.743 82.3962 3.2635 82.2142 2.8365C82.0392 2.4025 81.7907 2.0455 81.4687 1.7655C81.1467 1.4785 80.7652 1.2825 80.3242 1.1775V0.18C80.9822 0.348 81.5492 0.6245 82.0252 1.0095C82.5082 1.3945 82.8792 1.867 83.1382 2.427C83.3972 2.98 83.5267 3.596 83.5267 4.275V6.165C83.5267 7.208 83.2432 8.09 82.6762 8.811C82.1162 9.525 81.3322 10.008 80.3242 10.26ZM144.764 10.155C144.141 10.155 143.647 9.9975 143.283 9.6825C142.926 9.3745 142.772 8.9405 142.821 8.3805L142.979 6.69C143.014 6.34 142.961 6.088 142.821 5.934C142.688 5.773 142.412 5.6925 141.992 5.6925H140.753V4.758H141.992C142.412 4.758 142.688 4.6775 142.821 4.5165C142.961 4.3555 143.014 4.1 142.979 3.75L142.821 2.049C142.772 1.496 142.926 1.0655 143.283 0.7575C143.647 0.4425 144.141 0.285 144.764 0.285H145.299V1.2195H144.806C144.491 1.2195 144.249 1.293 144.081 1.44C143.913 1.587 143.84 1.8005 143.861 2.0805L144.018 3.7815C144.053 4.1735 143.973 4.492 143.777 4.737C143.581 4.975 143.304 5.122 142.947 5.178C143.304 5.248 143.581 5.416 143.777 5.682C143.973 5.948 144.053 6.2735 144.018 6.6585L143.861 8.3595C143.84 8.6395 143.913 8.853 144.081 9C144.249 9.147 144.491 9.2205 144.806 9.2205H145.299V10.155H144.764ZM89.9906 52.155C89.3676 52.155 88.8741 51.9975 88.5101 51.6825C88.1531 51.3745 87.9991 50.9405 88.0481 50.3805L88.2056 48.69C88.2406 48.34 88.1881 48.088 88.0481 47.934C87.9151 47.773 87.6386 47.6925 87.2186 47.6925H85.9796V46.758H87.2186C87.6386 46.758 87.9151 46.6775 88.0481 46.5165C88.1881 46.3555 88.2406 46.1 88.2056 45.75L88.0481 44.049C87.9991 43.496 88.1531 43.0655 88.5101 42.7575C88.8741 42.4425 89.3676 42.285 89.9906 42.285H90.5261V43.2195H90.0326C89.7176 43.2195 89.4761 43.293 89.3081 43.44C89.1401 43.587 89.0666 43.8005 89.0876 44.0805L89.2451 45.7815C89.2801 46.1735 89.1996 46.492 89.0036 46.737C88.8076 46.975 88.5311 47.122 88.1741 47.178C88.5311 47.248 88.8076 47.416 89.0036 47.682C89.1996 47.948 89.2801 48.2735 89.2451 48.6585L89.0876 50.3595C89.0666 50.6395 89.1401 50.853 89.3081 51C89.4761 51.147 89.7176 51.2205 90.0326 51.2205H90.5261V52.155H89.9906ZM25.3306 108.155V107.221H25.8136C26.1286 107.221 26.3701 107.147 26.5381 107C26.7061 106.853 26.7796 106.639 26.7586 106.359L26.6011 104.658C26.5661 104.273 26.6466 103.948 26.8426 103.682C27.0386 103.409 27.3151 103.241 27.6721 103.178C27.3151 103.115 27.0386 102.964 26.8426 102.726C26.6466 102.488 26.5661 102.173 26.6011 101.781L26.7586 100.08C26.7796 99.8005 26.7061 99.587 26.5381 99.44C26.3701 99.293 26.1286 99.2195 25.8136 99.2195H25.3306V98.285H25.8661C26.4821 98.285 26.9686 98.4425 27.3256 98.7575C27.6896 99.0655 27.8471 99.496 27.7981 100.049L27.6406 101.75C27.6056 102.1 27.6546 102.355 27.7876 102.516C27.9276 102.677 28.2076 102.758 28.6276 102.758H29.8771V103.692H28.6276C28.2076 103.692 27.9276 103.773 27.7876 103.934C27.6546 104.088 27.6056 104.34 27.6406 104.69L27.7981 106.38C27.8471 106.94 27.6896 107.375 27.3256 107.683C26.9686 107.998 26.4821 108.155 25.8661 108.155H25.3306ZM0.987 122.155V121.221H1.47C1.785 121.221 2.0265 121.147 2.1945 121C2.3625 120.853 2.436 120.639 2.415 120.359L2.2575 118.658C2.2225 118.273 2.303 117.948 2.499 117.682C2.695 117.409 2.9715 117.241 3.3285 117.178C2.9715 117.115 2.695 116.964 2.499 116.726C2.303 116.488 2.2225 116.173 2.2575 115.781L2.415 114.08C2.436 113.8 2.3625 113.587 2.1945 113.44C2.0265 113.293 1.785 113.219 1.47 113.219H0.987V112.285H1.5225C2.1385 112.285 2.625 112.442 2.982 112.757C3.346 113.065 3.5035 113.496 3.4545 114.049L3.297 115.75C3.262 116.1 3.311 116.355 3.444 116.516C3.584 116.677 3.864 116.758 4.284 116.758H5.5335V117.692H4.284C3.864 117.692 3.584 117.773 3.444 117.934C3.311 118.088 3.262 118.34 3.297 118.69L3.4545 120.38C3.5035 120.94 3.346 121.375 2.982 121.683C2.625 121.998 2.1385 122.155 1.5225 122.155H0.987Z" fill="#7490ED"/>
<path d="M92.1705 4.737V3.8025H96.7065V4.737H92.1705ZM92.1705 7.2675V6.333H96.7065V7.2675H92.1705ZM61.741 18.737V17.8025H66.277V18.737H61.741ZM61.741 21.2675V20.333H66.277V21.2675H61.741ZM63.4945 36.013V33.997H61.531V33.0625H63.4945V31.057H64.5235V33.0625H66.4975V33.997H64.5235V36.013H63.4945ZM142.611 64.013V61.997H140.648V61.0625H142.611V59.057H143.64V61.0625H145.614V61.997H143.64V64.013H142.611ZM185.212 64.013V61.997H183.249V61.0625H185.212V59.057H186.241V61.0625H188.215V61.997H186.241V64.013H185.212ZM233.9 64.013V61.997H231.936V61.0625H233.9V59.057H234.929V61.0625H236.903V61.997H234.929V64.013H233.9ZM136.525 78.013V75.997H134.562V75.0625H136.525V73.057H137.554V75.0625H139.528V75.997H137.554V78.013H136.525ZM179.127 78.013V75.997H177.163V75.0625H179.127V73.057H180.156V75.0625H182.13V75.997H180.156V78.013H179.127ZM124.353 92.013V89.997H122.39V89.0625H124.353V87.057H125.382V89.0625H127.356V89.997H125.382V92.013H124.353ZM160.869 92.013V89.997H158.905V89.0625H160.869V87.057H161.898V89.0625H163.872V89.997H161.898V92.013H160.869Z" fill="#D4C8C0"/>
<path d="M106.075 9.105C105.466 9.105 104.986 8.951 104.636 8.643C104.293 8.328 104.122 7.9045 104.122 7.3725C104.122 6.8265 104.3 6.3995 104.657 6.0915C105.021 5.7765 105.515 5.619 106.138 5.619H107.818V5.073C107.818 4.737 107.713 4.478 107.503 4.296C107.3 4.107 107.016 4.0125 106.652 4.0125C106.323 4.0125 106.047 4.086 105.823 4.233C105.606 4.373 105.473 4.5585 105.424 4.7895H104.405C104.433 4.4535 104.549 4.163 104.752 3.918C104.955 3.666 105.221 3.47 105.55 3.33C105.879 3.19 106.25 3.12 106.663 3.12C107.335 3.12 107.867 3.295 108.259 3.645C108.658 3.988 108.857 4.4535 108.857 5.0415V9H107.839V7.929H107.828C107.779 8.293 107.597 8.58 107.282 8.79C106.967 9 106.565 9.105 106.075 9.105ZM106.358 8.2965C106.778 8.2965 107.125 8.1915 107.398 7.9815C107.678 7.7645 107.818 7.488 107.818 7.152V6.3645H106.159C105.851 6.3645 105.606 6.4485 105.424 6.6165C105.249 6.7845 105.161 7.012 105.161 7.299C105.161 7.614 105.266 7.859 105.476 8.034C105.686 8.209 105.98 8.2965 106.358 8.2965ZM113.074 9.105C112.64 9.105 112.283 9 112.003 8.79C111.723 8.573 111.559 8.2755 111.51 7.8975H111.499V9H110.47V1.335H111.51V2.994L111.489 4.3275H111.51C111.566 3.9565 111.734 3.6625 112.014 3.4455C112.294 3.2285 112.647 3.12 113.074 3.12C113.655 3.12 114.121 3.316 114.471 3.708C114.821 4.093 114.996 4.618 114.996 5.283V6.942C114.996 7.614 114.817 8.1425 114.46 8.5275C114.11 8.9125 113.648 9.105 113.074 9.105ZM112.717 8.202C113.102 8.202 113.403 8.09 113.62 7.866C113.844 7.635 113.956 7.306 113.956 6.879V5.3355C113.956 4.9155 113.844 4.5935 113.62 4.3695C113.403 4.1385 113.102 4.023 112.717 4.023C112.346 4.023 112.052 4.1385 111.835 4.3695C111.618 4.6005 111.51 4.9225 111.51 5.3355V6.879C111.51 7.299 111.618 7.6245 111.835 7.8555C112.052 8.0865 112.346 8.202 112.717 8.202ZM118.782 9.084C118.075 9.084 117.515 8.888 117.102 8.496C116.689 8.097 116.483 7.5545 116.483 6.8685V5.3565C116.483 4.6705 116.689 4.1315 117.102 3.7395C117.515 3.3405 118.075 3.141 118.782 3.141C119.489 3.141 120.049 3.3405 120.462 3.7395C120.875 4.1315 121.082 4.667 121.082 5.346V6.8685C121.082 7.5545 120.875 8.097 120.462 8.496C120.049 8.888 119.489 9.084 118.782 9.084ZM118.782 8.1705C119.174 8.1705 119.482 8.062 119.706 7.845C119.93 7.621 120.042 7.2955 120.042 6.8685V5.3565C120.042 4.9295 119.93 4.6075 119.706 4.3905C119.482 4.1665 119.174 4.0545 118.782 4.0545C118.39 4.0545 118.082 4.1665 117.858 4.3905C117.634 4.6075 117.522 4.9295 117.522 5.3565V6.8685C117.522 7.2955 117.634 7.621 117.858 7.845C118.082 8.062 118.39 8.1705 118.782 8.1705ZM124.857 9.105C124.178 9.105 123.636 8.9055 123.23 8.5065C122.824 8.1075 122.621 7.565 122.621 6.879V3.225H123.66V6.879C123.66 7.299 123.765 7.6245 123.975 7.8555C124.192 8.0795 124.486 8.1915 124.857 8.1915C125.235 8.1915 125.533 8.0795 125.75 7.8555C125.967 7.6245 126.075 7.299 126.075 6.879V3.225H127.115V6.879C127.115 7.565 126.908 8.1075 126.495 8.5065C126.089 8.9055 125.543 9.105 124.857 9.105ZM131.584 9C131.087 9 130.691 8.8565 130.397 8.5695C130.11 8.2825 129.967 7.901 129.967 7.425V4.17H128.35V3.225H129.967V1.5975H131.006V3.225H133.285V4.17H131.006V7.4145C131.006 7.6035 131.059 7.7575 131.164 7.8765C131.276 7.9955 131.423 8.055 131.605 8.055H133.18V9H131.584ZM28.3546 51C27.8296 51 27.4096 50.846 27.0946 50.538C26.7796 50.23 26.6221 49.8205 26.6221 49.3095V44.28H24.6481V43.335H27.6616V49.299C27.6616 49.53 27.7246 49.7155 27.8506 49.8555C27.9836 49.9885 28.1621 50.055 28.3861 50.055H30.1396V51H28.3546ZM33.044 51.105C32.435 51.105 31.9555 50.951 31.6055 50.643C31.2625 50.328 31.091 49.9045 31.091 49.3725C31.091 48.8265 31.2695 48.3995 31.6265 48.0915C31.9905 47.7765 32.484 47.619 33.107 47.619H34.787V47.073C34.787 46.737 34.682 46.478 34.472 46.296C34.269 46.107 33.9855 46.0125 33.6215 46.0125C33.2925 46.0125 33.016 46.086 32.792 46.233C32.575 46.373 32.442 46.5585 32.393 46.7895H31.3745C31.4025 46.4535 31.518 46.163 31.721 45.918C31.924 45.666 32.19 45.47 32.519 45.33C32.848 45.19 33.219 45.12 33.632 45.12C34.304 45.12 34.836 45.295 35.228 45.645C35.627 45.988 35.8265 46.4535 35.8265 47.0415V51H34.808V49.929H34.7975C34.7485 50.293 34.5665 50.58 34.2515 50.79C33.9365 51 33.534 51.105 33.044 51.105ZM33.3275 50.2965C33.7475 50.2965 34.094 50.1915 34.367 49.9815C34.647 49.7645 34.787 49.488 34.787 49.152V48.3645H33.128C32.82 48.3645 32.575 48.4485 32.393 48.6165C32.218 48.7845 32.1305 49.012 32.1305 49.299C32.1305 49.614 32.2355 49.859 32.4455 50.034C32.6555 50.209 32.9495 50.2965 33.3275 50.2965ZM37.4394 51V45.225H38.4684V46.3275H38.4894C38.5384 45.9425 38.6959 45.645 38.9619 45.435C39.2279 45.225 39.5814 45.12 40.0224 45.12C40.5964 45.12 41.0549 45.302 41.3979 45.666C41.7409 46.03 41.9124 46.52 41.9124 47.136V51H40.8729V47.2515C40.8729 46.8595 40.7679 46.5585 40.5579 46.3485C40.3479 46.1315 40.0609 46.023 39.6969 46.023C39.3189 46.023 39.0214 46.1385 38.8044 46.3695C38.5874 46.5935 38.4789 46.9155 38.4789 47.3355V51H37.4394ZM44.2708 52.89V51.966H46.0768C46.6508 51.966 46.9378 51.693 46.9378 51.147V50.4855L46.9588 49.4355H46.9378C46.8958 49.8065 46.7383 50.1005 46.4653 50.3175C46.1923 50.5345 45.8388 50.643 45.4048 50.643C44.8098 50.643 44.3408 50.447 43.9978 50.055C43.6548 49.663 43.4833 49.1345 43.4833 48.4695V47.283C43.4833 46.618 43.6548 46.093 43.9978 45.708C44.3408 45.316 44.8098 45.12 45.4048 45.12C45.8388 45.12 46.1923 45.2285 46.4653 45.4455C46.7383 45.6555 46.8958 45.9495 46.9378 46.3275H46.9483L46.9378 45.225H47.9668V51.1575C47.9668 51.6965 47.7988 52.12 47.4628 52.428C47.1268 52.736 46.6648 52.89 46.0768 52.89H44.2708ZM45.7303 49.74C46.1013 49.74 46.3953 49.6245 46.6123 49.3935C46.8293 49.1625 46.9378 48.837 46.9378 48.417V47.3355C46.9378 46.9225 46.8293 46.6005 46.6123 46.3695C46.3953 46.1385 46.1013 46.023 45.7303 46.023C45.3453 46.023 45.0478 46.1385 44.8378 46.3695C44.6278 46.5935 44.5228 46.9155 44.5228 47.3355V48.417C44.5228 48.844 44.6278 49.173 44.8378 49.404C45.0478 49.628 45.3453 49.74 45.7303 49.74ZM51.8267 51.105C51.1477 51.105 50.6052 50.9055 50.1992 50.5065C49.7932 50.1075 49.5902 49.565 49.5902 48.879V45.225H50.6297V48.879C50.6297 49.299 50.7347 49.6245 50.9447 49.8555C51.1617 50.0795 51.4557 50.1915 51.8267 50.1915C52.2047 50.1915 52.5022 50.0795 52.7192 49.8555C52.9362 49.6245 53.0447 49.299 53.0447 48.879V45.225H54.0842V48.879C54.0842 49.565 53.8777 50.1075 53.4647 50.5065C53.0587 50.9055 52.5127 51.105 51.8267 51.105ZM57.3876 51.105C56.7786 51.105 56.2991 50.951 55.9491 50.643C55.6061 50.328 55.4346 49.9045 55.4346 49.3725C55.4346 48.8265 55.6131 48.3995 55.9701 48.0915C56.3341 47.7765 56.8276 47.619 57.4506 47.619H59.1306V47.073C59.1306 46.737 59.0256 46.478 58.8156 46.296C58.6126 46.107 58.3291 46.0125 57.9651 46.0125C57.6361 46.0125 57.3596 46.086 57.1356 46.233C56.9186 46.373 56.7856 46.5585 56.7366 46.7895H55.7181C55.7461 46.4535 55.8616 46.163 56.0646 45.918C56.2676 45.666 56.5336 45.47 56.8626 45.33C57.1916 45.19 57.5626 45.12 57.9756 45.12C58.6476 45.12 59.1796 45.295 59.5716 45.645C59.9706 45.988 60.1701 46.4535 60.1701 47.0415V51H59.1516V49.929H59.1411C59.0921 50.293 58.9101 50.58 58.5951 50.79C58.2801 51 57.8776 51.105 57.3876 51.105ZM57.6711 50.2965C58.0911 50.2965 58.4376 50.1915 58.7106 49.9815C58.9906 49.7645 59.1306 49.488 59.1306 49.152V48.3645H57.4716C57.1636 48.3645 56.9186 48.4485 56.7366 48.6165C56.5616 48.7845 56.4741 49.012 56.4741 49.299C56.4741 49.614 56.5791 49.859 56.7891 50.034C56.9991 50.209 57.2931 50.2965 57.6711 50.2965ZM62.5285 52.89V51.966H64.3345C64.9085 51.966 65.1955 51.693 65.1955 51.147V50.4855L65.2165 49.4355H65.1955C65.1535 49.8065 64.996 50.1005 64.723 50.3175C64.45 50.5345 64.0965 50.643 63.6625 50.643C63.0675 50.643 62.5985 50.447 62.2555 50.055C61.9125 49.663 61.741 49.1345 61.741 48.4695V47.283C61.741 46.618 61.9125 46.093 62.2555 45.708C62.5985 45.316 63.0675 45.12 63.6625 45.12C64.0965 45.12 64.45 45.2285 64.723 45.4455C64.996 45.6555 65.1535 45.9495 65.1955 46.3275H65.206L65.1955 45.225H66.2245V51.1575C66.2245 51.6965 66.0565 52.12 65.7205 52.428C65.3845 52.736 64.9225 52.89 64.3345 52.89H62.5285ZM63.988 49.74C64.359 49.74 64.653 49.6245 64.87 49.3935C65.087 49.1625 65.1955 48.837 65.1955 48.417V47.3355C65.1955 46.9225 65.087 46.6005 64.87 46.3695C64.653 46.1385 64.359 46.023 63.988 46.023C63.603 46.023 63.3055 46.1385 63.0955 46.3695C62.8855 46.5935 62.7805 46.9155 62.7805 47.3355V48.417C62.7805 48.844 62.8855 49.173 63.0955 49.404C63.3055 49.628 63.603 49.74 63.988 49.74ZM70.0949 51.105C69.6329 51.105 69.2269 51.014 68.8769 50.832C68.5339 50.643 68.2679 50.384 68.0789 50.055C67.8899 49.719 67.7954 49.327 67.7954 48.879V47.3355C67.7954 46.8945 67.8899 46.5095 68.0789 46.1805C68.2679 45.8445 68.5339 45.5855 68.8769 45.4035C69.2269 45.2145 69.6329 45.12 70.0949 45.12C70.5569 45.12 70.9594 45.2145 71.3024 45.4035C71.6524 45.5855 71.9219 45.8445 72.1109 46.1805C72.2999 46.5095 72.3944 46.8945 72.3944 47.3355V48.3645H68.8139V48.879C68.8139 49.327 68.9224 49.6665 69.1394 49.8975C69.3634 50.1285 69.6819 50.244 70.0949 50.244C70.4449 50.244 70.7249 50.1845 70.9349 50.0655C71.1449 49.9395 71.2779 49.754 71.3339 49.509H72.3629C72.2929 49.999 72.0479 50.3875 71.6279 50.6745C71.2149 50.9615 70.7039 51.105 70.0949 51.105ZM68.8139 47.3355V47.619H71.3864V47.3355C71.3864 46.8945 71.2744 46.5585 71.0504 46.3275C70.8334 46.0895 70.5149 45.9705 70.0949 45.9705C69.6749 45.9705 69.3564 46.0895 69.1394 46.3275C68.9224 46.5585 68.8139 46.8945 68.8139 47.3355ZM75.9918 51.084C75.3828 51.084 74.8823 50.944 74.4903 50.664C74.1053 50.384 73.9128 50.0025 73.9128 49.5195H74.9733C74.9733 49.7365 75.0678 49.9045 75.2568 50.0235C75.4528 50.1355 75.7048 50.1915 76.0128 50.1915H76.4538C76.8178 50.1915 77.0873 50.1215 77.2623 49.9815C77.4373 49.8345 77.5248 49.642 77.5248 49.404C77.5248 49.166 77.4408 48.9805 77.2728 48.8475C77.1048 48.7145 76.8668 48.62 76.5588 48.564L75.7713 48.4485C74.6233 48.2665 74.0493 47.71 74.0493 46.779C74.0493 46.247 74.2243 45.841 74.5743 45.561C74.9243 45.281 75.4248 45.141 76.0758 45.141H76.4748C77.0768 45.141 77.5598 45.2775 77.9238 45.5505C78.2878 45.8165 78.4698 46.17 78.4698 46.611H77.4093C77.4093 46.436 77.3218 46.296 77.1468 46.191C76.9788 46.086 76.7478 46.0335 76.4538 46.0335H76.0548C75.7328 46.0335 75.4878 46.1 75.3198 46.233C75.1518 46.359 75.0678 46.541 75.0678 46.779C75.0678 47.185 75.3548 47.4335 75.9288 47.5245L76.7163 47.6505C77.3463 47.7485 77.8083 47.934 78.1023 48.207C78.3963 48.473 78.5433 48.858 78.5433 49.362C78.5433 49.901 78.3648 50.3245 78.0078 50.6325C77.6578 50.9335 77.1328 51.084 76.4328 51.084H75.9918Z" fill="#4A6FF2"/>
<path d="M25.2151 23V22.055H27.2416V18.17H25.4251V17.225H28.2811V22.055H30.1816V23H25.2151ZM27.6616 16.2065C27.4236 16.2065 27.2346 16.147 27.0946 16.028C26.9546 15.902 26.8846 15.734 26.8846 15.524C26.8846 15.307 26.9546 15.1355 27.0946 15.0095C27.2346 14.8835 27.4236 14.8205 27.6616 14.8205C27.8996 14.8205 28.0886 14.8835 28.2286 15.0095C28.3686 15.1355 28.4386 15.307 28.4386 15.524C28.4386 15.734 28.3686 15.902 28.2286 16.028C28.0886 16.147 27.8996 16.2065 27.6616 16.2065ZM31.3535 23V17.225H32.3825V18.3275H32.4035C32.4525 17.9425 32.61 17.645 32.876 17.435C33.142 17.225 33.4955 17.12 33.9365 17.12C34.5105 17.12 34.969 17.302 35.312 17.666C35.655 18.03 35.8265 18.52 35.8265 19.136V23H34.787V19.2515C34.787 18.8595 34.682 18.5585 34.472 18.3485C34.262 18.1315 33.975 18.023 33.611 18.023C33.233 18.023 32.9355 18.1385 32.7185 18.3695C32.5015 18.5935 32.393 18.9155 32.393 19.3355V23H31.3535ZM40.2954 23C39.7984 23 39.4029 22.8565 39.1089 22.5695C38.8219 22.2825 38.6784 21.901 38.6784 21.425V18.17H37.0614V17.225H38.6784V15.5975H39.7179V17.225H41.9964V18.17H39.7179V21.4145C39.7179 21.6035 39.7704 21.7575 39.8754 21.8765C39.9874 21.9955 40.1344 22.055 40.3164 22.055H41.8914V23H40.2954ZM43.7038 23V17.225H44.7328V18.3275H44.7538C44.8028 17.9425 44.9603 17.645 45.2263 17.435C45.4993 17.225 45.8563 17.12 46.2973 17.12C46.8923 17.12 47.3683 17.3125 47.7253 17.6975C48.0823 18.0825 48.2608 18.6005 48.2608 19.2515V19.6715H47.2108V19.3355C47.2108 18.9225 47.1023 18.6005 46.8853 18.3695C46.6753 18.1385 46.3638 18.023 45.9508 18.023C45.1458 18.023 44.7433 18.4675 44.7433 19.3565V23H43.7038ZM51.8372 23.084C51.1302 23.084 50.5702 22.888 50.1572 22.496C49.7442 22.097 49.5377 21.5545 49.5377 20.8685V19.3565C49.5377 18.6705 49.7442 18.1315 50.1572 17.7395C50.5702 17.3405 51.1302 17.141 51.8372 17.141C52.5442 17.141 53.1042 17.3405 53.5172 17.7395C53.9302 18.1315 54.1367 18.667 54.1367 19.346V20.8685C54.1367 21.5545 53.9302 22.097 53.5172 22.496C53.1042 22.888 52.5442 23.084 51.8372 23.084ZM51.8372 22.1705C52.2292 22.1705 52.5372 22.062 52.7612 21.845C52.9852 21.621 53.0972 21.2955 53.0972 20.8685V19.3565C53.0972 18.9295 52.9852 18.6075 52.7612 18.3905C52.5372 18.1665 52.2292 18.0545 51.8372 18.0545C51.4452 18.0545 51.1372 18.1665 50.9132 18.3905C50.6892 18.6075 50.5772 18.9295 50.5772 19.3565V20.8685C50.5772 21.2955 50.6892 21.621 50.9132 21.845C51.1372 22.062 51.4452 22.1705 51.8372 22.1705Z" fill="#CF657E"/>
<path d="M74.4304 16.0017L73.7383 19.0574H74.9893L75.4148 16.0017H74.4304ZM76.753 16.0017L76.0608 19.0574H77.3118L77.7373 16.0017H76.753ZM210.053 19.0574L210.745 16.0017H209.494L209.069 19.0574H210.053ZM207.731 19.0574L208.423 16.0017H207.177L206.746 19.0574H207.731ZM74.4304 30.0017L73.7383 33.0574H74.9893L75.4148 30.0017H74.4304ZM76.753 30.0017L76.0608 33.0574H77.3118L77.7373 30.0017H76.753ZM276.998 33.0574L277.69 30.0017H276.439L276.014 33.0574H276.998ZM274.675 33.0574L275.368 30.0017H274.122L273.691 33.0574H274.675Z" fill="#58AF86" fill-opacity="0.6"/>
<path d="M79.5788 23V15.335H80.6183V22.055H84.0308V23H79.5788ZM87.4707 23.084C86.7637 23.084 86.2037 22.888 85.7907 22.496C85.3777 22.097 85.1712 21.5545 85.1712 20.8685V19.3565C85.1712 18.6705 85.3777 18.1315 85.7907 17.7395C86.2037 17.3405 86.7637 17.141 87.4707 17.141C88.1777 17.141 88.7377 17.3405 89.1507 17.7395C89.5637 18.1315 89.7702 18.667 89.7702 19.346V20.8685C89.7702 21.5545 89.5637 22.097 89.1507 22.496C88.7377 22.888 88.1777 23.084 87.4707 23.084ZM87.4707 22.1705C87.8627 22.1705 88.1707 22.062 88.3947 21.845C88.6187 21.621 88.7307 21.2955 88.7307 20.8685V19.3565C88.7307 18.9295 88.6187 18.6075 88.3947 18.3905C88.1707 18.1665 87.8627 18.0545 87.4707 18.0545C87.0787 18.0545 86.7707 18.1665 86.5467 18.3905C86.3227 18.6075 86.2107 18.9295 86.2107 19.3565V20.8685C86.2107 21.2955 86.3227 21.621 86.5467 21.845C86.7707 22.062 87.0787 22.1705 87.4707 22.1705ZM92.8846 23L90.8896 17.225H91.9606L93.2626 21.0155C93.3396 21.2395 93.4026 21.46 93.4516 21.677C93.5076 21.894 93.5496 22.062 93.5776 22.181C93.6126 22.062 93.6546 21.894 93.7036 21.677C93.7526 21.46 93.8156 21.2395 93.8926 21.0155L95.1526 17.225H96.2341L94.2286 23H92.8846ZM99.6425 23.105C99.1805 23.105 98.7745 23.014 98.4245 22.832C98.0815 22.643 97.8155 22.384 97.6265 22.055C97.4375 21.719 97.343 21.327 97.343 20.879V19.3355C97.343 18.8945 97.4375 18.5095 97.6265 18.1805C97.8155 17.8445 98.0815 17.5855 98.4245 17.4035C98.7745 17.2145 99.1805 17.12 99.6425 17.12C100.105 17.12 100.507 17.2145 100.85 17.4035C101.2 17.5855 101.47 17.8445 101.659 18.1805C101.848 18.5095 101.942 18.8945 101.942 19.3355V20.3645H98.3615V20.879C98.3615 21.327 98.47 21.6665 98.687 21.8975C98.911 22.1285 99.2295 22.244 99.6425 22.244C99.9925 22.244 100.273 22.1845 100.483 22.0655C100.693 21.9395 100.826 21.754 100.882 21.509H101.911C101.841 21.999 101.596 22.3875 101.176 22.6745C100.763 22.9615 100.252 23.105 99.6425 23.105ZM98.3615 19.3355V19.619H100.934V19.3355C100.934 18.8945 100.822 18.5585 100.598 18.3275C100.381 18.0895 100.063 17.9705 99.6425 17.9705C99.2225 17.9705 98.904 18.0895 98.687 18.3275C98.47 18.5585 98.3615 18.8945 98.3615 19.3355ZM111.279 23.105C110.67 23.105 110.19 22.951 109.84 22.643C109.497 22.328 109.326 21.9045 109.326 21.3725C109.326 20.8265 109.504 20.3995 109.861 20.0915C110.225 19.7765 110.719 19.619 111.342 19.619H113.022V19.073C113.022 18.737 112.917 18.478 112.707 18.296C112.504 18.107 112.22 18.0125 111.856 18.0125C111.527 18.0125 111.251 18.086 111.027 18.233C110.81 18.373 110.677 18.5585 110.628 18.7895H109.609C109.637 18.4535 109.753 18.163 109.956 17.918C110.159 17.666 110.425 17.47 110.754 17.33C111.083 17.19 111.454 17.12 111.867 17.12C112.539 17.12 113.071 17.295 113.463 17.645C113.862 17.988 114.061 18.4535 114.061 19.0415V23H113.043V21.929H113.032C112.983 22.293 112.801 22.58 112.486 22.79C112.171 23 111.769 23.105 111.279 23.105ZM111.562 22.2965C111.982 22.2965 112.329 22.1915 112.602 21.9815C112.882 21.7645 113.022 21.488 113.022 21.152V20.3645H111.363C111.055 20.3645 110.81 20.4485 110.628 20.6165C110.453 20.7845 110.365 21.012 110.365 21.299C110.365 21.614 110.47 21.859 110.68 22.034C110.89 22.209 111.184 22.2965 111.562 22.2965ZM118.761 23C118.236 23 117.816 22.846 117.501 22.538C117.186 22.23 117.029 21.8205 117.029 21.3095V16.28H115.055V15.335H118.068V21.299C118.068 21.53 118.131 21.7155 118.257 21.8555C118.39 21.9885 118.569 22.055 118.793 22.055H120.546V23H118.761ZM124.847 23C124.322 23 123.902 22.846 123.587 22.538C123.272 22.23 123.115 21.8205 123.115 21.3095V16.28H121.141V15.335H124.154V21.299C124.154 21.53 124.217 21.7155 124.343 21.8555C124.476 21.9885 124.655 22.055 124.879 22.055H126.632V23H124.847ZM136.788 23C136.291 23 135.895 22.8565 135.601 22.5695C135.314 22.2825 135.171 21.901 135.171 21.425V18.17H133.554V17.225H135.171V15.5975H136.21V17.225H138.489V18.17H136.21V21.4145C136.21 21.6035 136.263 21.7575 136.368 21.8765C136.48 21.9955 136.627 22.055 136.809 22.055H138.384V23H136.788ZM140.018 23V15.335H141.057V17.225L141.047 18.3275H141.068C141.117 17.9425 141.274 17.645 141.54 17.435C141.806 17.225 142.16 17.12 142.601 17.12C143.175 17.12 143.633 17.302 143.976 17.666C144.319 18.03 144.491 18.52 144.491 19.136V23H143.451V19.2515C143.451 18.8595 143.346 18.555 143.136 18.338C142.926 18.114 142.639 18.002 142.275 18.002C141.897 18.002 141.6 18.121 141.383 18.359C141.166 18.59 141.057 18.9155 141.057 19.3355V23H140.018ZM146.051 23V22.055H148.078V18.17H146.261V17.225H149.117V22.055H151.018V23H146.051ZM148.498 16.2065C148.26 16.2065 148.071 16.147 147.931 16.028C147.791 15.902 147.721 15.734 147.721 15.524C147.721 15.307 147.791 15.1355 147.931 15.0095C148.071 14.8835 148.26 14.8205 148.498 14.8205C148.736 14.8205 148.925 14.8835 149.065 15.0095C149.205 15.1355 149.275 15.307 149.275 15.524C149.275 15.734 149.205 15.902 149.065 16.028C148.925 16.147 148.736 16.2065 148.498 16.2065ZM152.19 23V17.225H153.219V18.3275H153.24C153.289 17.9425 153.446 17.645 153.712 17.435C153.978 17.225 154.332 17.12 154.773 17.12C155.347 17.12 155.805 17.302 156.148 17.666C156.491 18.03 156.663 18.52 156.663 19.136V23H155.623V19.2515C155.623 18.8595 155.518 18.5585 155.308 18.3485C155.098 18.1315 154.811 18.023 154.447 18.023C154.069 18.023 153.772 18.1385 153.555 18.3695C153.338 18.5935 153.229 18.9155 153.229 19.3355V23H152.19ZM159.021 24.89V23.966H160.827C161.401 23.966 161.688 23.693 161.688 23.147V22.4855L161.709 21.4355H161.688C161.646 21.8065 161.489 22.1005 161.216 22.3175C160.943 22.5345 160.589 22.643 160.155 22.643C159.56 22.643 159.091 22.447 158.748 22.055C158.405 21.663 158.234 21.1345 158.234 20.4695V19.283C158.234 18.618 158.405 18.093 158.748 17.708C159.091 17.316 159.56 17.12 160.155 17.12C160.589 17.12 160.943 17.2285 161.216 17.4455C161.489 17.6555 161.646 17.9495 161.688 18.3275H161.699L161.688 17.225H162.717V23.1575C162.717 23.6965 162.549 24.12 162.213 24.428C161.877 24.736 161.415 24.89 160.827 24.89H159.021ZM160.481 21.74C160.852 21.74 161.146 21.6245 161.363 21.3935C161.58 21.1625 161.688 20.837 161.688 20.417V19.3355C161.688 18.9225 161.58 18.6005 161.363 18.3695C161.146 18.1385 160.852 18.023 160.481 18.023C160.096 18.023 159.798 18.1385 159.588 18.3695C159.378 18.5935 159.273 18.9155 159.273 19.3355V20.417C159.273 20.844 159.378 21.173 159.588 21.404C159.798 21.628 160.096 21.74 160.481 21.74ZM166.398 23.084C165.789 23.084 165.289 22.944 164.897 22.664C164.512 22.384 164.319 22.0025 164.319 21.5195H165.38C165.38 21.7365 165.474 21.9045 165.663 22.0235C165.859 22.1355 166.111 22.1915 166.419 22.1915H166.86C167.224 22.1915 167.494 22.1215 167.669 21.9815C167.844 21.8345 167.931 21.642 167.931 21.404C167.931 21.166 167.847 20.9805 167.679 20.8475C167.511 20.7145 167.273 20.62 166.965 20.564L166.178 20.4485C165.03 20.2665 164.456 19.71 164.456 18.779C164.456 18.247 164.631 17.841 164.981 17.561C165.331 17.281 165.831 17.141 166.482 17.141H166.881C167.483 17.141 167.966 17.2775 168.33 17.5505C168.694 17.8165 168.876 18.17 168.876 18.611H167.816C167.816 18.436 167.728 18.296 167.553 18.191C167.385 18.086 167.154 18.0335 166.86 18.0335H166.461C166.139 18.0335 165.894 18.1 165.726 18.233C165.558 18.359 165.474 18.541 165.474 18.779C165.474 19.185 165.761 19.4335 166.335 19.5245L167.123 19.6505C167.753 19.7485 168.215 19.934 168.509 20.207C168.803 20.473 168.95 20.858 168.95 21.362C168.95 21.901 168.771 22.3245 168.414 22.6325C168.064 22.9335 167.539 23.084 166.839 23.084H166.398ZM178.801 23.105C178.094 23.105 177.527 22.909 177.1 22.517C176.673 22.118 176.46 21.572 176.46 20.879V19.3355C176.46 18.6495 176.673 18.1105 177.1 17.7185C177.527 17.3195 178.094 17.12 178.801 17.12C179.48 17.12 180.026 17.302 180.439 17.666C180.852 18.023 181.069 18.513 181.09 19.136H180.061C180.04 18.786 179.918 18.5165 179.694 18.3275C179.47 18.1315 179.172 18.0335 178.801 18.0335C178.402 18.0335 178.084 18.149 177.846 18.38C177.615 18.604 177.499 18.9225 177.499 19.3355V20.879C177.499 21.299 177.615 21.621 177.846 21.845C178.084 22.069 178.402 22.181 178.801 22.181C179.172 22.181 179.47 22.0865 179.694 21.8975C179.918 21.7085 180.04 21.439 180.061 21.089H181.09C181.069 21.712 180.852 22.2055 180.439 22.5695C180.026 22.9265 179.48 23.105 178.801 23.105ZM184.835 23.105C184.156 23.105 183.613 22.9055 183.207 22.5065C182.801 22.1075 182.598 21.565 182.598 20.879V17.225H183.638V20.879C183.638 21.299 183.743 21.6245 183.953 21.8555C184.17 22.0795 184.464 22.1915 184.835 22.1915C185.213 22.1915 185.51 22.0795 185.727 21.8555C185.944 21.6245 186.053 21.299 186.053 20.879V17.225H187.092V20.879C187.092 21.565 186.886 22.1075 186.473 22.5065C186.067 22.9055 185.521 23.105 184.835 23.105ZM191.561 23C191.064 23 190.669 22.8565 190.375 22.5695C190.088 22.2825 189.944 21.901 189.944 21.425V18.17H188.327V17.225H189.944V15.5975H190.984V17.225H193.262V18.17H190.984V21.4145C190.984 21.6035 191.036 21.7575 191.141 21.8765C191.253 21.9955 191.4 22.055 191.582 22.055H193.157V23H191.561ZM197.017 23.105C196.555 23.105 196.149 23.014 195.799 22.832C195.456 22.643 195.19 22.384 195.001 22.055C194.812 21.719 194.717 21.327 194.717 20.879V19.3355C194.717 18.8945 194.812 18.5095 195.001 18.1805C195.19 17.8445 195.456 17.5855 195.799 17.4035C196.149 17.2145 196.555 17.12 197.017 17.12C197.479 17.12 197.881 17.2145 198.224 17.4035C198.574 17.5855 198.844 17.8445 199.033 18.1805C199.222 18.5095 199.316 18.8945 199.316 19.3355V20.3645H195.736V20.879C195.736 21.327 195.844 21.6665 196.061 21.8975C196.285 22.1285 196.604 22.244 197.017 22.244C197.367 22.244 197.647 22.1845 197.857 22.0655C198.067 21.9395 198.2 21.754 198.256 21.509H199.285C199.215 21.999 198.97 22.3875 198.55 22.6745C198.137 22.9615 197.626 23.105 197.017 23.105ZM195.736 19.3355V19.619H198.308V19.3355C198.308 18.8945 198.196 18.5585 197.972 18.3275C197.755 18.0895 197.437 17.9705 197.017 17.9705C196.597 17.9705 196.278 18.0895 196.061 18.3275C195.844 18.5585 195.736 18.8945 195.736 19.3355ZM202.725 20.69L202.504 16.637V15.335H203.701V16.637L203.481 20.69H202.725ZM202.945 23.0525C202.756 23.0525 202.599 22.993 202.473 22.874C202.354 22.755 202.294 22.5975 202.294 22.4015C202.294 22.2125 202.354 22.0585 202.473 21.9395C202.599 21.8205 202.756 21.761 202.945 21.761H203.26C203.463 21.761 203.621 21.8205 203.733 21.9395C203.852 22.0585 203.911 22.2125 203.911 22.4015C203.911 22.5905 203.848 22.748 203.722 22.874C203.603 22.993 203.449 23.0525 203.26 23.0525H202.945ZM80.8493 37.105C80.2403 37.105 79.7608 36.951 79.4108 36.643C79.0678 36.328 78.8963 35.9045 78.8963 35.3725C78.8963 34.8265 79.0748 34.3995 79.4318 34.0915C79.7958 33.7765 80.2893 33.619 80.9123 33.619H82.5923V33.073C82.5923 32.737 82.4873 32.478 82.2773 32.296C82.0743 32.107 81.7908 32.0125 81.4268 32.0125C81.0978 32.0125 80.8213 32.086 80.5973 32.233C80.3803 32.373 80.2473 32.5585 80.1983 32.7895H79.1798C79.2078 32.4535 79.3233 32.163 79.5263 31.918C79.7293 31.666 79.9953 31.47 80.3243 31.33C80.6533 31.19 81.0243 31.12 81.4373 31.12C82.1093 31.12 82.6413 31.295 83.0333 31.645C83.4323 31.988 83.6318 32.4535 83.6318 33.0415V37H82.6133V35.929H82.6028C82.5538 36.293 82.3718 36.58 82.0568 36.79C81.7418 37 81.3393 37.105 80.8493 37.105ZM81.1328 36.2965C81.5528 36.2965 81.8993 36.1915 82.1723 35.9815C82.4523 35.7645 82.5923 35.488 82.5923 35.152V34.3645H80.9333C80.6253 34.3645 80.3803 34.4485 80.1983 34.6165C80.0233 34.7845 79.9358 35.012 79.9358 35.299C79.9358 35.614 80.0408 35.859 80.2508 36.034C80.4608 36.209 80.7548 36.2965 81.1328 36.2965ZM85.2447 37V31.225H86.2737V32.3275H86.2947C86.3437 31.9425 86.5012 31.645 86.7672 31.435C87.0332 31.225 87.3867 31.12 87.8277 31.12C88.4017 31.12 88.8602 31.302 89.2032 31.666C89.5462 32.03 89.7177 32.52 89.7177 33.136V37H88.6782V33.2515C88.6782 32.8595 88.5732 32.5585 88.3632 32.3485C88.1532 32.1315 87.8662 32.023 87.5022 32.023C87.1242 32.023 86.8267 32.1385 86.6097 32.3695C86.3927 32.5935 86.2842 32.9155 86.2842 33.3355V37H85.2447ZM93.1786 37.105C92.5976 37.105 92.1321 36.9125 91.7821 36.5275C91.4321 36.1355 91.2571 35.607 91.2571 34.942V33.283C91.2571 32.618 91.4321 32.093 91.7821 31.708C92.1321 31.316 92.5976 31.12 93.1786 31.12C93.5986 31.12 93.9451 31.2285 94.2181 31.4455C94.4981 31.6555 94.6731 31.9425 94.7431 32.3065H94.7641L94.7431 30.994V29.335H95.7826V37H94.7536V35.908H94.7431C94.6731 36.286 94.4981 36.58 94.2181 36.79C93.9451 37 93.5986 37.105 93.1786 37.105ZM93.5356 36.202C93.9066 36.202 94.2006 36.0865 94.4176 35.8555C94.6346 35.6245 94.7431 35.299 94.7431 34.879V33.346C94.7431 32.926 94.6346 32.6005 94.4176 32.3695C94.2006 32.1385 93.9066 32.023 93.5356 32.023C93.1506 32.023 92.8461 32.1385 92.6221 32.3695C92.4051 32.5935 92.2966 32.9155 92.2966 33.3355V34.879C92.2966 35.306 92.4051 35.635 92.6221 35.866C92.8461 36.09 93.1506 36.202 93.5356 36.202ZM103.177 37V31.225H104.069V31.939H104.132C104.174 31.694 104.283 31.498 104.458 31.351C104.633 31.197 104.846 31.12 105.098 31.12C105.329 31.12 105.529 31.1935 105.697 31.3405C105.865 31.4875 105.987 31.687 106.064 31.939H106.117C106.159 31.694 106.267 31.498 106.442 31.351C106.624 31.197 106.845 31.12 107.104 31.12C107.447 31.12 107.727 31.26 107.944 31.54C108.168 31.813 108.28 32.17 108.28 32.611V37H107.335V32.6215C107.335 32.1455 107.139 31.9075 106.747 31.9075C106.551 31.9075 106.4 31.9705 106.295 32.0965C106.19 32.2155 106.138 32.3905 106.138 32.6215V37H105.319V32.6215C105.319 32.3975 105.263 32.2225 105.151 32.0965C105.046 31.9705 104.899 31.9075 104.71 31.9075C104.318 31.9075 104.122 32.1455 104.122 32.6215V37H103.177ZM111.279 37.105C110.67 37.105 110.19 36.951 109.84 36.643C109.497 36.328 109.326 35.9045 109.326 35.3725C109.326 34.8265 109.504 34.3995 109.861 34.0915C110.225 33.7765 110.719 33.619 111.342 33.619H113.022V33.073C113.022 32.737 112.917 32.478 112.707 32.296C112.504 32.107 112.22 32.0125 111.856 32.0125C111.527 32.0125 111.251 32.086 111.027 32.233C110.81 32.373 110.677 32.5585 110.628 32.7895H109.609C109.637 32.4535 109.753 32.163 109.956 31.918C110.159 31.666 110.425 31.47 110.754 31.33C111.083 31.19 111.454 31.12 111.867 31.12C112.539 31.12 113.071 31.295 113.463 31.645C113.862 31.988 114.061 32.4535 114.061 33.0415V37H113.043V35.929H113.032C112.983 36.293 112.801 36.58 112.486 36.79C112.171 37 111.769 37.105 111.279 37.105ZM111.562 36.2965C111.982 36.2965 112.329 36.1915 112.602 35.9815C112.882 35.7645 113.022 35.488 113.022 35.152V34.3645H111.363C111.055 34.3645 110.81 34.4485 110.628 34.6165C110.453 34.7845 110.365 35.012 110.365 35.299C110.365 35.614 110.47 35.859 110.68 36.034C110.89 36.209 111.184 36.2965 111.562 36.2965ZM115.706 37V29.335H116.745V33.577H117.816L119.423 31.225H120.599L118.709 33.9865L120.63 37H119.433L117.816 34.4695H116.745V37H115.706ZM123.986 37.105C123.524 37.105 123.118 37.014 122.768 36.832C122.425 36.643 122.159 36.384 121.97 36.055C121.781 35.719 121.687 35.327 121.687 34.879V33.3355C121.687 32.8945 121.781 32.5095 121.97 32.1805C122.159 31.8445 122.425 31.5855 122.768 31.4035C123.118 31.2145 123.524 31.12 123.986 31.12C124.448 31.12 124.851 31.2145 125.194 31.4035C125.544 31.5855 125.813 31.8445 126.002 32.1805C126.191 32.5095 126.286 32.8945 126.286 33.3355V34.3645H122.705V34.879C122.705 35.327 122.814 35.6665 123.031 35.8975C123.255 36.1285 123.573 36.244 123.986 36.244C124.336 36.244 124.616 36.1845 124.826 36.0655C125.036 35.9395 125.169 35.754 125.225 35.509H126.254C126.184 35.999 125.939 36.3875 125.519 36.6745C125.106 36.9615 124.595 37.105 123.986 37.105ZM122.705 33.3355V33.619H125.278V33.3355C125.278 32.8945 125.166 32.5585 124.942 32.3275C124.725 32.0895 124.406 31.9705 123.986 31.9705C123.566 31.9705 123.248 32.0895 123.031 32.3275C122.814 32.5585 122.705 32.8945 122.705 33.3355ZM135.969 37.084C135.36 37.084 134.859 36.944 134.467 36.664C134.082 36.384 133.89 36.0025 133.89 35.5195H134.95C134.95 35.7365 135.045 35.9045 135.234 36.0235C135.43 36.1355 135.682 36.1915 135.99 36.1915H136.431C136.795 36.1915 137.064 36.1215 137.239 35.9815C137.414 35.8345 137.502 35.642 137.502 35.404C137.502 35.166 137.418 34.9805 137.25 34.8475C137.082 34.7145 136.844 34.62 136.536 34.564L135.748 34.4485C134.6 34.2665 134.026 33.71 134.026 32.779C134.026 32.247 134.201 31.841 134.551 31.561C134.901 31.281 135.402 31.141 136.053 31.141H136.452C137.054 31.141 137.537 31.2775 137.901 31.5505C138.265 31.8165 138.447 32.17 138.447 32.611H137.386C137.386 32.436 137.299 32.296 137.124 32.191C136.956 32.086 136.725 32.0335 136.431 32.0335H136.032C135.71 32.0335 135.465 32.1 135.297 32.233C135.129 32.359 135.045 32.541 135.045 32.779C135.045 33.185 135.332 33.4335 135.906 33.5245L136.693 33.6505C137.323 33.7485 137.785 33.934 138.079 34.207C138.373 34.473 138.52 34.858 138.52 35.362C138.52 35.901 138.342 36.3245 137.985 36.6325C137.635 36.9335 137.11 37.084 136.41 37.084H135.969ZM142.244 37.084C141.537 37.084 140.977 36.888 140.564 36.496C140.151 36.097 139.944 35.5545 139.944 34.8685V33.3565C139.944 32.6705 140.151 32.1315 140.564 31.7395C140.977 31.3405 141.537 31.141 142.244 31.141C142.951 31.141 143.511 31.3405 143.924 31.7395C144.337 32.1315 144.543 32.667 144.543 33.346V34.8685C144.543 35.5545 144.337 36.097 143.924 36.496C143.511 36.888 142.951 37.084 142.244 37.084ZM142.244 36.1705C142.636 36.1705 142.944 36.062 143.168 35.845C143.392 35.621 143.504 35.2955 143.504 34.8685V33.3565C143.504 32.9295 143.392 32.6075 143.168 32.3905C142.944 32.1665 142.636 32.0545 142.244 32.0545C141.852 32.0545 141.544 32.1665 141.32 32.3905C141.096 32.6075 140.984 32.9295 140.984 33.3565V34.8685C140.984 35.2955 141.096 35.621 141.32 35.845C141.544 36.062 141.852 36.1705 142.244 36.1705ZM145.778 37V31.225H146.671V31.939H146.734C146.776 31.694 146.884 31.498 147.059 31.351C147.234 31.197 147.448 31.12 147.7 31.12C147.931 31.12 148.13 31.1935 148.298 31.3405C148.466 31.4875 148.589 31.687 148.666 31.939H148.718C148.76 31.694 148.869 31.498 149.044 31.351C149.226 31.197 149.446 31.12 149.705 31.12C150.048 31.12 150.328 31.26 150.545 31.54C150.769 31.813 150.881 32.17 150.881 32.611V37H149.936V32.6215C149.936 32.1455 149.74 31.9075 149.348 31.9075C149.152 31.9075 149.002 31.9705 148.897 32.0965C148.792 32.2155 148.739 32.3905 148.739 32.6215V37H147.92V32.6215C147.92 32.3975 147.864 32.2225 147.752 32.0965C147.647 31.9705 147.5 31.9075 147.311 31.9075C146.919 31.9075 146.723 32.1455 146.723 32.6215V37H145.778ZM154.416 37.105C153.954 37.105 153.548 37.014 153.198 36.832C152.855 36.643 152.589 36.384 152.4 36.055C152.211 35.719 152.116 35.327 152.116 34.879V33.3355C152.116 32.8945 152.211 32.5095 152.4 32.1805C152.589 31.8445 152.855 31.5855 153.198 31.4035C153.548 31.2145 153.954 31.12 154.416 31.12C154.878 31.12 155.28 31.2145 155.623 31.4035C155.973 31.5855 156.243 31.8445 156.432 32.1805C156.621 32.5095 156.715 32.8945 156.715 33.3355V34.3645H153.135V34.879C153.135 35.327 153.243 35.6665 153.46 35.8975C153.684 36.1285 154.003 36.244 154.416 36.244C154.766 36.244 155.046 36.1845 155.256 36.0655C155.466 35.9395 155.599 35.754 155.655 35.509H156.684C156.614 35.999 156.369 36.3875 155.949 36.6745C155.536 36.9615 155.025 37.105 154.416 37.105ZM153.135 33.3355V33.619H155.707V33.3355C155.707 32.8945 155.595 32.5585 155.371 32.3275C155.154 32.0895 154.836 31.9705 154.416 31.9705C153.996 31.9705 153.677 32.0895 153.46 32.3275C153.243 32.5585 153.135 32.8945 153.135 33.3355ZM166.965 37.105C166.531 37.105 166.174 37 165.894 36.79C165.614 36.573 165.45 36.2755 165.401 35.8975H165.39V37H164.361V29.335H165.401V30.994L165.38 32.3275H165.401C165.457 31.9565 165.625 31.6625 165.905 31.4455C166.185 31.2285 166.538 31.12 166.965 31.12C167.546 31.12 168.012 31.316 168.362 31.708C168.712 32.093 168.887 32.618 168.887 33.283V34.942C168.887 35.614 168.708 36.1425 168.351 36.5275C168.001 36.9125 167.539 37.105 166.965 37.105ZM166.608 36.202C166.993 36.202 167.294 36.09 167.511 35.866C167.735 35.635 167.847 35.306 167.847 34.879V33.3355C167.847 32.9155 167.735 32.5935 167.511 32.3695C167.294 32.1385 166.993 32.023 166.608 32.023C166.237 32.023 165.943 32.1385 165.726 32.3695C165.509 32.6005 165.401 32.9225 165.401 33.3355V34.879C165.401 35.299 165.509 35.6245 165.726 35.8555C165.943 36.0865 166.237 36.202 166.608 36.202ZM172.673 37.105C172.211 37.105 171.805 37.014 171.455 36.832C171.112 36.643 170.846 36.384 170.657 36.055C170.468 35.719 170.374 35.327 170.374 34.879V33.3355C170.374 32.8945 170.468 32.5095 170.657 32.1805C170.846 31.8445 171.112 31.5855 171.455 31.4035C171.805 31.2145 172.211 31.12 172.673 31.12C173.135 31.12 173.538 31.2145 173.881 31.4035C174.231 31.5855 174.5 31.8445 174.689 32.1805C174.878 32.5095 174.973 32.8945 174.973 33.3355V34.3645H171.392V34.879C171.392 35.327 171.501 35.6665 171.718 35.8975C171.942 36.1285 172.26 36.244 172.673 36.244C173.023 36.244 173.303 36.1845 173.513 36.0655C173.723 35.9395 173.856 35.754 173.912 35.509H174.941C174.871 35.999 174.626 36.3875 174.206 36.6745C173.793 36.9615 173.282 37.105 172.673 37.105ZM171.392 33.3355V33.619H173.965V33.3355C173.965 32.8945 173.853 32.5585 173.629 32.3275C173.412 32.0895 173.093 31.9705 172.673 31.9705C172.253 31.9705 171.935 32.0895 171.718 32.3275C171.501 32.5585 171.392 32.8945 171.392 33.3355ZM178.224 37.105C177.615 37.105 177.135 36.951 176.785 36.643C176.442 36.328 176.271 35.9045 176.271 35.3725C176.271 34.8265 176.449 34.3995 176.806 34.0915C177.17 33.7765 177.664 33.619 178.287 33.619H179.967V33.073C179.967 32.737 179.862 32.478 179.652 32.296C179.449 32.107 179.165 32.0125 178.801 32.0125C178.472 32.0125 178.196 32.086 177.972 32.233C177.755 32.373 177.622 32.5585 177.573 32.7895H176.554C176.582 32.4535 176.698 32.163 176.901 31.918C177.104 31.666 177.37 31.47 177.699 31.33C178.028 31.19 178.399 31.12 178.812 31.12C179.484 31.12 180.016 31.295 180.408 31.645C180.807 31.988 181.006 32.4535 181.006 33.0415V37H179.988V35.929H179.977C179.928 36.293 179.746 36.58 179.431 36.79C179.116 37 178.714 37.105 178.224 37.105ZM178.507 36.2965C178.927 36.2965 179.274 36.1915 179.547 35.9815C179.827 35.7645 179.967 35.488 179.967 35.152V34.3645H178.308C178 34.3645 177.755 34.4485 177.573 34.6165C177.398 34.7845 177.31 35.012 177.31 35.299C177.31 35.614 177.415 35.859 177.625 36.034C177.835 36.209 178.129 36.2965 178.507 36.2965ZM184.835 37.105C184.156 37.105 183.613 36.9055 183.207 36.5065C182.801 36.1075 182.598 35.565 182.598 34.879V31.225H183.638V34.879C183.638 35.299 183.743 35.6245 183.953 35.8555C184.17 36.0795 184.464 36.1915 184.835 36.1915C185.213 36.1915 185.51 36.0795 185.727 35.8555C185.944 35.6245 186.053 35.299 186.053 34.879V31.225H187.092V34.879C187.092 35.565 186.886 36.1075 186.473 36.5065C186.067 36.9055 185.521 37.105 184.835 37.105ZM191.561 37C191.064 37 190.669 36.8565 190.375 36.5695C190.088 36.2825 189.944 35.901 189.944 35.425V32.17H188.327V31.225H189.944V29.5975H190.984V31.225H193.262V32.17H190.984V35.4145C190.984 35.6035 191.036 35.7575 191.141 35.8765C191.253 35.9955 191.4 36.055 191.582 36.055H193.157V37H191.561ZM194.738 37V36.055H196.765V32.17H194.948V31.225H197.804V36.055H199.705V37H194.738ZM197.185 30.2065C196.947 30.2065 196.758 30.147 196.618 30.028C196.478 29.902 196.408 29.734 196.408 29.524C196.408 29.307 196.478 29.1355 196.618 29.0095C196.758 28.8835 196.947 28.8205 197.185 28.8205C197.423 28.8205 197.612 28.8835 197.752 29.0095C197.892 29.1355 197.962 29.307 197.962 29.524C197.962 29.734 197.892 29.902 197.752 30.028C197.612 30.147 197.423 30.2065 197.185 30.2065ZM202.221 37V32.758H200.562V31.813H202.221V30.847C202.221 30.385 202.371 30.0175 202.672 29.7445C202.973 29.4715 203.383 29.335 203.901 29.335H205.591V30.2695H203.901C203.474 30.2695 203.26 30.4655 203.26 30.8575V31.813H205.591V32.758H203.26V37H202.221ZM209.178 37.105C208.499 37.105 207.957 36.9055 207.551 36.5065C207.145 36.1075 206.942 35.565 206.942 34.879V31.225H207.981V34.879C207.981 35.299 208.086 35.6245 208.296 35.8555C208.513 36.0795 208.807 36.1915 209.178 36.1915C209.556 36.1915 209.854 36.0795 210.071 35.8555C210.288 35.6245 210.396 35.299 210.396 34.879V31.225H211.436V34.879C211.436 35.565 211.229 36.1075 210.816 36.5065C210.41 36.9055 209.864 37.105 209.178 37.105ZM216.136 37C215.611 37 215.191 36.846 214.876 36.538C214.561 36.23 214.403 35.8205 214.403 35.3095V30.28H212.429V29.335H215.443V35.299C215.443 35.53 215.506 35.7155 215.632 35.8555C215.765 35.9885 215.943 36.055 216.167 36.055H217.921V37H216.136ZM227.068 37.105C226.487 37.105 226.022 36.9125 225.672 36.5275C225.322 36.1355 225.147 35.607 225.147 34.942V33.283C225.147 32.618 225.322 32.093 225.672 31.708C226.022 31.316 226.487 31.12 227.068 31.12C227.488 31.12 227.835 31.2285 228.108 31.4455C228.388 31.6555 228.563 31.9425 228.633 32.3065H228.654L228.633 30.994V29.335H229.672V37H228.643V35.908H228.633C228.563 36.286 228.388 36.58 228.108 36.79C227.835 37 227.488 37.105 227.068 37.105ZM227.425 36.202C227.796 36.202 228.09 36.0865 228.307 35.8555C228.524 35.6245 228.633 35.299 228.633 34.879V33.346C228.633 32.926 228.524 32.6005 228.307 32.3695C228.09 32.1385 227.796 32.023 227.425 32.023C227.04 32.023 226.736 32.1385 226.512 32.3695C226.295 32.5935 226.186 32.9155 226.186 33.3355V34.879C226.186 35.306 226.295 35.635 226.512 35.866C226.736 36.09 227.04 36.202 227.425 36.202ZM233.532 37.105C233.07 37.105 232.664 37.014 232.314 36.832C231.971 36.643 231.705 36.384 231.516 36.055C231.327 35.719 231.233 35.327 231.233 34.879V33.3355C231.233 32.8945 231.327 32.5095 231.516 32.1805C231.705 31.8445 231.971 31.5855 232.314 31.4035C232.664 31.2145 233.07 31.12 233.532 31.12C233.994 31.12 234.397 31.2145 234.74 31.4035C235.09 31.5855 235.359 31.8445 235.548 32.1805C235.737 32.5095 235.832 32.8945 235.832 33.3355V34.3645H232.251V34.879C232.251 35.327 232.36 35.6665 232.577 35.8975C232.801 36.1285 233.119 36.244 233.532 36.244C233.882 36.244 234.162 36.1845 234.372 36.0655C234.582 35.9395 234.715 35.754 234.771 35.509H235.8C235.73 35.999 235.485 36.3875 235.065 36.6745C234.652 36.9615 234.141 37.105 233.532 37.105ZM232.251 33.3355V33.619H234.824V33.3355C234.824 32.8945 234.712 32.5585 234.488 32.3275C234.271 32.0895 233.952 31.9705 233.532 31.9705C233.112 31.9705 232.794 32.0895 232.577 32.3275C232.36 32.5585 232.251 32.8945 232.251 33.3355ZM239.429 37.084C238.82 37.084 238.32 36.944 237.928 36.664C237.543 36.384 237.35 36.0025 237.35 35.5195H238.411C238.411 35.7365 238.505 35.9045 238.694 36.0235C238.89 36.1355 239.142 36.1915 239.45 36.1915H239.891C240.255 36.1915 240.525 36.1215 240.7 35.9815C240.875 35.8345 240.962 35.642 240.962 35.404C240.962 35.166 240.878 34.9805 240.71 34.8475C240.542 34.7145 240.304 34.62 239.996 34.564L239.209 34.4485C238.061 34.2665 237.487 33.71 237.487 32.779C237.487 32.247 237.662 31.841 238.012 31.561C238.362 31.281 238.862 31.141 239.513 31.141H239.912C240.514 31.141 240.997 31.2775 241.361 31.5505C241.725 31.8165 241.907 32.17 241.907 32.611H240.847C240.847 32.436 240.759 32.296 240.584 32.191C240.416 32.086 240.185 32.0335 239.891 32.0335H239.492C239.17 32.0335 238.925 32.1 238.757 32.233C238.589 32.359 238.505 32.541 238.505 32.779C238.505 33.185 238.792 33.4335 239.366 33.5245L240.154 33.6505C240.784 33.7485 241.246 33.934 241.54 34.207C241.834 34.473 241.981 34.858 241.981 35.362C241.981 35.901 241.802 36.3245 241.445 36.6325C241.095 36.9335 240.57 37.084 239.87 37.084H239.429ZM243.426 37V36.055H245.452V32.17H243.636V31.225H246.492V36.055H248.392V37H243.426ZM245.872 30.2065C245.634 30.2065 245.445 30.147 245.305 30.028C245.165 29.902 245.095 29.734 245.095 29.524C245.095 29.307 245.165 29.1355 245.305 29.0095C245.445 28.8835 245.634 28.8205 245.872 28.8205C246.11 28.8205 246.299 28.8835 246.439 29.0095C246.579 29.1355 246.649 29.307 246.649 29.524C246.649 29.734 246.579 29.902 246.439 30.028C246.299 30.147 246.11 30.2065 245.872 30.2065ZM250.309 38.89V37.966H252.115C252.689 37.966 252.976 37.693 252.976 37.147V36.4855L252.997 35.4355H252.976C252.934 35.8065 252.777 36.1005 252.504 36.3175C252.231 36.5345 251.877 36.643 251.443 36.643C250.848 36.643 250.379 36.447 250.036 36.055C249.693 35.663 249.522 35.1345 249.522 34.4695V33.283C249.522 32.618 249.693 32.093 250.036 31.708C250.379 31.316 250.848 31.12 251.443 31.12C251.877 31.12 252.231 31.2285 252.504 31.4455C252.777 31.6555 252.934 31.9495 252.976 32.3275H252.987L252.976 31.225H254.005V37.1575C254.005 37.6965 253.837 38.12 253.501 38.428C253.165 38.736 252.703 38.89 252.115 38.89H250.309ZM251.769 35.74C252.14 35.74 252.434 35.6245 252.651 35.3935C252.868 35.1625 252.976 34.837 252.976 34.417V33.3355C252.976 32.9225 252.868 32.6005 252.651 32.3695C252.434 32.1385 252.14 32.023 251.769 32.023C251.384 32.023 251.086 32.1385 250.876 32.3695C250.666 32.5935 250.561 32.9155 250.561 33.3355V34.417C250.561 34.844 250.666 35.173 250.876 35.404C251.086 35.628 251.384 35.74 251.769 35.74ZM255.65 37V31.225H256.679V32.3275H256.7C256.749 31.9425 256.906 31.645 257.172 31.435C257.438 31.225 257.792 31.12 258.233 31.12C258.807 31.12 259.265 31.302 259.608 31.666C259.951 32.03 260.123 32.52 260.123 33.136V37H259.083V33.2515C259.083 32.8595 258.978 32.5585 258.768 32.3485C258.558 32.1315 258.271 32.023 257.907 32.023C257.529 32.023 257.232 32.1385 257.015 32.3695C256.798 32.5935 256.689 32.9155 256.689 33.3355V37H255.65ZM263.773 37.084C263.164 37.084 262.663 36.944 262.271 36.664C261.886 36.384 261.694 36.0025 261.694 35.5195H262.754C262.754 35.7365 262.849 35.9045 263.038 36.0235C263.234 36.1355 263.486 36.1915 263.794 36.1915H264.235C264.599 36.1915 264.868 36.1215 265.043 35.9815C265.218 35.8345 265.306 35.642 265.306 35.404C265.306 35.166 265.222 34.9805 265.054 34.8475C264.886 34.7145 264.648 34.62 264.34 34.564L263.552 34.4485C262.404 34.2665 261.83 33.71 261.83 32.779C261.83 32.247 262.005 31.841 262.355 31.561C262.705 31.281 263.206 31.141 263.857 31.141H264.256C264.858 31.141 265.341 31.2775 265.705 31.5505C266.069 31.8165 266.251 32.17 266.251 32.611H265.19C265.19 32.436 265.103 32.296 264.928 32.191C264.76 32.086 264.529 32.0335 264.235 32.0335H263.836C263.514 32.0335 263.269 32.1 263.101 32.233C262.933 32.359 262.849 32.541 262.849 32.779C262.849 33.185 263.136 33.4335 263.71 33.5245L264.497 33.6505C265.127 33.7485 265.589 33.934 265.883 34.207C266.177 34.473 266.324 34.858 266.324 35.362C266.324 35.901 266.146 36.3245 265.789 36.6325C265.439 36.9335 264.914 37.084 264.214 37.084H263.773ZM270.048 37.105C269.775 37.105 269.554 37.028 269.386 36.874C269.225 36.713 269.145 36.496 269.145 36.223C269.145 35.943 269.225 35.7225 269.386 35.5615C269.554 35.3935 269.775 35.3095 270.048 35.3095C270.321 35.3095 270.538 35.3935 270.699 35.5615C270.867 35.7225 270.951 35.943 270.951 36.223C270.951 36.496 270.867 36.713 270.699 36.874C270.538 37.028 270.321 37.105 270.048 37.105Z" fill="#58AF86"/>
<path d="M51.8267 65.105C51.1477 65.105 50.6052 64.9055 50.1992 64.5065C49.7932 64.1075 49.5902 63.565 49.5902 62.879V59.225H50.6297V62.879C50.6297 63.299 50.7347 63.6245 50.9447 63.8555C51.1617 64.0795 51.4557 64.1915 51.8267 64.1915C52.2047 64.1915 52.5022 64.0795 52.7192 63.8555C52.9362 63.6245 53.0447 63.299 53.0447 62.879V59.225H54.0842V62.879C54.0842 63.565 53.8777 64.1075 53.4647 64.5065C53.0587 64.9055 52.5127 65.105 51.8267 65.105ZM57.7341 65.084C57.1251 65.084 56.6246 64.944 56.2326 64.664C55.8476 64.384 55.6551 64.0025 55.6551 63.5195H56.7156C56.7156 63.7365 56.8101 63.9045 56.9991 64.0235C57.1951 64.1355 57.4471 64.1915 57.7551 64.1915H58.1961C58.5601 64.1915 58.8296 64.1215 59.0046 63.9815C59.1796 63.8345 59.2671 63.642 59.2671 63.404C59.2671 63.166 59.1831 62.9805 59.0151 62.8475C58.8471 62.7145 58.6091 62.62 58.3011 62.564L57.5136 62.4485C56.3656 62.2665 55.7916 61.71 55.7916 60.779C55.7916 60.247 55.9666 59.841 56.3166 59.561C56.6666 59.281 57.1671 59.141 57.8181 59.141H58.2171C58.8191 59.141 59.3021 59.2775 59.6661 59.5505C60.0301 59.8165 60.2121 60.17 60.2121 60.611H59.1516C59.1516 60.436 59.0641 60.296 58.8891 60.191C58.7211 60.086 58.4901 60.0335 58.1961 60.0335H57.7971C57.4751 60.0335 57.2301 60.1 57.0621 60.233C56.8941 60.359 56.8101 60.541 56.8101 60.779C56.8101 61.185 57.0971 61.4335 57.6711 61.5245L58.4586 61.6505C59.0886 61.7485 59.5506 61.934 59.8446 62.207C60.1386 62.473 60.2856 62.858 60.2856 63.362C60.2856 63.901 60.1071 64.3245 59.7501 64.6325C59.4001 64.9335 58.8751 65.084 58.1751 65.084H57.7341ZM61.7305 65V64.055H63.757V60.17H61.9405V59.225H64.7965V64.055H66.697V65H61.7305ZM64.177 58.2065C63.939 58.2065 63.75 58.147 63.61 58.028C63.47 57.902 63.4 57.734 63.4 57.524C63.4 57.307 63.47 57.1355 63.61 57.0095C63.75 56.8835 63.939 56.8205 64.177 56.8205C64.415 56.8205 64.604 56.8835 64.744 57.0095C64.884 57.1355 64.954 57.307 64.954 57.524C64.954 57.734 64.884 57.902 64.744 58.028C64.604 58.147 64.415 58.2065 64.177 58.2065ZM67.8689 65V59.225H68.8979V60.3275H68.9189C68.9679 59.9425 69.1254 59.645 69.3914 59.435C69.6574 59.225 70.0109 59.12 70.4519 59.12C71.0259 59.12 71.4844 59.302 71.8274 59.666C72.1704 60.03 72.3419 60.52 72.3419 61.136V65H71.3024V61.2515C71.3024 60.8595 71.1974 60.5585 70.9874 60.3485C70.7774 60.1315 70.4904 60.023 70.1264 60.023C69.7484 60.023 69.4509 60.1385 69.2339 60.3695C69.0169 60.5935 68.9084 60.9155 68.9084 61.3355V65H67.8689ZM74.7003 66.89V65.966H76.5063C77.0803 65.966 77.3673 65.693 77.3673 65.147V64.4855L77.3883 63.4355H77.3673C77.3253 63.8065 77.1678 64.1005 76.8948 64.3175C76.6218 64.5345 76.2683 64.643 75.8343 64.643C75.2393 64.643 74.7703 64.447 74.4273 64.055C74.0843 63.663 73.9128 63.1345 73.9128 62.4695V61.283C73.9128 60.618 74.0843 60.093 74.4273 59.708C74.7703 59.316 75.2393 59.12 75.8343 59.12C76.2683 59.12 76.6218 59.2285 76.8948 59.4455C77.1678 59.6555 77.3253 59.9495 77.3673 60.3275H77.3778L77.3673 59.225H78.3963V65.1575C78.3963 65.6965 78.2283 66.12 77.8923 66.428C77.5563 66.736 77.0943 66.89 76.5063 66.89H74.7003ZM76.1598 63.74C76.5308 63.74 76.8248 63.6245 77.0418 63.3935C77.2588 63.1625 77.3673 62.837 77.3673 62.417V61.3355C77.3673 60.9225 77.2588 60.6005 77.0418 60.3695C76.8248 60.1385 76.5308 60.023 76.1598 60.023C75.7748 60.023 75.4773 60.1385 75.2673 60.3695C75.0573 60.5935 74.9523 60.9155 74.9523 61.3355V62.417C74.9523 62.844 75.0573 63.173 75.2673 63.404C75.4773 63.628 75.7748 63.74 76.1598 63.74ZM52.6982 79C52.1732 79 51.7532 78.846 51.4382 78.538C51.1232 78.23 50.9657 77.8205 50.9657 77.3095V72.28H48.9917V71.335H52.0052V77.299C52.0052 77.53 52.0682 77.7155 52.1942 77.8555C52.3272 77.9885 52.5057 78.055 52.7297 78.055H54.4832V79H52.6982ZM55.6446 79V78.055H57.6711V74.17H55.8546V73.225H58.7106V78.055H60.6111V79H55.6446ZM58.0911 72.2065C57.8531 72.2065 57.6641 72.147 57.5241 72.028C57.3841 71.902 57.3141 71.734 57.3141 71.524C57.3141 71.307 57.3841 71.1355 57.5241 71.0095C57.6641 70.8835 57.8531 70.8205 58.0911 70.8205C58.3291 70.8205 58.5181 70.8835 58.6581 71.0095C58.7981 71.1355 58.8681 71.307 58.8681 71.524C58.8681 71.734 58.7981 71.902 58.6581 72.028C58.5181 72.147 58.3291 72.2065 58.0911 72.2065ZM61.8145 79V71.335H62.854V75.577H63.925L65.5315 73.225H66.7075L64.8175 75.9865L66.739 79H65.542L63.925 76.4695H62.854V79H61.8145ZM70.0949 79.105C69.6329 79.105 69.2269 79.014 68.8769 78.832C68.5339 78.643 68.2679 78.384 68.0789 78.055C67.8899 77.719 67.7954 77.327 67.7954 76.879V75.3355C67.7954 74.8945 67.8899 74.5095 68.0789 74.1805C68.2679 73.8445 68.5339 73.5855 68.8769 73.4035C69.2269 73.2145 69.6329 73.12 70.0949 73.12C70.5569 73.12 70.9594 73.2145 71.3024 73.4035C71.6524 73.5855 71.9219 73.8445 72.1109 74.1805C72.2999 74.5095 72.3944 74.8945 72.3944 75.3355V76.3645H68.8139V76.879C68.8139 77.327 68.9224 77.6665 69.1394 77.8975C69.3634 78.1285 69.6819 78.244 70.0949 78.244C70.4449 78.244 70.7249 78.1845 70.9349 78.0655C71.1449 77.9395 71.2779 77.754 71.3339 77.509H72.3629C72.2929 77.999 72.0479 78.3875 71.6279 78.6745C71.2149 78.9615 70.7039 79.105 70.0949 79.105ZM68.8139 75.3355V75.619H71.3864V75.3355C71.3864 74.8945 71.2744 74.5585 71.0504 74.3275C70.8334 74.0895 70.5149 73.9705 70.0949 73.9705C69.6749 73.9705 69.3564 74.0895 69.1394 74.3275C68.9224 74.5585 68.8139 74.8945 68.8139 75.3355ZM51.4592 93.105C50.8782 93.105 50.4127 92.9125 50.0627 92.5275C49.7127 92.1355 49.5377 91.607 49.5377 90.942V89.283C49.5377 88.618 49.7127 88.093 50.0627 87.708C50.4127 87.316 50.8782 87.12 51.4592 87.12C51.8792 87.12 52.2257 87.2285 52.4987 87.4455C52.7787 87.6555 52.9537 87.9425 53.0237 88.3065H53.0447L53.0237 86.994V85.335H54.0632V93H53.0342V91.908H53.0237C52.9537 92.286 52.7787 92.58 52.4987 92.79C52.2257 93 51.8792 93.105 51.4592 93.105ZM51.8162 92.202C52.1872 92.202 52.4812 92.0865 52.6982 91.8555C52.9152 91.6245 53.0237 91.299 53.0237 90.879V89.346C53.0237 88.926 52.9152 88.6005 52.6982 88.3695C52.4812 88.1385 52.1872 88.023 51.8162 88.023C51.4312 88.023 51.1267 88.1385 50.9027 88.3695C50.6857 88.5935 50.5772 88.9155 50.5772 89.3355V90.879C50.5772 91.306 50.6857 91.635 50.9027 91.866C51.1267 92.09 51.4312 92.202 51.8162 92.202ZM55.6446 93V92.055H57.6711V88.17H55.8546V87.225H58.7106V92.055H60.6111V93H55.6446ZM58.0911 86.2065C57.8531 86.2065 57.6641 86.147 57.5241 86.028C57.3841 85.902 57.3141 85.734 57.3141 85.524C57.3141 85.307 57.3841 85.1355 57.5241 85.0095C57.6641 84.8835 57.8531 84.8205 58.0911 84.8205C58.3291 84.8205 58.5181 84.8835 58.6581 85.0095C58.7981 85.1355 58.8681 85.307 58.8681 85.524C58.8681 85.734 58.7981 85.902 58.6581 86.028C58.5181 86.147 58.3291 86.2065 58.0911 86.2065ZM63.82 93.084C63.211 93.084 62.7105 92.944 62.3185 92.664C61.9335 92.384 61.741 92.0025 61.741 91.5195H62.8015C62.8015 91.7365 62.896 91.9045 63.085 92.0235C63.281 92.1355 63.533 92.1915 63.841 92.1915H64.282C64.646 92.1915 64.9155 92.1215 65.0905 91.9815C65.2655 91.8345 65.353 91.642 65.353 91.404C65.353 91.166 65.269 90.9805 65.101 90.8475C64.933 90.7145 64.695 90.62 64.387 90.564L63.5995 90.4485C62.4515 90.2665 61.8775 89.71 61.8775 88.779C61.8775 88.247 62.0525 87.841 62.4025 87.561C62.7525 87.281 63.253 87.141 63.904 87.141H64.303C64.905 87.141 65.388 87.2775 65.752 87.5505C66.116 87.8165 66.298 88.17 66.298 88.611H65.2375C65.2375 88.436 65.15 88.296 64.975 88.191C64.807 88.086 64.576 88.0335 64.282 88.0335H63.883C63.561 88.0335 63.316 88.1 63.148 88.233C62.98 88.359 62.896 88.541 62.896 88.779C62.896 89.185 63.183 89.4335 63.757 89.5245L64.5445 89.6505C65.1745 89.7485 65.6365 89.934 65.9305 90.207C66.2245 90.473 66.3715 90.858 66.3715 91.362C66.3715 91.901 66.193 92.3245 65.836 92.6325C65.486 92.9335 64.961 93.084 64.261 93.084H63.82ZM70.9559 93C70.4309 93 70.0109 92.846 69.6959 92.538C69.3809 92.23 69.2234 91.8205 69.2234 91.3095V86.28H67.2494V85.335H70.2629V91.299C70.2629 91.53 70.3259 91.7155 70.4519 91.8555C70.5849 91.9885 70.7634 92.055 70.9874 92.055H72.7409V93H70.9559ZM73.9023 93V92.055H75.9288V88.17H74.1123V87.225H76.9683V92.055H78.8688V93H73.9023ZM76.3488 86.2065C76.1108 86.2065 75.9218 86.147 75.7818 86.028C75.6418 85.902 75.5718 85.734 75.5718 85.524C75.5718 85.307 75.6418 85.1355 75.7818 85.0095C75.9218 84.8835 76.1108 84.8205 76.3488 84.8205C76.5868 84.8205 76.7758 84.8835 76.9158 85.0095C77.0558 85.1355 77.1258 85.307 77.1258 85.524C77.1258 85.734 77.0558 85.902 76.9158 86.028C76.7758 86.147 76.5868 86.2065 76.3488 86.2065ZM80.0722 93V85.335H81.1117V89.577H82.1827L83.7892 87.225H84.9652L83.0752 89.9865L84.9967 93H83.7997L82.1827 90.4695H81.1117V93H80.0722ZM88.3526 93.105C87.8906 93.105 87.4846 93.014 87.1346 92.832C86.7916 92.643 86.5256 92.384 86.3366 92.055C86.1476 91.719 86.0531 91.327 86.0531 90.879V89.3355C86.0531 88.8945 86.1476 88.5095 86.3366 88.1805C86.5256 87.8445 86.7916 87.5855 87.1346 87.4035C87.4846 87.2145 87.8906 87.12 88.3526 87.12C88.8146 87.12 89.2171 87.2145 89.5601 87.4035C89.9101 87.5855 90.1796 87.8445 90.3686 88.1805C90.5576 88.5095 90.6521 88.8945 90.6521 89.3355V90.3645H87.0716V90.879C87.0716 91.327 87.1801 91.6665 87.3971 91.8975C87.6211 92.1285 87.9396 92.244 88.3526 92.244C88.7026 92.244 88.9826 92.1845 89.1926 92.0655C89.4026 91.9395 89.5356 91.754 89.5916 91.509H90.6206C90.5506 91.999 90.3056 92.3875 89.8856 92.6745C89.4726 92.9615 88.9616 93.105 88.3526 93.105ZM87.0716 89.3355V89.619H89.6441V89.3355C89.6441 88.8945 89.5321 88.5585 89.3081 88.3275C89.0911 88.0895 88.7726 87.9705 88.3526 87.9705C87.9326 87.9705 87.6141 88.0895 87.3971 88.3275C87.1801 88.5585 87.0716 88.8945 87.0716 89.3355Z" fill="#DA8A2C"/>
<path d="M86.0846 60.737V59.8025H90.6206V60.737H86.0846ZM86.0846 63.2675V62.333H90.6206V63.2675H86.0846ZM79.9987 74.737V73.8025H84.5347V74.737H79.9987ZM79.9987 77.2675V76.333H84.5347V77.2675H79.9987ZM98.2564 88.737V87.8025H102.792V88.737H98.2564ZM98.2564 91.2675V90.333H102.792V91.2675H98.2564Z" fill="#DA8A2C" fill-opacity="0.6"/>
<path d="M98.2984 65V57.335H99.3379V60.5795H100.409L102.047 57.335H103.181L101.322 61.01L103.275 65H102.099L100.388 61.493H99.3379V65H98.2984ZM106.61 65.084C105.903 65.084 105.343 64.888 104.93 64.496C104.517 64.097 104.311 63.5545 104.311 62.8685V61.3565C104.311 60.6705 104.517 60.1315 104.93 59.7395C105.343 59.3405 105.903 59.141 106.61 59.141C107.317 59.141 107.877 59.3405 108.29 59.7395C108.703 60.1315 108.91 60.667 108.91 61.346V62.8685C108.91 63.5545 108.703 64.097 108.29 64.496C107.877 64.888 107.317 65.084 106.61 65.084ZM106.61 64.1705C107.002 64.1705 107.31 64.062 107.534 63.845C107.758 63.621 107.87 63.2955 107.87 62.8685V61.3565C107.87 60.9295 107.758 60.6075 107.534 60.3905C107.31 60.1665 107.002 60.0545 106.61 60.0545C106.218 60.0545 105.91 60.1665 105.686 60.3905C105.462 60.6075 105.35 60.9295 105.35 61.3565V62.8685C105.35 63.2955 105.462 63.621 105.686 63.845C105.91 64.062 106.218 64.1705 106.61 64.1705ZM113.326 65C112.829 65 112.434 64.8565 112.14 64.5695C111.853 64.2825 111.709 63.901 111.709 63.425V60.17H110.092V59.225H111.709V57.5975H112.749V59.225H115.027V60.17H112.749V63.4145C112.749 63.6035 112.801 63.7575 112.906 63.8765C113.018 63.9955 113.165 64.055 113.347 64.055H114.922V65H113.326ZM119.643 65C119.118 65 118.698 64.846 118.383 64.538C118.068 64.23 117.911 63.8205 117.911 63.3095V58.28H115.937V57.335H118.95V63.299C118.95 63.53 119.013 63.7155 119.139 63.8555C119.272 63.9885 119.451 64.055 119.675 64.055H121.428V65H119.643ZM122.589 65V64.055H124.616V60.17H122.799V59.225H125.655V64.055H127.556V65H122.589ZM125.036 58.2065C124.798 58.2065 124.609 58.147 124.469 58.028C124.329 57.902 124.259 57.734 124.259 57.524C124.259 57.307 124.329 57.1355 124.469 57.0095C124.609 56.8835 124.798 56.8205 125.036 56.8205C125.274 56.8205 125.463 56.8835 125.603 57.0095C125.743 57.1355 125.813 57.307 125.813 57.524C125.813 57.734 125.743 57.902 125.603 58.028C125.463 58.147 125.274 58.2065 125.036 58.2065ZM128.728 65V59.225H129.757V60.3275H129.778C129.827 59.9425 129.984 59.645 130.25 59.435C130.516 59.225 130.87 59.12 131.311 59.12C131.885 59.12 132.343 59.302 132.686 59.666C133.029 60.03 133.201 60.52 133.201 61.136V65H132.161V61.2515C132.161 60.8595 132.056 60.5585 131.846 60.3485C131.636 60.1315 131.349 60.023 130.985 60.023C130.607 60.023 130.31 60.1385 130.093 60.3695C129.876 60.5935 129.767 60.9155 129.767 61.3355V65H128.728Z" fill="#A451E4"/>
<path d="M153.071 65V57.335H155.455C155.924 57.335 156.333 57.4295 156.683 57.6185C157.033 57.8005 157.306 58.0595 157.502 58.3955C157.698 58.7245 157.796 59.113 157.796 59.561C157.796 60.079 157.663 60.5235 157.397 60.8945C157.131 61.2655 156.771 61.5245 156.316 61.6715L157.901 65H156.694L155.266 61.7975H154.111V65H153.071ZM154.111 60.8735H155.455C155.847 60.8735 156.155 60.7545 156.379 60.5165C156.61 60.2785 156.725 59.9635 156.725 59.5715C156.725 59.1725 156.61 58.854 156.379 58.616C156.148 58.378 155.84 58.259 155.455 58.259H154.111V60.8735ZM161.373 65.105C160.694 65.105 160.151 64.9055 159.745 64.5065C159.339 64.1075 159.136 63.565 159.136 62.879V59.225H160.176V62.879C160.176 63.299 160.281 63.6245 160.491 63.8555C160.708 64.0795 161.002 64.1915 161.373 64.1915C161.751 64.1915 162.048 64.0795 162.265 63.8555C162.482 63.6245 162.591 63.299 162.591 62.879V59.225H163.63V62.879C163.63 63.565 163.424 64.1075 163.011 64.5065C162.605 64.9055 162.059 65.105 161.373 65.105ZM167.28 65.084C166.671 65.084 166.171 64.944 165.779 64.664C165.394 64.384 165.201 64.0025 165.201 63.5195H166.262C166.262 63.7365 166.356 63.9045 166.545 64.0235C166.741 64.1355 166.993 64.1915 167.301 64.1915H167.742C168.106 64.1915 168.376 64.1215 168.551 63.9815C168.726 63.8345 168.813 63.642 168.813 63.404C168.813 63.166 168.729 62.9805 168.561 62.8475C168.393 62.7145 168.155 62.62 167.847 62.564L167.06 62.4485C165.912 62.2665 165.338 61.71 165.338 60.779C165.338 60.247 165.513 59.841 165.863 59.561C166.213 59.281 166.713 59.141 167.364 59.141H167.763C168.365 59.141 168.848 59.2775 169.212 59.5505C169.576 59.8165 169.758 60.17 169.758 60.611H168.698C168.698 60.436 168.61 60.296 168.435 60.191C168.267 60.086 168.036 60.0335 167.742 60.0335H167.343C167.021 60.0335 166.776 60.1 166.608 60.233C166.44 60.359 166.356 60.541 166.356 60.779C166.356 61.185 166.643 61.4335 167.217 61.5245L168.005 61.6505C168.635 61.7485 169.097 61.934 169.391 62.207C169.685 62.473 169.832 62.858 169.832 63.362C169.832 63.901 169.653 64.3245 169.296 64.6325C168.946 64.9335 168.421 65.084 167.721 65.084H167.28ZM174.185 65C173.688 65 173.293 64.8565 172.999 64.5695C172.712 64.2825 172.568 63.901 172.568 63.425V60.17H170.951V59.225H172.568V57.5975H173.608V59.225H175.886V60.17H173.608V63.4145C173.608 63.6035 173.66 63.7575 173.765 63.8765C173.877 63.9955 174.024 64.055 174.206 64.055H175.781V65H174.185ZM197.93 65.105C197.433 65.105 196.999 65.0175 196.628 64.8425C196.257 64.6675 195.97 64.4225 195.767 64.1075C195.564 63.7855 195.463 63.4075 195.463 62.9735H196.502C196.502 63.3375 196.632 63.6315 196.891 63.8555C197.157 64.0725 197.507 64.181 197.941 64.181C198.361 64.181 198.693 64.0725 198.938 63.8555C199.183 63.6315 199.306 63.3375 199.306 62.9735C199.306 62.6865 199.229 62.4345 199.075 62.2175C198.921 61.9935 198.711 61.843 198.445 61.766L197.363 61.4405C196.824 61.2795 196.404 61.01 196.103 60.632C195.809 60.254 195.662 59.8095 195.662 59.2985C195.662 58.6685 195.869 58.168 196.282 57.797C196.695 57.419 197.251 57.23 197.951 57.23C198.644 57.23 199.197 57.419 199.61 57.797C200.023 58.168 200.23 58.665 200.23 59.288H199.19C199.19 58.945 199.078 58.6685 198.854 58.4585C198.63 58.2485 198.329 58.1435 197.951 58.1435C197.566 58.1435 197.258 58.2485 197.027 58.4585C196.796 58.6615 196.681 58.9345 196.681 59.2775C196.681 59.5505 196.758 59.785 196.912 59.981C197.073 60.177 197.293 60.317 197.573 60.401L198.686 60.7475C199.197 60.9085 199.6 61.185 199.894 61.577C200.188 61.969 200.335 62.431 200.335 62.963C200.335 63.397 200.233 63.775 200.03 64.097C199.834 64.419 199.558 64.6675 199.201 64.8425C198.844 65.0175 198.42 65.105 197.93 65.105ZM202.074 65L201.16 59.225H202.042L202.599 63.173C202.62 63.341 202.637 63.5265 202.651 63.7295C202.672 63.9255 202.69 64.0865 202.704 64.2125H202.746C202.76 64.0795 202.777 63.915 202.798 63.719C202.826 63.523 202.854 63.341 202.882 63.173L203.491 59.225H204.478L205.087 63.173C205.115 63.348 205.14 63.5335 205.161 63.7295C205.189 63.9185 205.21 64.0795 205.224 64.2125H205.266C205.287 64.0865 205.308 63.9255 205.329 63.7295C205.35 63.5265 205.371 63.341 205.392 63.173L205.969 59.225H206.809L205.854 65H204.741L204.142 61.115C204.114 60.926 204.086 60.73 204.058 60.527C204.03 60.317 204.009 60.149 203.995 60.023H203.953C203.939 60.149 203.918 60.317 203.89 60.527C203.869 60.73 203.845 60.926 203.817 61.115L203.197 65H202.074ZM207.792 65V64.055H209.819V60.17H208.002V59.225H210.858V64.055H212.759V65H207.792ZM210.239 58.2065C210.001 58.2065 209.812 58.147 209.672 58.028C209.532 57.902 209.462 57.734 209.462 57.524C209.462 57.307 209.532 57.1355 209.672 57.0095C209.812 56.8835 210.001 56.8205 210.239 56.8205C210.477 56.8205 210.666 56.8835 210.806 57.0095C210.946 57.1355 211.016 57.307 211.016 57.524C211.016 57.734 210.946 57.902 210.806 58.028C210.666 58.147 210.477 58.2065 210.239 58.2065ZM215.274 65V60.758H213.615V59.813H215.274V58.847C215.274 58.385 215.425 58.0175 215.726 57.7445C216.027 57.4715 216.436 57.335 216.954 57.335H218.645V58.2695H216.954C216.527 58.2695 216.314 58.4655 216.314 58.8575V59.813H218.645V60.758H216.314V65H215.274ZM222.872 65C222.375 65 221.98 64.8565 221.686 64.5695C221.399 64.2825 221.255 63.901 221.255 63.425V60.17H219.638V59.225H221.255V57.5975H222.295V59.225H224.573V60.17H222.295V63.4145C222.295 63.6035 222.347 63.7575 222.452 63.8765C222.564 63.9955 222.711 64.055 222.893 64.055H224.468V65H222.872ZM246.271 65.105C245.522 65.105 244.934 64.8985 244.507 64.4855C244.08 64.0655 243.866 63.495 243.866 62.774H244.906C244.906 63.222 245.025 63.5685 245.263 63.8135C245.508 64.0585 245.844 64.181 246.271 64.181C246.698 64.181 247.03 64.0585 247.268 63.8135C247.513 63.5685 247.636 63.2255 247.636 62.7845V58.28H245.483V57.335H248.675V62.7845C248.675 63.4985 248.458 64.0655 248.024 64.4855C247.597 64.8985 247.013 65.105 246.271 65.105ZM252.136 65.105C251.527 65.105 251.048 64.951 250.698 64.643C250.355 64.328 250.183 63.9045 250.183 63.3725C250.183 62.8265 250.362 62.3995 250.719 62.0915C251.083 61.7765 251.576 61.619 252.199 61.619H253.879V61.073C253.879 60.737 253.774 60.478 253.564 60.296C253.361 60.107 253.078 60.0125 252.714 60.0125C252.385 60.0125 252.108 60.086 251.884 60.233C251.667 60.373 251.534 60.5585 251.485 60.7895H250.467C250.495 60.4535 250.61 60.163 250.813 59.918C251.016 59.666 251.282 59.47 251.611 59.33C251.94 59.19 252.311 59.12 252.724 59.12C253.396 59.12 253.928 59.295 254.32 59.645C254.719 59.988 254.919 60.4535 254.919 61.0415V65H253.9V63.929H253.89C253.841 64.293 253.659 64.58 253.344 64.79C253.029 65 252.626 65.105 252.136 65.105ZM252.42 64.2965C252.84 64.2965 253.186 64.1915 253.459 63.9815C253.739 63.7645 253.879 63.488 253.879 63.152V62.3645H252.22C251.912 62.3645 251.667 62.4485 251.485 62.6165C251.31 62.7845 251.223 63.012 251.223 63.299C251.223 63.614 251.328 63.859 251.538 64.034C251.748 64.209 252.042 64.2965 252.42 64.2965ZM258.086 65L256.091 59.225H257.162L258.464 63.0155C258.541 63.2395 258.604 63.46 258.653 63.677C258.709 63.894 258.751 64.062 258.779 64.181C258.814 64.062 258.856 63.894 258.905 63.677C258.954 63.46 259.017 63.2395 259.094 63.0155L260.354 59.225H261.435L259.43 65H258.086ZM264.308 65.105C263.699 65.105 263.22 64.951 262.87 64.643C262.527 64.328 262.355 63.9045 262.355 63.3725C262.355 62.8265 262.534 62.3995 262.891 62.0915C263.255 61.7765 263.748 61.619 264.371 61.619H266.051V61.073C266.051 60.737 265.946 60.478 265.736 60.296C265.533 60.107 265.25 60.0125 264.886 60.0125C264.557 60.0125 264.28 60.086 264.056 60.233C263.839 60.373 263.706 60.5585 263.657 60.7895H262.639C262.667 60.4535 262.782 60.163 262.985 59.918C263.188 59.666 263.454 59.47 263.783 59.33C264.112 59.19 264.483 59.12 264.896 59.12C265.568 59.12 266.1 59.295 266.492 59.645C266.891 59.988 267.091 60.4535 267.091 61.0415V65H266.072V63.929H266.062C266.013 64.293 265.831 64.58 265.516 64.79C265.201 65 264.798 65.105 264.308 65.105ZM264.592 64.2965C265.012 64.2965 265.358 64.1915 265.631 63.9815C265.911 63.7645 266.051 63.488 266.051 63.152V62.3645H264.392C264.084 62.3645 263.839 62.4485 263.657 62.6165C263.482 62.7845 263.395 63.012 263.395 63.299C263.395 63.614 263.5 63.859 263.71 64.034C263.92 64.209 264.214 64.2965 264.592 64.2965ZM92.2125 79V71.335H93.252V74.5795H94.323L95.961 71.335H97.095L95.2365 75.01L97.1895 79H96.0135L94.302 75.493H93.252V79H92.2125ZM100.524 79.084C99.8174 79.084 99.2574 78.888 98.8444 78.496C98.4314 78.097 98.2249 77.5545 98.2249 76.8685V75.3565C98.2249 74.6705 98.4314 74.1315 98.8444 73.7395C99.2574 73.3405 99.8174 73.141 100.524 73.141C101.231 73.141 101.791 73.3405 102.204 73.7395C102.617 74.1315 102.824 74.667 102.824 75.346V76.8685C102.824 77.5545 102.617 78.097 102.204 78.496C101.791 78.888 101.231 79.084 100.524 79.084ZM100.524 78.1705C100.916 78.1705 101.224 78.062 101.448 77.845C101.672 77.621 101.784 77.2955 101.784 76.8685V75.3565C101.784 74.9295 101.672 74.6075 101.448 74.3905C101.224 74.1665 100.916 74.0545 100.524 74.0545C100.132 74.0545 99.8244 74.1665 99.6004 74.3905C99.3764 74.6075 99.2644 74.9295 99.2644 75.3565V76.8685C99.2644 77.2955 99.3764 77.621 99.6004 77.845C99.8244 78.062 100.132 78.1705 100.524 78.1705ZM107.24 79C106.743 79 106.348 78.8565 106.054 78.5695C105.767 78.2825 105.623 77.901 105.623 77.425V74.17H104.006V73.225H105.623V71.5975H106.663V73.225H108.941V74.17H106.663V77.4145C106.663 77.6035 106.715 77.7575 106.82 77.8765C106.932 77.9955 107.079 78.055 107.261 78.055H108.836V79H107.24ZM113.557 79C113.032 79 112.612 78.846 112.297 78.538C111.982 78.23 111.825 77.8205 111.825 77.3095V72.28H109.851V71.335H112.864V77.299C112.864 77.53 112.927 77.7155 113.053 77.8555C113.186 77.9885 113.365 78.055 113.589 78.055H115.342V79H113.557ZM116.504 79V78.055H118.53V74.17H116.714V73.225H119.57V78.055H121.47V79H116.504ZM118.95 72.2065C118.712 72.2065 118.523 72.147 118.383 72.028C118.243 71.902 118.173 71.734 118.173 71.524C118.173 71.307 118.243 71.1355 118.383 71.0095C118.523 70.8835 118.712 70.8205 118.95 70.8205C119.188 70.8205 119.377 70.8835 119.517 71.0095C119.657 71.1355 119.727 71.307 119.727 71.524C119.727 71.734 119.657 71.902 119.517 72.028C119.377 72.147 119.188 72.2065 118.95 72.2065ZM122.642 79V73.225H123.671V74.3275H123.692C123.741 73.9425 123.898 73.645 124.164 73.435C124.43 73.225 124.784 73.12 125.225 73.12C125.799 73.12 126.257 73.302 126.6 73.666C126.943 74.03 127.115 74.52 127.115 75.136V79H126.075V75.2515C126.075 74.8595 125.97 74.5585 125.76 74.3485C125.55 74.1315 125.263 74.023 124.899 74.023C124.521 74.023 124.224 74.1385 124.007 74.3695C123.79 74.5935 123.681 74.9155 123.681 75.3355V79H122.642ZM146.986 79V71.335H149.369C149.838 71.335 150.248 71.4295 150.598 71.6185C150.948 71.8005 151.221 72.0595 151.417 72.3955C151.613 72.7245 151.711 73.113 151.711 73.561C151.711 74.079 151.578 74.5235 151.312 74.8945C151.046 75.2655 150.685 75.5245 150.23 75.6715L151.816 79H150.608L149.18 75.7975H148.025V79H146.986ZM148.025 74.8735H149.369C149.761 74.8735 150.069 74.7545 150.293 74.5165C150.524 74.2785 150.64 73.9635 150.64 73.5715C150.64 73.1725 150.524 72.854 150.293 72.616C150.062 72.378 149.754 72.259 149.369 72.259H148.025V74.8735ZM155.287 79.105C154.608 79.105 154.065 78.9055 153.659 78.5065C153.253 78.1075 153.05 77.565 153.05 76.879V73.225H154.09V76.879C154.09 77.299 154.195 77.6245 154.405 77.8555C154.622 78.0795 154.916 78.1915 155.287 78.1915C155.665 78.1915 155.962 78.0795 156.179 77.8555C156.396 77.6245 156.505 77.299 156.505 76.879V73.225H157.544V76.879C157.544 77.565 157.338 78.1075 156.925 78.5065C156.519 78.9055 155.973 79.105 155.287 79.105ZM161.194 79.084C160.585 79.084 160.085 78.944 159.693 78.664C159.308 78.384 159.115 78.0025 159.115 77.5195H160.176C160.176 77.7365 160.27 77.9045 160.459 78.0235C160.655 78.1355 160.907 78.1915 161.215 78.1915H161.656C162.02 78.1915 162.29 78.1215 162.465 77.9815C162.64 77.8345 162.727 77.642 162.727 77.404C162.727 77.166 162.643 76.9805 162.475 76.8475C162.307 76.7145 162.069 76.62 161.761 76.564L160.974 76.4485C159.826 76.2665 159.252 75.71 159.252 74.779C159.252 74.247 159.427 73.841 159.777 73.561C160.127 73.281 160.627 73.141 161.278 73.141H161.677C162.279 73.141 162.762 73.2775 163.126 73.5505C163.49 73.8165 163.672 74.17 163.672 74.611H162.612C162.612 74.436 162.524 74.296 162.349 74.191C162.181 74.086 161.95 74.0335 161.656 74.0335H161.257C160.935 74.0335 160.69 74.1 160.522 74.233C160.354 74.359 160.27 74.541 160.27 74.779C160.27 75.185 160.557 75.4335 161.131 75.5245L161.919 75.6505C162.549 75.7485 163.011 75.934 163.305 76.207C163.599 76.473 163.746 76.858 163.746 77.362C163.746 77.901 163.567 78.3245 163.21 78.6325C162.86 78.9335 162.335 79.084 161.635 79.084H161.194ZM168.099 79C167.602 79 167.207 78.8565 166.913 78.5695C166.626 78.2825 166.482 77.901 166.482 77.425V74.17H164.865V73.225H166.482V71.5975H167.522V73.225H169.8V74.17H167.522V77.4145C167.522 77.6035 167.574 77.7575 167.679 77.8765C167.791 77.9955 167.938 78.055 168.12 78.055H169.695V79H168.099ZM191.298 79V72.28H189.219V71.335H194.406V72.28H192.338V79H191.298ZM196.597 80.89L197.437 78.6535L195.221 73.225H196.355L197.699 76.6375C197.748 76.7705 197.797 76.928 197.846 77.11C197.895 77.285 197.934 77.432 197.962 77.551C197.99 77.432 198.028 77.285 198.077 77.11C198.133 76.928 198.186 76.7705 198.235 76.6375L199.484 73.225H200.576L197.678 80.89H196.597ZM201.769 80.89V73.225H202.798V74.3065H202.809C202.879 73.9355 203.05 73.645 203.323 73.435C203.603 73.225 203.957 73.12 204.384 73.12C204.958 73.12 205.42 73.316 205.77 73.708C206.12 74.093 206.295 74.618 206.295 75.283V76.9315C206.295 77.6035 206.12 78.1355 205.77 78.5275C205.427 78.9125 204.965 79.105 204.384 79.105C203.964 79.105 203.614 79 203.334 78.79C203.054 78.573 202.879 78.279 202.809 77.908H202.788L202.809 79.2205V80.89H201.769ZM204.027 78.202C204.412 78.202 204.713 78.09 204.93 77.866C205.147 77.635 205.255 77.306 205.255 76.879V75.3355C205.255 74.9155 205.147 74.5935 204.93 74.3695C204.713 74.1385 204.412 74.023 204.027 74.023C203.649 74.023 203.351 74.1385 203.134 74.3695C202.917 74.6005 202.809 74.926 202.809 75.346V76.879C202.809 77.299 202.917 77.6245 203.134 77.8555C203.351 78.0865 203.649 78.202 204.027 78.202ZM210.071 79.105C209.609 79.105 209.203 79.014 208.853 78.832C208.51 78.643 208.244 78.384 208.055 78.055C207.866 77.719 207.771 77.327 207.771 76.879V75.3355C207.771 74.8945 207.866 74.5095 208.055 74.1805C208.244 73.8445 208.51 73.5855 208.853 73.4035C209.203 73.2145 209.609 73.12 210.071 73.12C210.533 73.12 210.935 73.2145 211.278 73.4035C211.628 73.5855 211.898 73.8445 212.087 74.1805C212.276 74.5095 212.37 74.8945 212.37 75.3355V76.3645H208.79V76.879C208.79 77.327 208.898 77.6665 209.115 77.8975C209.339 78.1285 209.658 78.244 210.071 78.244C210.421 78.244 210.701 78.1845 210.911 78.0655C211.121 77.9395 211.254 77.754 211.31 77.509H212.339C212.269 77.999 212.024 78.3875 211.604 78.6745C211.191 78.9615 210.68 79.105 210.071 79.105ZM208.79 75.3355V75.619H211.362V75.3355C211.362 74.8945 211.25 74.5585 211.026 74.3275C210.809 74.0895 210.491 73.9705 210.071 73.9705C209.651 73.9705 209.332 74.0895 209.115 74.3275C208.898 74.5585 208.79 74.8945 208.79 75.3355ZM216.188 79.105C215.691 79.105 215.257 79.0175 214.886 78.8425C214.515 78.6675 214.228 78.4225 214.025 78.1075C213.822 77.7855 213.72 77.4075 213.72 76.9735H214.76C214.76 77.3375 214.889 77.6315 215.148 77.8555C215.414 78.0725 215.764 78.181 216.198 78.181C216.618 78.181 216.951 78.0725 217.196 77.8555C217.441 77.6315 217.563 77.3375 217.563 76.9735C217.563 76.6865 217.486 76.4345 217.332 76.2175C217.178 75.9935 216.968 75.843 216.702 75.766L215.621 75.4405C215.082 75.2795 214.662 75.01 214.361 74.632C214.067 74.254 213.92 73.8095 213.92 73.2985C213.92 72.6685 214.126 72.168 214.539 71.797C214.952 71.419 215.509 71.23 216.209 71.23C216.902 71.23 217.455 71.419 217.868 71.797C218.281 72.168 218.487 72.665 218.487 73.288H217.448C217.448 72.945 217.336 72.6685 217.112 72.4585C216.888 72.2485 216.587 72.1435 216.209 72.1435C215.824 72.1435 215.516 72.2485 215.285 72.4585C215.054 72.6615 214.938 72.9345 214.938 73.2775C214.938 73.5505 215.015 73.785 215.169 73.981C215.33 74.177 215.551 74.317 215.831 74.401L216.944 74.7475C217.455 74.9085 217.857 75.185 218.151 75.577C218.445 75.969 218.592 76.431 218.592 76.963C218.592 77.397 218.491 77.775 218.288 78.097C218.092 78.419 217.815 78.6675 217.458 78.8425C217.101 79.0175 216.678 79.105 216.188 79.105ZM222.284 79.105C221.577 79.105 221.01 78.909 220.583 78.517C220.156 78.118 219.943 77.572 219.943 76.879V75.3355C219.943 74.6495 220.156 74.1105 220.583 73.7185C221.01 73.3195 221.577 73.12 222.284 73.12C222.963 73.12 223.509 73.302 223.922 73.666C224.335 74.023 224.552 74.513 224.573 75.136H223.544C223.523 74.786 223.401 74.5165 223.177 74.3275C222.953 74.1315 222.655 74.0335 222.284 74.0335C221.885 74.0335 221.567 74.149 221.329 74.38C221.098 74.604 220.982 74.9225 220.982 75.3355V76.879C220.982 77.299 221.098 77.621 221.329 77.845C221.567 78.069 221.885 78.181 222.284 78.181C222.655 78.181 222.953 78.0865 223.177 77.8975C223.401 77.7085 223.523 77.439 223.544 77.089H224.573C224.552 77.712 224.335 78.2055 223.922 78.5695C223.509 78.9265 222.963 79.105 222.284 79.105ZM226.281 79V73.225H227.31V74.3275H227.331C227.38 73.9425 227.537 73.645 227.803 73.435C228.076 73.225 228.433 73.12 228.874 73.12C229.469 73.12 229.945 73.3125 230.302 73.6975C230.659 74.0825 230.838 74.6005 230.838 75.2515V75.6715H229.788V75.3355C229.788 74.9225 229.679 74.6005 229.462 74.3695C229.252 74.1385 228.941 74.023 228.528 74.023C227.723 74.023 227.32 74.4675 227.32 75.3565V79H226.281ZM232.136 79V78.055H234.162V74.17H232.346V73.225H235.202V78.055H237.102V79H232.136ZM234.582 72.2065C234.344 72.2065 234.155 72.147 234.015 72.028C233.875 71.902 233.805 71.734 233.805 71.524C233.805 71.307 233.875 71.1355 234.015 71.0095C234.155 70.8835 234.344 70.8205 234.582 70.8205C234.82 70.8205 235.009 70.8835 235.149 71.0095C235.289 71.1355 235.359 71.307 235.359 71.524C235.359 71.734 235.289 71.902 235.149 72.028C235.009 72.147 234.82 72.2065 234.582 72.2065ZM238.285 80.89V73.225H239.314V74.3065H239.324C239.394 73.9355 239.566 73.645 239.839 73.435C240.119 73.225 240.472 73.12 240.899 73.12C241.473 73.12 241.935 73.316 242.285 73.708C242.635 74.093 242.81 74.618 242.81 75.283V76.9315C242.81 77.6035 242.635 78.1355 242.285 78.5275C241.942 78.9125 241.48 79.105 240.899 79.105C240.479 79.105 240.129 79 239.849 78.79C239.569 78.573 239.394 78.279 239.324 77.908H239.303L239.324 79.2205V80.89H238.285ZM240.542 78.202C240.927 78.202 241.228 78.09 241.445 77.866C241.662 77.635 241.771 77.306 241.771 76.879V75.3355C241.771 74.9155 241.662 74.5935 241.445 74.3695C241.228 74.1385 240.927 74.023 240.542 74.023C240.164 74.023 239.867 74.1385 239.65 74.3695C239.433 74.6005 239.324 74.926 239.324 75.346V76.879C239.324 77.299 239.433 77.6245 239.65 77.8555C239.867 78.0865 240.164 78.202 240.542 78.202ZM247.216 79C246.719 79 246.323 78.8565 246.029 78.5695C245.742 78.2825 245.599 77.901 245.599 77.425V74.17H243.982V73.225H245.599V71.5975H246.638V73.225H248.917V74.17H246.638V77.4145C246.638 77.6035 246.691 77.7575 246.796 77.8765C246.908 77.9955 247.055 78.055 247.237 78.055H248.812V79H247.216ZM112.738 93.105C112.031 93.105 111.468 92.909 111.048 92.517C110.635 92.118 110.428 91.572 110.428 90.879V87.4455C110.428 86.7595 110.635 86.2205 111.048 85.8285C111.468 85.4295 112.031 85.23 112.738 85.23C113.438 85.23 113.995 85.4295 114.408 85.8285C114.828 86.2275 115.038 86.7665 115.038 87.4455H113.998C113.998 87.0325 113.886 86.714 113.662 86.49C113.438 86.266 113.13 86.154 112.738 86.154C112.339 86.154 112.028 86.266 111.804 86.49C111.58 86.714 111.468 87.0325 111.468 87.4455V90.879C111.468 91.299 111.58 91.621 111.804 91.845C112.028 92.069 112.339 92.181 112.738 92.181C113.13 92.181 113.438 92.069 113.662 91.845C113.886 91.621 113.998 91.299 113.998 90.879H115.038C115.038 91.565 114.828 92.1075 114.408 92.5065C113.995 92.9055 113.438 93.105 112.738 93.105ZM137.082 93.105C136.375 93.105 135.811 92.909 135.391 92.517C134.978 92.118 134.772 91.572 134.772 90.879V87.4455C134.772 86.7595 134.978 86.2205 135.391 85.8285C135.811 85.4295 136.375 85.23 137.082 85.23C137.782 85.23 138.338 85.4295 138.751 85.8285C139.171 86.2275 139.381 86.7665 139.381 87.4455H138.342C138.342 87.0325 138.23 86.714 138.006 86.49C137.782 86.266 137.474 86.154 137.082 86.154C136.683 86.154 136.371 86.266 136.147 86.49C135.923 86.714 135.811 87.0325 135.811 87.4455V90.879C135.811 91.299 135.923 91.621 136.147 91.845C136.371 92.069 136.683 92.181 137.082 92.181C137.474 92.181 137.782 92.069 138.006 91.845C138.23 91.621 138.342 91.299 138.342 90.879H139.381C139.381 91.565 139.171 92.1075 138.751 92.5065C138.338 92.9055 137.782 93.105 137.082 93.105ZM140.91 94.89V87.225H141.939V88.3065H141.95C142.02 87.9355 142.191 87.645 142.464 87.435C142.744 87.225 143.098 87.12 143.525 87.12C144.099 87.12 144.561 87.316 144.911 87.708C145.261 88.093 145.436 88.618 145.436 89.283V90.9315C145.436 91.6035 145.261 92.1355 144.911 92.5275C144.568 92.9125 144.106 93.105 143.525 93.105C143.105 93.105 142.755 93 142.475 92.79C142.195 92.573 142.02 92.279 141.95 91.908H141.929L141.95 93.2205V94.89H140.91ZM143.168 92.202C143.553 92.202 143.854 92.09 144.071 91.866C144.288 91.635 144.396 91.306 144.396 90.879V89.3355C144.396 88.9155 144.288 88.5935 144.071 88.3695C143.854 88.1385 143.553 88.023 143.168 88.023C142.79 88.023 142.492 88.1385 142.275 88.3695C142.058 88.6005 141.95 88.926 141.95 89.346V90.879C141.95 91.299 142.058 91.6245 142.275 91.8555C142.492 92.0865 142.79 92.202 143.168 92.202ZM146.996 94.89V87.225H148.025V88.3065H148.036C148.106 87.9355 148.277 87.645 148.55 87.435C148.83 87.225 149.184 87.12 149.611 87.12C150.185 87.12 150.647 87.316 150.997 87.708C151.347 88.093 151.522 88.618 151.522 89.283V90.9315C151.522 91.6035 151.347 92.1355 150.997 92.5275C150.654 92.9125 150.192 93.105 149.611 93.105C149.191 93.105 148.841 93 148.561 92.79C148.281 92.573 148.106 92.279 148.036 91.908H148.015L148.036 93.2205V94.89H146.996ZM149.254 92.202C149.639 92.202 149.94 92.09 150.157 91.866C150.374 91.635 150.482 91.306 150.482 90.879V89.3355C150.482 88.9155 150.374 88.5935 150.157 88.3695C149.94 88.1385 149.639 88.023 149.254 88.023C148.876 88.023 148.578 88.1385 148.361 88.3695C148.144 88.6005 148.036 88.926 148.036 89.346V90.879C148.036 91.299 148.144 91.6245 148.361 91.8555C148.578 92.0865 148.876 92.202 149.254 92.202ZM171.329 93V85.335H173.387C173.884 85.335 174.315 85.433 174.679 85.629C175.05 85.818 175.337 86.0875 175.54 86.4375C175.743 86.7805 175.844 87.1865 175.844 87.6555V90.669C175.844 91.138 175.743 91.5475 175.54 91.8975C175.337 92.2475 175.05 92.5205 174.679 92.7165C174.315 92.9055 173.884 93 173.387 93H171.329ZM172.369 92.076H173.387C173.828 92.076 174.175 91.95 174.427 91.698C174.679 91.446 174.805 91.103 174.805 90.669V87.6555C174.805 87.2215 174.679 86.882 174.427 86.637C174.175 86.385 173.828 86.259 173.387 86.259H172.369V92.076ZM179.106 93.105C178.497 93.105 178.017 92.951 177.667 92.643C177.324 92.328 177.153 91.9045 177.153 91.3725C177.153 90.8265 177.331 90.3995 177.688 90.0915C178.052 89.7765 178.546 89.619 179.169 89.619H180.849V89.073C180.849 88.737 180.744 88.478 180.534 88.296C180.331 88.107 180.047 88.0125 179.683 88.0125C179.354 88.0125 179.078 88.086 178.854 88.233C178.637 88.373 178.504 88.5585 178.455 88.7895H177.436C177.464 88.4535 177.58 88.163 177.783 87.918C177.986 87.666 178.252 87.47 178.581 87.33C178.91 87.19 179.281 87.12 179.694 87.12C180.366 87.12 180.898 87.295 181.29 87.645C181.689 87.988 181.888 88.4535 181.888 89.0415V93H180.87V91.929H180.859C180.81 92.293 180.628 92.58 180.313 92.79C179.998 93 179.596 93.105 179.106 93.105ZM179.389 92.2965C179.809 92.2965 180.156 92.1915 180.429 91.9815C180.709 91.7645 180.849 91.488 180.849 91.152V90.3645H179.19C178.882 90.3645 178.637 90.4485 178.455 90.6165C178.28 90.7845 178.192 91.012 178.192 91.299C178.192 91.614 178.297 91.859 178.507 92.034C178.717 92.209 179.011 92.2965 179.389 92.2965ZM183.679 93V87.225H184.708V88.3275H184.729C184.778 87.9425 184.936 87.645 185.202 87.435C185.475 87.225 185.832 87.12 186.273 87.12C186.868 87.12 187.344 87.3125 187.701 87.6975C188.058 88.0825 188.236 88.6005 188.236 89.2515V89.6715H187.186V89.3355C187.186 88.9225 187.078 88.6005 186.861 88.3695C186.651 88.1385 186.339 88.023 185.926 88.023C185.121 88.023 184.719 88.4675 184.719 89.3565V93H183.679ZM192.443 93C191.946 93 191.55 92.8565 191.256 92.5695C190.969 92.2825 190.826 91.901 190.826 91.425V88.17H189.209V87.225H190.826V85.5975H191.865V87.225H194.144V88.17H191.865V91.4145C191.865 91.6035 191.918 91.7575 192.023 91.8765C192.135 91.9955 192.282 92.055 192.464 92.055H194.039V93H192.443Z" fill="#A451E4"/>
</svg>
