<svg width="172" height="24" viewBox="0 0 172 24" fill="none" xmlns="http://www.w3.org/2000/svg">
<path d="M0.5 9.6C0.5 6.23969 0.5 4.55953 1.15396 3.27606C1.7292 2.14708 2.64708 1.2292 3.77606 0.653961C5.05953 0 6.73969 0 10.1 0H161.9C165.26 0 166.94 0 168.224 0.653961C169.353 1.2292 170.271 2.14708 170.846 3.27606C171.5 4.55953 171.5 6.23968 171.5 9.6V14.4C171.5 17.7603 171.5 19.4405 170.846 20.7239C170.271 21.8529 169.353 22.7708 168.224 23.346C166.94 24 165.26 24 161.9 24H10.1C6.73969 24 5.05953 24 3.77606 23.346C2.64708 22.7708 1.7292 21.8529 1.15396 20.7239C0.5 19.4405 0.5 17.7603 0.5 14.4V9.6Z" fill="#4176BD"/>
<path d="M17.0244 8.47241V10.8686L17.8627 11.3958C17.8929 11.4024 17.9243 11.4024 17.9545 11.3958L21.5587 8.96591C21.556 8.84798 21.5129 8.73455 21.4365 8.64469C21.3601 8.55482 21.2551 8.49398 21.1391 8.47241H17.0244Z" fill="white"/>
<path d="M17.0244 11.7624L17.7887 12.2874C17.8245 12.3092 17.8656 12.3208 17.9075 12.3208C17.9494 12.3208 17.9905 12.3092 18.0262 12.2874C17.895 12.3666 21.5582 9.93457 21.5582 9.93457V14.3384C21.5677 14.4277 21.5577 14.5179 21.5287 14.6029C21.4997 14.6878 21.4525 14.7654 21.3905 14.8302C21.3284 14.895 21.2529 14.9455 21.1692 14.978C21.0856 15.0106 20.9959 15.0245 20.9063 15.0188H17.0239V11.7624H17.0244Z" fill="white"/>
<path d="M13.0676 10.6577C12.9406 10.6571 12.8158 10.6909 12.7064 10.7554C12.597 10.82 12.5072 10.9129 12.4463 11.0244C12.2801 11.3198 12.2004 11.6561 12.2162 11.9947C12.1989 12.3327 12.2788 12.6685 12.4463 12.9625C12.5069 13.0694 12.5946 13.1584 12.7005 13.2207C12.8064 13.2829 12.9268 13.3162 13.0497 13.3172C13.1725 13.3182 13.2935 13.2868 13.4004 13.2262C13.5073 13.1657 13.5963 13.078 13.6586 12.9721C13.8243 12.6795 13.9025 12.3454 13.8839 12.0096C13.9029 11.6633 13.8273 11.3183 13.6652 11.0117C13.6072 10.9038 13.521 10.8139 13.4156 10.7515C13.3103 10.6891 13.19 10.6567 13.0676 10.6577Z" fill="white"/>
<path d="M9.44189 7.25531V16.6296L16.5731 18.125V5.875L9.44189 7.25531ZM14.2141 13.5273C14.0807 13.7154 13.9034 13.868 13.6975 13.9717C13.4916 14.0755 13.2634 14.1274 13.0329 14.1227C12.8082 14.1267 12.5858 14.0764 12.3847 13.976C12.1836 13.8756 12.0098 13.7281 11.8779 13.5461C11.5652 13.1095 11.4087 12.5802 11.4338 12.0438C11.4072 11.481 11.5665 10.9251 11.8871 10.4618C12.0222 10.2701 12.2023 10.1146 12.4117 10.009C12.621 9.90343 12.8532 9.85096 13.0876 9.85625C13.3107 9.85177 13.5315 9.90213 13.7306 10.0029C13.9296 10.1037 14.101 10.2518 14.2295 10.4342C14.5391 10.8803 14.6928 11.4161 14.667 11.9584C14.6942 12.5171 14.5349 13.0691 14.2141 13.5273Z" fill="white"/>
<path d="M29.3023 13.334C29.3023 13.9043 29.4098 14.3965 29.6246 14.8105C29.8434 15.2246 30.152 15.5449 30.5504 15.7715C30.9488 15.9941 31.4234 16.1055 31.9742 16.1055C32.5289 16.1055 32.9879 16.0156 33.3512 15.8359C33.7184 15.6523 33.9938 15.4121 34.1773 15.1152C34.3648 14.8145 34.4645 14.4902 34.4762 14.1426H33.2457C33.2145 14.3066 33.1539 14.457 33.0641 14.5938C32.9781 14.7266 32.8492 14.832 32.6773 14.9102C32.5094 14.9883 32.2867 15.0273 32.0094 15.0273C31.5719 15.0273 31.2281 14.875 30.9781 14.5703C30.732 14.2656 30.609 13.8535 30.609 13.334V12.4668C30.609 11.9551 30.7281 11.5469 30.9664 11.2422C31.2047 10.9375 31.5504 10.7852 32.0035 10.7852C32.2926 10.7852 32.5211 10.8359 32.6891 10.9375C32.857 11.0391 32.9801 11.1641 33.0582 11.3125C33.1402 11.457 33.191 11.5957 33.2105 11.7285H34.441C34.4332 11.373 34.3336 11.043 34.1422 10.7383C33.9508 10.4297 33.6734 10.1797 33.3102 9.98828C32.9508 9.79688 32.5055 9.70117 31.9742 9.70117C31.4313 9.70117 30.9586 9.81445 30.5563 10.041C30.1578 10.2676 29.8492 10.5859 29.6305 10.9961C29.4117 11.4023 29.3023 11.8828 29.3023 12.4375V13.334ZM35.8358 16H37.1307V12.5605C37.1307 12.2246 37.1873 11.9258 37.3006 11.6641C37.4139 11.4023 37.5799 11.1973 37.7987 11.0488C38.0174 10.8965 38.2811 10.8203 38.5897 10.8203C38.8397 10.8203 39.0584 10.8711 39.2459 10.9727C39.4334 11.0703 39.5799 11.2227 39.6854 11.4297C39.7948 11.6328 39.8495 11.8906 39.8495 12.2031V16H41.1444V11.8223C41.1444 11.1152 40.9491 10.5879 40.5584 10.2402C40.1717 9.88867 39.6776 9.71289 39.076 9.71289C38.662 9.71289 38.3241 9.7832 38.0623 9.92383C37.8045 10.0605 37.6073 10.2246 37.4705 10.416C37.3338 10.6035 37.242 10.7715 37.1952 10.9199H37.1307V7.58008H35.8358V16ZM44.5196 16.0938C44.8282 16.0938 45.0938 16.0527 45.3165 15.9707C45.543 15.8848 45.7325 15.7734 45.8848 15.6367C46.0372 15.5 46.1583 15.3535 46.2481 15.1973H46.3067V16H47.543V11.8047C47.543 11.2891 47.4337 10.8789 47.2149 10.5742C46.9962 10.2695 46.7032 10.0508 46.336 9.91797C45.9688 9.78125 45.5645 9.71289 45.1231 9.71289C44.7364 9.71289 44.3966 9.75391 44.1036 9.83594C43.8145 9.91797 43.5704 10.0371 43.3712 10.1934C43.1759 10.3457 43.0235 10.5293 42.9141 10.7441C42.8087 10.9551 42.7462 11.1895 42.7266 11.4473H43.963C43.9981 11.3066 44.0587 11.1855 44.1446 11.084C44.2305 10.9785 44.3497 10.8965 44.502 10.8379C44.6544 10.7754 44.8477 10.7441 45.0821 10.7441C45.4376 10.7441 45.7208 10.8301 45.9317 11.002C46.1427 11.1699 46.2481 11.4316 46.2481 11.7871V12.3672H44.6837C43.9688 12.3672 43.4239 12.5371 43.0489 12.877C42.6778 13.2129 42.4923 13.6543 42.4923 14.2012C42.4923 14.7793 42.6798 15.2402 43.0548 15.584C43.4337 15.9238 43.922 16.0938 44.5196 16.0938ZM44.918 15.0859C44.629 15.0859 44.3692 15.0098 44.1388 14.8574C43.9122 14.7012 43.7989 14.4609 43.7989 14.1367C43.7989 13.875 43.8848 13.6602 44.0567 13.4922C44.2325 13.3242 44.5098 13.2402 44.8888 13.2402H46.2481V13.9082C46.2481 14.1348 46.1876 14.3359 46.0665 14.5117C45.9493 14.6875 45.7911 14.8281 45.5919 14.9336C45.3927 15.0352 45.168 15.0859 44.918 15.0859ZM48.9378 13.334C48.9378 13.9043 49.0452 14.3965 49.2601 14.8105C49.4788 15.2246 49.7874 15.5449 50.1859 15.7715C50.5843 15.9941 51.0589 16.1055 51.6097 16.1055C52.1644 16.1055 52.6234 16.0156 52.9866 15.8359C53.3538 15.6523 53.6292 15.4121 53.8128 15.1152C54.0003 14.8145 54.0999 14.4902 54.1116 14.1426H52.8812C52.8499 14.3066 52.7894 14.457 52.6995 14.5938C52.6136 14.7266 52.4847 14.832 52.3128 14.9102C52.1448 14.9883 51.9222 15.0273 51.6448 15.0273C51.2073 15.0273 50.8636 14.875 50.6136 14.5703C50.3675 14.2656 50.2445 13.8535 50.2445 13.334V12.4668C50.2445 11.9551 50.3636 11.5469 50.6019 11.2422C50.8402 10.9375 51.1859 10.7852 51.639 10.7852C51.928 10.7852 52.1566 10.8359 52.3245 10.9375C52.4925 11.0391 52.6155 11.1641 52.6937 11.3125C52.7757 11.457 52.8265 11.5957 52.846 11.7285H54.0765C54.0687 11.373 53.9691 11.043 53.7777 10.7383C53.5863 10.4297 53.3089 10.1797 52.9456 9.98828C52.5863 9.79688 52.1409 9.70117 51.6097 9.70117C51.0667 9.70117 50.5941 9.81445 50.1917 10.041C49.7933 10.2676 49.4847 10.5859 49.2659 10.9961C49.0472 11.4023 48.9378 11.8828 48.9378 12.4375V13.334ZM55.4713 16H56.7662V12.5605C56.7662 12.2246 56.8228 11.9258 56.9361 11.6641C57.0494 11.4023 57.2154 11.1973 57.4341 11.0488C57.6529 10.8965 57.9166 10.8203 58.2252 10.8203C58.4752 10.8203 58.6939 10.8711 58.8814 10.9727C59.0689 11.0703 59.2154 11.2227 59.3209 11.4297C59.4302 11.6328 59.4849 11.8906 59.4849 12.2031V16H60.7798V11.8223C60.7798 11.1152 60.5845 10.5879 60.1939 10.2402C59.8072 9.88867 59.313 9.71289 58.7115 9.71289C58.2974 9.71289 57.9595 9.7832 57.6978 9.92383C57.44 10.0605 57.2427 10.2246 57.106 10.416C56.9693 10.6035 56.8775 10.7715 56.8306 10.9199H56.7662V7.58008H55.4713V16ZM64.1551 16.0938C64.4637 16.0938 64.7293 16.0527 64.952 15.9707C65.1785 15.8848 65.368 15.7734 65.5203 15.6367C65.6727 15.5 65.7938 15.3535 65.8836 15.1973H65.9422V16H67.1785V11.8047C67.1785 11.2891 67.0691 10.8789 66.8504 10.5742C66.6316 10.2695 66.3387 10.0508 65.9715 9.91797C65.6043 9.78125 65.2 9.71289 64.7586 9.71289C64.3719 9.71289 64.032 9.75391 63.7391 9.83594C63.45 9.91797 63.2059 10.0371 63.0066 10.1934C62.8113 10.3457 62.659 10.5293 62.5496 10.7441C62.4441 10.9551 62.3816 11.1895 62.3621 11.4473H63.5984C63.6336 11.3066 63.6941 11.1855 63.7801 11.084C63.866 10.9785 63.9852 10.8965 64.1375 10.8379C64.2898 10.7754 64.4832 10.7441 64.7176 10.7441C65.073 10.7441 65.3563 10.8301 65.5672 11.002C65.7781 11.1699 65.8836 11.4316 65.8836 11.7871V12.3672H64.3191C63.6043 12.3672 63.0594 12.5371 62.6844 12.877C62.3133 13.2129 62.1277 13.6543 62.1277 14.2012C62.1277 14.7793 62.3152 15.2402 62.6902 15.584C63.0691 15.9238 63.5574 16.0938 64.1551 16.0938ZM64.5535 15.0859C64.2645 15.0859 64.0047 15.0098 63.7742 14.8574C63.5477 14.7012 63.4344 14.4609 63.4344 14.1367C63.4344 13.875 63.5203 13.6602 63.6922 13.4922C63.868 13.3242 64.1453 13.2402 64.5242 13.2402H65.8836V13.9082C65.8836 14.1348 65.823 14.3359 65.702 14.5117C65.5848 14.6875 65.4266 14.8281 65.2273 14.9336C65.0281 15.0352 64.8035 15.0859 64.5535 15.0859ZM70.1788 13.7852L70.6827 13.252L72.6221 16H74.1573L71.6553 12.4902L73.9991 9.80664H72.5166L70.2373 12.4902H70.1788V7.58008H68.8838V16H70.1788V13.7852ZM76.4309 13.7852L76.9348 13.252L78.8743 16H80.4095L77.9075 12.4902L80.2513 9.80664H78.7688L76.4895 12.4902H76.4309V7.58008H75.136V16H76.4309V13.7852ZM83.6382 9.70117C83.0991 9.70117 82.6206 9.81641 82.2027 10.0469C81.7886 10.2773 81.4644 10.6016 81.23 11.0195C80.9956 11.4375 80.8784 11.9297 80.8784 12.4961V13.2988C80.8784 13.8965 80.9956 14.4043 81.23 14.8223C81.4644 15.2402 81.7866 15.5586 82.1968 15.7773C82.6109 15.9961 83.0913 16.1055 83.6382 16.1055C84.1773 16.1055 84.6538 15.9961 85.0679 15.7773C85.482 15.5586 85.8042 15.2402 86.0347 14.8223C86.2691 14.4004 86.3863 13.8906 86.3863 13.293V12.4902C86.3863 11.9121 86.2691 11.4141 86.0347 10.9961C85.8042 10.5781 85.482 10.2578 85.0679 10.0352C84.6538 9.8125 84.1773 9.70117 83.6382 9.70117ZM83.6441 10.75C83.9527 10.75 84.2124 10.8301 84.4234 10.9902C84.6382 11.1465 84.8003 11.3613 84.9097 11.6348C85.023 11.9043 85.0796 12.2129 85.0796 12.5605V13.252C85.0796 13.5996 85.0249 13.9102 84.9156 14.1836C84.8101 14.4531 84.6519 14.666 84.4409 14.8223C84.23 14.9785 83.9644 15.0566 83.6441 15.0566C83.3238 15.0566 83.0542 14.9785 82.8355 14.8223C82.6206 14.666 82.4585 14.4531 82.3491 14.1836C82.2437 13.9102 82.1909 13.5996 82.1909 13.252V12.5605C82.1909 12.2129 82.2476 11.9043 82.3609 11.6348C82.4741 11.3613 82.6382 11.1465 82.8531 10.9902C83.0679 10.8301 83.3316 10.75 83.6441 10.75ZM94.3845 15.2207C94.7947 15.2207 95.1521 15.1094 95.4568 14.8867C95.7654 14.6641 96.0056 14.3535 96.1775 13.9551C96.3533 13.5527 96.4412 13.0859 96.4412 12.5547V12.2617C96.4412 11.7422 96.3455 11.2461 96.1541 10.7734C95.9666 10.2969 95.6892 9.87109 95.322 9.49609C94.9588 9.12109 94.5076 8.82422 93.9685 8.60547C93.4334 8.38672 92.8181 8.27734 92.1228 8.27734H92.0759C91.2009 8.27734 90.4216 8.46484 89.738 8.83984C89.0584 9.21094 88.5213 9.73633 88.1267 10.416C87.7361 11.0918 87.5408 11.8906 87.5408 12.8125V13.1348C87.5408 13.8652 87.6541 14.5078 87.8806 15.0625C88.1111 15.6133 88.4295 16.0742 88.8357 16.4453C89.242 16.8203 89.7146 17.0996 90.2537 17.2832C90.7927 17.4707 91.3728 17.5645 91.9939 17.5645H92.0466C92.4959 17.5645 92.8728 17.5371 93.1775 17.4824C93.4861 17.4316 93.7166 17.3711 93.8689 17.3008V16.4746C93.6775 16.5605 93.4334 16.6289 93.1365 16.6797C92.8396 16.7305 92.4861 16.7559 92.0759 16.7559H92.0232C91.5466 16.7559 91.0935 16.6816 90.6638 16.5332C90.238 16.3848 89.8591 16.1621 89.5271 15.8652C89.199 15.5645 88.9392 15.1836 88.7478 14.7227C88.5603 14.2617 88.4666 13.7207 88.4666 13.0996V12.8477C88.4666 12.0781 88.6228 11.4141 88.9353 10.8555C89.2478 10.293 89.6755 9.85938 90.2185 9.55469C90.7654 9.25 91.3845 9.09766 92.0759 9.09766H92.1228C92.8455 9.09766 93.4607 9.24609 93.9685 9.54297C94.4802 9.83594 94.8689 10.2246 95.1345 10.709C95.4041 11.1934 95.5388 11.7207 95.5388 12.291V12.4844C95.5388 12.9336 95.49 13.3047 95.3923 13.5977C95.2947 13.8867 95.1677 14.0996 95.0115 14.2363C94.8591 14.373 94.6931 14.4414 94.5134 14.4414C94.3923 14.4414 94.281 14.418 94.1795 14.3711C94.0779 14.3203 93.9978 14.2461 93.9392 14.1484C93.8806 14.0508 93.8513 13.9297 93.8513 13.7852V10.9023H92.8963V11.5938H92.8494C92.8142 11.4766 92.7478 11.3594 92.6502 11.2422C92.5525 11.1211 92.4197 11.0215 92.2517 10.9434C92.0877 10.8613 91.8884 10.8203 91.6541 10.8203C91.1384 10.8203 90.74 10.9941 90.4588 11.3418C90.1775 11.6895 90.0369 12.1445 90.0369 12.707V13.293C90.0369 13.875 90.1755 14.3418 90.4529 14.6934C90.7302 15.0449 91.1189 15.2207 91.6189 15.2207C91.8416 15.2207 92.0447 15.1816 92.2283 15.1035C92.4119 15.0254 92.5642 14.9238 92.6853 14.7988C92.8064 14.6699 92.8884 14.5352 92.9314 14.3945H92.9841C93.0193 14.5391 93.0974 14.6758 93.2185 14.8047C93.3396 14.9297 93.4978 15.0312 93.6931 15.1094C93.8923 15.1836 94.1228 15.2207 94.3845 15.2207ZM91.0505 13.1582V12.8125C91.0505 12.4023 91.1345 12.1016 91.3025 11.9102C91.4744 11.7188 91.6853 11.623 91.9353 11.623C92.0994 11.623 92.2498 11.6641 92.3865 11.7461C92.5232 11.8242 92.6306 11.9473 92.7088 12.1152C92.7908 12.2793 92.8318 12.4863 92.8318 12.7363V13.2109C92.8318 13.4922 92.7927 13.7188 92.7146 13.8906C92.6365 14.0586 92.531 14.1797 92.3982 14.2539C92.2693 14.3281 92.1189 14.3652 91.947 14.3652C91.6814 14.3652 91.4646 14.2734 91.2966 14.0898C91.1326 13.9023 91.0505 13.5918 91.0505 13.1582ZM100.268 9.70117C99.7285 9.70117 99.25 9.81641 98.832 10.0469C98.418 10.2773 98.0938 10.6016 97.8594 11.0195C97.625 11.4375 97.5078 11.9297 97.5078 12.4961V13.2988C97.5078 13.8965 97.625 14.4043 97.8594 14.8223C98.0938 15.2402 98.416 15.5586 98.8262 15.7773C99.2402 15.9961 99.7207 16.1055 100.268 16.1055C100.807 16.1055 101.283 15.9961 101.697 15.7773C102.111 15.5586 102.434 15.2402 102.664 14.8223C102.898 14.4004 103.016 13.8906 103.016 13.293V12.4902C103.016 11.9121 102.898 11.4141 102.664 10.9961C102.434 10.5781 102.111 10.2578 101.697 10.0352C101.283 9.8125 100.807 9.70117 100.268 9.70117ZM100.273 10.75C100.582 10.75 100.842 10.8301 101.053 10.9902C101.268 11.1465 101.43 11.3613 101.539 11.6348C101.652 11.9043 101.709 12.2129 101.709 12.5605V13.252C101.709 13.5996 101.654 13.9102 101.545 14.1836C101.439 14.4531 101.281 14.666 101.07 14.8223C100.859 14.9785 100.594 15.0566 100.273 15.0566C99.9531 15.0566 99.6836 14.9785 99.4648 14.8223C99.25 14.666 99.0879 14.4531 98.9785 14.1836C98.873 13.9102 98.8203 13.5996 98.8203 13.252V12.5605C98.8203 12.2129 98.877 11.9043 98.9902 11.6348C99.1035 11.3613 99.2676 11.1465 99.4824 10.9902C99.6973 10.8301 99.9609 10.75 100.273 10.75ZM109.684 9.80664H108.383V13.6211C108.383 13.8789 108.319 14.1113 108.19 14.3184C108.065 14.5254 107.893 14.6895 107.674 14.8105C107.459 14.9316 107.215 14.9922 106.942 14.9922C106.723 14.9922 106.52 14.9551 106.332 14.8809C106.149 14.8027 105.998 14.6719 105.881 14.4883C105.768 14.3008 105.711 14.043 105.711 13.7148V9.80664H104.41V14.0547C104.41 14.5391 104.498 14.9316 104.674 15.2324C104.854 15.5293 105.1 15.748 105.412 15.8887C105.729 16.0254 106.094 16.0938 106.508 16.0938C106.871 16.0938 107.178 16.0352 107.428 15.918C107.678 15.7969 107.877 15.6504 108.026 15.4785C108.178 15.3066 108.281 15.1367 108.336 14.9688H108.406V16H109.684V9.80664ZM111.817 9.84766H110.856V10.8672H111.799V14.2598C111.799 14.6699 111.854 15.0078 111.963 15.2734C112.073 15.5352 112.266 15.7285 112.543 15.8535C112.825 15.9785 113.215 16.041 113.715 16.041C113.864 16.041 114.026 16.0332 114.202 16.0176C114.381 16.0059 114.497 15.9961 114.547 15.9883V14.9922C114.497 14.9961 114.42 15.002 114.319 15.0098C114.221 15.0137 114.127 15.0156 114.038 15.0156C113.69 15.0156 113.444 14.957 113.299 14.8398C113.159 14.7188 113.088 14.4902 113.088 14.1543V10.8672H114.471V9.84766H113.088V8.30078H111.817V9.84766ZM115.895 16H117.196V7.58008H115.895V16ZM121.421 9.70117C120.882 9.70117 120.403 9.81641 119.985 10.0469C119.571 10.2773 119.247 10.6016 119.013 11.0195C118.778 11.4375 118.661 11.9297 118.661 12.4961V13.2988C118.661 13.8965 118.778 14.4043 119.013 14.8223C119.247 15.2402 119.569 15.5586 119.979 15.7773C120.394 15.9961 120.874 16.1055 121.421 16.1055C121.96 16.1055 122.436 15.9961 122.851 15.7773C123.265 15.5586 123.587 15.2402 123.817 14.8223C124.052 14.4004 124.169 13.8906 124.169 13.293V12.4902C124.169 11.9121 124.052 11.4141 123.817 10.9961C123.587 10.5781 123.265 10.2578 122.851 10.0352C122.436 9.8125 121.96 9.70117 121.421 9.70117ZM121.427 10.75C121.735 10.75 121.995 10.8301 122.206 10.9902C122.421 11.1465 122.583 11.3613 122.692 11.6348C122.806 11.9043 122.862 12.2129 122.862 12.5605V13.252C122.862 13.5996 122.808 13.9102 122.698 14.1836C122.593 14.4531 122.435 14.666 122.224 14.8223C122.013 14.9785 121.747 15.0566 121.427 15.0566C121.106 15.0566 120.837 14.9785 120.618 14.8223C120.403 14.666 120.241 14.4531 120.132 14.1836C120.026 13.9102 119.974 13.5996 119.974 13.252V12.5605C119.974 12.2129 120.03 11.9043 120.144 11.6348C120.257 11.3613 120.421 11.1465 120.636 10.9902C120.851 10.8301 121.114 10.75 121.427 10.75ZM128.071 9.70117C127.532 9.70117 127.054 9.81641 126.636 10.0469C126.222 10.2773 125.898 10.6016 125.663 11.0195C125.429 11.4375 125.312 11.9297 125.312 12.4961V13.2988C125.312 13.8965 125.429 14.4043 125.663 14.8223C125.898 15.2402 126.22 15.5586 126.63 15.7773C127.044 15.9961 127.525 16.1055 128.071 16.1055C128.611 16.1055 129.087 15.9961 129.501 15.7773C129.915 15.5586 130.238 15.2402 130.468 14.8223C130.702 14.4004 130.82 13.8906 130.82 13.293V12.4902C130.82 11.9121 130.702 11.4141 130.468 10.9961C130.238 10.5781 129.915 10.2578 129.501 10.0352C129.087 9.8125 128.611 9.70117 128.071 9.70117ZM128.077 10.75C128.386 10.75 128.646 10.8301 128.857 10.9902C129.071 11.1465 129.234 11.3613 129.343 11.6348C129.456 11.9043 129.513 12.2129 129.513 12.5605V13.252C129.513 13.5996 129.458 13.9102 129.349 14.1836C129.243 14.4531 129.085 14.666 128.874 14.8223C128.663 14.9785 128.398 15.0566 128.077 15.0566C127.757 15.0566 127.488 14.9785 127.269 14.8223C127.054 14.666 126.892 14.4531 126.782 14.1836C126.677 13.9102 126.624 13.5996 126.624 13.252V12.5605C126.624 12.2129 126.681 11.9043 126.794 11.6348C126.907 11.3613 127.071 11.1465 127.286 10.9902C127.501 10.8301 127.765 10.75 128.077 10.75ZM133.568 13.7852L134.072 13.252L136.011 16H137.546L135.044 12.4902L137.388 9.80664H135.906L133.626 12.4902H133.568V7.58008H132.273V16H133.568V13.7852ZM138.408 15.2031C138.408 15.4688 138.498 15.6875 138.677 15.8594C138.857 16.0273 139.076 16.1113 139.334 16.1113C139.599 16.1113 139.822 16.0273 140.002 15.8594C140.185 15.6875 140.277 15.4688 140.277 15.2031C140.277 14.9297 140.185 14.707 140.002 14.5352C139.822 14.3633 139.599 14.2773 139.334 14.2773C139.076 14.2773 138.857 14.3633 138.677 14.5352C138.498 14.707 138.408 14.9297 138.408 15.2031ZM141.584 13.334C141.584 13.9043 141.691 14.3965 141.906 14.8105C142.125 15.2246 142.434 15.5449 142.832 15.7715C143.23 15.9941 143.705 16.1055 144.256 16.1055C144.81 16.1055 145.269 16.0156 145.633 15.8359C146 15.6523 146.275 15.4121 146.459 15.1152C146.646 14.8145 146.746 14.4902 146.758 14.1426H145.527C145.496 14.3066 145.435 14.457 145.346 14.5938C145.26 14.7266 145.131 14.832 144.959 14.9102C144.791 14.9883 144.568 15.0273 144.291 15.0273C143.853 15.0273 143.51 14.875 143.26 14.5703C143.014 14.2656 142.891 13.8535 142.891 13.334V12.4668C142.891 11.9551 143.01 11.5469 143.248 11.2422C143.486 10.9375 143.832 10.7852 144.285 10.7852C144.574 10.7852 144.803 10.8359 144.971 10.9375C145.139 11.0391 145.262 11.1641 145.34 11.3125C145.422 11.457 145.473 11.5957 145.492 11.7285H146.723C146.715 11.373 146.615 11.043 146.424 10.7383C146.232 10.4297 145.955 10.1797 145.592 9.98828C145.232 9.79688 144.787 9.70117 144.256 9.70117C143.713 9.70117 143.24 9.81445 142.838 10.041C142.439 10.2676 142.131 10.5859 141.912 10.9961C141.693 11.4023 141.584 11.8828 141.584 12.4375V13.334ZM150.561 9.70117C150.022 9.70117 149.543 9.81641 149.125 10.0469C148.711 10.2773 148.387 10.6016 148.153 11.0195C147.918 11.4375 147.801 11.9297 147.801 12.4961V13.2988C147.801 13.8965 147.918 14.4043 148.153 14.8223C148.387 15.2402 148.709 15.5586 149.119 15.7773C149.533 15.9961 150.014 16.1055 150.561 16.1055C151.1 16.1055 151.576 15.9961 151.99 15.7773C152.404 15.5586 152.727 15.2402 152.957 14.8223C153.192 14.4004 153.309 13.8906 153.309 13.293V12.4902C153.309 11.9121 153.192 11.4141 152.957 10.9961C152.727 10.5781 152.404 10.2578 151.99 10.0352C151.576 9.8125 151.1 9.70117 150.561 9.70117ZM150.567 10.75C150.875 10.75 151.135 10.8301 151.346 10.9902C151.561 11.1465 151.723 11.3613 151.832 11.6348C151.945 11.9043 152.002 12.2129 152.002 12.5605V13.252C152.002 13.5996 151.947 13.9102 151.838 14.1836C151.733 14.4531 151.574 14.666 151.363 14.8223C151.153 14.9785 150.887 15.0566 150.567 15.0566C150.246 15.0566 149.977 14.9785 149.758 14.8223C149.543 14.666 149.381 14.4531 149.272 14.1836C149.166 13.9102 149.113 13.5996 149.113 13.252V12.5605C149.113 12.2129 149.17 11.9043 149.283 11.6348C149.397 11.3613 149.561 11.1465 149.776 10.9902C149.99 10.8301 150.254 10.75 150.567 10.75ZM154.745 16H156.045V12.1445C156.045 11.8672 156.098 11.6289 156.204 11.4297C156.309 11.2305 156.454 11.0762 156.637 10.9668C156.821 10.8574 157.03 10.8027 157.264 10.8027C157.502 10.8027 157.709 10.8535 157.885 10.9551C158.065 11.0566 158.205 11.2031 158.307 11.3945C158.409 11.582 158.459 11.8105 158.459 12.0801V16H159.725V12.1562C159.725 11.8828 159.78 11.6445 159.889 11.4414C159.998 11.2383 160.147 11.082 160.334 10.9727C160.522 10.8594 160.731 10.8027 160.961 10.8027C161.211 10.8027 161.422 10.8516 161.594 10.9492C161.77 11.0469 161.905 11.1895 161.998 11.377C162.092 11.5605 162.139 11.7832 162.139 12.0449V16H163.434V11.6582C163.434 11.0488 163.256 10.5723 162.901 10.2285C162.545 9.88477 162.051 9.71289 161.418 9.71289C161.067 9.71289 160.764 9.76953 160.51 9.88281C160.26 9.99219 160.055 10.1367 159.895 10.3164C159.735 10.4922 159.616 10.6777 159.537 10.873H159.485C159.418 10.6543 159.311 10.457 159.162 10.2812C159.014 10.1055 158.823 9.9668 158.588 9.86523C158.358 9.76367 158.086 9.71289 157.774 9.71289C157.395 9.71289 157.09 9.77344 156.86 9.89453C156.633 10.0156 156.459 10.1621 156.338 10.334C156.221 10.502 156.137 10.6621 156.086 10.8145H156.022V9.80664H154.745V16Z" fill="white"/>
<a href="mailto:chachakko@outlook.com">
<rect fill="black" fill-opacity="0" x="0.116798" y="-0.160156" width="135.766" height="14.3203"/>
</a>
</svg>
