<svg width="278" height="123" viewBox="0 0 278 123" fill="none" xmlns="http://www.w3.org/2000/svg">
<path d="M0.9345 10.89V3.225H1.9635V4.3065H1.974C2.044 3.9355 2.2155 3.645 2.4885 3.435C2.7685 3.225 3.122 3.12 3.549 3.12C4.123 3.12 4.585 3.316 4.935 3.708C5.285 4.093 5.46 4.618 5.46 5.283V6.9315C5.46 7.6035 5.285 8.1355 4.935 8.5275C4.592 8.9125 4.13 9.105 3.549 9.105C3.129 9.105 2.779 9 2.499 8.79C2.219 8.573 2.044 8.279 1.974 7.908H1.953L1.974 9.2205V10.89H0.9345ZM3.192 8.202C3.577 8.202 3.878 8.09 4.095 7.866C4.312 7.635 4.4205 7.306 4.4205 6.879V5.3355C4.4205 4.9155 4.312 4.5935 4.095 4.3695C3.878 4.1385 3.577 4.023 3.192 4.023C2.814 4.023 2.5165 4.1385 2.2995 4.3695C2.0825 4.6005 1.974 4.926 1.974 5.346V6.879C1.974 7.299 2.0825 7.6245 2.2995 7.8555C2.5165 8.0865 2.814 8.202 3.192 8.202ZM9.2254 9.105C8.5464 9.105 8.0039 8.9055 7.5979 8.5065C7.1919 8.1075 6.9889 7.565 6.9889 6.879V3.225H8.0284V6.879C8.0284 7.299 8.1334 7.6245 8.3434 7.8555C8.5604 8.0795 8.8544 8.1915 9.2254 8.1915C9.6034 8.1915 9.9009 8.0795 10.1179 7.8555C10.3349 7.6245 10.4434 7.299 10.4434 6.879V3.225H11.4829V6.879C11.4829 7.565 11.2764 8.1075 10.8634 8.5065C10.4574 8.9055 9.9114 9.105 9.2254 9.105ZM15.6998 9.105C15.2658 9.105 14.9088 9 14.6288 8.79C14.3488 8.573 14.1843 8.2755 14.1353 7.8975H14.1248V9H13.0958V1.335H14.1353V2.994L14.1143 4.3275H14.1353C14.1913 3.9565 14.3593 3.6625 14.6393 3.4455C14.9193 3.2285 15.2728 3.12 15.6998 3.12C16.2808 3.12 16.7463 3.316 17.0963 3.708C17.4463 4.093 17.6213 4.618 17.6213 5.283V6.942C17.6213 7.614 17.4428 8.1425 17.0858 8.5275C16.7358 8.9125 16.2738 9.105 15.6998 9.105ZM15.3428 8.202C15.7278 8.202 16.0288 8.09 16.2458 7.866C16.4698 7.635 16.5818 7.306 16.5818 6.879V5.3355C16.5818 4.9155 16.4698 4.5935 16.2458 4.3695C16.0288 4.1385 15.7278 4.023 15.3428 4.023C14.9718 4.023 14.6778 4.1385 14.4608 4.3695C14.2438 4.6005 14.1353 4.9225 14.1353 5.3355V6.879C14.1353 7.299 14.2438 7.6245 14.4608 7.8555C14.6778 8.0865 14.9718 8.202 15.3428 8.202ZM26.6116 9V4.758H24.9526V3.813H26.6116V2.847C26.6116 2.385 26.7621 2.0175 27.0631 1.7445C27.3641 1.4715 27.7736 1.335 28.2916 1.335H29.9821V2.2695H28.2916C27.8646 2.2695 27.6511 2.4655 27.6511 2.8575V3.813H29.9821V4.758H27.6511V9H26.6116ZM31.3535 9V3.225H32.3825V4.3275H32.4035C32.4525 3.9425 32.61 3.645 32.876 3.435C33.142 3.225 33.4955 3.12 33.9365 3.12C34.5105 3.12 34.969 3.302 35.312 3.666C35.655 4.03 35.8265 4.52 35.8265 5.136V9H34.787V5.2515C34.787 4.8595 34.682 4.5585 34.472 4.3485C34.262 4.1315 33.975 4.023 33.611 4.023C33.233 4.023 32.9355 4.1385 32.7185 4.3695C32.5015 4.5935 32.393 4.9155 32.393 5.3355V9H31.3535Z" fill="#B973A9"/>
<path d="M45.7933 9.105C45.0863 9.105 44.5193 8.909 44.0923 8.517C43.6653 8.118 43.4518 7.572 43.4518 6.879V5.3355C43.4518 4.6495 43.6653 4.1105 44.0923 3.7185C44.5193 3.3195 45.0863 3.12 45.7933 3.12C46.4723 3.12 47.0183 3.302 47.4313 3.666C47.8443 4.023 48.0613 4.513 48.0823 5.136H47.0533C47.0323 4.786 46.9098 4.5165 46.6858 4.3275C46.4618 4.1315 46.1643 4.0335 45.7933 4.0335C45.3943 4.0335 45.0758 4.149 44.8378 4.38C44.6068 4.604 44.4913 4.9225 44.4913 5.3355V6.879C44.4913 7.299 44.6068 7.621 44.8378 7.845C45.0758 8.069 45.3943 8.181 45.7933 8.181C46.1643 8.181 46.4618 8.0865 46.6858 7.8975C46.9098 7.7085 47.0323 7.439 47.0533 7.089H48.0823C48.0613 7.712 47.8443 8.2055 47.4313 8.5695C47.0183 8.9265 46.4723 9.105 45.7933 9.105ZM49.6112 9V1.335H50.6507V3.225L50.6402 4.3275H50.6612C50.7102 3.9425 50.8677 3.645 51.1337 3.435C51.3997 3.225 51.7532 3.12 52.1942 3.12C52.7682 3.12 53.2267 3.302 53.5697 3.666C53.9127 4.03 54.0842 4.52 54.0842 5.136V9H53.0447V5.2515C53.0447 4.8595 52.9397 4.555 52.7297 4.338C52.5197 4.114 52.2327 4.002 51.8687 4.002C51.4907 4.002 51.1932 4.121 50.9762 4.359C50.7592 4.59 50.6507 4.9155 50.6507 5.3355V9H49.6112ZM57.3876 9.105C56.7786 9.105 56.2991 8.951 55.9491 8.643C55.6061 8.328 55.4346 7.9045 55.4346 7.3725C55.4346 6.8265 55.6131 6.3995 55.9701 6.0915C56.3341 5.7765 56.8276 5.619 57.4506 5.619H59.1306V5.073C59.1306 4.737 59.0256 4.478 58.8156 4.296C58.6126 4.107 58.3291 4.0125 57.9651 4.0125C57.6361 4.0125 57.3596 4.086 57.1356 4.233C56.9186 4.373 56.7856 4.5585 56.7366 4.7895H55.7181C55.7461 4.4535 55.8616 4.163 56.0646 3.918C56.2676 3.666 56.5336 3.47 56.8626 3.33C57.1916 3.19 57.5626 3.12 57.9756 3.12C58.6476 3.12 59.1796 3.295 59.5716 3.645C59.9706 3.988 60.1701 4.4535 60.1701 5.0415V9H59.1516V7.929H59.1411C59.0921 8.293 58.9101 8.58 58.5951 8.79C58.2801 9 57.8776 9.105 57.3876 9.105ZM57.6711 8.2965C58.0911 8.2965 58.4376 8.1915 58.7106 7.9815C58.9906 7.7645 59.1306 7.488 59.1306 7.152V6.3645H57.4716C57.1636 6.3645 56.9186 6.4485 56.7366 6.6165C56.5616 6.7845 56.4741 7.012 56.4741 7.299C56.4741 7.614 56.5791 7.859 56.7891 8.034C56.9991 8.209 57.2931 8.2965 57.6711 8.2965ZM64.051 9.105C63.344 9.105 62.777 8.909 62.35 8.517C61.923 8.118 61.7095 7.572 61.7095 6.879V5.3355C61.7095 4.6495 61.923 4.1105 62.35 3.7185C62.777 3.3195 63.344 3.12 64.051 3.12C64.73 3.12 65.276 3.302 65.689 3.666C66.102 4.023 66.319 4.513 66.34 5.136H65.311C65.29 4.786 65.1675 4.5165 64.9435 4.3275C64.7195 4.1315 64.422 4.0335 64.051 4.0335C63.652 4.0335 63.3335 4.149 63.0955 4.38C62.8645 4.604 62.749 4.9225 62.749 5.3355V6.879C62.749 7.299 62.8645 7.621 63.0955 7.845C63.3335 8.069 63.652 8.181 64.051 8.181C64.422 8.181 64.7195 8.0865 64.9435 7.8975C65.1675 7.7085 65.29 7.439 65.311 7.089H66.34C66.319 7.712 66.102 8.2055 65.689 8.5695C65.276 8.9265 64.73 9.105 64.051 9.105ZM67.8689 9V1.335H68.9084V3.225L68.8979 4.3275H68.9189C68.9679 3.9425 69.1254 3.645 69.3914 3.435C69.6574 3.225 70.0109 3.12 70.4519 3.12C71.0259 3.12 71.4844 3.302 71.8274 3.666C72.1704 4.03 72.3419 4.52 72.3419 5.136V9H71.3024V5.2515C71.3024 4.8595 71.1974 4.555 70.9874 4.338C70.7774 4.114 70.4904 4.002 70.1264 4.002C69.7484 4.002 69.4509 4.121 69.2339 4.359C69.0169 4.59 68.9084 4.9155 68.9084 5.3355V9H67.8689ZM75.6453 9.105C75.0363 9.105 74.5568 8.951 74.2068 8.643C73.8638 8.328 73.6923 7.9045 73.6923 7.3725C73.6923 6.8265 73.8708 6.3995 74.2278 6.0915C74.5918 5.7765 75.0853 5.619 75.7083 5.619H77.3883V5.073C77.3883 4.737 77.2833 4.478 77.0733 4.296C76.8703 4.107 76.5868 4.0125 76.2228 4.0125C75.8938 4.0125 75.6173 4.086 75.3933 4.233C75.1763 4.373 75.0433 4.5585 74.9943 4.7895H73.9758C74.0038 4.4535 74.1193 4.163 74.3223 3.918C74.5253 3.666 74.7913 3.47 75.1203 3.33C75.4493 3.19 75.8203 3.12 76.2333 3.12C76.9053 3.12 77.4373 3.295 77.8293 3.645C78.2283 3.988 78.4278 4.4535 78.4278 5.0415V9H77.4093V7.929H77.3988C77.3498 8.293 77.1678 8.58 76.8528 8.79C76.5378 9 76.1353 9.105 75.6453 9.105ZM75.9288 8.2965C76.3488 8.2965 76.6953 8.1915 76.9683 7.9815C77.2483 7.7645 77.3883 7.488 77.3883 7.152V6.3645H75.7293C75.4213 6.3645 75.1763 6.4485 74.9943 6.6165C74.8193 6.7845 74.7318 7.012 74.7318 7.299C74.7318 7.614 74.8368 7.859 75.0468 8.034C75.2568 8.209 75.5508 8.2965 75.9288 8.2965ZM80.0722 9V1.335H81.1117V5.577H82.1827L83.7892 3.225H84.9652L83.0752 5.9865L84.9967 9H83.7997L82.1827 6.4695H81.1117V9H80.0722ZM88.3526 9.084C87.6456 9.084 87.0856 8.888 86.6726 8.496C86.2596 8.097 86.0531 7.5545 86.0531 6.8685V5.3565C86.0531 4.6705 86.2596 4.1315 86.6726 3.7395C87.0856 3.3405 87.6456 3.141 88.3526 3.141C89.0596 3.141 89.6196 3.3405 90.0326 3.7395C90.4456 4.1315 90.6521 4.667 90.6521 5.346V6.8685C90.6521 7.5545 90.4456 8.097 90.0326 8.496C89.6196 8.888 89.0596 9.084 88.3526 9.084ZM88.3526 8.1705C88.7446 8.1705 89.0526 8.062 89.2766 7.845C89.5006 7.621 89.6126 7.2955 89.6126 6.8685V5.3565C89.6126 4.9295 89.5006 4.6075 89.2766 4.3905C89.0526 4.1665 88.7446 4.0545 88.3526 4.0545C87.9606 4.0545 87.6526 4.1665 87.4286 4.3905C87.2046 4.6075 87.0926 4.9295 87.0926 5.3565V6.8685C87.0926 7.2955 87.2046 7.621 87.4286 7.845C87.6526 8.062 87.9606 8.1705 88.3526 8.1705Z" fill="#4A6FF2"/>
<path d="M96.381 10.26C95.373 10.008 94.589 9.525 94.029 8.811C93.469 8.09 93.189 7.208 93.189 6.165V4.275C93.189 3.596 93.315 2.98 93.567 2.427C93.826 1.867 94.1935 1.3945 94.6695 1.0095C95.1525 0.6245 95.723 0.348 96.381 0.18V1.1775C95.94 1.2825 95.5585 1.4785 95.2365 1.7655C94.9145 2.0455 94.666 2.4025 94.491 2.8365C94.316 3.2635 94.2285 3.743 94.2285 4.275V6.165C94.2285 6.69 94.316 7.166 94.491 7.593C94.666 8.013 94.9145 8.3665 95.2365 8.6535C95.5585 8.9335 95.94 9.126 96.381 9.231V10.26ZM98.5819 10.26V9.231C99.0229 9.126 99.4044 8.9335 99.7264 8.6535C100.048 8.3665 100.297 8.013 100.472 7.593C100.654 7.166 100.745 6.69 100.745 6.165V4.275C100.745 3.743 100.654 3.2635 100.472 2.8365C100.297 2.4025 100.048 2.0455 99.7264 1.7655C99.4044 1.4785 99.0229 1.2825 98.5819 1.1775V0.18C99.2399 0.348 99.8069 0.6245 100.283 1.0095C100.766 1.3945 101.137 1.867 101.396 2.427C101.655 2.98 101.784 3.596 101.784 4.275V6.165C101.784 7.208 101.501 8.09 100.934 8.811C100.374 9.525 99.5899 10.008 98.5819 10.26ZM78.1233 24.26C77.1153 24.008 76.3313 23.525 75.7713 22.811C75.2113 22.09 74.9313 21.208 74.9313 20.165V18.275C74.9313 17.596 75.0573 16.98 75.3093 16.427C75.5683 15.867 75.9358 15.3945 76.4118 15.0095C76.8948 14.6245 77.4653 14.348 78.1233 14.18V15.1775C77.6823 15.2825 77.3008 15.4785 76.9788 15.7655C76.6568 16.0455 76.4083 16.4025 76.2333 16.8365C76.0583 17.2635 75.9708 17.743 75.9708 18.275V20.165C75.9708 20.69 76.0583 21.166 76.2333 21.593C76.4083 22.013 76.6568 22.3665 76.9788 22.6535C77.3008 22.9335 77.6823 23.126 78.1233 23.231V24.26ZM80.3242 24.26V23.231C80.7652 23.126 81.1467 22.9335 81.4687 22.6535C81.7907 22.3665 82.0392 22.013 82.2142 21.593C82.3962 21.166 82.4872 20.69 82.4872 20.165V18.275C82.4872 17.743 82.3962 17.2635 82.2142 16.8365C82.0392 16.4025 81.7907 16.0455 81.4687 15.7655C81.1467 15.4785 80.7652 15.2825 80.3242 15.1775V14.18C80.9822 14.348 81.5492 14.6245 82.0252 15.0095C82.5082 15.3945 82.8792 15.867 83.1382 16.427C83.3972 16.98 83.5267 17.596 83.5267 18.275V20.165C83.5267 21.208 83.2432 22.09 82.6762 22.811C82.1162 23.525 81.3322 24.008 80.3242 24.26ZM78.1233 38.26C77.1153 38.008 76.3313 37.525 75.7713 36.811C75.2113 36.09 74.9313 35.208 74.9313 34.165V32.275C74.9313 31.596 75.0573 30.98 75.3093 30.427C75.5683 29.867 75.9358 29.3945 76.4118 29.0095C76.8948 28.6245 77.4653 28.348 78.1233 28.18V29.1775C77.6823 29.2825 77.3008 29.4785 76.9788 29.7655C76.6568 30.0455 76.4083 30.4025 76.2333 30.8365C76.0583 31.2635 75.9708 31.743 75.9708 32.275V34.165C75.9708 34.69 76.0583 35.166 76.2333 35.593C76.4083 36.013 76.6568 36.3665 76.9788 36.6535C77.3008 36.9335 77.6823 37.126 78.1233 37.231V38.26ZM183.342 38.26V37.231C183.783 37.126 184.165 36.9335 184.487 36.6535C184.809 36.3665 185.057 36.013 185.232 35.593C185.414 35.166 185.505 34.69 185.505 34.165V32.275C185.505 31.743 185.414 31.2635 185.232 30.8365C185.057 30.4025 184.809 30.0455 184.487 29.7655C184.165 29.4785 183.783 29.2825 183.342 29.1775V28.18C184 28.348 184.567 28.6245 185.043 29.0095C185.526 29.3945 185.897 29.867 186.156 30.427C186.415 30.98 186.545 31.596 186.545 32.275V34.165C186.545 35.208 186.261 36.09 185.694 36.811C185.134 37.525 184.35 38.008 183.342 38.26ZM102.467 52.26C101.459 52.008 100.675 51.525 100.115 50.811C99.5549 50.09 99.2749 49.208 99.2749 48.165V46.275C99.2749 45.596 99.4009 44.98 99.6529 44.427C99.9119 43.867 100.279 43.3945 100.755 43.0095C101.238 42.6245 101.809 42.348 102.467 42.18V43.1775C102.026 43.2825 101.644 43.4785 101.322 43.7655C101 44.0455 100.752 44.4025 100.577 44.8365C100.402 45.2635 100.314 45.743 100.314 46.275V48.165C100.314 48.69 100.402 49.166 100.577 49.593C100.752 50.013 101 50.3665 101.322 50.6535C101.644 50.9335 102.026 51.126 102.467 51.231V52.26ZM43.8088 108.26V107.231C44.2498 107.126 44.6313 106.934 44.9533 106.654C45.2753 106.366 45.5238 106.013 45.6988 105.593C45.8808 105.166 45.9718 104.69 45.9718 104.165V102.275C45.9718 101.743 45.8808 101.263 45.6988 100.836C45.5238 100.402 45.2753 100.045 44.9533 99.7655C44.6313 99.4785 44.2498 99.2825 43.8088 99.1775V98.18C44.4668 98.348 45.0338 98.6245 45.5098 99.0095C45.9928 99.3945 46.3638 99.867 46.6228 100.427C46.8818 100.98 47.0113 101.596 47.0113 102.275V104.165C47.0113 105.208 46.7278 106.09 46.1608 106.811C45.6008 107.525 44.8168 108.008 43.8088 108.26Z" fill="#7490ED"/>
<path d="M117.522 2.4375H118.74L121.155 5.535L118.73 8.6325H117.522L119.465 6.165C119.486 6.144 119.507 6.1195 119.528 6.0915C119.556 6.0565 119.58 6.025 119.601 5.997H110.214V5.0625H119.591C119.563 5.0345 119.535 5.003 119.507 4.968C119.486 4.933 119.458 4.898 119.423 4.863L117.522 2.4375ZM46.3772 18.737C46.1042 18.737 45.8872 18.6635 45.7262 18.5165C45.5582 18.3695 45.4742 18.1735 45.4742 17.9285C45.4742 17.6835 45.5582 17.4875 45.7262 17.3405C45.8872 17.1935 46.1042 17.12 46.3772 17.12C46.6502 17.12 46.8707 17.1935 47.0387 17.3405C47.1997 17.4875 47.2802 17.6835 47.2802 17.9285C47.2802 18.1735 47.1997 18.3695 47.0387 18.5165C46.8707 18.6635 46.6502 18.737 46.3772 18.737ZM46.3772 23.105C46.1042 23.105 45.8872 23.0315 45.7262 22.8845C45.5582 22.7375 45.4742 22.5415 45.4742 22.2965C45.4742 22.0515 45.5582 21.8555 45.7262 21.7085C45.8872 21.5545 46.1042 21.4775 46.3772 21.4775C46.6502 21.4775 46.8707 21.5545 47.0387 21.7085C47.1997 21.8555 47.2802 22.0515 47.2802 22.2965C47.2802 22.5415 47.1997 22.7375 47.0387 22.8845C46.8707 23.0315 46.6502 23.105 46.3772 23.105ZM50.9972 18.737C50.7242 18.737 50.5037 18.6635 50.3357 18.5165C50.1747 18.3695 50.0942 18.1735 50.0942 17.9285C50.0942 17.6835 50.1747 17.4875 50.3357 17.3405C50.5037 17.1935 50.7242 17.12 50.9972 17.12C51.2702 17.12 51.4872 17.1935 51.6482 17.3405C51.8162 17.4875 51.9002 17.6835 51.9002 17.9285C51.9002 18.1735 51.8162 18.3695 51.6482 18.5165C51.4872 18.6635 51.2702 18.737 50.9972 18.737ZM50.9972 23.105C50.7242 23.105 50.5037 23.0315 50.3357 22.8845C50.1747 22.7375 50.0942 22.5415 50.0942 22.2965C50.0942 22.0515 50.1747 21.8555 50.3357 21.7085C50.5037 21.5545 50.7242 21.4775 50.9972 21.4775C51.2702 21.4775 51.4872 21.5545 51.6482 21.7085C51.8162 21.8555 51.9002 22.0515 51.9002 22.2965C51.9002 22.5415 51.8162 22.7375 51.6482 22.8845C51.4872 23.0315 51.2702 23.105 50.9972 23.105ZM39.6654 37.105C39.3924 37.105 39.1719 37.028 39.0039 36.874C38.8429 36.713 38.7624 36.496 38.7624 36.223C38.7624 35.943 38.8429 35.7225 39.0039 35.5615C39.1719 35.3935 39.3924 35.3095 39.6654 35.3095C39.9384 35.3095 40.1554 35.3935 40.3164 35.5615C40.4844 35.7225 40.5684 35.943 40.5684 36.223C40.5684 36.496 40.4844 36.713 40.3164 36.874C40.1554 37.028 39.9384 37.105 39.6654 37.105ZM39.6654 51.105C39.3924 51.105 39.1719 51.028 39.0039 50.874C38.8429 50.713 38.7624 50.496 38.7624 50.223C38.7624 49.943 38.8429 49.7225 39.0039 49.5615C39.1719 49.3935 39.3924 49.3095 39.6654 49.3095C39.9384 49.3095 40.1554 49.3935 40.3164 49.5615C40.4844 49.7225 40.5684 49.943 40.5684 50.223C40.5684 50.496 40.4844 50.713 40.3164 50.874C40.1554 51.028 39.9384 51.105 39.6654 51.105ZM148.697 64.013V61.997H146.734V61.0625H148.697V59.057H149.726V61.0625H151.7V61.997H149.726V64.013H148.697ZM191.298 64.013V61.997H189.335V61.0625H191.298V59.057H192.327V61.0625H194.301V61.997H192.327V64.013H191.298ZM239.986 64.013V61.997H238.022V61.0625H239.986V59.057H241.015V61.0625H242.989V61.997H241.015V64.013H239.986ZM275.556 66.68L276.396 63.4145H277.845L276.48 66.68H275.556ZM142.611 78.013V75.997H140.648V75.0625H142.611V73.057H143.64V75.0625H145.614V75.997H143.64V78.013H142.611ZM185.212 78.013V75.997H183.249V75.0625H185.212V73.057H186.241V75.0625H188.215V75.997H186.241V78.013H185.212ZM257.298 80.68L258.138 77.4145H259.587L258.222 80.68H257.298ZM130.439 92.013V89.997H128.476V89.0625H130.439V87.057H131.468V89.0625H133.442V89.997H131.468V92.013H130.439ZM166.955 92.013V89.997H164.991V89.0625H166.955V87.057H167.984V89.0625H169.958V89.997H167.984V92.013H166.955ZM202.525 94.68L203.365 91.4145H204.814L203.449 94.68H202.525Z" fill="#D5C8C0"/>
<path d="M128.287 9L130.271 1.335H131.647L133.621 9H132.56L132.077 7.005H129.83L129.347 9H128.287ZM130.04 6.144H131.867L131.321 3.855C131.216 3.435 131.132 3.078 131.069 2.784C131.006 2.49 130.968 2.2905 130.954 2.1855C130.94 2.2905 130.901 2.49 130.838 2.784C130.775 3.078 130.695 3.4315 130.597 3.8445L130.04 6.144ZM137.418 9.105C136.984 9.105 136.627 9 136.347 8.79C136.067 8.573 135.902 8.2755 135.853 7.8975H135.843V9H134.814V1.335H135.853V2.994L135.832 4.3275H135.853C135.909 3.9565 136.077 3.6625 136.357 3.4455C136.637 3.2285 136.991 3.12 137.418 3.12C137.999 3.12 138.464 3.316 138.814 3.708C139.164 4.093 139.339 4.618 139.339 5.283V6.942C139.339 7.614 139.161 8.1425 138.804 8.5275C138.454 8.9125 137.992 9.105 137.418 9.105ZM137.061 8.202C137.446 8.202 137.747 8.09 137.964 7.866C138.188 7.635 138.3 7.306 138.3 6.879V5.3355C138.3 4.9155 138.188 4.5935 137.964 4.3695C137.747 4.1385 137.446 4.023 137.061 4.023C136.69 4.023 136.396 4.1385 136.179 4.3695C135.962 4.6005 135.853 4.9225 135.853 5.3355V6.879C135.853 7.299 135.962 7.6245 136.179 7.8555C136.396 8.0865 136.69 8.202 137.061 8.202ZM143.126 9.084C142.419 9.084 141.859 8.888 141.446 8.496C141.033 8.097 140.826 7.5545 140.826 6.8685V5.3565C140.826 4.6705 141.033 4.1315 141.446 3.7395C141.859 3.3405 142.419 3.141 143.126 3.141C143.833 3.141 144.393 3.3405 144.806 3.7395C145.219 4.1315 145.425 4.667 145.425 5.346V6.8685C145.425 7.5545 145.219 8.097 144.806 8.496C144.393 8.888 143.833 9.084 143.126 9.084ZM143.126 8.1705C143.518 8.1705 143.826 8.062 144.05 7.845C144.274 7.621 144.386 7.2955 144.386 6.8685V5.3565C144.386 4.9295 144.274 4.6075 144.05 4.3905C143.826 4.1665 143.518 4.0545 143.126 4.0545C142.734 4.0545 142.426 4.1665 142.202 4.3905C141.978 4.6075 141.866 4.9295 141.866 5.3565V6.8685C141.866 7.2955 141.978 7.621 142.202 7.845C142.426 8.062 142.734 8.1705 143.126 8.1705ZM149.201 9.105C148.522 9.105 147.98 8.9055 147.574 8.5065C147.168 8.1075 146.965 7.565 146.965 6.879V3.225H148.004V6.879C148.004 7.299 148.109 7.6245 148.319 7.8555C148.536 8.0795 148.83 8.1915 149.201 8.1915C149.579 8.1915 149.877 8.0795 150.094 7.8555C150.311 7.6245 150.419 7.299 150.419 6.879V3.225H151.459V6.879C151.459 7.565 151.252 8.1075 150.839 8.5065C150.433 8.9055 149.887 9.105 149.201 9.105ZM155.927 9C155.43 9 155.035 8.8565 154.741 8.5695C154.454 8.2825 154.31 7.901 154.31 7.425V4.17H152.693V3.225H154.31V1.5975H155.35V3.225H157.628V4.17H155.35V7.4145C155.35 7.6035 155.402 7.7575 155.507 7.8765C155.619 7.9955 155.766 8.055 155.948 8.055H157.523V9H155.927ZM12.6548 23L14.6393 15.335H16.0148L17.9888 23H16.9283L16.4453 21.005H14.1983L13.7153 23H12.6548ZM14.4083 20.144H16.2353L15.6893 17.855C15.5843 17.435 15.5003 17.078 15.4373 16.784C15.3743 16.49 15.3358 16.2905 15.3218 16.1855C15.3078 16.2905 15.2693 16.49 15.2063 16.784C15.1433 17.078 15.0628 17.4315 14.9648 17.8445L14.4083 20.144ZM21.7857 23.105C21.3517 23.105 20.9947 23 20.7147 22.79C20.4347 22.573 20.2702 22.2755 20.2212 21.8975H20.2107V23H19.1817V15.335H20.2212V16.994L20.2002 18.3275H20.2212C20.2772 17.9565 20.4452 17.6625 20.7252 17.4455C21.0052 17.2285 21.3587 17.12 21.7857 17.12C22.3667 17.12 22.8322 17.316 23.1822 17.708C23.5322 18.093 23.7072 18.618 23.7072 19.283V20.942C23.7072 21.614 23.5287 22.1425 23.1717 22.5275C22.8217 22.9125 22.3597 23.105 21.7857 23.105ZM21.4287 22.202C21.8137 22.202 22.1147 22.09 22.3317 21.866C22.5557 21.635 22.6677 21.306 22.6677 20.879V19.3355C22.6677 18.9155 22.5557 18.5935 22.3317 18.3695C22.1147 18.1385 21.8137 18.023 21.4287 18.023C21.0577 18.023 20.7637 18.1385 20.5467 18.3695C20.3297 18.6005 20.2212 18.9225 20.2212 19.3355V20.879C20.2212 21.299 20.3297 21.6245 20.5467 21.8555C20.7637 22.0865 21.0577 22.202 21.4287 22.202ZM27.4936 23.084C26.7866 23.084 26.2266 22.888 25.8136 22.496C25.4006 22.097 25.1941 21.5545 25.1941 20.8685V19.3565C25.1941 18.6705 25.4006 18.1315 25.8136 17.7395C26.2266 17.3405 26.7866 17.141 27.4936 17.141C28.2006 17.141 28.7606 17.3405 29.1736 17.7395C29.5866 18.1315 29.7931 18.667 29.7931 19.346V20.8685C29.7931 21.5545 29.5866 22.097 29.1736 22.496C28.7606 22.888 28.2006 23.084 27.4936 23.084ZM27.4936 22.1705C27.8856 22.1705 28.1936 22.062 28.4176 21.845C28.6416 21.621 28.7536 21.2955 28.7536 20.8685V19.3565C28.7536 18.9295 28.6416 18.6075 28.4176 18.3905C28.1936 18.1665 27.8856 18.0545 27.4936 18.0545C27.1016 18.0545 26.7936 18.1665 26.5696 18.3905C26.3456 18.6075 26.2336 18.9295 26.2336 19.3565V20.8685C26.2336 21.2955 26.3456 21.621 26.5696 21.845C26.7936 22.062 27.1016 22.1705 27.4936 22.1705ZM33.569 23.105C32.89 23.105 32.3475 22.9055 31.9415 22.5065C31.5355 22.1075 31.3325 21.565 31.3325 20.879V17.225H32.372V20.879C32.372 21.299 32.477 21.6245 32.687 21.8555C32.904 22.0795 33.198 22.1915 33.569 22.1915C33.947 22.1915 34.2445 22.0795 34.4615 21.8555C34.6785 21.6245 34.787 21.299 34.787 20.879V17.225H35.8265V20.879C35.8265 21.565 35.62 22.1075 35.207 22.5065C34.801 22.9055 34.255 23.105 33.569 23.105ZM40.2954 23C39.7984 23 39.4029 22.8565 39.1089 22.5695C38.8219 22.2825 38.6784 21.901 38.6784 21.425V18.17H37.0614V17.225H38.6784V15.5975H39.7179V17.225H41.9964V18.17H39.7179V21.4145C39.7179 21.6035 39.7704 21.7575 39.8754 21.8765C39.9874 21.9955 40.1344 22.055 40.3164 22.055H41.8914V23H40.2954ZM104.804 51V43.335H105.844V50.055H109.256V51H104.804ZM112.161 51.105C111.552 51.105 111.072 50.951 110.722 50.643C110.379 50.328 110.208 49.9045 110.208 49.3725C110.208 48.8265 110.386 48.3995 110.743 48.0915C111.107 47.7765 111.601 47.619 112.224 47.619H113.904V47.073C113.904 46.737 113.799 46.478 113.589 46.296C113.386 46.107 113.102 46.0125 112.738 46.0125C112.409 46.0125 112.133 46.086 111.909 46.233C111.692 46.373 111.559 46.5585 111.51 46.7895H110.491C110.519 46.4535 110.635 46.163 110.838 45.918C111.041 45.666 111.307 45.47 111.636 45.33C111.965 45.19 112.336 45.12 112.749 45.12C113.421 45.12 113.953 45.295 114.345 45.645C114.744 45.988 114.943 46.4535 114.943 47.0415V51H113.925V49.929H113.914C113.865 50.293 113.683 50.58 113.368 50.79C113.053 51 112.651 51.105 112.161 51.105ZM112.444 50.2965C112.864 50.2965 113.211 50.1915 113.484 49.9815C113.764 49.7645 113.904 49.488 113.904 49.152V48.3645H112.245C111.937 48.3645 111.692 48.4485 111.51 48.6165C111.335 48.7845 111.247 49.012 111.247 49.299C111.247 49.614 111.352 49.859 111.562 50.034C111.772 50.209 112.066 50.2965 112.444 50.2965ZM116.556 51V45.225H117.585V46.3275H117.606C117.655 45.9425 117.813 45.645 118.079 45.435C118.345 45.225 118.698 45.12 119.139 45.12C119.713 45.12 120.172 45.302 120.515 45.666C120.858 46.03 121.029 46.52 121.029 47.136V51H119.99V47.2515C119.99 46.8595 119.885 46.5585 119.675 46.3485C119.465 46.1315 119.178 46.023 118.814 46.023C118.436 46.023 118.138 46.1385 117.921 46.3695C117.704 46.5935 117.596 46.9155 117.596 47.3355V51H116.556ZM123.387 52.89V51.966H125.193C125.767 51.966 126.054 51.693 126.054 51.147V50.4855L126.075 49.4355H126.054C126.012 49.8065 125.855 50.1005 125.582 50.3175C125.309 50.5345 124.955 50.643 124.521 50.643C123.926 50.643 123.457 50.447 123.114 50.055C122.771 49.663 122.6 49.1345 122.6 48.4695V47.283C122.6 46.618 122.771 46.093 123.114 45.708C123.457 45.316 123.926 45.12 124.521 45.12C124.955 45.12 125.309 45.2285 125.582 45.4455C125.855 45.6555 126.012 45.9495 126.054 46.3275H126.065L126.054 45.225H127.083V51.1575C127.083 51.6965 126.915 52.12 126.579 52.428C126.243 52.736 125.781 52.89 125.193 52.89H123.387ZM124.847 49.74C125.218 49.74 125.512 49.6245 125.729 49.3935C125.946 49.1625 126.054 48.837 126.054 48.417V47.3355C126.054 46.9225 125.946 46.6005 125.729 46.3695C125.512 46.1385 125.218 46.023 124.847 46.023C124.462 46.023 124.164 46.1385 123.954 46.3695C123.744 46.5935 123.639 46.9155 123.639 47.3355V48.417C123.639 48.844 123.744 49.173 123.954 49.404C124.164 49.628 124.462 49.74 124.847 49.74ZM130.943 51.105C130.264 51.105 129.722 50.9055 129.316 50.5065C128.91 50.1075 128.707 49.565 128.707 48.879V45.225H129.746V48.879C129.746 49.299 129.851 49.6245 130.061 49.8555C130.278 50.0795 130.572 50.1915 130.943 50.1915C131.321 50.1915 131.619 50.0795 131.836 49.8555C132.053 49.6245 132.161 49.299 132.161 48.879V45.225H133.201V48.879C133.201 49.565 132.994 50.1075 132.581 50.5065C132.175 50.9055 131.629 51.105 130.943 51.105ZM136.504 51.105C135.895 51.105 135.416 50.951 135.066 50.643C134.723 50.328 134.551 49.9045 134.551 49.3725C134.551 48.8265 134.73 48.3995 135.087 48.0915C135.451 47.7765 135.944 47.619 136.567 47.619H138.247V47.073C138.247 46.737 138.142 46.478 137.932 46.296C137.729 46.107 137.446 46.0125 137.082 46.0125C136.753 46.0125 136.476 46.086 136.252 46.233C136.035 46.373 135.902 46.5585 135.853 46.7895H134.835C134.863 46.4535 134.978 46.163 135.181 45.918C135.384 45.666 135.65 45.47 135.979 45.33C136.308 45.19 136.679 45.12 137.092 45.12C137.764 45.12 138.296 45.295 138.688 45.645C139.087 45.988 139.287 46.4535 139.287 47.0415V51H138.268V49.929H138.258C138.209 50.293 138.027 50.58 137.712 50.79C137.397 51 136.994 51.105 136.504 51.105ZM136.788 50.2965C137.208 50.2965 137.554 50.1915 137.827 49.9815C138.107 49.7645 138.247 49.488 138.247 49.152V48.3645H136.588C136.28 48.3645 136.035 48.4485 135.853 48.6165C135.678 48.7845 135.591 49.012 135.591 49.299C135.591 49.614 135.696 49.859 135.906 50.034C136.116 50.209 136.41 50.2965 136.788 50.2965ZM141.645 52.89V51.966H143.451C144.025 51.966 144.312 51.693 144.312 51.147V50.4855L144.333 49.4355H144.312C144.27 49.8065 144.113 50.1005 143.84 50.3175C143.567 50.5345 143.213 50.643 142.779 50.643C142.184 50.643 141.715 50.447 141.372 50.055C141.029 49.663 140.858 49.1345 140.858 48.4695V47.283C140.858 46.618 141.029 46.093 141.372 45.708C141.715 45.316 142.184 45.12 142.779 45.12C143.213 45.12 143.567 45.2285 143.84 45.4455C144.113 45.6555 144.27 45.9495 144.312 46.3275H144.323L144.312 45.225H145.341V51.1575C145.341 51.6965 145.173 52.12 144.837 52.428C144.501 52.736 144.039 52.89 143.451 52.89H141.645ZM143.105 49.74C143.476 49.74 143.77 49.6245 143.987 49.3935C144.204 49.1625 144.312 48.837 144.312 48.417V47.3355C144.312 46.9225 144.204 46.6005 143.987 46.3695C143.77 46.1385 143.476 46.023 143.105 46.023C142.72 46.023 142.422 46.1385 142.212 46.3695C142.002 46.5935 141.897 46.9155 141.897 47.3355V48.417C141.897 48.844 142.002 49.173 142.212 49.404C142.422 49.628 142.72 49.74 143.105 49.74ZM149.212 51.105C148.75 51.105 148.344 51.014 147.994 50.832C147.651 50.643 147.385 50.384 147.196 50.055C147.007 49.719 146.912 49.327 146.912 48.879V47.3355C146.912 46.8945 147.007 46.5095 147.196 46.1805C147.385 45.8445 147.651 45.5855 147.994 45.4035C148.344 45.2145 148.75 45.12 149.212 45.12C149.674 45.12 150.076 45.2145 150.419 45.4035C150.769 45.5855 151.039 45.8445 151.228 46.1805C151.417 46.5095 151.511 46.8945 151.511 47.3355V48.3645H147.931V48.879C147.931 49.327 148.039 49.6665 148.256 49.8975C148.48 50.1285 148.799 50.244 149.212 50.244C149.562 50.244 149.842 50.1845 150.052 50.0655C150.262 49.9395 150.395 49.754 150.451 49.509H151.48C151.41 49.999 151.165 50.3875 150.745 50.6745C150.332 50.9615 149.821 51.105 149.212 51.105ZM147.931 47.3355V47.619H150.503V47.3355C150.503 46.8945 150.391 46.5585 150.167 46.3275C149.95 46.0895 149.632 45.9705 149.212 45.9705C148.792 45.9705 148.473 46.0895 148.256 46.3275C148.039 46.5585 147.931 46.8945 147.931 47.3355ZM155.108 51.084C154.499 51.084 153.999 50.944 153.607 50.664C153.222 50.384 153.029 50.0025 153.029 49.5195H154.09C154.09 49.7365 154.184 49.9045 154.373 50.0235C154.569 50.1355 154.821 50.1915 155.129 50.1915H155.57C155.934 50.1915 156.204 50.1215 156.379 49.9815C156.554 49.8345 156.641 49.642 156.641 49.404C156.641 49.166 156.557 48.9805 156.389 48.8475C156.221 48.7145 155.983 48.62 155.675 48.564L154.888 48.4485C153.74 48.2665 153.166 47.71 153.166 46.779C153.166 46.247 153.341 45.841 153.691 45.561C154.041 45.281 154.541 45.141 155.192 45.141H155.591C156.193 45.141 156.676 45.2775 157.04 45.5505C157.404 45.8165 157.586 46.17 157.586 46.611H156.526C156.526 46.436 156.438 46.296 156.263 46.191C156.095 46.086 155.864 46.0335 155.57 46.0335H155.171C154.849 46.0335 154.604 46.1 154.436 46.233C154.268 46.359 154.184 46.541 154.184 46.779C154.184 47.185 154.471 47.4335 155.045 47.5245L155.833 47.6505C156.463 47.7485 156.925 47.934 157.219 48.207C157.513 48.473 157.66 48.858 157.66 49.362C157.66 49.901 157.481 50.3245 157.124 50.6325C156.774 50.9335 156.249 51.084 155.549 51.084H155.108Z" fill="#A451E4"/>
<path d="M169.107 10.155C168.484 10.155 167.991 9.9975 167.627 9.6825C167.27 9.3745 167.116 8.9405 167.165 8.3805L167.322 6.69C167.357 6.34 167.305 6.088 167.165 5.934C167.032 5.773 166.755 5.6925 166.335 5.6925H165.096V4.758H166.335C166.755 4.758 167.032 4.6775 167.165 4.5165C167.305 4.3555 167.357 4.1 167.322 3.75L167.165 2.049C167.116 1.496 167.27 1.0655 167.627 0.7575C167.991 0.4425 168.484 0.285 169.107 0.285H169.643V1.2195H169.149C168.834 1.2195 168.593 1.293 168.425 1.44C168.257 1.587 168.183 1.8005 168.204 2.0805L168.362 3.7815C168.397 4.1735 168.316 4.492 168.12 4.737C167.924 4.975 167.648 5.122 167.291 5.178C167.648 5.248 167.924 5.416 168.12 5.682C168.316 5.948 168.397 6.2735 168.362 6.6585L168.204 8.3595C168.183 8.6395 168.257 8.853 168.425 9C168.593 9.147 168.834 9.2205 169.149 9.2205H169.643V10.155H169.107ZM37.5024 108.155V107.221H37.9854C38.3004 107.221 38.5419 107.147 38.7099 107C38.8779 106.853 38.9514 106.639 38.9304 106.359L38.7729 104.658C38.7379 104.273 38.8184 103.948 39.0144 103.682C39.2104 103.409 39.4869 103.241 39.8439 103.178C39.4869 103.115 39.2104 102.964 39.0144 102.726C38.8184 102.488 38.7379 102.173 38.7729 101.781L38.9304 100.08C38.9514 99.8005 38.8779 99.587 38.7099 99.44C38.5419 99.293 38.3004 99.2195 37.9854 99.2195H37.5024V98.285H38.0379C38.6539 98.285 39.1404 98.4425 39.4974 98.7575C39.8614 99.0655 40.0189 99.496 39.9699 100.049L39.8124 101.75C39.7774 102.1 39.8264 102.355 39.9594 102.516C40.0994 102.677 40.3794 102.758 40.7994 102.758H42.0489V103.692H40.7994C40.3794 103.692 40.0994 103.773 39.9594 103.934C39.8264 104.088 39.7774 104.34 39.8124 104.69L39.9699 106.38C40.0189 106.94 39.8614 107.375 39.4974 107.683C39.1404 107.998 38.6539 108.155 38.0379 108.155H37.5024ZM0.987 122.155V121.221H1.47C1.785 121.221 2.0265 121.147 2.1945 121C2.3625 120.853 2.436 120.639 2.415 120.359L2.2575 118.658C2.2225 118.273 2.303 117.948 2.499 117.682C2.695 117.409 2.9715 117.241 3.3285 117.178C2.9715 117.115 2.695 116.964 2.499 116.726C2.303 116.488 2.2225 116.173 2.2575 115.781L2.415 114.08C2.436 113.8 2.3625 113.587 2.1945 113.44C2.0265 113.293 1.785 113.219 1.47 113.219H0.987V112.285H1.5225C2.1385 112.285 2.625 112.442 2.982 112.757C3.346 113.065 3.5035 113.496 3.4545 114.049L3.297 115.75C3.262 116.1 3.311 116.355 3.444 116.516C3.584 116.677 3.864 116.758 4.284 116.758H5.5335V117.692H4.284C3.864 117.692 3.584 117.773 3.444 117.934C3.311 118.088 3.262 118.34 3.297 118.69L3.4545 120.38C3.5035 120.94 3.346 121.375 2.982 121.683C2.625 121.998 2.1385 122.155 1.5225 122.155H0.987Z" fill="#BC9CD4"/>
<path d="M55.6971 23V17.225H56.7261V18.3275H56.7471C56.7961 17.9425 56.9536 17.645 57.2196 17.435C57.4856 17.225 57.8391 17.12 58.2801 17.12C58.8541 17.12 59.3126 17.302 59.6556 17.666C59.9986 18.03 60.1701 18.52 60.1701 19.136V23H59.1306V19.2515C59.1306 18.8595 59.0256 18.5585 58.8156 18.3485C58.6056 18.1315 58.3186 18.023 57.9546 18.023C57.5766 18.023 57.2791 18.1385 57.0621 18.3695C56.8451 18.5935 56.7366 18.9155 56.7366 19.3355V23H55.6971ZM64.009 23.105C63.547 23.105 63.141 23.014 62.791 22.832C62.448 22.643 62.182 22.384 61.993 22.055C61.804 21.719 61.7095 21.327 61.7095 20.879V19.3355C61.7095 18.8945 61.804 18.5095 61.993 18.1805C62.182 17.8445 62.448 17.5855 62.791 17.4035C63.141 17.2145 63.547 17.12 64.009 17.12C64.471 17.12 64.8735 17.2145 65.2165 17.4035C65.5665 17.5855 65.836 17.8445 66.025 18.1805C66.214 18.5095 66.3085 18.8945 66.3085 19.3355V20.3645H62.728V20.879C62.728 21.327 62.8365 21.6665 63.0535 21.8975C63.2775 22.1285 63.596 22.244 64.009 22.244C64.359 22.244 64.639 22.1845 64.849 22.0655C65.059 21.9395 65.192 21.754 65.248 21.509H66.277C66.207 21.999 65.962 22.3875 65.542 22.6745C65.129 22.9615 64.618 23.105 64.009 23.105ZM62.728 19.3355V19.619H65.3005V19.3355C65.3005 18.8945 65.1885 18.5585 64.9645 18.3275C64.7475 18.0895 64.429 17.9705 64.009 17.9705C63.589 17.9705 63.2705 18.0895 63.0535 18.3275C62.8365 18.5585 62.728 18.8945 62.728 19.3355ZM68.1839 23L67.2704 17.225H68.1524L68.7089 21.173C68.7299 21.341 68.7474 21.5265 68.7614 21.7295C68.7824 21.9255 68.7999 22.0865 68.8139 22.2125H68.8559C68.8699 22.0795 68.8874 21.915 68.9084 21.719C68.9364 21.523 68.9644 21.341 68.9924 21.173L69.6014 17.225H70.5884L71.1974 21.173C71.2254 21.348 71.2499 21.5335 71.2709 21.7295C71.2989 21.9185 71.3199 22.0795 71.3339 22.2125H71.3759C71.3969 22.0865 71.4179 21.9255 71.4389 21.7295C71.4599 21.5265 71.4809 21.341 71.5019 21.173L72.0794 17.225H72.9194L71.9639 23H70.8509L70.2524 19.115C70.2244 18.926 70.1964 18.73 70.1684 18.527C70.1404 18.317 70.1194 18.149 70.1054 18.023H70.0634C70.0494 18.149 70.0284 18.317 70.0004 18.527C69.9794 18.73 69.9549 18.926 69.9269 19.115L69.3074 23H68.1839ZM43.4728 37V36.055H45.4993V32.17H43.6828V31.225H46.5388V36.055H48.4393V37H43.4728ZM45.9193 30.2065C45.6813 30.2065 45.4923 30.147 45.3523 30.028C45.2123 29.902 45.1423 29.734 45.1423 29.524C45.1423 29.307 45.2123 29.1355 45.3523 29.0095C45.4923 28.8835 45.6813 28.8205 45.9193 28.8205C46.1573 28.8205 46.3463 28.8835 46.4863 29.0095C46.6263 29.1355 46.6963 29.307 46.6963 29.524C46.6963 29.734 46.6263 29.902 46.4863 30.028C46.3463 30.147 46.1573 30.2065 45.9193 30.2065ZM49.6112 37V31.225H50.6402V32.3275H50.6612C50.7102 31.9425 50.8677 31.645 51.1337 31.435C51.3997 31.225 51.7532 31.12 52.1942 31.12C52.7682 31.12 53.2267 31.302 53.5697 31.666C53.9127 32.03 54.0842 32.52 54.0842 33.136V37H53.0447V33.2515C53.0447 32.8595 52.9397 32.5585 52.7297 32.3485C52.5197 32.1315 52.2327 32.023 51.8687 32.023C51.4907 32.023 51.1932 32.1385 50.9762 32.3695C50.7592 32.5935 50.6507 32.9155 50.6507 33.3355V37H49.6112ZM58.5531 37C58.0561 37 57.6606 36.8565 57.3666 36.5695C57.0796 36.2825 56.9361 35.901 56.9361 35.425V32.17H55.3191V31.225H56.9361V29.5975H57.9756V31.225H60.2541V32.17H57.9756V35.4145C57.9756 35.6035 58.0281 35.7575 58.1331 35.8765C58.2451 35.9955 58.3921 36.055 58.5741 36.055H60.1491V37H58.5531ZM61.9615 37V31.225H62.9905V32.3275H63.0115C63.0605 31.9425 63.218 31.645 63.484 31.435C63.757 31.225 64.114 31.12 64.555 31.12C65.15 31.12 65.626 31.3125 65.983 31.6975C66.34 32.0825 66.5185 32.6005 66.5185 33.2515V33.6715H65.4685V33.3355C65.4685 32.9225 65.36 32.6005 65.143 32.3695C64.933 32.1385 64.6215 32.023 64.2085 32.023C63.4035 32.023 63.001 32.4675 63.001 33.3565V37H61.9615ZM70.0949 37.084C69.3879 37.084 68.8279 36.888 68.4149 36.496C68.0019 36.097 67.7954 35.5545 67.7954 34.8685V33.3565C67.7954 32.6705 68.0019 32.1315 68.4149 31.7395C68.8279 31.3405 69.3879 31.141 70.0949 31.141C70.8019 31.141 71.3619 31.3405 71.7749 31.7395C72.1879 32.1315 72.3944 32.667 72.3944 33.346V34.8685C72.3944 35.5545 72.1879 36.097 71.7749 36.496C71.3619 36.888 70.8019 37.084 70.0949 37.084ZM70.0949 36.1705C70.4869 36.1705 70.7949 36.062 71.0189 35.845C71.2429 35.621 71.3549 35.2955 71.3549 34.8685V33.3565C71.3549 32.9295 71.2429 32.6075 71.0189 32.3905C70.7949 32.1665 70.4869 32.0545 70.0949 32.0545C69.7029 32.0545 69.3949 32.1665 69.1709 32.3905C68.9469 32.6075 68.8349 32.9295 68.8349 33.3565V34.8685C68.8349 35.2955 68.9469 35.621 69.1709 35.845C69.3949 36.062 69.7029 36.1705 70.0949 36.1705ZM46.6123 51C46.0873 51 45.6673 50.846 45.3523 50.538C45.0373 50.23 44.8798 49.8205 44.8798 49.3095V44.28H42.9058V43.335H45.9193V49.299C45.9193 49.53 45.9823 49.7155 46.1083 49.8555C46.2413 49.9885 46.4198 50.055 46.6438 50.055H48.3973V51H46.6123ZM51.3017 51.105C50.6927 51.105 50.2132 50.951 49.8632 50.643C49.5202 50.328 49.3487 49.9045 49.3487 49.3725C49.3487 48.8265 49.5272 48.3995 49.8842 48.0915C50.2482 47.7765 50.7417 47.619 51.3647 47.619H53.0447V47.073C53.0447 46.737 52.9397 46.478 52.7297 46.296C52.5267 46.107 52.2432 46.0125 51.8792 46.0125C51.5502 46.0125 51.2737 46.086 51.0497 46.233C50.8327 46.373 50.6997 46.5585 50.6507 46.7895H49.6322C49.6602 46.4535 49.7757 46.163 49.9787 45.918C50.1817 45.666 50.4477 45.47 50.7767 45.33C51.1057 45.19 51.4767 45.12 51.8897 45.12C52.5617 45.12 53.0937 45.295 53.4857 45.645C53.8847 45.988 54.0842 46.4535 54.0842 47.0415V51H53.0657V49.929H53.0552C53.0062 50.293 52.8242 50.58 52.5092 50.79C52.1942 51 51.7917 51.105 51.3017 51.105ZM51.5852 50.2965C52.0052 50.2965 52.3517 50.1915 52.6247 49.9815C52.9047 49.7645 53.0447 49.488 53.0447 49.152V48.3645H51.3857C51.0777 48.3645 50.8327 48.4485 50.6507 48.6165C50.4757 48.7845 50.3882 49.012 50.3882 49.299C50.3882 49.614 50.4932 49.859 50.7032 50.034C50.9132 50.209 51.2072 50.2965 51.5852 50.2965ZM55.6971 51V45.225H56.7261V46.3275H56.7471C56.7961 45.9425 56.9536 45.645 57.2196 45.435C57.4856 45.225 57.8391 45.12 58.2801 45.12C58.8541 45.12 59.3126 45.302 59.6556 45.666C59.9986 46.03 60.1701 46.52 60.1701 47.136V51H59.1306V47.2515C59.1306 46.8595 59.0256 46.5585 58.8156 46.3485C58.6056 46.1315 58.3186 46.023 57.9546 46.023C57.5766 46.023 57.2791 46.1385 57.0621 46.3695C56.8451 46.5935 56.7366 46.9155 56.7366 47.3355V51H55.6971ZM62.5285 52.89V51.966H64.3345C64.9085 51.966 65.1955 51.693 65.1955 51.147V50.4855L65.2165 49.4355H65.1955C65.1535 49.8065 64.996 50.1005 64.723 50.3175C64.45 50.5345 64.0965 50.643 63.6625 50.643C63.0675 50.643 62.5985 50.447 62.2555 50.055C61.9125 49.663 61.741 49.1345 61.741 48.4695V47.283C61.741 46.618 61.9125 46.093 62.2555 45.708C62.5985 45.316 63.0675 45.12 63.6625 45.12C64.0965 45.12 64.45 45.2285 64.723 45.4455C64.996 45.6555 65.1535 45.9495 65.1955 46.3275H65.206L65.1955 45.225H66.2245V51.1575C66.2245 51.6965 66.0565 52.12 65.7205 52.428C65.3845 52.736 64.9225 52.89 64.3345 52.89H62.5285ZM63.988 49.74C64.359 49.74 64.653 49.6245 64.87 49.3935C65.087 49.1625 65.1955 48.837 65.1955 48.417V47.3355C65.1955 46.9225 65.087 46.6005 64.87 46.3695C64.653 46.1385 64.359 46.023 63.988 46.023C63.603 46.023 63.3055 46.1385 63.0955 46.3695C62.8855 46.5935 62.7805 46.9155 62.7805 47.3355V48.417C62.7805 48.844 62.8855 49.173 63.0955 49.404C63.3055 49.628 63.603 49.74 63.988 49.74ZM70.0844 51.105C69.4054 51.105 68.8629 50.9055 68.4569 50.5065C68.0509 50.1075 67.8479 49.565 67.8479 48.879V45.225H68.8874V48.879C68.8874 49.299 68.9924 49.6245 69.2024 49.8555C69.4194 50.0795 69.7134 50.1915 70.0844 50.1915C70.4624 50.1915 70.7599 50.0795 70.9769 49.8555C71.1939 49.6245 71.3024 49.299 71.3024 48.879V45.225H72.3419V48.879C72.3419 49.565 72.1354 50.1075 71.7224 50.5065C71.3164 50.9055 70.7704 51.105 70.0844 51.105ZM75.6453 51.105C75.0363 51.105 74.5568 50.951 74.2068 50.643C73.8638 50.328 73.6923 49.9045 73.6923 49.3725C73.6923 48.8265 73.8708 48.3995 74.2278 48.0915C74.5918 47.7765 75.0853 47.619 75.7083 47.619H77.3883V47.073C77.3883 46.737 77.2833 46.478 77.0733 46.296C76.8703 46.107 76.5868 46.0125 76.2228 46.0125C75.8938 46.0125 75.6173 46.086 75.3933 46.233C75.1763 46.373 75.0433 46.5585 74.9943 46.7895H73.9758C74.0038 46.4535 74.1193 46.163 74.3223 45.918C74.5253 45.666 74.7913 45.47 75.1203 45.33C75.4493 45.19 75.8203 45.12 76.2333 45.12C76.9053 45.12 77.4373 45.295 77.8293 45.645C78.2283 45.988 78.4278 46.4535 78.4278 47.0415V51H77.4093V49.929H77.3988C77.3498 50.293 77.1678 50.58 76.8528 50.79C76.5378 51 76.1353 51.105 75.6453 51.105ZM75.9288 50.2965C76.3488 50.2965 76.6953 50.1915 76.9683 49.9815C77.2483 49.7645 77.3883 49.488 77.3883 49.152V48.3645H75.7293C75.4213 48.3645 75.1763 48.4485 74.9943 48.6165C74.8193 48.7845 74.7318 49.012 74.7318 49.299C74.7318 49.614 74.8368 49.859 75.0468 50.034C75.2568 50.209 75.5508 50.2965 75.9288 50.2965ZM80.7862 52.89V51.966H82.5922C83.1662 51.966 83.4532 51.693 83.4532 51.147V50.4855L83.4742 49.4355H83.4532C83.4112 49.8065 83.2537 50.1005 82.9807 50.3175C82.7077 50.5345 82.3542 50.643 81.9202 50.643C81.3252 50.643 80.8562 50.447 80.5132 50.055C80.1702 49.663 79.9987 49.1345 79.9987 48.4695V47.283C79.9987 46.618 80.1702 46.093 80.5132 45.708C80.8562 45.316 81.3252 45.12 81.9202 45.12C82.3542 45.12 82.7077 45.2285 82.9807 45.4455C83.2537 45.6555 83.4112 45.9495 83.4532 46.3275H83.4637L83.4532 45.225H84.4822V51.1575C84.4822 51.6965 84.3142 52.12 83.9782 52.428C83.6422 52.736 83.1802 52.89 82.5922 52.89H80.7862ZM82.2457 49.74C82.6167 49.74 82.9107 49.6245 83.1277 49.3935C83.3447 49.1625 83.4532 48.837 83.4532 48.417V47.3355C83.4532 46.9225 83.3447 46.6005 83.1277 46.3695C82.9107 46.1385 82.6167 46.023 82.2457 46.023C81.8607 46.023 81.5632 46.1385 81.3532 46.3695C81.1432 46.5935 81.0382 46.9155 81.0382 47.3355V48.417C81.0382 48.844 81.1432 49.173 81.3532 49.404C81.5632 49.628 81.8607 49.74 82.2457 49.74ZM88.3526 51.105C87.8906 51.105 87.4846 51.014 87.1346 50.832C86.7916 50.643 86.5256 50.384 86.3366 50.055C86.1476 49.719 86.0531 49.327 86.0531 48.879V47.3355C86.0531 46.8945 86.1476 46.5095 86.3366 46.1805C86.5256 45.8445 86.7916 45.5855 87.1346 45.4035C87.4846 45.2145 87.8906 45.12 88.3526 45.12C88.8146 45.12 89.2171 45.2145 89.5601 45.4035C89.9101 45.5855 90.1796 45.8445 90.3686 46.1805C90.5576 46.5095 90.6521 46.8945 90.6521 47.3355V48.3645H87.0716V48.879C87.0716 49.327 87.1801 49.6665 87.3971 49.8975C87.6211 50.1285 87.9396 50.244 88.3526 50.244C88.7026 50.244 88.9826 50.1845 89.1926 50.0655C89.4026 49.9395 89.5356 49.754 89.5916 49.509H90.6206C90.5506 49.999 90.3056 50.3875 89.8856 50.6745C89.4726 50.9615 88.9616 51.105 88.3526 51.105ZM87.0716 47.3355V47.619H89.6441V47.3355C89.6441 46.8945 89.5321 46.5585 89.3081 46.3275C89.0911 46.0895 88.7726 45.9705 88.3526 45.9705C87.9326 45.9705 87.6141 46.0895 87.3971 46.3275C87.1801 46.5585 87.0716 46.8945 87.0716 47.3355ZM94.2495 51.084C93.6405 51.084 93.14 50.944 92.748 50.664C92.363 50.384 92.1705 50.0025 92.1705 49.5195H93.231C93.231 49.7365 93.3255 49.9045 93.5145 50.0235C93.7105 50.1355 93.9625 50.1915 94.2705 50.1915H94.7115C95.0755 50.1915 95.345 50.1215 95.52 49.9815C95.695 49.8345 95.7825 49.642 95.7825 49.404C95.7825 49.166 95.6985 48.9805 95.5305 48.8475C95.3625 48.7145 95.1245 48.62 94.8165 48.564L94.029 48.4485C92.881 48.2665 92.307 47.71 92.307 46.779C92.307 46.247 92.482 45.841 92.832 45.561C93.182 45.281 93.6825 45.141 94.3335 45.141H94.7325C95.3345 45.141 95.8175 45.2775 96.1815 45.5505C96.5455 45.8165 96.7275 46.17 96.7275 46.611H95.667C95.667 46.436 95.5795 46.296 95.4045 46.191C95.2365 46.086 95.0055 46.0335 94.7115 46.0335H94.3125C93.9905 46.0335 93.7455 46.1 93.5775 46.233C93.4095 46.359 93.3255 46.541 93.3255 46.779C93.3255 47.185 93.6125 47.4335 94.1865 47.5245L94.974 47.6505C95.604 47.7485 96.066 47.934 96.36 48.207C96.654 48.473 96.801 48.858 96.801 49.362C96.801 49.901 96.6225 50.3245 96.2655 50.6325C95.9155 50.9335 95.3905 51.084 94.6905 51.084H94.2495Z" fill="#4A6FF2"/>
<path d="M80.5163 30.0017L79.8242 33.0574H81.0752L81.5007 30.0017H80.5163ZM82.8388 30.0017L82.1467 33.0574H83.3977L83.8232 30.0017H82.8388ZM180.945 33.0574L181.637 30.0017H180.386L179.961 33.0574H180.945ZM178.623 33.0574L179.315 30.0017H178.069L177.638 33.0574H178.623Z" fill="#58AF86" fill-opacity="0.6"/>
<path d="M86.6832 36.937V37.5145H92.4897V36.937H86.6832ZM86.2002 35.3095V37.8505H86.9772V35.887H92.1852V37.84H92.9937V35.3095H86.2002ZM85.1502 28.9255V29.5345H94.0227V28.9255H85.1502ZM85.8957 30.2485V30.8365H93.3192V30.2485H85.8957ZM84.8247 34.0915V34.7215H94.3062V34.0915H84.8247ZM89.1402 28.1695V30.5005H89.9382V28.1695H89.1402ZM87.1347 33.409C87.3237 33.6925 87.5127 34.102 87.5652 34.375L88.3212 34.144C88.2372 33.8815 88.0587 33.493 87.8487 33.2095L87.1347 33.409ZM91.1982 33.157C91.1037 33.4615 90.8832 33.9025 90.7047 34.1965L91.3767 34.375C91.5657 34.1125 91.8177 33.7345 92.0382 33.3355L91.1982 33.157ZM87.1347 31.918H91.9857V32.758H87.1347V31.918ZM86.3892 31.372V33.2935H92.7732V31.372H86.3892ZM95.1357 29.3875V30.1015H98.5902V29.3875H95.1357ZM98.3592 29.3875V29.566C97.9392 32.8315 96.5532 35.4145 94.8732 36.538C95.0412 36.6745 95.2827 36.958 95.4087 37.147C97.2252 35.803 98.6217 33.22 99.1047 29.524L98.6217 29.356L98.4957 29.3875H98.3592ZM95.1567 31.2355C96.3537 32.7895 97.7187 34.9105 98.2857 36.2335L98.9052 35.7085C98.3382 34.417 96.9312 32.3485 95.7237 30.805L95.1567 31.2355ZM100.375 29.776V30.5005H103.945V29.776H100.375ZM100.354 28.201C100.144 29.734 99.7662 31.1935 99.0942 32.128C99.2727 32.233 99.5982 32.4535 99.7347 32.5795C100.417 31.5505 100.848 29.986 101.1 28.2955L100.354 28.201ZM103.767 29.776V29.902C103.641 30.6055 103.41 31.477 103.21 32.0125L103.83 32.212C104.092 31.6345 104.355 30.7 104.544 29.8915L104.029 29.7445L103.893 29.776H103.767ZM101.898 32.1805L101.247 32.2855C101.656 34.9 102.486 36.916 104.271 37.8505C104.386 37.6405 104.617 37.336 104.796 37.1785C103.105 36.412 102.265 34.5115 101.898 32.1805ZM101.236 31.1305V31.8655C101.236 33.409 101.037 35.6665 98.3592 37.3255C98.5377 37.4515 98.7897 37.693 98.9157 37.8715C101.751 36.0865 101.982 33.6085 101.982 31.876V31.1305H101.236ZM108.534 29.692V30.4165H114.834V29.692H108.534ZM110.035 28.1905V31.792H110.791V28.1905H110.035ZM112.639 28.1905V31.792H113.406V28.1905H112.639ZM109.006 32.254V37.8295H109.731V32.9575H113.7V37.777H114.445V32.254H109.006ZM109.395 34.4065V35.0995H113.994V34.4065H109.395ZM109.416 36.58V37.2835H114.004V36.58H109.416ZM111.337 32.569V37.0735H112.051V32.569H111.337ZM105.604 28.8625C107.284 30.343 107.536 31.981 107.536 33.8395C107.536 35.173 107.431 36.433 107.169 36.769C107.095 36.874 107.001 36.9265 106.843 36.9475C106.623 36.9685 106.224 36.9685 105.741 36.937C105.877 37.1575 105.972 37.4515 105.972 37.693C106.392 37.7245 106.822 37.7245 107.158 37.651C107.421 37.609 107.61 37.4935 107.757 37.3045C108.166 36.7375 108.282 35.3515 108.282 33.85C108.282 31.897 108.04 30.07 106.15 28.432L105.604 28.8625ZM107.515 31.9495C107.053 32.947 106.119 34.081 105.289 34.648C105.478 34.795 105.699 35.0575 105.825 35.257C106.665 34.564 107.61 33.346 108.103 32.2855L107.515 31.9495ZM107.956 28.4005C107.368 29.44 106.339 30.574 105.258 31.33C105.426 31.4665 105.657 31.708 105.772 31.8655C106.864 31.078 107.904 29.9965 108.565 28.8625L107.956 28.4005ZM118.824 29.692V30.4165H125.124V29.692H118.824ZM120.325 28.1905V31.792H121.081V28.1905H120.325ZM122.929 28.1905V31.792H123.696V28.1905H122.929ZM119.296 32.254V37.8295H120.021V32.9575H123.99V37.777H124.735V32.254H119.296ZM119.685 34.4065V35.0995H124.284V34.4065H119.685ZM119.706 36.58V37.2835H124.294V36.58H119.706ZM121.627 32.569V37.0735H122.341V32.569H121.627ZM115.894 28.8625C117.574 30.343 117.826 31.981 117.826 33.8395C117.826 35.173 117.721 36.433 117.459 36.769C117.385 36.874 117.291 36.9265 117.133 36.9475C116.913 36.9685 116.514 36.9685 116.031 36.937C116.167 37.1575 116.262 37.4515 116.262 37.693C116.682 37.7245 117.112 37.7245 117.448 37.651C117.711 37.609 117.9 37.4935 118.047 37.3045C118.456 36.7375 118.572 35.3515 118.572 33.85C118.572 31.897 118.33 30.07 116.44 28.432L115.894 28.8625ZM117.805 31.9495C117.343 32.947 116.409 34.081 115.579 34.648C115.768 34.795 115.989 35.0575 116.115 35.257C116.955 34.564 117.9 33.346 118.393 32.2855L117.805 31.9495ZM118.246 28.4005C117.658 29.44 116.629 30.574 115.548 31.33C115.716 31.4665 115.947 31.708 116.062 31.8655C117.154 31.078 118.194 29.9965 118.855 28.8625L118.246 28.4005ZM127.129 38.1235C128.232 37.7455 128.946 36.8845 128.946 35.7505C128.946 35.0155 128.631 34.5325 128.043 34.5325C127.623 34.5325 127.245 34.795 127.245 35.2885C127.245 35.7925 127.602 36.0445 128.032 36.0445C128.232 36.0445 128.442 35.992 128.589 35.803L128.022 35.005L128.221 35.8975C128.221 36.685 127.749 37.2205 126.888 37.5775L127.129 38.1235ZM138.994 36.685V37.42H145.914V36.685H138.994ZM140.695 32.4745H144.181V34.585H140.695V32.4745ZM140.695 29.671H144.181V31.7395H140.695V29.671ZM139.887 28.936V35.32H145.021V28.936H139.887ZM138.69 28.222C138.091 29.818 137.094 31.393 136.044 32.4115C136.191 32.6005 136.422 33.0205 136.506 33.2095C137.661 32.0335 138.753 30.2485 139.446 28.4635L138.69 28.222ZM137.566 30.931V37.8295H138.354V30.175L138.343 30.1645L137.566 30.931ZM146.67 32.8105V33.5245H155.962V32.8105H146.67ZM151.342 34.69V35.383H155.269V34.69H151.342ZM150.996 33.1255V37.105H151.794V33.1255H150.996ZM148.938 34.837L148.287 35.0785C149.106 37.1995 150.534 37.6405 152.991 37.6405H155.878C155.92 37.4095 156.046 37.063 156.162 36.8845C155.616 36.895 153.421 36.895 153.022 36.895C150.964 36.8845 149.578 36.559 148.938 34.837ZM148.486 33.8605C148.213 35.404 147.541 36.58 146.428 37.3045C146.607 37.4305 146.911 37.714 147.027 37.861C148.182 37.021 148.938 35.719 149.274 33.976L148.486 33.8605ZM148.539 30.637H154.009V31.498H148.539V30.637ZM148.539 29.2195H154.009V30.07H148.539V29.2195ZM147.772 28.621V32.0965H154.807V28.621H147.772ZM158.073 28.978V29.7865H165.181V28.978H158.073ZM156.939 32.1385V32.9365H166.273V32.1385H156.939ZM160.257 32.611C159.879 33.85 159.165 35.572 158.587 36.6325L159.322 36.8845C159.931 35.8555 160.666 34.1965 161.202 32.863L160.257 32.611ZM157.033 36.475L157.107 37.315C159.175 37.2415 162.357 37.0945 165.307 36.9475L165.349 36.202C162.325 36.3175 159.06 36.433 157.033 36.475ZM162.955 34.2805C163.942 35.362 165.024 36.874 165.486 37.861L166.263 37.42C165.78 36.4435 164.719 34.984 163.701 33.9235L162.955 34.2805ZM167.722 29.3665V30.0175H176.133V29.3665H167.722ZM168.226 30.805V31.4455H175.587V30.805H168.226ZM167.239 32.275V32.9365H176.469V32.275H167.239ZM171.471 29.734V32.4745H172.279V29.734H171.471ZM169.182 28.4425C169.465 28.81 169.77 29.3035 169.885 29.629L170.62 29.3455C170.494 29.0305 170.179 28.558 169.864 28.222L169.182 28.4425ZM173.854 28.1695C173.676 28.5055 173.35 29.0095 173.109 29.3245L173.823 29.545C174.075 29.251 174.39 28.831 174.663 28.39L173.854 28.1695ZM173.319 32.4115L172.657 32.6425C173.424 33.7765 174.799 34.732 176.206 35.1835C176.311 34.9735 176.553 34.669 176.731 34.5115C175.356 34.1545 173.991 33.3565 173.319 32.4115ZM170.484 32.4115C169.78 33.3565 168.373 34.207 167.05 34.5955C167.218 34.753 167.449 35.0365 167.565 35.236C168.909 34.7425 170.337 33.7765 171.135 32.674L170.484 32.4115ZM169.822 33.7135V34.4065C169.822 35.2885 169.644 36.475 167.775 37.2835C167.953 37.42 168.195 37.7035 168.3 37.8715C170.347 36.9265 170.589 35.53 170.589 34.4275V33.7135H169.822ZM173.035 33.703V37.8295H173.802V33.703H173.035Z" fill="#58AF86"/>
<path d="M169.107 52.155C168.484 52.155 167.991 51.9975 167.627 51.6825C167.27 51.3745 167.116 50.9405 167.165 50.3805L167.322 48.69C167.357 48.34 167.305 48.088 167.165 47.934C167.032 47.773 166.755 47.6925 166.335 47.6925H165.096V46.758H166.335C166.755 46.758 167.032 46.6775 167.165 46.5165C167.305 46.3555 167.357 46.1 167.322 45.75L167.165 44.049C167.116 43.496 167.27 43.0655 167.627 42.7575C167.991 42.4425 168.484 42.285 169.107 42.285H169.643V43.2195H169.149C168.834 43.2195 168.593 43.293 168.425 43.44C168.257 43.587 168.183 43.8005 168.204 44.0805L168.362 45.7815C168.397 46.1735 168.316 46.492 168.12 46.737C167.924 46.975 167.648 47.122 167.291 47.178C167.648 47.248 167.924 47.416 168.12 47.682C168.316 47.948 168.397 48.2735 168.362 48.6585L168.204 50.3595C168.183 50.6395 168.257 50.853 168.425 51C168.593 51.147 168.834 51.2205 169.149 51.2205H169.643V52.155H169.107Z" fill="#BC9CD5"/>
<path d="M63.9985 65.105C63.3195 65.105 62.777 64.9055 62.371 64.5065C61.965 64.1075 61.762 63.565 61.762 62.879V59.225H62.8015V62.879C62.8015 63.299 62.9065 63.6245 63.1165 63.8555C63.3335 64.0795 63.6275 64.1915 63.9985 64.1915C64.3765 64.1915 64.674 64.0795 64.891 63.8555C65.108 63.6245 65.2165 63.299 65.2165 62.879V59.225H66.256V62.879C66.256 63.565 66.0495 64.1075 65.6365 64.5065C65.2305 64.9055 64.6845 65.105 63.9985 65.105ZM69.9059 65.084C69.2969 65.084 68.7964 64.944 68.4044 64.664C68.0194 64.384 67.8269 64.0025 67.8269 63.5195H68.8874C68.8874 63.7365 68.9819 63.9045 69.1709 64.0235C69.3669 64.1355 69.6189 64.1915 69.9269 64.1915H70.3679C70.7319 64.1915 71.0014 64.1215 71.1764 63.9815C71.3514 63.8345 71.4389 63.642 71.4389 63.404C71.4389 63.166 71.3549 62.9805 71.1869 62.8475C71.0189 62.7145 70.7809 62.62 70.4729 62.564L69.6854 62.4485C68.5374 62.2665 67.9634 61.71 67.9634 60.779C67.9634 60.247 68.1384 59.841 68.4884 59.561C68.8384 59.281 69.3389 59.141 69.9899 59.141H70.3889C70.9909 59.141 71.4739 59.2775 71.8379 59.5505C72.2019 59.8165 72.3839 60.17 72.3839 60.611H71.3234C71.3234 60.436 71.2359 60.296 71.0609 60.191C70.8929 60.086 70.6619 60.0335 70.3679 60.0335H69.9689C69.6469 60.0335 69.4019 60.1 69.2339 60.233C69.0659 60.359 68.9819 60.541 68.9819 60.779C68.9819 61.185 69.2689 61.4335 69.8429 61.5245L70.6304 61.6505C71.2604 61.7485 71.7224 61.934 72.0164 62.207C72.3104 62.473 72.4574 62.858 72.4574 63.362C72.4574 63.901 72.2789 64.3245 71.9219 64.6325C71.5719 64.9335 71.0469 65.084 70.3469 65.084H69.9059ZM73.9023 65V64.055H75.9288V60.17H74.1123V59.225H76.9683V64.055H78.8688V65H73.9023ZM76.3488 58.2065C76.1108 58.2065 75.9218 58.147 75.7818 58.028C75.6418 57.902 75.5718 57.734 75.5718 57.524C75.5718 57.307 75.6418 57.1355 75.7818 57.0095C75.9218 56.8835 76.1108 56.8205 76.3488 56.8205C76.5868 56.8205 76.7758 56.8835 76.9158 57.0095C77.0558 57.1355 77.1258 57.307 77.1258 57.524C77.1258 57.734 77.0558 57.902 76.9158 58.028C76.7758 58.147 76.5868 58.2065 76.3488 58.2065ZM80.0407 65V59.225H81.0697V60.3275H81.0907C81.1397 59.9425 81.2972 59.645 81.5632 59.435C81.8292 59.225 82.1827 59.12 82.6237 59.12C83.1977 59.12 83.6562 59.302 83.9992 59.666C84.3422 60.03 84.5137 60.52 84.5137 61.136V65H83.4742V61.2515C83.4742 60.8595 83.3692 60.5585 83.1592 60.3485C82.9492 60.1315 82.6622 60.023 82.2982 60.023C81.9202 60.023 81.6227 60.1385 81.4057 60.3695C81.1887 60.5935 81.0802 60.9155 81.0802 61.3355V65H80.0407ZM86.8721 66.89V65.966H88.6781C89.2521 65.966 89.5391 65.693 89.5391 65.147V64.4855L89.5601 63.4355H89.5391C89.4971 63.8065 89.3396 64.1005 89.0666 64.3175C88.7936 64.5345 88.4401 64.643 88.0061 64.643C87.4111 64.643 86.9421 64.447 86.5991 64.055C86.2561 63.663 86.0846 63.1345 86.0846 62.4695V61.283C86.0846 60.618 86.2561 60.093 86.5991 59.708C86.9421 59.316 87.4111 59.12 88.0061 59.12C88.4401 59.12 88.7936 59.2285 89.0666 59.4455C89.3396 59.6555 89.4971 59.9495 89.5391 60.3275H89.5496L89.5391 59.225H90.5681V65.1575C90.5681 65.6965 90.4001 66.12 90.0641 66.428C89.7281 66.736 89.2661 66.89 88.6781 66.89H86.8721ZM88.3316 63.74C88.7026 63.74 88.9966 63.6245 89.2136 63.3935C89.4306 63.1625 89.5391 62.837 89.5391 62.417V61.3355C89.5391 60.9225 89.4306 60.6005 89.2136 60.3695C88.9966 60.1385 88.7026 60.023 88.3316 60.023C87.9466 60.023 87.6491 60.1385 87.4391 60.3695C87.2291 60.5935 87.1241 60.9155 87.1241 61.3355V62.417C87.1241 62.844 87.2291 63.173 87.4391 63.404C87.6491 63.628 87.9466 63.74 88.3316 63.74ZM64.87 79C64.345 79 63.925 78.846 63.61 78.538C63.295 78.23 63.1375 77.8205 63.1375 77.3095V72.28H61.1635V71.335H64.177V77.299C64.177 77.53 64.24 77.7155 64.366 77.8555C64.499 77.9885 64.6775 78.055 64.9015 78.055H66.655V79H64.87ZM67.8164 79V78.055H69.8429V74.17H68.0264V73.225H70.8824V78.055H72.7829V79H67.8164ZM70.2629 72.2065C70.0249 72.2065 69.8359 72.147 69.6959 72.028C69.5559 71.902 69.4859 71.734 69.4859 71.524C69.4859 71.307 69.5559 71.1355 69.6959 71.0095C69.8359 70.8835 70.0249 70.8205 70.2629 70.8205C70.5009 70.8205 70.6899 70.8835 70.8299 71.0095C70.9699 71.1355 71.0399 71.307 71.0399 71.524C71.0399 71.734 70.9699 71.902 70.8299 72.028C70.6899 72.147 70.5009 72.2065 70.2629 72.2065ZM73.9863 79V71.335H75.0258V75.577H76.0968L77.7033 73.225H78.8793L76.9893 75.9865L78.9108 79H77.7138L76.0968 76.4695H75.0258V79H73.9863ZM82.2667 79.105C81.8047 79.105 81.3987 79.014 81.0487 78.832C80.7057 78.643 80.4397 78.384 80.2507 78.055C80.0617 77.719 79.9672 77.327 79.9672 76.879V75.3355C79.9672 74.8945 80.0617 74.5095 80.2507 74.1805C80.4397 73.8445 80.7057 73.5855 81.0487 73.4035C81.3987 73.2145 81.8047 73.12 82.2667 73.12C82.7287 73.12 83.1312 73.2145 83.4742 73.4035C83.8242 73.5855 84.0937 73.8445 84.2827 74.1805C84.4717 74.5095 84.5662 74.8945 84.5662 75.3355V76.3645H80.9857V76.879C80.9857 77.327 81.0942 77.6665 81.3112 77.8975C81.5352 78.1285 81.8537 78.244 82.2667 78.244C82.6167 78.244 82.8967 78.1845 83.1067 78.0655C83.3167 77.9395 83.4497 77.754 83.5057 77.509H84.5347C84.4647 77.999 84.2197 78.3875 83.7997 78.6745C83.3867 78.9615 82.8757 79.105 82.2667 79.105ZM80.9857 75.3355V75.619H83.5582V75.3355C83.5582 74.8945 83.4462 74.5585 83.2222 74.3275C83.0052 74.0895 82.6867 73.9705 82.2667 73.9705C81.8467 73.9705 81.5282 74.0895 81.3112 74.3275C81.0942 74.5585 80.9857 74.8945 80.9857 75.3355ZM63.631 93.105C63.05 93.105 62.5845 92.9125 62.2345 92.5275C61.8845 92.1355 61.7095 91.607 61.7095 90.942V89.283C61.7095 88.618 61.8845 88.093 62.2345 87.708C62.5845 87.316 63.05 87.12 63.631 87.12C64.051 87.12 64.3975 87.2285 64.6705 87.4455C64.9505 87.6555 65.1255 87.9425 65.1955 88.3065H65.2165L65.1955 86.994V85.335H66.235V93H65.206V91.908H65.1955C65.1255 92.286 64.9505 92.58 64.6705 92.79C64.3975 93 64.051 93.105 63.631 93.105ZM63.988 92.202C64.359 92.202 64.653 92.0865 64.87 91.8555C65.087 91.6245 65.1955 91.299 65.1955 90.879V89.346C65.1955 88.926 65.087 88.6005 64.87 88.3695C64.653 88.1385 64.359 88.023 63.988 88.023C63.603 88.023 63.2985 88.1385 63.0745 88.3695C62.8575 88.5935 62.749 88.9155 62.749 89.3355V90.879C62.749 91.306 62.8575 91.635 63.0745 91.866C63.2985 92.09 63.603 92.202 63.988 92.202ZM67.8164 93V92.055H69.8429V88.17H68.0264V87.225H70.8824V92.055H72.7829V93H67.8164ZM70.2629 86.2065C70.0249 86.2065 69.8359 86.147 69.6959 86.028C69.5559 85.902 69.4859 85.734 69.4859 85.524C69.4859 85.307 69.5559 85.1355 69.6959 85.0095C69.8359 84.8835 70.0249 84.8205 70.2629 84.8205C70.5009 84.8205 70.6899 84.8835 70.8299 85.0095C70.9699 85.1355 71.0399 85.307 71.0399 85.524C71.0399 85.734 70.9699 85.902 70.8299 86.028C70.6899 86.147 70.5009 86.2065 70.2629 86.2065ZM75.9918 93.084C75.3828 93.084 74.8823 92.944 74.4903 92.664C74.1053 92.384 73.9128 92.0025 73.9128 91.5195H74.9733C74.9733 91.7365 75.0678 91.9045 75.2568 92.0235C75.4528 92.1355 75.7048 92.1915 76.0128 92.1915H76.4538C76.8178 92.1915 77.0873 92.1215 77.2623 91.9815C77.4373 91.8345 77.5248 91.642 77.5248 91.404C77.5248 91.166 77.4408 90.9805 77.2728 90.8475C77.1048 90.7145 76.8668 90.62 76.5588 90.564L75.7713 90.4485C74.6233 90.2665 74.0493 89.71 74.0493 88.779C74.0493 88.247 74.2243 87.841 74.5743 87.561C74.9243 87.281 75.4248 87.141 76.0758 87.141H76.4748C77.0768 87.141 77.5598 87.2775 77.9238 87.5505C78.2878 87.8165 78.4698 88.17 78.4698 88.611H77.4093C77.4093 88.436 77.3218 88.296 77.1468 88.191C76.9788 88.086 76.7478 88.0335 76.4538 88.0335H76.0548C75.7328 88.0335 75.4878 88.1 75.3198 88.233C75.1518 88.359 75.0678 88.541 75.0678 88.779C75.0678 89.185 75.3548 89.4335 75.9288 89.5245L76.7163 89.6505C77.3463 89.7485 77.8083 89.934 78.1023 90.207C78.3963 90.473 78.5433 90.858 78.5433 91.362C78.5433 91.901 78.3648 92.3245 78.0078 92.6325C77.6578 92.9335 77.1328 93.084 76.4328 93.084H75.9918ZM83.1277 93C82.6027 93 82.1827 92.846 81.8677 92.538C81.5527 92.23 81.3952 91.8205 81.3952 91.3095V86.28H79.4212V85.335H82.4347V91.299C82.4347 91.53 82.4977 91.7155 82.6237 91.8555C82.7567 91.9885 82.9352 92.055 83.1592 92.055H84.9127V93H83.1277ZM86.0741 93V92.055H88.1006V88.17H86.2841V87.225H89.1401V92.055H91.0406V93H86.0741ZM88.5206 86.2065C88.2826 86.2065 88.0936 86.147 87.9536 86.028C87.8136 85.902 87.7436 85.734 87.7436 85.524C87.7436 85.307 87.8136 85.1355 87.9536 85.0095C88.0936 84.8835 88.2826 84.8205 88.5206 84.8205C88.7586 84.8205 88.9476 84.8835 89.0876 85.0095C89.2276 85.1355 89.2976 85.307 89.2976 85.524C89.2976 85.734 89.2276 85.902 89.0876 86.028C88.9476 86.147 88.7586 86.2065 88.5206 86.2065ZM92.244 93V85.335H93.2835V89.577H94.3545L95.961 87.225H97.137L95.247 89.9865L97.1685 93H95.9715L94.3545 90.4695H93.2835V93H92.244ZM100.524 93.105C100.062 93.105 99.6564 93.014 99.3064 92.832C98.9634 92.643 98.6974 92.384 98.5084 92.055C98.3194 91.719 98.2249 91.327 98.2249 90.879V89.3355C98.2249 88.8945 98.3194 88.5095 98.5084 88.1805C98.6974 87.8445 98.9634 87.5855 99.3064 87.4035C99.6564 87.2145 100.062 87.12 100.524 87.12C100.986 87.12 101.389 87.2145 101.732 87.4035C102.082 87.5855 102.351 87.8445 102.54 88.1805C102.729 88.5095 102.824 88.8945 102.824 89.3355V90.3645H99.2434V90.879C99.2434 91.327 99.3519 91.6665 99.5689 91.8975C99.7929 92.1285 100.111 92.244 100.524 92.244C100.874 92.244 101.154 92.1845 101.364 92.0655C101.574 91.9395 101.707 91.754 101.763 91.509H102.792C102.722 91.999 102.477 92.3875 102.057 92.6745C101.644 92.9615 101.133 93.105 100.524 93.105ZM99.2434 89.3355V89.619H101.816V89.3355C101.816 88.8945 101.704 88.5585 101.48 88.3275C101.263 88.0895 100.944 87.9705 100.524 87.9705C100.104 87.9705 99.7859 88.0895 99.5689 88.3275C99.3519 88.5585 99.2434 88.8945 99.2434 89.3355Z" fill="#DA8A2C"/>
<path d="M94.4385 60.737C94.1655 60.737 93.945 60.6635 93.777 60.5165C93.616 60.3695 93.5355 60.1735 93.5355 59.9285C93.5355 59.6835 93.616 59.4875 93.777 59.3405C93.945 59.1935 94.1655 59.12 94.4385 59.12C94.7115 59.12 94.9285 59.1935 95.0895 59.3405C95.2575 59.4875 95.3415 59.6835 95.3415 59.9285C95.3415 60.1735 95.2575 60.3695 95.0895 60.5165C94.9285 60.6635 94.7115 60.737 94.4385 60.737ZM94.4385 65.105C94.1655 65.105 93.945 65.0315 93.777 64.8845C93.616 64.7375 93.5355 64.5415 93.5355 64.2965C93.5355 64.0515 93.616 63.8555 93.777 63.7085C93.945 63.5545 94.1655 63.4775 94.4385 63.4775C94.7115 63.4775 94.9285 63.5545 95.0895 63.7085C95.2575 63.8555 95.3415 64.0515 95.3415 64.2965C95.3415 64.5415 95.2575 64.7375 95.0895 64.8845C94.9285 65.0315 94.7115 65.105 94.4385 65.105ZM88.3526 74.737C88.0796 74.737 87.8591 74.6635 87.6911 74.5165C87.5301 74.3695 87.4496 74.1735 87.4496 73.9285C87.4496 73.6835 87.5301 73.4875 87.6911 73.3405C87.8591 73.1935 88.0796 73.12 88.3526 73.12C88.6256 73.12 88.8426 73.1935 89.0036 73.3405C89.1716 73.4875 89.2556 73.6835 89.2556 73.9285C89.2556 74.1735 89.1716 74.3695 89.0036 74.5165C88.8426 74.6635 88.6256 74.737 88.3526 74.737ZM88.3526 79.105C88.0796 79.105 87.8591 79.0315 87.6911 78.8845C87.5301 78.7375 87.4496 78.5415 87.4496 78.2965C87.4496 78.0515 87.5301 77.8555 87.6911 77.7085C87.8591 77.5545 88.0796 77.4775 88.3526 77.4775C88.6256 77.4775 88.8426 77.5545 89.0036 77.7085C89.1716 77.8555 89.2556 78.0515 89.2556 78.2965C89.2556 78.5415 89.1716 78.7375 89.0036 78.8845C88.8426 79.0315 88.6256 79.105 88.3526 79.105ZM106.61 88.737C106.337 88.737 106.117 88.6635 105.949 88.5165C105.788 88.3695 105.707 88.1735 105.707 87.9285C105.707 87.6835 105.788 87.4875 105.949 87.3405C106.117 87.1935 106.337 87.12 106.61 87.12C106.883 87.12 107.1 87.1935 107.261 87.3405C107.429 87.4875 107.513 87.6835 107.513 87.9285C107.513 88.1735 107.429 88.3695 107.261 88.5165C107.1 88.6635 106.883 88.737 106.61 88.737ZM106.61 93.105C106.337 93.105 106.117 93.0315 105.949 92.8845C105.788 92.7375 105.707 92.5415 105.707 92.2965C105.707 92.0515 105.788 91.8555 105.949 91.7085C106.117 91.5545 106.337 91.4775 106.61 91.4775C106.883 91.4775 107.1 91.5545 107.261 91.7085C107.429 91.8555 107.513 92.0515 107.513 92.2965C107.513 92.5415 107.429 92.7375 107.261 92.8845C107.1 93.0315 106.883 93.105 106.61 93.105Z" fill="#DA8A2C" fill-opacity="0.6"/>
<path d="M104.384 65V57.335H105.424V60.5795H106.495L108.133 57.335H109.267L107.408 61.01L109.361 65H108.185L106.474 61.493H105.424V65H104.384ZM112.696 65.084C111.989 65.084 111.429 64.888 111.016 64.496C110.603 64.097 110.397 63.5545 110.397 62.8685V61.3565C110.397 60.6705 110.603 60.1315 111.016 59.7395C111.429 59.3405 111.989 59.141 112.696 59.141C113.403 59.141 113.963 59.3405 114.376 59.7395C114.789 60.1315 114.996 60.667 114.996 61.346V62.8685C114.996 63.5545 114.789 64.097 114.376 64.496C113.963 64.888 113.403 65.084 112.696 65.084ZM112.696 64.1705C113.088 64.1705 113.396 64.062 113.62 63.845C113.844 63.621 113.956 63.2955 113.956 62.8685V61.3565C113.956 60.9295 113.844 60.6075 113.62 60.3905C113.396 60.1665 113.088 60.0545 112.696 60.0545C112.304 60.0545 111.996 60.1665 111.772 60.3905C111.548 60.6075 111.436 60.9295 111.436 61.3565V62.8685C111.436 63.2955 111.548 63.621 111.772 63.845C111.996 64.062 112.304 64.1705 112.696 64.1705ZM119.412 65C118.915 65 118.52 64.8565 118.226 64.5695C117.939 64.2825 117.795 63.901 117.795 63.425V60.17H116.178V59.225H117.795V57.5975H118.835V59.225H121.113V60.17H118.835V63.4145C118.835 63.6035 118.887 63.7575 118.992 63.8765C119.104 63.9955 119.251 64.055 119.433 64.055H121.008V65H119.412ZM125.729 65C125.204 65 124.784 64.846 124.469 64.538C124.154 64.23 123.996 63.8205 123.996 63.3095V58.28H122.022V57.335H125.036V63.299C125.036 63.53 125.099 63.7155 125.225 63.8555C125.358 63.9885 125.536 64.055 125.76 64.055H127.514V65H125.729ZM128.675 65V64.055H130.702V60.17H128.885V59.225H131.741V64.055H133.642V65H128.675ZM131.122 58.2065C130.884 58.2065 130.695 58.147 130.555 58.028C130.415 57.902 130.345 57.734 130.345 57.524C130.345 57.307 130.415 57.1355 130.555 57.0095C130.695 56.8835 130.884 56.8205 131.122 56.8205C131.36 56.8205 131.549 56.8835 131.689 57.0095C131.829 57.1355 131.899 57.307 131.899 57.524C131.899 57.734 131.829 57.902 131.689 58.028C131.549 58.147 131.36 58.2065 131.122 58.2065ZM134.814 65V59.225H135.843V60.3275H135.864C135.913 59.9425 136.07 59.645 136.336 59.435C136.602 59.225 136.956 59.12 137.397 59.12C137.971 59.12 138.429 59.302 138.772 59.666C139.115 60.03 139.287 60.52 139.287 61.136V65H138.247V61.2515C138.247 60.8595 138.142 60.5585 137.932 60.3485C137.722 60.1315 137.435 60.023 137.071 60.023C136.693 60.023 136.396 60.1385 136.179 60.3695C135.962 60.5935 135.853 60.9155 135.853 61.3355V65H134.814ZM159.157 65V57.335H161.541C162.01 57.335 162.419 57.4295 162.769 57.6185C163.119 57.8005 163.392 58.0595 163.588 58.3955C163.784 58.7245 163.882 59.113 163.882 59.561C163.882 60.079 163.749 60.5235 163.483 60.8945C163.217 61.2655 162.857 61.5245 162.402 61.6715L163.987 65H162.78L161.352 61.7975H160.197V65H159.157ZM160.197 60.8735H161.541C161.933 60.8735 162.241 60.7545 162.465 60.5165C162.696 60.2785 162.811 59.9635 162.811 59.5715C162.811 59.1725 162.696 58.854 162.465 58.616C162.234 58.378 161.926 58.259 161.541 58.259H160.197V60.8735ZM167.459 65.105C166.78 65.105 166.237 64.9055 165.831 64.5065C165.425 64.1075 165.222 63.565 165.222 62.879V59.225H166.262V62.879C166.262 63.299 166.367 63.6245 166.577 63.8555C166.794 64.0795 167.088 64.1915 167.459 64.1915C167.837 64.1915 168.134 64.0795 168.351 63.8555C168.568 63.6245 168.677 63.299 168.677 62.879V59.225H169.716V62.879C169.716 63.565 169.51 64.1075 169.097 64.5065C168.691 64.9055 168.145 65.105 167.459 65.105ZM173.366 65.084C172.757 65.084 172.257 64.944 171.865 64.664C171.48 64.384 171.287 64.0025 171.287 63.5195H172.348C172.348 63.7365 172.442 63.9045 172.631 64.0235C172.827 64.1355 173.079 64.1915 173.387 64.1915H173.828C174.192 64.1915 174.462 64.1215 174.637 63.9815C174.812 63.8345 174.899 63.642 174.899 63.404C174.899 63.166 174.815 62.9805 174.647 62.8475C174.479 62.7145 174.241 62.62 173.933 62.564L173.146 62.4485C171.998 62.2665 171.424 61.71 171.424 60.779C171.424 60.247 171.599 59.841 171.949 59.561C172.299 59.281 172.799 59.141 173.45 59.141H173.849C174.451 59.141 174.934 59.2775 175.298 59.5505C175.662 59.8165 175.844 60.17 175.844 60.611H174.784C174.784 60.436 174.696 60.296 174.521 60.191C174.353 60.086 174.122 60.0335 173.828 60.0335H173.429C173.107 60.0335 172.862 60.1 172.694 60.233C172.526 60.359 172.442 60.541 172.442 60.779C172.442 61.185 172.729 61.4335 173.303 61.5245L174.091 61.6505C174.721 61.7485 175.183 61.934 175.477 62.207C175.771 62.473 175.918 62.858 175.918 63.362C175.918 63.901 175.739 64.3245 175.382 64.6325C175.032 64.9335 174.507 65.084 173.807 65.084H173.366ZM180.271 65C179.774 65 179.379 64.8565 179.085 64.5695C178.798 64.2825 178.654 63.901 178.654 63.425V60.17H177.037V59.225H178.654V57.5975H179.694V59.225H181.972V60.17H179.694V63.4145C179.694 63.6035 179.746 63.7575 179.851 63.8765C179.963 63.9955 180.11 64.055 180.292 64.055H181.867V65H180.271ZM204.016 65.105C203.519 65.105 203.085 65.0175 202.714 64.8425C202.343 64.6675 202.056 64.4225 201.853 64.1075C201.65 63.7855 201.549 63.4075 201.549 62.9735H202.588C202.588 63.3375 202.718 63.6315 202.977 63.8555C203.243 64.0725 203.593 64.181 204.027 64.181C204.447 64.181 204.779 64.0725 205.024 63.8555C205.269 63.6315 205.392 63.3375 205.392 62.9735C205.392 62.6865 205.315 62.4345 205.161 62.2175C205.007 61.9935 204.797 61.843 204.531 61.766L203.449 61.4405C202.91 61.2795 202.49 61.01 202.189 60.632C201.895 60.254 201.748 59.8095 201.748 59.2985C201.748 58.6685 201.955 58.168 202.368 57.797C202.781 57.419 203.337 57.23 204.037 57.23C204.73 57.23 205.283 57.419 205.696 57.797C206.109 58.168 206.316 58.665 206.316 59.288H205.276C205.276 58.945 205.164 58.6685 204.94 58.4585C204.716 58.2485 204.415 58.1435 204.037 58.1435C203.652 58.1435 203.344 58.2485 203.113 58.4585C202.882 58.6615 202.767 58.9345 202.767 59.2775C202.767 59.5505 202.844 59.785 202.998 59.981C203.159 60.177 203.379 60.317 203.659 60.401L204.772 60.7475C205.283 60.9085 205.686 61.185 205.98 61.577C206.274 61.969 206.421 62.431 206.421 62.963C206.421 63.397 206.319 63.775 206.116 64.097C205.92 64.419 205.644 64.6675 205.287 64.8425C204.93 65.0175 204.506 65.105 204.016 65.105ZM208.16 65L207.246 59.225H208.128L208.685 63.173C208.706 63.341 208.723 63.5265 208.737 63.7295C208.758 63.9255 208.776 64.0865 208.79 64.2125H208.832C208.846 64.0795 208.863 63.915 208.884 63.719C208.912 63.523 208.94 63.341 208.968 63.173L209.577 59.225H210.564L211.173 63.173C211.201 63.348 211.226 63.5335 211.247 63.7295C211.275 63.9185 211.296 64.0795 211.31 64.2125H211.352C211.373 64.0865 211.394 63.9255 211.415 63.7295C211.436 63.5265 211.457 63.341 211.478 63.173L212.055 59.225H212.895L211.94 65H210.827L210.228 61.115C210.2 60.926 210.172 60.73 210.144 60.527C210.116 60.317 210.095 60.149 210.081 60.023H210.039C210.025 60.149 210.004 60.317 209.976 60.527C209.955 60.73 209.931 60.926 209.903 61.115L209.283 65H208.16ZM213.878 65V64.055H215.904V60.17H214.088V59.225H216.944V64.055H218.844V65H213.878ZM216.324 58.2065C216.086 58.2065 215.897 58.147 215.757 58.028C215.617 57.902 215.547 57.734 215.547 57.524C215.547 57.307 215.617 57.1355 215.757 57.0095C215.897 56.8835 216.086 56.8205 216.324 56.8205C216.562 56.8205 216.751 56.8835 216.891 57.0095C217.031 57.1355 217.101 57.307 217.101 57.524C217.101 57.734 217.031 57.902 216.891 58.028C216.751 58.147 216.562 58.2065 216.324 58.2065ZM221.36 65V60.758H219.701V59.813H221.36V58.847C221.36 58.385 221.511 58.0175 221.812 57.7445C222.113 57.4715 222.522 57.335 223.04 57.335H224.731V58.2695H223.04C222.613 58.2695 222.4 58.4655 222.4 58.8575V59.813H224.731V60.758H222.4V65H221.36ZM228.958 65C228.461 65 228.066 64.8565 227.772 64.5695C227.485 64.2825 227.341 63.901 227.341 63.425V60.17H225.724V59.225H227.341V57.5975H228.381V59.225H230.659V60.17H228.381V63.4145C228.381 63.6035 228.433 63.7575 228.538 63.8765C228.65 63.9955 228.797 64.055 228.979 64.055H230.554V65H228.958ZM252.357 65.105C251.608 65.105 251.02 64.8985 250.593 64.4855C250.166 64.0655 249.952 63.495 249.952 62.774H250.992C250.992 63.222 251.111 63.5685 251.349 63.8135C251.594 64.0585 251.93 64.181 252.357 64.181C252.784 64.181 253.116 64.0585 253.354 63.8135C253.599 63.5685 253.722 63.2255 253.722 62.7845V58.28H251.569V57.335H254.761V62.7845C254.761 63.4985 254.544 64.0655 254.11 64.4855C253.683 64.8985 253.099 65.105 252.357 65.105ZM258.222 65.105C257.613 65.105 257.134 64.951 256.784 64.643C256.441 64.328 256.269 63.9045 256.269 63.3725C256.269 62.8265 256.448 62.3995 256.805 62.0915C257.169 61.7765 257.662 61.619 258.285 61.619H259.965V61.073C259.965 60.737 259.86 60.478 259.65 60.296C259.447 60.107 259.164 60.0125 258.8 60.0125C258.471 60.0125 258.194 60.086 257.97 60.233C257.753 60.373 257.62 60.5585 257.571 60.7895H256.553C256.581 60.4535 256.696 60.163 256.899 59.918C257.102 59.666 257.368 59.47 257.697 59.33C258.026 59.19 258.397 59.12 258.81 59.12C259.482 59.12 260.014 59.295 260.406 59.645C260.805 59.988 261.005 60.4535 261.005 61.0415V65H259.986V63.929H259.976C259.927 64.293 259.745 64.58 259.43 64.79C259.115 65 258.712 65.105 258.222 65.105ZM258.506 64.2965C258.926 64.2965 259.272 64.1915 259.545 63.9815C259.825 63.7645 259.965 63.488 259.965 63.152V62.3645H258.306C257.998 62.3645 257.753 62.4485 257.571 62.6165C257.396 62.7845 257.309 63.012 257.309 63.299C257.309 63.614 257.414 63.859 257.624 64.034C257.834 64.209 258.128 64.2965 258.506 64.2965ZM264.172 65L262.177 59.225H263.248L264.55 63.0155C264.627 63.2395 264.69 63.46 264.739 63.677C264.795 63.894 264.837 64.062 264.865 64.181C264.9 64.062 264.942 63.894 264.991 63.677C265.04 63.46 265.103 63.2395 265.18 63.0155L266.44 59.225H267.521L265.516 65H264.172ZM270.394 65.105C269.785 65.105 269.306 64.951 268.956 64.643C268.613 64.328 268.441 63.9045 268.441 63.3725C268.441 62.8265 268.62 62.3995 268.977 62.0915C269.341 61.7765 269.834 61.619 270.457 61.619H272.137V61.073C272.137 60.737 272.032 60.478 271.822 60.296C271.619 60.107 271.336 60.0125 270.972 60.0125C270.643 60.0125 270.366 60.086 270.142 60.233C269.925 60.373 269.792 60.5585 269.743 60.7895H268.725C268.753 60.4535 268.868 60.163 269.071 59.918C269.274 59.666 269.54 59.47 269.869 59.33C270.198 59.19 270.569 59.12 270.982 59.12C271.654 59.12 272.186 59.295 272.578 59.645C272.977 59.988 273.177 60.4535 273.177 61.0415V65H272.158V63.929H272.148C272.099 64.293 271.917 64.58 271.602 64.79C271.287 65 270.884 65.105 270.394 65.105ZM270.678 64.2965C271.098 64.2965 271.444 64.1915 271.717 63.9815C271.997 63.7645 272.137 63.488 272.137 63.152V62.3645H270.478C270.17 62.3645 269.925 62.4485 269.743 62.6165C269.568 62.7845 269.481 63.012 269.481 63.299C269.481 63.614 269.586 63.859 269.796 64.034C270.006 64.209 270.3 64.2965 270.678 64.2965ZM98.2984 79V71.335H99.3379V74.5795H100.409L102.047 71.335H103.181L101.322 75.01L103.275 79H102.099L100.388 75.493H99.3379V79H98.2984ZM106.61 79.084C105.903 79.084 105.343 78.888 104.93 78.496C104.517 78.097 104.311 77.5545 104.311 76.8685V75.3565C104.311 74.6705 104.517 74.1315 104.93 73.7395C105.343 73.3405 105.903 73.141 106.61 73.141C107.317 73.141 107.877 73.3405 108.29 73.7395C108.703 74.1315 108.91 74.667 108.91 75.346V76.8685C108.91 77.5545 108.703 78.097 108.29 78.496C107.877 78.888 107.317 79.084 106.61 79.084ZM106.61 78.1705C107.002 78.1705 107.31 78.062 107.534 77.845C107.758 77.621 107.87 77.2955 107.87 76.8685V75.3565C107.87 74.9295 107.758 74.6075 107.534 74.3905C107.31 74.1665 107.002 74.0545 106.61 74.0545C106.218 74.0545 105.91 74.1665 105.686 74.3905C105.462 74.6075 105.35 74.9295 105.35 75.3565V76.8685C105.35 77.2955 105.462 77.621 105.686 77.845C105.91 78.062 106.218 78.1705 106.61 78.1705ZM113.326 79C112.829 79 112.434 78.8565 112.14 78.5695C111.853 78.2825 111.709 77.901 111.709 77.425V74.17H110.092V73.225H111.709V71.5975H112.749V73.225H115.027V74.17H112.749V77.4145C112.749 77.6035 112.801 77.7575 112.906 77.8765C113.018 77.9955 113.165 78.055 113.347 78.055H114.922V79H113.326ZM119.643 79C119.118 79 118.698 78.846 118.383 78.538C118.068 78.23 117.911 77.8205 117.911 77.3095V72.28H115.937V71.335H118.95V77.299C118.95 77.53 119.013 77.7155 119.139 77.8555C119.272 77.9885 119.451 78.055 119.675 78.055H121.428V79H119.643ZM122.589 79V78.055H124.616V74.17H122.799V73.225H125.655V78.055H127.556V79H122.589ZM125.036 72.2065C124.798 72.2065 124.609 72.147 124.469 72.028C124.329 71.902 124.259 71.734 124.259 71.524C124.259 71.307 124.329 71.1355 124.469 71.0095C124.609 70.8835 124.798 70.8205 125.036 70.8205C125.274 70.8205 125.463 70.8835 125.603 71.0095C125.743 71.1355 125.813 71.307 125.813 71.524C125.813 71.734 125.743 71.902 125.603 72.028C125.463 72.147 125.274 72.2065 125.036 72.2065ZM128.728 79V73.225H129.757V74.3275H129.778C129.827 73.9425 129.984 73.645 130.25 73.435C130.516 73.225 130.87 73.12 131.311 73.12C131.885 73.12 132.343 73.302 132.686 73.666C133.029 74.03 133.201 74.52 133.201 75.136V79H132.161V75.2515C132.161 74.8595 132.056 74.5585 131.846 74.3485C131.636 74.1315 131.349 74.023 130.985 74.023C130.607 74.023 130.31 74.1385 130.093 74.3695C129.876 74.5935 129.767 74.9155 129.767 75.3355V79H128.728ZM153.071 79V71.335H155.455C155.924 71.335 156.333 71.4295 156.683 71.6185C157.033 71.8005 157.306 72.0595 157.502 72.3955C157.698 72.7245 157.796 73.113 157.796 73.561C157.796 74.079 157.663 74.5235 157.397 74.8945C157.131 75.2655 156.771 75.5245 156.316 75.6715L157.901 79H156.694L155.266 75.7975H154.111V79H153.071ZM154.111 74.8735H155.455C155.847 74.8735 156.155 74.7545 156.379 74.5165C156.61 74.2785 156.725 73.9635 156.725 73.5715C156.725 73.1725 156.61 72.854 156.379 72.616C156.148 72.378 155.84 72.259 155.455 72.259H154.111V74.8735ZM161.373 79.105C160.694 79.105 160.151 78.9055 159.745 78.5065C159.339 78.1075 159.136 77.565 159.136 76.879V73.225H160.176V76.879C160.176 77.299 160.281 77.6245 160.491 77.8555C160.708 78.0795 161.002 78.1915 161.373 78.1915C161.751 78.1915 162.048 78.0795 162.265 77.8555C162.482 77.6245 162.591 77.299 162.591 76.879V73.225H163.63V76.879C163.63 77.565 163.424 78.1075 163.011 78.5065C162.605 78.9055 162.059 79.105 161.373 79.105ZM167.28 79.084C166.671 79.084 166.171 78.944 165.779 78.664C165.394 78.384 165.201 78.0025 165.201 77.5195H166.262C166.262 77.7365 166.356 77.9045 166.545 78.0235C166.741 78.1355 166.993 78.1915 167.301 78.1915H167.742C168.106 78.1915 168.376 78.1215 168.551 77.9815C168.726 77.8345 168.813 77.642 168.813 77.404C168.813 77.166 168.729 76.9805 168.561 76.8475C168.393 76.7145 168.155 76.62 167.847 76.564L167.06 76.4485C165.912 76.2665 165.338 75.71 165.338 74.779C165.338 74.247 165.513 73.841 165.863 73.561C166.213 73.281 166.713 73.141 167.364 73.141H167.763C168.365 73.141 168.848 73.2775 169.212 73.5505C169.576 73.8165 169.758 74.17 169.758 74.611H168.698C168.698 74.436 168.61 74.296 168.435 74.191C168.267 74.086 168.036 74.0335 167.742 74.0335H167.343C167.021 74.0335 166.776 74.1 166.608 74.233C166.44 74.359 166.356 74.541 166.356 74.779C166.356 75.185 166.643 75.4335 167.217 75.5245L168.005 75.6505C168.635 75.7485 169.097 75.934 169.391 76.207C169.685 76.473 169.832 76.858 169.832 77.362C169.832 77.901 169.653 78.3245 169.296 78.6325C168.946 78.9335 168.421 79.084 167.721 79.084H167.28ZM174.185 79C173.688 79 173.293 78.8565 172.999 78.5695C172.712 78.2825 172.568 77.901 172.568 77.425V74.17H170.951V73.225H172.568V71.5975H173.608V73.225H175.886V74.17H173.608V77.4145C173.608 77.6035 173.66 77.7575 173.765 77.8765C173.877 77.9955 174.024 78.055 174.206 78.055H175.781V79H174.185ZM197.384 79V72.28H195.305V71.335H200.492V72.28H198.424V79H197.384ZM202.683 80.89L203.523 78.6535L201.307 73.225H202.441L203.785 76.6375C203.834 76.7705 203.883 76.928 203.932 77.11C203.981 77.285 204.02 77.432 204.048 77.551C204.076 77.432 204.114 77.285 204.163 77.11C204.219 76.928 204.272 76.7705 204.321 76.6375L205.57 73.225H206.662L203.764 80.89H202.683ZM207.855 80.89V73.225H208.884V74.3065H208.895C208.965 73.9355 209.136 73.645 209.409 73.435C209.689 73.225 210.043 73.12 210.47 73.12C211.044 73.12 211.506 73.316 211.856 73.708C212.206 74.093 212.381 74.618 212.381 75.283V76.9315C212.381 77.6035 212.206 78.1355 211.856 78.5275C211.513 78.9125 211.051 79.105 210.47 79.105C210.05 79.105 209.7 79 209.42 78.79C209.14 78.573 208.965 78.279 208.895 77.908H208.874L208.895 79.2205V80.89H207.855ZM210.113 78.202C210.498 78.202 210.799 78.09 211.016 77.866C211.233 77.635 211.341 77.306 211.341 76.879V75.3355C211.341 74.9155 211.233 74.5935 211.016 74.3695C210.799 74.1385 210.498 74.023 210.113 74.023C209.735 74.023 209.437 74.1385 209.22 74.3695C209.003 74.6005 208.895 74.926 208.895 75.346V76.879C208.895 77.299 209.003 77.6245 209.22 77.8555C209.437 78.0865 209.735 78.202 210.113 78.202ZM216.156 79.105C215.694 79.105 215.288 79.014 214.938 78.832C214.595 78.643 214.329 78.384 214.14 78.055C213.951 77.719 213.857 77.327 213.857 76.879V75.3355C213.857 74.8945 213.951 74.5095 214.14 74.1805C214.329 73.8445 214.595 73.5855 214.938 73.4035C215.288 73.2145 215.694 73.12 216.156 73.12C216.618 73.12 217.021 73.2145 217.364 73.4035C217.714 73.5855 217.983 73.8445 218.172 74.1805C218.361 74.5095 218.456 74.8945 218.456 75.3355V76.3645H214.875V76.879C214.875 77.327 214.984 77.6665 215.201 77.8975C215.425 78.1285 215.743 78.244 216.156 78.244C216.506 78.244 216.786 78.1845 216.996 78.0655C217.206 77.9395 217.339 77.754 217.395 77.509H218.424C218.354 77.999 218.109 78.3875 217.689 78.6745C217.276 78.9615 216.765 79.105 216.156 79.105ZM214.875 75.3355V75.619H217.448V75.3355C217.448 74.8945 217.336 74.5585 217.112 74.3275C216.895 74.0895 216.576 73.9705 216.156 73.9705C215.736 73.9705 215.418 74.0895 215.201 74.3275C214.984 74.5585 214.875 74.8945 214.875 75.3355ZM222.274 79.105C221.777 79.105 221.343 79.0175 220.972 78.8425C220.601 78.6675 220.314 78.4225 220.111 78.1075C219.908 77.7855 219.806 77.4075 219.806 76.9735H220.846C220.846 77.3375 220.975 77.6315 221.234 77.8555C221.5 78.0725 221.85 78.181 222.284 78.181C222.704 78.181 223.037 78.0725 223.282 77.8555C223.527 77.6315 223.649 77.3375 223.649 76.9735C223.649 76.6865 223.572 76.4345 223.418 76.2175C223.264 75.9935 223.054 75.843 222.788 75.766L221.707 75.4405C221.168 75.2795 220.748 75.01 220.447 74.632C220.153 74.254 220.006 73.8095 220.006 73.2985C220.006 72.6685 220.212 72.168 220.625 71.797C221.038 71.419 221.595 71.23 222.295 71.23C222.988 71.23 223.541 71.419 223.954 71.797C224.367 72.168 224.573 72.665 224.573 73.288H223.534C223.534 72.945 223.422 72.6685 223.198 72.4585C222.974 72.2485 222.673 72.1435 222.295 72.1435C221.91 72.1435 221.602 72.2485 221.371 72.4585C221.14 72.6615 221.024 72.9345 221.024 73.2775C221.024 73.5505 221.101 73.785 221.255 73.981C221.416 74.177 221.637 74.317 221.917 74.401L223.03 74.7475C223.541 74.9085 223.943 75.185 224.237 75.577C224.531 75.969 224.678 76.431 224.678 76.963C224.678 77.397 224.577 77.775 224.374 78.097C224.178 78.419 223.901 78.6675 223.544 78.8425C223.187 79.0175 222.764 79.105 222.274 79.105ZM228.37 79.105C227.663 79.105 227.096 78.909 226.669 78.517C226.242 78.118 226.029 77.572 226.029 76.879V75.3355C226.029 74.6495 226.242 74.1105 226.669 73.7185C227.096 73.3195 227.663 73.12 228.37 73.12C229.049 73.12 229.595 73.302 230.008 73.666C230.421 74.023 230.638 74.513 230.659 75.136H229.63C229.609 74.786 229.487 74.5165 229.263 74.3275C229.039 74.1315 228.741 74.0335 228.37 74.0335C227.971 74.0335 227.653 74.149 227.415 74.38C227.184 74.604 227.068 74.9225 227.068 75.3355V76.879C227.068 77.299 227.184 77.621 227.415 77.845C227.653 78.069 227.971 78.181 228.37 78.181C228.741 78.181 229.039 78.0865 229.263 77.8975C229.487 77.7085 229.609 77.439 229.63 77.089H230.659C230.638 77.712 230.421 78.2055 230.008 78.5695C229.595 78.9265 229.049 79.105 228.37 79.105ZM232.367 79V73.225H233.396V74.3275H233.417C233.466 73.9425 233.623 73.645 233.889 73.435C234.162 73.225 234.519 73.12 234.96 73.12C235.555 73.12 236.031 73.3125 236.388 73.6975C236.745 74.0825 236.924 74.6005 236.924 75.2515V75.6715H235.874V75.3355C235.874 74.9225 235.765 74.6005 235.548 74.3695C235.338 74.1385 235.027 74.023 234.614 74.023C233.809 74.023 233.406 74.4675 233.406 75.3565V79H232.367ZM238.222 79V78.055H240.248V74.17H238.432V73.225H241.288V78.055H243.188V79H238.222ZM240.668 72.2065C240.43 72.2065 240.241 72.147 240.101 72.028C239.961 71.902 239.891 71.734 239.891 71.524C239.891 71.307 239.961 71.1355 240.101 71.0095C240.241 70.8835 240.43 70.8205 240.668 70.8205C240.906 70.8205 241.095 70.8835 241.235 71.0095C241.375 71.1355 241.445 71.307 241.445 71.524C241.445 71.734 241.375 71.902 241.235 72.028C241.095 72.147 240.906 72.2065 240.668 72.2065ZM244.37 80.89V73.225H245.399V74.3065H245.41C245.48 73.9355 245.651 73.645 245.924 73.435C246.204 73.225 246.558 73.12 246.985 73.12C247.559 73.12 248.021 73.316 248.371 73.708C248.721 74.093 248.896 74.618 248.896 75.283V76.9315C248.896 77.6035 248.721 78.1355 248.371 78.5275C248.028 78.9125 247.566 79.105 246.985 79.105C246.565 79.105 246.215 79 245.935 78.79C245.655 78.573 245.48 78.279 245.41 77.908H245.389L245.41 79.2205V80.89H244.37ZM246.628 78.202C247.013 78.202 247.314 78.09 247.531 77.866C247.748 77.635 247.856 77.306 247.856 76.879V75.3355C247.856 74.9155 247.748 74.5935 247.531 74.3695C247.314 74.1385 247.013 74.023 246.628 74.023C246.25 74.023 245.952 74.1385 245.735 74.3695C245.518 74.6005 245.41 74.926 245.41 75.346V76.879C245.41 77.299 245.518 77.6245 245.735 77.8555C245.952 78.0865 246.25 78.202 246.628 78.202ZM253.302 79C252.805 79 252.409 78.8565 252.115 78.5695C251.828 78.2825 251.685 77.901 251.685 77.425V74.17H250.068V73.225H251.685V71.5975H252.724V73.225H255.003V74.17H252.724V77.4145C252.724 77.6035 252.777 77.7575 252.882 77.8765C252.994 77.9955 253.141 78.055 253.323 78.055H254.898V79H253.302ZM118.824 93.105C118.117 93.105 117.554 92.909 117.134 92.517C116.721 92.118 116.514 91.572 116.514 90.879V87.4455C116.514 86.7595 116.721 86.2205 117.134 85.8285C117.554 85.4295 118.117 85.23 118.824 85.23C119.524 85.23 120.081 85.4295 120.494 85.8285C120.914 86.2275 121.124 86.7665 121.124 87.4455H120.084C120.084 87.0325 119.972 86.714 119.748 86.49C119.524 86.266 119.216 86.154 118.824 86.154C118.425 86.154 118.114 86.266 117.89 86.49C117.666 86.714 117.554 87.0325 117.554 87.4455V90.879C117.554 91.299 117.666 91.621 117.89 91.845C118.114 92.069 118.425 92.181 118.824 92.181C119.216 92.181 119.524 92.069 119.748 91.845C119.972 91.621 120.084 91.299 120.084 90.879H121.124C121.124 91.565 120.914 92.1075 120.494 92.5065C120.081 92.9055 119.524 93.105 118.824 93.105ZM143.168 93.105C142.461 93.105 141.897 92.909 141.477 92.517C141.064 92.118 140.858 91.572 140.858 90.879V87.4455C140.858 86.7595 141.064 86.2205 141.477 85.8285C141.897 85.4295 142.461 85.23 143.168 85.23C143.868 85.23 144.424 85.4295 144.837 85.8285C145.257 86.2275 145.467 86.7665 145.467 87.4455H144.428C144.428 87.0325 144.316 86.714 144.092 86.49C143.868 86.266 143.56 86.154 143.168 86.154C142.769 86.154 142.457 86.266 142.233 86.49C142.009 86.714 141.897 87.0325 141.897 87.4455V90.879C141.897 91.299 142.009 91.621 142.233 91.845C142.457 92.069 142.769 92.181 143.168 92.181C143.56 92.181 143.868 92.069 144.092 91.845C144.316 91.621 144.428 91.299 144.428 90.879H145.467C145.467 91.565 145.257 92.1075 144.837 92.5065C144.424 92.9055 143.868 93.105 143.168 93.105ZM146.996 94.89V87.225H148.025V88.3065H148.036C148.106 87.9355 148.277 87.645 148.55 87.435C148.83 87.225 149.184 87.12 149.611 87.12C150.185 87.12 150.647 87.316 150.997 87.708C151.347 88.093 151.522 88.618 151.522 89.283V90.9315C151.522 91.6035 151.347 92.1355 150.997 92.5275C150.654 92.9125 150.192 93.105 149.611 93.105C149.191 93.105 148.841 93 148.561 92.79C148.281 92.573 148.106 92.279 148.036 91.908H148.015L148.036 93.2205V94.89H146.996ZM149.254 92.202C149.639 92.202 149.94 92.09 150.157 91.866C150.374 91.635 150.482 91.306 150.482 90.879V89.3355C150.482 88.9155 150.374 88.5935 150.157 88.3695C149.94 88.1385 149.639 88.023 149.254 88.023C148.876 88.023 148.578 88.1385 148.361 88.3695C148.144 88.6005 148.036 88.926 148.036 89.346V90.879C148.036 91.299 148.144 91.6245 148.361 91.8555C148.578 92.0865 148.876 92.202 149.254 92.202ZM153.082 94.89V87.225H154.111V88.3065H154.121C154.191 87.9355 154.363 87.645 154.636 87.435C154.916 87.225 155.269 87.12 155.696 87.12C156.27 87.12 156.732 87.316 157.082 87.708C157.432 88.093 157.607 88.618 157.607 89.283V90.9315C157.607 91.6035 157.432 92.1355 157.082 92.5275C156.739 92.9125 156.277 93.105 155.696 93.105C155.276 93.105 154.926 93 154.646 92.79C154.366 92.573 154.191 92.279 154.121 91.908H154.1L154.121 93.2205V94.89H153.082ZM155.339 92.202C155.724 92.202 156.025 92.09 156.242 91.866C156.459 91.635 156.568 91.306 156.568 90.879V89.3355C156.568 88.9155 156.459 88.5935 156.242 88.3695C156.025 88.1385 155.724 88.023 155.339 88.023C154.961 88.023 154.664 88.1385 154.447 88.3695C154.23 88.6005 154.121 88.926 154.121 89.346V90.879C154.121 91.299 154.23 91.6245 154.447 91.8555C154.664 92.0865 154.961 92.202 155.339 92.202ZM177.415 93V85.335H179.473C179.97 85.335 180.401 85.433 180.765 85.629C181.136 85.818 181.423 86.0875 181.626 86.4375C181.829 86.7805 181.93 87.1865 181.93 87.6555V90.669C181.93 91.138 181.829 91.5475 181.626 91.8975C181.423 92.2475 181.136 92.5205 180.765 92.7165C180.401 92.9055 179.97 93 179.473 93H177.415ZM178.455 92.076H179.473C179.914 92.076 180.261 91.95 180.513 91.698C180.765 91.446 180.891 91.103 180.891 90.669V87.6555C180.891 87.2215 180.765 86.882 180.513 86.637C180.261 86.385 179.914 86.259 179.473 86.259H178.455V92.076ZM185.191 93.105C184.582 93.105 184.103 92.951 183.753 92.643C183.41 92.328 183.238 91.9045 183.238 91.3725C183.238 90.8265 183.417 90.3995 183.774 90.0915C184.138 89.7765 184.631 89.619 185.254 89.619H186.934V89.073C186.934 88.737 186.829 88.478 186.619 88.296C186.416 88.107 186.133 88.0125 185.769 88.0125C185.44 88.0125 185.163 88.086 184.939 88.233C184.722 88.373 184.589 88.5585 184.54 88.7895H183.522C183.55 88.4535 183.665 88.163 183.868 87.918C184.071 87.666 184.337 87.47 184.666 87.33C184.995 87.19 185.366 87.12 185.779 87.12C186.451 87.12 186.983 87.295 187.375 87.645C187.774 87.988 187.974 88.4535 187.974 89.0415V93H186.955V91.929H186.945C186.896 92.293 186.714 92.58 186.399 92.79C186.084 93 185.681 93.105 185.191 93.105ZM185.475 92.2965C185.895 92.2965 186.241 92.1915 186.514 91.9815C186.794 91.7645 186.934 91.488 186.934 91.152V90.3645H185.275C184.967 90.3645 184.722 90.4485 184.54 90.6165C184.365 90.7845 184.278 91.012 184.278 91.299C184.278 91.614 184.383 91.859 184.593 92.034C184.803 92.209 185.097 92.2965 185.475 92.2965ZM189.765 93V87.225H190.794V88.3275H190.815C190.864 87.9425 191.022 87.645 191.288 87.435C191.561 87.225 191.918 87.12 192.359 87.12C192.954 87.12 193.43 87.3125 193.787 87.6975C194.144 88.0825 194.322 88.6005 194.322 89.2515V89.6715H193.272V89.3355C193.272 88.9225 193.164 88.6005 192.947 88.3695C192.737 88.1385 192.425 88.023 192.012 88.023C191.207 88.023 190.805 88.4675 190.805 89.3565V93H189.765ZM198.529 93C198.032 93 197.636 92.8565 197.342 92.5695C197.055 92.2825 196.912 91.901 196.912 91.425V88.17H195.295V87.225H196.912V85.5975H197.951V87.225H200.23V88.17H197.951V91.4145C197.951 91.6035 198.004 91.7575 198.109 91.8765C198.221 91.9955 198.368 92.055 198.55 92.055H200.125V93H198.529Z" fill="#CF657E"/>
</svg>
