<svg width="18" height="19" viewBox="0 0 18 19" fill="none" xmlns="http://www.w3.org/2000/svg">
<path d="M9.25425 3.305C10.065 2.49463 11.1075 2 12.375 2C15.1035 2 17.25 4.23013 17.25 7.3685C17.25 9.251 16.3238 10.8163 14.613 12.5049C14.2448 12.8686 13.1194 13.8991 13.0688 13.9479C12.9094 14.0994 12.7376 14.2565 12.5539 14.4185C12.3155 14.6285 12.0734 14.8342 11.8279 15.0358C11.3029 15.467 10.7423 15.9013 10.182 16.3175C9.93373 16.502 9.68359 16.684 9.43163 16.8635C9.30526 16.9524 9.15452 17.0002 9 17.0002C8.84549 17.0002 8.69474 16.9524 8.56838 16.8635C8.31629 16.6842 8.06603 16.5023 7.81763 16.3179C7.25883 15.9039 6.71017 15.4764 6.17213 15.0358C5.92656 14.8342 5.68452 14.6285 5.44613 14.4185C5.26238 14.2565 5.09063 14.0994 4.93125 13.9479C4.88063 13.8991 3.75525 12.8683 3.387 12.5049C1.67663 10.8163 0.75 9.25138 0.75 7.3685C0.75 4.22975 2.8965 2 5.625 2C6.8925 2 7.935 2.49425 8.74575 3.305C8.83688 3.39613 8.92163 3.48725 9 3.57725C9.07875 3.48725 9.16313 3.39613 9.25425 3.30538V3.305ZM9.28763 15.1138C9.82667 14.7144 10.356 14.302 10.875 13.877C11.1071 13.6866 11.3359 13.4922 11.5613 13.2939C11.7311 13.1439 11.889 12.9995 12.0338 12.8619C12.1039 12.7951 13.215 11.777 13.5593 11.4376C15.0109 10.004 15.75 8.756 15.75 7.3685C15.75 5.04613 14.262 3.5 12.375 3.5C11.5354 3.5 10.8608 3.81988 10.3148 4.36588C10.1287 4.5523 9.96395 4.75882 9.8235 4.98163C9.7724 5.06021 9.72618 5.14186 9.68513 5.22613C9.42075 5.81938 8.57888 5.81938 8.31488 5.22613C8.27394 5.14187 8.22786 5.06022 8.17688 4.98163C8.03632 4.7588 7.87143 4.55228 7.68525 4.36588C7.13925 3.81988 6.46463 3.5 5.625 3.5C3.738 3.5 2.25 5.04613 2.25 7.3685C2.25 8.756 2.98875 10.004 4.44075 11.4373C4.78463 11.777 5.89613 12.7951 5.96625 12.8619C6.111 12.9995 6.26888 13.1439 6.43875 13.2939C6.651 13.4814 6.8805 13.6764 7.125 13.877C7.73609 14.3776 8.36134 14.8607 9 15.3256C9.0915 15.2585 9.1875 15.188 9.28763 15.1138V15.1138Z" fill="#B59E90"/>
<path d="M9.25425 3.305C10.065 2.49463 11.1075 2 12.375 2C15.1035 2 17.25 4.23013 17.25 7.3685C17.25 9.251 16.3238 10.8163 14.613 12.5049C14.2448 12.8686 13.1194 13.8991 13.0688 13.9479C12.9094 14.0994 12.7376 14.2565 12.5539 14.4185C12.3155 14.6285 12.0734 14.8342 11.8279 15.0358C11.3029 15.467 10.7423 15.9013 10.182 16.3175C9.93373 16.502 9.68359 16.684 9.43163 16.8635C9.30526 16.9524 9.15452 17.0002 9 17.0002C8.84549 17.0002 8.69474 16.9524 8.56838 16.8635C8.31629 16.6842 8.06603 16.5023 7.81763 16.3179C7.25883 15.9039 6.71017 15.4764 6.17213 15.0358C5.92656 14.8342 5.68452 14.6285 5.44613 14.4185C5.26238 14.2565 5.09063 14.0994 4.93125 13.9479C4.88063 13.8991 3.75525 12.8683 3.387 12.5049C1.67663 10.8163 0.75 9.25138 0.75 7.3685C0.75 4.22975 2.8965 2 5.625 2C6.8925 2 7.935 2.49425 8.74575 3.305C8.83688 3.39613 8.92163 3.48725 9 3.57725C9.07875 3.48725 9.16313 3.39575 9.25425 3.305Z" fill="#B59E90"/>
</svg>
