<svg width="104" height="24" viewBox="0 0 104 24" fill="none" xmlns="http://www.w3.org/2000/svg">
<path d="M0.5 9.6C0.5 6.23969 0.5 4.55953 1.15396 3.27606C1.7292 2.14708 2.64708 1.2292 3.77606 0.653961C5.05953 0 6.73969 0 10.1 0H93.9C97.2603 0 98.9405 0 100.224 0.653961C101.353 1.2292 102.271 2.14708 102.846 3.27606C103.5 4.55953 103.5 6.23968 103.5 9.6V14.4C103.5 17.7603 103.5 19.4405 102.846 20.7239C102.271 21.8529 101.353 22.7708 100.224 23.346C98.9405 24 97.2603 24 93.9 24H10.1C6.73968 24 5.05953 24 3.77606 23.346C2.64708 22.7708 1.7292 21.8529 1.15396 20.7239C0.5 19.4405 0.5 17.7603 0.5 14.4V9.6Z" fill="#1F80F2" fill-opacity="0.2"/>
<path d="M21.2747 7.77068C20.7657 7.99581 20.226 8.14366 19.6734 8.20935C20.2559 7.86097 20.6918 7.31269 20.9 6.66668C20.3534 6.99201 19.754 7.22001 19.1294 7.34335C18.7098 6.8944 18.1536 6.59665 17.5473 6.4964C16.9411 6.39615 16.3187 6.49901 15.7769 6.78898C15.2351 7.07896 14.8043 7.5398 14.5514 8.09987C14.2986 8.65995 14.2379 9.28787 14.3787 9.88601C13.2701 9.83045 12.1856 9.54236 11.1956 9.04046C10.2055 8.53855 9.33212 7.83404 8.63204 6.97268C8.38423 7.39831 8.25401 7.88216 8.2547 8.37468C8.2547 9.34135 8.7467 10.1953 9.4947 10.6953C9.05204 10.6814 8.61912 10.5619 8.23204 10.3467V10.3813C8.23217 11.0251 8.45495 11.6491 8.8626 12.1474C9.27025 12.6457 9.83769 12.9877 10.4687 13.1153C10.0578 13.2267 9.62691 13.2431 9.2087 13.1633C9.38661 13.7175 9.73337 14.2021 10.2004 14.5494C10.6675 14.8967 11.2315 15.0892 11.8134 15.1C11.235 15.5542 10.5728 15.89 9.86462 16.0881C9.15642 16.2863 8.41612 16.3428 7.68604 16.2547C8.9605 17.0743 10.4441 17.5094 11.9594 17.508C17.088 17.508 19.8927 13.2593 19.8927 9.57468C19.8927 9.45468 19.8894 9.33335 19.884 9.21468C20.4299 8.82012 20.9011 8.33136 21.2754 7.77135L21.2747 7.77068Z" fill="#1F80F2"/>
<path d="M35.4843 15.2207C35.8945 15.2207 36.2519 15.1094 36.5566 14.8867C36.8652 14.6641 37.1054 14.3535 37.2773 13.9551C37.453 13.5527 37.5409 13.0859 37.5409 12.5547V12.2617C37.5409 11.7422 37.4452 11.2461 37.2538 10.7734C37.0663 10.2969 36.789 9.87109 36.4218 9.49609C36.0585 9.12109 35.6073 8.82422 35.0683 8.60547C34.5331 8.38672 33.9179 8.27734 33.2226 8.27734H33.1757C32.3007 8.27734 31.5214 8.46484 30.8378 8.83984C30.1581 9.21094 29.621 9.73633 29.2265 10.416C28.8359 11.0918 28.6405 11.8906 28.6405 12.8125V13.1348C28.6405 13.8652 28.7538 14.5078 28.9804 15.0625C29.2109 15.6133 29.5292 16.0742 29.9355 16.4453C30.3417 16.8203 30.8144 17.0996 31.3534 17.2832C31.8925 17.4707 32.4726 17.5645 33.0937 17.5645H33.1464C33.5956 17.5645 33.9726 17.5371 34.2773 17.4824C34.5859 17.4316 34.8163 17.3711 34.9687 17.3008V16.4746C34.7773 16.5605 34.5331 16.6289 34.2363 16.6797C33.9394 16.7305 33.5859 16.7559 33.1757 16.7559H33.123C32.6464 16.7559 32.1933 16.6816 31.7636 16.5332C31.3378 16.3848 30.9589 16.1621 30.6269 15.8652C30.2988 15.5645 30.039 15.1836 29.8476 14.7227C29.6601 14.2617 29.5663 13.7207 29.5663 13.0996V12.8477C29.5663 12.0781 29.7226 11.4141 30.0351 10.8555C30.3476 10.293 30.7753 9.85938 31.3183 9.55469C31.8652 9.25 32.4843 9.09766 33.1757 9.09766H33.2226C33.9452 9.09766 34.5605 9.24609 35.0683 9.54297C35.58 9.83594 35.9687 10.2246 36.2343 10.709C36.5038 11.1934 36.6386 11.7207 36.6386 12.291V12.4844C36.6386 12.9336 36.5898 13.3047 36.4921 13.5977C36.3945 13.8867 36.2675 14.0996 36.1113 14.2363C35.9589 14.373 35.7929 14.4414 35.6132 14.4414C35.4921 14.4414 35.3808 14.418 35.2792 14.3711C35.1777 14.3203 35.0976 14.2461 35.039 14.1484C34.9804 14.0508 34.9511 13.9297 34.9511 13.7852V10.9023H33.996V11.5938H33.9491C33.914 11.4766 33.8476 11.3594 33.7499 11.2422C33.6523 11.1211 33.5195 11.0215 33.3515 10.9434C33.1874 10.8613 32.9882 10.8203 32.7538 10.8203C32.2382 10.8203 31.8398 10.9941 31.5585 11.3418C31.2773 11.6895 31.1366 12.1445 31.1366 12.707V13.293C31.1366 13.875 31.2753 14.3418 31.5527 14.6934C31.83 15.0449 32.2187 15.2207 32.7187 15.2207C32.9413 15.2207 33.1445 15.1816 33.328 15.1035C33.5116 15.0254 33.664 14.9238 33.7851 14.7988C33.9062 14.6699 33.9882 14.5352 34.0312 14.3945H34.0839C34.1191 14.5391 34.1972 14.6758 34.3183 14.8047C34.4394 14.9297 34.5976 15.0312 34.7929 15.1094C34.9921 15.1836 35.2226 15.2207 35.4843 15.2207ZM32.1503 13.1582V12.8125C32.1503 12.4023 32.2343 12.1016 32.4023 11.9102C32.5741 11.7188 32.7851 11.623 33.0351 11.623C33.1991 11.623 33.3495 11.6641 33.4863 11.7461C33.623 11.8242 33.7304 11.9473 33.8085 12.1152C33.8905 12.2793 33.9316 12.4863 33.9316 12.7363V13.2109C33.9316 13.4922 33.8925 13.7188 33.8144 13.8906C33.7363 14.0586 33.6308 14.1797 33.498 14.2539C33.3691 14.3281 33.2187 14.3652 33.0468 14.3652C32.7812 14.3652 32.5644 14.2734 32.3964 14.0898C32.2323 13.9023 32.1503 13.5918 32.1503 13.1582ZM38.6076 13.334C38.6076 13.9043 38.715 14.3965 38.9298 14.8105C39.1486 15.2246 39.4572 15.5449 39.8556 15.7715C40.2541 15.9941 40.7287 16.1055 41.2795 16.1055C41.8341 16.1055 42.2931 16.0156 42.6564 15.8359C43.0236 15.6523 43.299 15.4121 43.4826 15.1152C43.6701 14.8145 43.7697 14.4902 43.7814 14.1426H42.5509C42.5197 14.3066 42.4591 14.457 42.3693 14.5938C42.2834 14.7266 42.1545 14.832 41.9826 14.9102C41.8146 14.9883 41.592 15.0273 41.3146 15.0273C40.8771 15.0273 40.5334 14.875 40.2834 14.5703C40.0373 14.2656 39.9142 13.8535 39.9142 13.334V12.4668C39.9142 11.9551 40.0334 11.5469 40.2716 11.2422C40.5099 10.9375 40.8556 10.7852 41.3088 10.7852C41.5978 10.7852 41.8263 10.8359 41.9943 10.9375C42.1623 11.0391 42.2853 11.1641 42.3634 11.3125C42.4455 11.457 42.4963 11.5957 42.5158 11.7285H43.7463C43.7384 11.373 43.6388 11.043 43.4474 10.7383C43.256 10.4297 42.9787 10.1797 42.6154 9.98828C42.256 9.79688 41.8107 9.70117 41.2795 9.70117C40.7365 9.70117 40.2638 9.81445 39.8615 10.041C39.463 10.2676 39.1545 10.5859 38.9357 10.9961C38.717 11.4023 38.6076 11.8828 38.6076 12.4375V13.334ZM45.141 16H46.4359V12.5605C46.4359 12.2246 46.4926 11.9258 46.6059 11.6641C46.7191 11.4023 46.8852 11.1973 47.1039 11.0488C47.3227 10.8965 47.5863 10.8203 47.8949 10.8203C48.1449 10.8203 48.3637 10.8711 48.5512 10.9727C48.7387 11.0703 48.8852 11.2227 48.9906 11.4297C49.1 11.6328 49.1547 11.8906 49.1547 12.2031V16H50.4496V11.8223C50.4496 11.1152 50.2543 10.5879 49.8637 10.2402C49.477 9.88867 48.9828 9.71289 48.3813 9.71289C47.9672 9.71289 47.6293 9.7832 47.3676 9.92383C47.1098 10.0605 46.9125 10.2246 46.7758 10.416C46.6391 10.6035 46.5473 10.7715 46.5004 10.9199H46.4359V7.58008H45.141V16ZM53.8248 16.0938C54.1334 16.0938 54.3991 16.0527 54.6217 15.9707C54.8483 15.8848 55.0377 15.7734 55.1901 15.6367C55.3424 15.5 55.4635 15.3535 55.5534 15.1973H55.612V16H56.8483V11.8047C56.8483 11.2891 56.7389 10.8789 56.5202 10.5742C56.3014 10.2695 56.0084 10.0508 55.6413 9.91797C55.2741 9.78125 54.8698 9.71289 54.4284 9.71289C54.0416 9.71289 53.7018 9.75391 53.4088 9.83594C53.1198 9.91797 52.8756 10.0371 52.6764 10.1934C52.4811 10.3457 52.3288 10.5293 52.2194 10.7441C52.1139 10.9551 52.0514 11.1895 52.0319 11.4473H53.2682C53.3034 11.3066 53.3639 11.1855 53.4498 11.084C53.5358 10.9785 53.6549 10.8965 53.8073 10.8379C53.9596 10.7754 54.153 10.7441 54.3873 10.7441C54.7428 10.7441 55.026 10.8301 55.237 11.002C55.4479 11.1699 55.5534 11.4316 55.5534 11.7871V12.3672H53.9889C53.2741 12.3672 52.7291 12.5371 52.3541 12.877C51.983 13.2129 51.7975 13.6543 51.7975 14.2012C51.7975 14.7793 51.985 15.2402 52.36 15.584C52.7389 15.9238 53.2272 16.0938 53.8248 16.0938ZM54.2233 15.0859C53.9342 15.0859 53.6745 15.0098 53.444 14.8574C53.2174 14.7012 53.1041 14.4609 53.1041 14.1367C53.1041 13.875 53.1901 13.6602 53.362 13.4922C53.5377 13.3242 53.8151 13.2402 54.194 13.2402H55.5534V13.9082C55.5534 14.1348 55.4928 14.3359 55.3717 14.5117C55.2545 14.6875 55.0963 14.8281 54.8971 14.9336C54.6979 15.0352 54.4733 15.0859 54.2233 15.0859ZM58.243 13.334C58.243 13.9043 58.3505 14.3965 58.5653 14.8105C58.7841 15.2246 59.0927 15.5449 59.4911 15.7715C59.8895 15.9941 60.3641 16.1055 60.9149 16.1055C61.4696 16.1055 61.9286 16.0156 62.2919 15.8359C62.6591 15.6523 62.9345 15.4121 63.118 15.1152C63.3055 14.8145 63.4052 14.4902 63.4169 14.1426H62.1864C62.1552 14.3066 62.0946 14.457 62.0048 14.5938C61.9188 14.7266 61.7899 14.832 61.618 14.9102C61.4501 14.9883 61.2274 15.0273 60.9501 15.0273C60.5126 15.0273 60.1688 14.875 59.9188 14.5703C59.6727 14.2656 59.5497 13.8535 59.5497 13.334V12.4668C59.5497 11.9551 59.6688 11.5469 59.9071 11.2422C60.1454 10.9375 60.4911 10.7852 60.9442 10.7852C61.2333 10.7852 61.4618 10.8359 61.6298 10.9375C61.7977 11.0391 61.9208 11.1641 61.9989 11.3125C62.0809 11.457 62.1317 11.5957 62.1513 11.7285H63.3817C63.3739 11.373 63.2743 11.043 63.0829 10.7383C62.8915 10.4297 62.6141 10.1797 62.2509 9.98828C61.8915 9.79688 61.4462 9.70117 60.9149 9.70117C60.372 9.70117 59.8993 9.81445 59.497 10.041C59.0985 10.2676 58.7899 10.5859 58.5712 10.9961C58.3524 11.4023 58.243 11.8828 58.243 12.4375V13.334ZM64.7765 16H66.0714V12.5605C66.0714 12.2246 66.128 11.9258 66.2413 11.6641C66.3546 11.4023 66.5206 11.1973 66.7394 11.0488C66.9581 10.8965 67.2218 10.8203 67.5304 10.8203C67.7804 10.8203 67.9991 10.8711 68.1866 10.9727C68.3741 11.0703 68.5206 11.2227 68.6261 11.4297C68.7355 11.6328 68.7902 11.8906 68.7902 12.2031V16H70.0851V11.8223C70.0851 11.1152 69.8898 10.5879 69.4991 10.2402C69.1124 9.88867 68.6183 9.71289 68.0167 9.71289C67.6027 9.71289 67.2648 9.7832 67.003 9.92383C66.7452 10.0605 66.548 10.2246 66.4113 10.416C66.2745 10.6035 66.1827 10.7715 66.1359 10.9199H66.0714V7.58008H64.7765V16ZM73.4603 16.0938C73.7689 16.0938 74.0345 16.0527 74.2572 15.9707C74.4838 15.8848 74.6732 15.7734 74.8256 15.6367C74.9779 15.5 75.099 15.3535 75.1888 15.1973H75.2474V16H76.4838V11.8047C76.4838 11.2891 76.3744 10.8789 76.1556 10.5742C75.9369 10.2695 75.6439 10.0508 75.2767 9.91797C74.9095 9.78125 74.5052 9.71289 74.0638 9.71289C73.6771 9.71289 73.3373 9.75391 73.0443 9.83594C72.7552 9.91797 72.5111 10.0371 72.3119 10.1934C72.1166 10.3457 71.9642 10.5293 71.8548 10.7441C71.7494 10.9551 71.6869 11.1895 71.6673 11.4473H72.9037C72.9388 11.3066 72.9994 11.1855 73.0853 11.084C73.1713 10.9785 73.2904 10.8965 73.4427 10.8379C73.5951 10.7754 73.7884 10.7441 74.0228 10.7441C74.3783 10.7441 74.6615 10.8301 74.8724 11.002C75.0834 11.1699 75.1888 11.4316 75.1888 11.7871V12.3672H73.6244C72.9095 12.3672 72.3646 12.5371 71.9896 12.877C71.6185 13.2129 71.433 13.6543 71.433 14.2012C71.433 14.7793 71.6205 15.2402 71.9955 15.584C72.3744 15.9238 72.8627 16.0938 73.4603 16.0938ZM73.8588 15.0859C73.5697 15.0859 73.3099 15.0098 73.0795 14.8574C72.8529 14.7012 72.7396 14.4609 72.7396 14.1367C72.7396 13.875 72.8256 13.6602 72.9974 13.4922C73.1732 13.3242 73.4506 13.2402 73.8295 13.2402H75.1888V13.9082C75.1888 14.1348 75.1283 14.3359 75.0072 14.5117C74.89 14.6875 74.7318 14.8281 74.5326 14.9336C74.3334 15.0352 74.1088 15.0859 73.8588 15.0859ZM79.484 13.7852L79.9879 13.252L81.9273 16H83.4625L80.9605 12.4902L83.3043 9.80664H81.8219L79.5426 12.4902H79.484V7.58008H78.1891V16H79.484V13.7852ZM85.7362 13.7852L86.2401 13.252L88.1795 16H89.7147L87.2127 12.4902L89.5565 9.80664H88.0741L85.7948 12.4902H85.7362V7.58008H84.4413V16H85.7362V13.7852ZM91.713 11.8457C91.713 11.2441 91.7774 10.7285 91.9063 10.2988C92.0391 9.86523 92.2266 9.5332 92.4688 9.30273C92.7149 9.06836 93.0059 8.95117 93.3419 8.95117C93.6778 8.95117 93.9669 9.06836 94.2091 9.30273C94.4513 9.5332 94.6368 9.86523 94.7657 10.2988C94.8985 10.7285 94.9649 11.2441 94.9649 11.8457V12.1562C94.9649 12.7578 94.8985 13.2754 94.7657 13.709C94.6368 14.1387 94.4513 14.4707 94.2091 14.7051C93.9669 14.9355 93.6778 15.0508 93.3419 15.0508C93.0098 15.0508 92.7208 14.9355 92.4747 14.7051C92.2325 14.4707 92.045 14.1387 91.9122 13.709C91.7794 13.2754 91.713 12.7578 91.713 12.1562V11.8457ZM90.3888 12.168C90.3888 12.9727 90.504 13.6758 90.7345 14.2773C90.9688 14.875 91.3048 15.3379 91.7423 15.666C92.1837 15.9941 92.713 16.1582 93.3302 16.1582C93.795 16.1582 94.2091 16.0645 94.5723 15.877C94.9395 15.6895 95.2501 15.4199 95.504 15.0684C95.7618 14.7168 95.9571 14.2969 96.0899 13.8086C96.2227 13.3164 96.2891 12.7695 96.2891 12.168V11.8398C96.2891 11.0312 96.1739 10.3281 95.9434 9.73047C95.713 9.13281 95.379 8.66992 94.9415 8.3418C94.504 8.00977 93.9747 7.84375 93.3536 7.84375C92.7325 7.84375 92.2013 8.00977 91.7598 8.3418C91.3184 8.67383 90.9786 9.14062 90.7403 9.74219C90.5059 10.3398 90.3888 11.0391 90.3888 11.8398V12.168Z" fill="#1F80F2"/>
</svg>
