<svg class="illustration" width="186" height="186" viewBox="0 0 186 186" fill="none" xmlns="http://www.w3.org/2000/svg">
<path d="M75.4136 18.3795C81.9345 24.1642 87.3283 31.1353 91.9791 38.4965C89.5455 37.3798 86.9894 36.5751 84.4415 35.791C82.4775 31.7963 80.0072 28.0152 76.8427 24.8785C76.0669 24.0985 75.1441 23.4909 74.2009 22.9407C74.5153 21.3971 74.9114 19.8698 75.4136 18.3795Z" fill="#FBDADD"/>
<path d="M104.784 71.4268C108.634 67.1571 112.048 62.4316 114.441 57.1725C114.588 57.3778 114.882 57.7924 115.033 57.9977C114.718 60.3132 114.571 62.6985 113.848 64.9237C112.922 65.3794 111.848 65.5231 111.019 66.1759C109.059 67.4609 108.095 70.0063 108.655 72.2849C107.185 72.523 105.711 72.7324 104.261 73.0649C104.086 72.4368 104.331 71.862 104.784 71.4268Z" fill="#FBDADD"/>
<path d="M110.643 70.5647C111.44 70.499 112.236 70.4415 113.036 70.3759C112.611 71.6691 112.391 73.0198 112.362 74.3869C111.325 73.3688 110.741 72.0099 110.643 70.5647Z" fill="#FBDADD"/>
<path d="M151.696 73.0321C154.317 71.5541 157.339 70.5729 160.368 70.6756C161.826 70.655 162.7 71.9483 163.606 72.8966C162.851 74.0051 161.671 74.9453 160.254 74.7852C157.714 74.5635 154.97 75.0849 153.031 76.8461C151.157 78.4801 150.291 80.9558 149.911 83.3534C148.96 90.2219 151.153 96.9262 151.879 103.696C153.031 112.112 153.006 120.985 149.768 128.962C147.053 135.202 143.027 140.884 138.037 145.499C131.092 151.969 121.692 155.963 112.162 155.656C111.778 155.307 111.672 154.761 111.435 154.321C109.831 150.778 107.573 147.58 105.192 144.53C102.898 141.545 101.517 137.879 101.183 134.13C101.424 133.026 101.481 131.766 102.293 130.903C106.45 126.572 112.46 124.355 118.393 124.285C118.875 124.79 119.455 125.665 120.276 125.279C121.117 125.115 121.153 123.879 120.594 123.366C117.728 120.131 115.38 116.477 113.081 112.827C111.133 109.547 109.161 106.127 108.585 102.296C108.34 101.216 108.679 100.141 109.026 99.1309C110.019 100.063 109.569 101.586 109.953 102.781C111.329 108.196 114.702 112.843 118.41 116.895C120.729 119.162 123.285 121.375 126.396 122.426C127.674 122.873 129.426 122.902 130.267 121.662C130.851 120.492 131.022 119.174 131.235 117.901L131.255 117.77C133.048 122.495 134.207 127.648 133.37 132.706C132.929 135.35 131.851 137.932 130.014 139.907C129.41 140.42 129.875 141.188 130.181 141.717C130.745 141.648 131.374 141.726 131.843 141.336C135.898 138.659 138.862 134.685 141.422 130.608L141.647 131.158C147.686 124.039 149.87 114.075 148.335 104.936C146.992 97.5749 145.485 90.0659 146.383 82.5569C146.841 78.8743 148.347 74.974 151.696 73.0321Z" fill="#FBDADD"/>
<path d="M115.163 71.0122C115.882 71.3612 116.609 71.6896 117.344 72.014C116.838 73.5576 116.588 75.1834 116.797 76.8092C116.115 76.4068 114.833 76.5464 114.661 75.5857C114.498 74.0421 114.592 72.4656 115.163 71.0122Z" fill="#FBDADD"/>
<path d="M86.0176 72.6502C87.2793 72.2766 88.5532 71.9441 89.8394 71.6649C89.9048 73.7505 87.116 74.001 86.0176 72.6502Z" fill="#FBDADD"/>
<path d="M119.055 76.8708C118.875 75.5735 118.789 74.1694 119.467 72.9911C120.455 73.7629 121.513 74.5964 121.676 75.943C120.851 76.374 119.982 76.7312 119.055 76.8708Z" fill="#FBDADD"/>
<path d="M133.922 73.34C134.056 75.4338 134.22 77.5317 134.591 79.6009C134.024 79.1328 133.162 78.8003 133.056 77.9833C132.888 76.3986 132.811 74.6291 133.922 73.34Z" fill="#FBDADD"/>
<path d="M99.4146 77.0637C102.616 75.6555 106.054 74.9165 109.504 74.469C110.157 75.286 110.847 76.0742 111.615 76.7927C107.556 76.2918 103.461 76.6408 99.4146 77.0637Z" fill="#FBDADD"/>
<path d="M121.354 78.6525C122.137 78.2789 122.872 77.8109 123.53 77.2361C124.138 78.2296 124.73 79.2396 125.331 80.2413C124.232 79.6748 123.056 79.3012 121.852 79.0671C121.725 78.9645 121.48 78.7592 121.354 78.6525Z" fill="#FBDADD"/>
<path d="M126.082 77.1417C127.384 77.9792 129.287 78.242 129.977 79.8021C130.688 81.0871 131.357 82.3927 131.986 83.7229C131.059 82.8977 129.969 82.2818 128.801 81.8754L128.699 81.8343C127.891 80.2332 127.066 78.6402 126.082 77.1417Z" fill="#FBDADD"/>
<path d="M133.456 81.5962C136.216 83.768 138.687 86.3381 140.667 89.2489C141.006 91.1538 141.071 93.1039 141.443 95.0048C140.132 92.3075 138.744 89.4295 136.273 87.6067L136.122 87.4917C135.269 85.5128 134.461 83.5094 133.456 81.5962Z" fill="#FBDADD"/>
<path d="M155.301 92.0364V91.9092C157.163 96.4417 158.367 101.372 157.918 106.303C157.669 109.271 156.644 112.236 154.705 114.522C154.852 109.013 154.154 103.536 153.308 98.1044C153.888 97.4147 154.55 96.7701 154.954 95.9531C155.285 94.6763 155.272 93.342 155.301 92.0364Z" fill="#FBDADD"/>
<path d="M69.8401 94.9637C70.5179 94.7133 71.2365 94.6353 71.947 94.5367C68.8479 98.6915 66.8594 103.622 66.1244 108.758C55.9164 110.856 45.6187 107.896 35.9783 104.669C36.5091 104.185 37.1624 103.893 37.8769 103.811C48.7913 101.968 59.5831 99.1678 69.8401 94.9637Z" fill="#FBDADD"/>
<path d="M69.7789 125.213C66.9084 116.041 67.0677 105.162 72.8903 97.152C72.6616 99.5373 71.9511 101.869 71.9838 104.279C71.9226 107.038 72.4738 109.793 73.5354 112.334C74.2745 114.034 75.0789 115.803 76.5815 116.965C78.5169 127.603 85.2501 137.275 94.621 142.608C95.1191 144.916 95.0374 147.445 96.2828 149.518C97.0668 149.6 98.1529 149.173 97.8793 148.192C97.4424 146.262 97.0749 144.324 96.7769 142.37C97.7977 144.09 98.5163 145.987 99.7454 147.584C101.677 150.146 103.673 152.679 105.176 155.528C102.199 155.212 99.2064 154.777 96.3808 153.746C94.1841 148.881 91.5708 144.127 87.9409 140.178C84.4375 136.323 80.0236 133.49 75.6873 130.69C73.4701 129.183 71.2039 127.533 69.7789 125.213Z" fill="#FBDADD"/>
<path d="M72.3144 17.4189C73.3556 15.6904 75.9647 15.5262 77.2918 17.0083C84.4659 23.6141 90.4723 31.4474 95.368 39.8842C95.907 40.8654 97.038 41.2431 97.8996 41.8754C104.228 46.0835 110.651 50.1644 117.05 54.2535C117.629 57.7637 116.801 61.3807 116.2 64.8539C118.777 65.2152 121.333 66.2662 123.113 68.2287C124.62 69.8421 125.522 72.1043 125.171 74.3336C127.078 75.0972 128.944 75.9593 130.728 76.9857C130.745 75.4913 130.883 73.923 131.7 72.6298C132.896 70.6386 135.146 69.2879 137.486 69.4316C140.209 69.6656 142.651 71.0779 144.783 72.716C148.004 68.553 152.965 65.4616 158.318 65.4287C160.629 65.4533 163.271 65.8434 164.762 67.8345C166.897 70.3841 166.203 74.7811 163.202 76.3329C160.968 77.7329 158.184 76.4684 155.885 77.6549C154.207 78.3405 152.978 79.9663 152.606 81.7112C156.011 87.3891 158.89 93.535 159.907 100.137C160.658 105.277 160.135 110.942 156.991 115.237C156.146 116.571 154.268 117.318 154.419 119.141C153.823 126.153 150.993 132.784 146.996 138.503C142.21 145.548 135.644 151.517 127.784 154.871C123.105 156.928 118.009 157.877 112.917 158.02C113.612 160.775 113.897 163.953 112.305 166.461C110.839 168.867 107.92 169.984 105.213 169.984C99.5777 170.234 94.3635 167.545 89.6475 164.737C83.192 160.804 77.4551 155.84 71.3181 151.456C67.3125 148.66 62.8251 146.274 57.9008 145.778C56.0878 145.63 54.0462 146.299 53.1398 147.995C52.0781 149.526 52.4905 151.981 50.5837 152.893C48.6769 154.009 46.1534 152.461 46.0881 150.298C46.28 148.056 47.0967 145.864 48.3502 144.008C50.2325 141.147 53.6828 139.492 57.0678 139.578C61.0325 139.418 64.8748 140.806 68.4149 142.469C73.0003 144.616 76.9488 147.835 80.9544 150.885C86.3074 154.9 91.5951 159.145 97.7076 161.962C99.9371 162.976 102.342 163.735 104.812 163.747C105.658 163.694 106.674 163.661 107.246 162.922C107.63 161.14 106.87 159.424 106.295 157.782C98.4916 157.61 90.8683 154.761 84.5802 150.166C72.4205 141.348 64.9973 126.145 65.9038 111.049C55.0099 113.221 44.1282 109.731 33.8508 106.394C33.3323 106.262 32.9362 105.893 32.5034 105.605C32.5891 101.828 32.5401 98.047 32.5279 94.2699C32.3972 92.172 32.7361 89.9468 32.0991 87.9351C25.5987 76.7189 21.2787 64.2176 19.5638 51.3468C19.2576 48.7562 18.8941 46.1492 19.0289 43.534C19.1963 41.8713 20.7438 40.5616 22.3853 40.5206C31.5928 39.6461 40.8984 40.8983 49.7956 43.3041C50.3224 43.2302 50.7184 42.7909 51.1758 42.5446C54.6873 40.1059 58.5949 38.3159 62.6005 36.8749C64.9197 29.9858 68.1577 23.3842 72.3144 17.4189ZM75.4135 18.3795C74.9113 19.8698 74.5152 21.3971 74.2008 22.9408C73.3352 26.878 73.0085 30.9014 72.7513 34.9165C76.6752 34.6661 80.5951 34.9945 84.4414 35.791C86.9893 36.5752 89.5454 37.3799 91.979 38.4966C87.3282 31.1354 81.9343 24.1642 75.4135 18.3795ZM72.0694 21.7009C71.7346 22.4481 71.3671 23.1871 71.167 23.9836C70.4116 24.3654 70.1299 25.2029 69.7379 25.8926C67.9739 29.2017 66.4999 32.6544 65.1525 36.1523C66.2264 35.672 67.6187 36.0291 68.5374 35.2491C69.1703 35.245 69.8032 35.1875 70.4361 35.1465C70.7873 30.6427 71.2487 26.1472 72.0694 21.7009ZM50.8409 45.5621C50.2938 46.0384 49.567 45.6032 48.9668 45.5047C41.3475 43.3 33.3813 42.3845 25.4599 42.5774C25.9662 42.7458 26.4766 42.9346 27.0156 42.9551C27.4117 43.2589 27.8363 43.5176 28.2936 43.7229C33.2179 45.7017 37.8973 48.3005 42.2009 51.4207C42.6868 51.7861 43.1768 52.1556 43.5647 52.6318C43.7076 53.2025 43.3769 53.6869 43.0625 54.1262C37.8564 61.4217 34.7859 70.2691 34.4633 79.252C34.2183 82.5405 34.6634 85.8249 34.5899 89.1175C34.5246 94.155 35.0105 99.1965 34.7124 104.226C35.1289 104.378 35.5535 104.53 35.9782 104.669C45.6185 107.896 55.9163 110.856 66.1243 108.758C66.8592 103.622 68.8477 98.6916 71.9469 94.5368C74.9603 90.8665 78.6841 87.8038 82.8 85.4595C84.0004 84.7082 85.5194 84.4537 86.483 83.3534C91.2358 78.2749 97.5076 74.662 104.261 73.065C105.711 72.7324 107.185 72.523 108.655 72.2849C108.095 70.0064 109.059 67.4609 111.019 66.1759C111.848 65.5231 112.922 65.3794 113.848 64.9237C114.571 62.6985 114.718 60.3132 115.033 57.9977C115.016 57.1889 115.02 56.3802 115.024 55.5714C114.392 55.3004 113.763 55.0048 113.113 54.7831C112.905 54.2535 112.546 53.7691 111.938 53.7321C108.508 51.5274 105.066 49.331 101.656 47.0976C101.611 47.3645 101.525 47.9023 101.485 48.1691L101.325 48.0542C100.844 49.4254 99.7043 50.3163 98.4549 50.9445L98.2793 50.7679C96.4337 50.7967 94.4942 50.263 92.7425 51.0635C90.9704 51.7984 89.7985 53.5433 89.5331 55.4195C89.3984 56.5567 88.1734 56.8112 87.2302 56.7291C86.777 56.2529 86.2013 55.7602 86.2298 55.0336C86.336 53.2436 87.1363 51.5808 88.1979 50.1685L88.251 50.2835C89.7169 48.3128 92.2035 47.1715 94.633 47.1961C96.3684 47.1222 98.0261 47.9269 99.7697 47.6108L99.5859 47.0894L99.8758 47.2823C100.104 47.1058 100.566 46.7486 100.799 46.5721C97.7158 44.4906 94.6575 42.3434 91.2889 40.7546C85.7276 38.0778 79.5008 36.801 73.3433 37.1582C65.2301 37.6467 57.374 40.7464 50.8409 45.5621ZM21.1072 43.6941C21.6666 57.0206 25.4109 70.1377 31.3805 82.0232C31.6132 82.5117 31.9072 82.9675 32.2339 83.3985C31.8215 73.2538 34.5776 62.9572 40.1471 54.467C40.4084 54.04 40.6412 53.5966 40.8698 53.1532C34.8308 49.0067 28.2201 45.5334 21.1072 43.6941ZM113.22 67.543C111.872 67.9988 110.97 69.2017 110.643 70.5647C110.741 72.0098 111.325 73.3688 112.362 74.3869C112.391 73.0198 112.611 71.6691 113.036 70.3759C113.779 69.7067 114.935 70.0023 115.163 71.0122C114.592 72.4656 114.498 74.0421 114.661 75.5857C114.833 76.5464 116.115 76.4068 116.797 76.8092C116.588 75.1834 116.837 73.5576 117.344 72.014C117.674 71.3612 118.467 70.8644 119.14 71.3653C119.802 71.6239 119.434 72.4656 119.467 72.9911C118.789 74.1693 118.875 75.5734 119.055 76.8708C119.981 76.7312 120.851 76.374 121.676 75.9429C122.921 74.8714 123.399 73.0485 122.676 71.5377C121.055 68.1671 116.752 66.3319 113.22 67.543ZM156.346 67.8592C151.516 68.8116 147.29 72.1987 145.011 76.5464C142.623 81.5059 142.692 87.2372 143.325 92.5908C144.595 100.798 146.395 109.062 145.661 117.417C145.367 122.093 143.827 126.613 141.422 130.608C138.862 134.685 135.898 138.659 131.843 141.336C131.373 141.726 130.745 141.648 130.181 141.717C129.875 141.188 129.409 140.42 130.014 139.907C131.851 137.932 132.929 135.35 133.37 132.706C134.207 127.648 133.048 122.495 131.255 117.77L131.235 117.901C128.96 111.837 125.677 106.053 121.133 101.414C118.85 99.2663 116.217 97.074 112.979 96.7702C111.288 96.5978 109.88 97.7842 109.026 99.1309C108.679 100.141 108.34 101.216 108.585 102.296C109.161 106.127 111.133 109.547 113.081 112.827C115.38 116.477 117.727 120.131 120.594 123.366C121.153 123.879 121.117 125.115 120.275 125.279C119.455 125.665 118.875 124.79 118.393 124.285C116.801 122.43 115.441 120.389 113.963 118.443C109.541 119.933 105.335 122.356 102.154 125.817C101.236 128.469 101.027 131.334 101.182 134.13C101.517 137.879 102.897 141.545 105.192 144.53C107.573 147.58 109.831 150.778 111.435 154.321C111.672 154.761 111.778 155.307 112.162 155.656C121.692 155.963 131.092 151.969 138.037 145.498C143.027 140.884 147.053 135.202 149.768 128.961C153.006 120.984 153.031 112.112 151.879 103.696C151.152 96.9262 148.96 90.2219 149.911 83.3534C150.291 80.9558 151.156 78.4801 153.031 76.8461C154.97 75.0849 157.714 74.5635 160.254 74.7852C161.671 74.9453 162.851 74.0051 163.606 72.8966C164.161 71.1682 163.5 69.1196 161.846 68.2902C160.115 67.5636 158.167 67.6005 156.346 67.8592ZM133.913 73.2333L133.921 73.34C132.811 74.6292 132.888 76.3986 133.056 77.9834C133.162 78.8004 134.023 79.1329 134.591 79.6009C136.898 81.3294 138.882 83.4314 140.806 85.5703C140.777 85.3692 140.716 84.9627 140.687 84.7616C141.108 82.1792 141.398 79.5599 142.316 77.0925C142.688 76.2303 143.088 75.3846 143.509 74.5471C141.602 73.1717 139.503 71.7389 137.061 71.7225C135.82 71.6937 134.803 72.4615 133.913 73.2333ZM99.4144 77.0637C103.461 76.6409 107.556 76.2919 111.615 76.7928C110.847 76.0743 110.157 75.286 109.504 74.469C106.054 74.9165 102.616 75.6555 99.4144 77.0637ZM121.353 78.6526C121.48 78.7593 121.725 78.9646 121.851 79.0672C123.313 81.8467 124.947 84.5481 126.147 87.463C129.222 94.5532 130.957 102.267 130.892 110.015C130.679 112.207 132.358 113.902 132.864 115.935C133.525 112.232 133.366 108.434 133.031 104.702C132.223 96.1133 129.414 87.7996 125.33 80.2414C124.73 79.2397 124.138 78.2297 123.53 77.2362C122.872 77.8109 122.137 78.279 121.353 78.6526ZM126.082 77.1417C127.066 78.6402 127.891 80.2332 128.699 81.8343L128.801 81.8754C130.614 85.9563 132.329 90.0946 133.448 94.4341C135.665 102.686 136.171 111.431 134.685 119.855C134.538 120.463 134.693 121.071 134.812 121.67C135.322 123.624 135.665 125.628 135.747 127.652C136.906 124.983 137.51 122.089 137.943 119.219C139.858 107.132 137.176 94.6682 131.986 83.7229C131.357 82.3927 130.687 81.0871 129.977 79.8021C129.287 78.242 127.384 77.9793 126.082 77.1417ZM93.6286 80.6478C92.1831 80.9517 91.195 82.1258 90.0721 82.9839C91.587 82.7622 93.0733 83.0906 94.5677 83.2672C102.636 81.4607 111.051 81.6291 119.148 83.1604L119.206 83.2548C120.137 83.4026 121.063 83.5874 121.982 83.8009C121.259 82.5897 120.545 81.3745 119.814 80.1675C118.928 80.0115 118.042 79.8514 117.16 79.6995C109.365 78.3611 101.276 78.5828 93.6286 80.6478ZM133.456 81.5962C134.46 83.5094 135.269 85.5129 136.122 87.4917L136.273 87.6067C136.747 89.5732 137.604 91.4207 138.107 93.3831C140.336 100.728 141.177 108.463 140.659 116.119C140.005 121.235 138.952 126.375 136.886 131.142C136.33 132.661 135.367 134.015 134.983 135.604C137.804 132.48 140.075 128.851 141.737 124.979C143.386 120.779 143.754 116.197 143.598 111.722C143.345 106.098 142.39 100.543 141.443 95.0048C141.071 93.104 141.006 91.1538 140.667 89.2489C138.686 86.3381 136.216 83.768 133.456 81.5962ZM97.4504 85.0284C98.0466 85.8044 98.508 86.6706 98.8428 87.5944C106.531 86.5639 114.396 87.0976 121.929 88.9081C122.836 89.1545 123.746 89.3885 124.661 89.5938C124.158 88.5263 123.893 87.27 123.085 86.3874C122.26 86.1205 121.402 85.9891 120.557 85.8208C112.983 84.1088 105.123 83.8789 97.4504 85.0284ZM80.7298 89.4911C77.7572 91.6219 74.8786 94.0359 72.8901 97.152C67.0675 105.162 66.9082 116.041 69.7787 125.213C71.2037 127.533 73.4699 129.183 75.6871 130.69C80.0234 133.49 84.4373 136.323 87.9407 140.178C91.5706 144.127 94.1839 148.881 96.3806 153.746C99.2062 154.777 102.199 155.212 105.176 155.528C103.673 152.679 101.677 150.146 99.7452 147.584C98.5161 145.987 97.7975 144.09 96.7767 142.37C97.0748 144.324 97.4422 146.262 97.8791 148.192C98.1527 149.173 97.0666 149.6 96.2826 149.518C95.0373 147.445 95.1189 144.916 94.6208 142.608C85.2499 137.275 78.5167 127.603 76.5813 116.965C76.1689 113.886 76.765 110.692 78.2962 107.991C80.8686 103.318 85.2254 100.05 89.4964 97.0535C91.9259 95.3579 94.633 93.7978 96.1397 91.1251C94.7351 91.2236 93.4081 91.6917 92.1137 92.2131C91.1092 92.4922 90.5049 91.2277 90.9786 90.4231C92.6078 89.2202 94.7065 88.941 96.6787 88.9081C96.7195 88.1199 96.45 87.0566 95.466 87.1181C93.698 86.6665 92.1954 88.707 90.5458 87.9187C90.4682 87.7052 90.3171 87.2741 90.2436 87.0607C90.3171 86.8554 90.4682 86.4489 90.5417 86.2437C91.2276 85.8742 91.9259 85.5252 92.6282 85.1844C88.2796 85.0941 84.2168 87.0401 80.7298 89.4911ZM151.896 84.9258C151.569 89.3679 152.541 93.7567 153.308 98.1045C154.154 103.536 154.852 109.013 154.705 114.522C156.644 112.236 157.669 109.271 157.918 106.303C158.367 101.372 157.163 96.4417 155.301 91.9093V92.0365C154.407 89.5609 153.169 87.2208 151.896 84.9258ZM98.7775 89.955C98.5651 90.8541 98.3691 91.7532 98.2752 92.677C97.7607 102.387 99.8023 112.125 103.518 121.063C104.461 120.816 105.225 120.18 106.05 119.687C102.64 111.094 100.349 101.869 100.917 92.5579L101.08 92.6688C101.105 91.6424 101.182 90.616 101.317 89.5979C100.468 89.6841 99.6186 89.8113 98.7775 89.955ZM103.632 89.4665C103.514 90.2424 103.4 91.0184 103.277 91.7984C102.632 100.917 104.71 110.023 108.108 118.435C108.973 118.004 109.843 117.585 110.725 117.187C107.462 109.144 105.041 100.412 105.984 91.6588C106.078 90.8993 106.197 90.1439 106.356 89.3967C105.445 89.3926 104.539 89.4131 103.632 89.4665ZM108.561 89.446C108.459 90.1891 108.352 90.9363 108.234 91.6794C108.059 93.2969 108.108 94.9268 108.079 96.5526C108.949 95.6904 109.982 95.0212 111.149 94.6394C111.154 93.6459 111.19 92.6565 111.284 91.6711C111.341 90.9527 111.407 90.2342 111.468 89.5198C110.496 89.5034 109.528 89.4747 108.561 89.446ZM113.432 92.0612C113.428 92.8576 113.416 93.6582 113.403 94.4588C114.428 94.6312 115.433 94.9022 116.405 95.2676C116.376 94.2453 116.368 93.2189 116.388 92.1967C116.441 91.4946 116.498 90.7926 116.556 90.0946C115.612 89.9756 114.665 89.8893 113.722 89.8196C113.62 90.5668 113.518 91.3099 113.432 92.0612ZM118.707 90.5298C118.699 91.2852 118.691 92.0406 118.687 92.7961C118.724 94.0031 118.658 95.2183 118.777 96.4253C119.838 97.4106 121.108 98.162 122.137 99.2007C121.827 97.2587 121.517 95.3127 121.451 93.3462L121.382 93.3298C121.341 92.5785 121.304 91.8271 121.268 91.0758C120.418 90.8747 119.561 90.694 118.707 90.5298ZM123.579 91.6383C123.656 92.7509 123.428 93.9415 123.885 94.9966C124.256 97.6447 124.318 100.469 125.449 102.92C126.661 104.357 127.666 105.954 128.711 107.518C128.385 102.543 127.543 97.579 125.902 92.8617C125.588 91.9052 124.354 91.9873 123.579 91.6383ZM94.286 96.5156C90.6683 98.9831 86.9689 101.397 83.784 104.435C81.7465 106.472 79.9132 108.853 79.1129 111.669C78.4881 113.562 78.6596 115.59 78.8025 117.544C79.5375 116.177 80.0438 114.703 80.7706 113.332C83.6697 107.67 88.3286 103.011 93.796 99.8288C94.4819 99.4716 95.172 99.1267 95.8743 98.7983C95.8661 97.5749 95.8416 96.3555 95.8988 95.1362C95.368 95.6083 94.8331 96.0681 94.286 96.5156ZM93.5592 102.699C86.8995 106.915 81.7996 113.783 80.1337 121.555C80.4031 122.733 80.938 123.83 81.3872 124.946C81.967 124.482 81.9507 123.674 82.1834 123.025C84.0984 116.271 88.7002 110.581 94.2329 106.426C94.9842 105.901 95.7559 105.4 96.544 104.92C96.3357 103.688 96.2132 102.448 96.1315 101.204C95.2618 101.68 94.4044 102.181 93.5592 102.699ZM95.0536 108.705C88.7941 113.422 84.1148 120.558 83.3104 128.485C83.9555 129.544 84.6252 130.6 85.4949 131.495C86.1972 123.69 91.0357 116.961 96.6134 111.788C96.9645 111.452 97.3238 111.115 97.6832 110.778C97.4137 109.637 97.1605 108.491 96.9645 107.334C96.3316 107.798 95.6987 108.257 95.0536 108.705ZM98.1323 113.398C94.9107 116.431 92.0116 119.888 90.0394 123.883C88.5205 127.069 87.3037 130.612 87.6916 134.192C88.3 135.054 89.1411 135.715 89.9374 136.392C90.2273 128.822 94.2247 121.904 99.3083 116.522C99.0143 115.487 98.7775 114.44 98.4712 113.41C98.3855 113.406 98.214 113.402 98.1323 113.398ZM92.1627 138.31C92.963 138.893 93.7796 139.455 94.6044 140.001C94.4289 133.679 97.087 127.36 101.709 123.074C101.26 121.682 100.664 120.34 100.215 118.948C95.3721 124.117 91.8401 131.068 92.1627 138.31ZM101.501 146.209C103.816 149.276 106.197 152.351 107.834 155.861C108.806 158.115 109.9 160.574 109.455 163.082C109.145 165.049 107.034 166.047 105.221 165.923C102.399 166.149 99.7166 165.18 97.1115 164.244C89.8475 160.849 83.6166 155.709 77.2428 150.918C72.0122 146.784 66.1569 142.986 59.4605 141.947C56.4104 141.405 52.9928 142.124 50.8205 144.464L50.6286 144.525C49.5343 146.258 48.4237 148.138 48.3747 150.24C48.4196 151.32 49.861 151.234 49.9957 150.269C50.4163 147.642 51.923 145.338 54.1606 143.922C57.1576 143.249 60.2649 143.565 63.1517 144.583C70.7301 147.153 76.6303 152.794 83.0041 157.404C85.8787 159.445 88.6634 161.74 91.8605 163.243C93.3509 164.491 95.1924 165.193 96.9359 166.006C100.403 167.43 104.412 168.485 108.075 167.171C110.729 166.215 111.815 162.992 111.182 160.397C110.023 154.839 106.67 150.097 103.277 145.691C99.9942 141.377 98.5896 135.83 99.0061 130.448C96.7726 135.674 98.267 141.75 101.501 146.209Z" fill="#381D14"/>
<path d="M81.816 59.406C82.698 58.9338 83.7474 58.0019 84.7518 58.7655C85.4582 59.3197 85.2337 60.264 85.0213 61.003C85.4787 61.6804 85.7604 62.5467 86.4055 63.0599C87.6346 63.4129 89.2842 63.5689 90.1947 62.4646C90.897 61.6599 90.4683 60.5637 90.5418 59.6153C90.9011 58.9872 91.7096 58.4863 92.4078 58.9174C93.2367 59.3115 93.1591 60.4036 93.2489 61.1795C93.3551 62.4399 92.6446 63.5525 91.9464 64.5296C92.5425 67.4979 93.204 70.6551 92.2608 73.6192C91.4932 75.9553 88.6227 76.916 86.43 76.1811C84.1924 75.4339 82.4816 73.7219 80.7871 72.1536C78.7945 72.6996 76.4548 72.6503 74.8338 71.2134C74.2336 70.6345 73.4006 69.9653 73.5476 69.0334C73.6007 68.1876 74.6256 67.539 75.3973 67.9208C76.1486 68.3806 76.5937 69.2797 77.492 69.5096C80.342 70.224 83.3554 67.9044 83.7188 65.0428C83.7801 64.1314 83.188 63.3678 82.698 62.6657C81.7344 62.8751 80.3706 62.8012 80.1828 61.5696C79.8194 60.4488 81.0321 59.8658 81.816 59.406ZM83.58 70.5401C83.8903 71.5049 85.1071 71.9647 85.8012 72.7119C85.8543 72.6955 85.9646 72.6668 86.0176 72.6503C87.116 74.001 89.9048 73.7506 89.8395 71.665C89.8517 71.0163 89.8681 70.3718 89.8967 69.7272C87.8632 69.1155 85.2459 69.0539 83.58 70.5401Z" fill="#381D14"/>
<path d="M53.6745 68.0603C56.0224 63.9219 60.9998 61.5982 65.6668 62.3495C67.1409 62.5835 68.6435 63.0187 69.8766 63.8973C71.0362 64.78 70.3462 66.9395 68.8885 66.9559C67.7574 66.804 66.7856 66.0979 65.6709 65.8639C62.9964 65.2686 60.0565 66.0938 58.0803 68.0028C55.663 70.2116 55.7529 74.2145 52.8212 75.9757C51.3757 76.2467 49.7955 76.296 48.4522 75.6144C48.0888 75.3558 47.4681 75.1054 47.7294 74.5552C48.8033 74.2761 50.0895 74.3787 50.9021 73.4796C52.372 71.9975 52.5925 69.7846 53.6745 68.0603Z" fill="#381D14"/>
<path d="M72.0693 21.7009C71.2486 26.1472 70.7872 30.6427 70.4361 35.1465C69.8032 35.1875 69.1703 35.245 68.5374 35.2491C68.3414 35.245 67.9494 35.2368 67.7534 35.2327C68.8681 31.4761 70.1788 27.773 71.1669 23.9836C71.367 23.1871 71.7345 22.4481 72.0693 21.7009Z" fill="#EE9A9B"/>
<path d="M74.2008 22.9408C75.144 23.4909 76.0668 24.0986 76.8426 24.8786C80.007 28.0152 82.4774 31.7964 84.4414 35.791C80.595 34.9946 76.6752 34.6661 72.7512 34.9166C73.0085 30.9014 73.3351 26.878 74.2008 22.9408Z" fill="#EE9A9B"/>
<path d="M50.841 45.5622C57.3741 40.7464 65.2301 37.6468 73.3434 37.1582C79.5008 36.8011 85.7277 38.0779 91.289 40.7547C94.6576 42.3435 97.7159 44.4907 100.799 46.5722C100.566 46.7487 100.105 47.1059 99.8759 47.2824L99.586 47.0895C94.1186 43.6449 87.9367 41.2843 81.5424 40.3687C71.7019 38.9318 61.6083 42.089 53.6216 47.8654C52.2048 49.0888 50.1632 48.8589 48.4728 48.4607C42.3684 46.3874 36.1742 44.5482 29.8616 43.2221C28.9266 43.025 27.967 42.9922 27.0157 42.9552C26.4767 42.9347 25.9663 42.7458 25.46 42.5775C33.3813 42.3845 41.3476 43.3001 48.9668 45.5047C49.567 45.6033 50.2938 46.0385 50.841 45.5622Z" fill="#EE9A9B"/>
<path d="M21.1072 43.6941C28.2201 45.5334 34.8307 49.0066 40.8698 53.1532C40.6411 53.5966 40.4084 54.04 40.147 54.467C34.5776 62.9572 31.8214 73.2538 32.2338 83.3985C31.9072 82.9674 31.6132 82.5117 31.3805 82.0232C25.4108 70.1377 21.6666 57.0206 21.1072 43.6941Z" fill="#EE9A9B"/>
<path d="M101.656 47.0977C105.066 49.3311 108.508 51.5275 111.938 53.7322C110.178 53.3586 108.642 52.3814 107.07 51.5562C105.168 50.497 103.236 49.4706 101.485 48.1692C101.525 47.9023 101.611 47.3645 101.656 47.0977Z" fill="#EE9A9B"/>
<path d="M83.5798 70.5401C85.2458 69.0539 87.8631 69.1155 89.8965 69.7272C89.8679 70.3718 89.8516 71.0163 89.8393 71.665C88.5531 71.9442 87.2792 72.2767 86.0175 72.6503C85.9644 72.6667 85.8542 72.6955 85.8011 72.7119C85.1069 71.9647 83.8902 71.5049 83.5798 70.5401Z" fill="#EE9A9B"/>
<path d="M138.58 73.4017C139.491 72.8967 140.507 73.6152 140.589 74.6005C140.03 76.0046 138.539 74.3541 138.58 73.4017Z" fill="#EE9A9B"/>
<path d="M135.93 73.6233C137.327 72.8104 139.033 74.6948 138.503 76.0907C137.204 77.4743 134.963 75.0274 135.93 73.6233Z" fill="#EE9A9B"/>
<path d="M134.816 77.4251C134.468 76.8011 135.175 75.943 135.84 76.3495C136.796 76.5547 136.694 77.6427 136.592 78.3817C135.881 78.3776 135.012 78.2544 134.816 77.4251Z" fill="#EE9A9B"/>
<path d="M138.838 77.3141C139.809 76.452 141.19 76.7886 142.316 77.0924C141.398 79.5599 141.108 82.1792 140.687 84.7615C139.785 83.8214 138.776 82.9058 138.331 81.6413C137.764 80.266 137.592 78.3693 138.838 77.3141Z" fill="#EE9A9B"/>
<path d="M93.6285 80.6479C101.276 78.5828 109.365 78.3611 117.16 79.6995C117.785 80.8737 118.446 82.0314 119.148 83.1604C111.051 81.6291 102.636 81.4608 94.5676 83.2672C93.0732 83.0907 91.5869 82.7622 90.072 82.9839C91.1949 82.1259 92.183 80.9517 93.6285 80.6479Z" fill="#EE9A9B"/>
<path d="M121.851 79.0673C123.056 79.3013 124.232 79.6749 125.33 80.2414C129.413 87.7997 132.223 96.1133 133.031 104.702C133.366 108.434 133.525 112.232 132.864 115.935C132.357 113.903 130.679 112.207 130.891 110.015C130.957 102.268 129.221 94.5533 126.147 87.463C124.946 84.5481 123.313 81.8467 121.851 79.0673Z" fill="#EE9A9B"/>
<path d="M128.801 81.8754C129.969 82.2818 131.059 82.8976 131.986 83.7228C137.176 94.6681 139.858 107.132 137.943 119.219C136.894 120.028 135.857 120.853 134.811 121.67C134.693 121.071 134.538 120.463 134.685 119.855C136.171 111.431 135.665 102.686 133.448 94.4341C132.329 90.0946 130.614 85.9562 128.801 81.8754Z" fill="#EE9A9B"/>
<path d="M97.4504 85.0285C105.123 83.8789 112.983 84.1088 120.557 85.8208C120.986 86.8595 121.447 87.89 121.929 88.9082C114.396 87.0976 106.531 86.5639 98.8428 87.5944C98.508 86.6707 98.0466 85.8044 97.4504 85.0285Z" fill="#EE9A9B"/>
<path d="M136.273 87.6067C138.744 89.4295 140.132 92.3075 141.442 95.0048C142.39 100.543 143.345 106.098 143.598 111.722C142.598 113.172 141.643 114.658 140.659 116.119C141.177 108.463 140.336 100.728 138.107 93.3831C137.604 91.4207 136.747 89.5732 136.273 87.6067Z" fill="#EE9A9B"/>
<path d="M103.277 91.7984C104.179 91.7532 105.082 91.7081 105.984 91.6588C105.041 100.412 107.462 109.144 110.725 117.187C109.843 117.585 108.973 118.004 108.107 118.435C104.71 110.023 102.632 100.917 103.277 91.7984Z" fill="#EE9A9B"/>
<path d="M108.234 91.6793C109.251 91.6752 110.267 91.6752 111.284 91.6711C111.19 92.6565 111.153 93.6459 111.149 94.6394C109.982 95.0212 108.949 95.6904 108.079 96.5526C108.107 94.9268 108.058 93.2969 108.234 91.6793Z" fill="#EE9A9B"/>
<path d="M100.484 92.2623C100.594 92.3362 100.811 92.484 100.917 92.5579C100.349 101.869 102.64 111.094 106.049 119.687C105.225 120.18 104.461 120.816 103.518 121.062C99.8022 112.125 97.7606 102.387 98.2751 92.677C99.0101 92.5374 99.7451 92.4019 100.484 92.2623Z" fill="#EE9A9B"/>
<path d="M113.432 92.0612C114.416 92.1022 115.4 92.1474 116.388 92.1966C116.368 93.2189 116.376 94.2453 116.404 95.2676C115.433 94.9022 114.428 94.6312 113.403 94.4588C113.416 93.6582 113.428 92.8576 113.432 92.0612Z" fill="#EE9A9B"/>
<path d="M118.687 92.796C119.585 92.9685 120.484 93.145 121.382 93.3297L121.451 93.3462C121.517 95.3127 121.827 97.2587 122.137 99.2006C121.108 98.1619 119.838 97.4106 118.777 96.4253C118.658 95.2183 118.724 94.003 118.687 92.796Z" fill="#EE9A9B"/>
<path d="M94.2859 96.5157C94.833 96.0682 95.3679 95.6084 95.8987 95.1362C95.8416 96.3556 95.8661 97.5749 95.8742 98.7983C95.1719 99.1268 94.4819 99.4716 93.7959 99.8288C93.9225 98.7162 94.0817 97.6118 94.2859 96.5157Z" fill="#EE9A9B"/>
<path d="M123.885 94.9966C124.914 97.4763 125.571 100.219 125.449 102.92C124.318 100.469 124.256 97.6446 123.885 94.9966Z" fill="#EE9A9B"/>
<path d="M114.326 98.2687C115.367 98.0018 116.421 98.9666 116.094 100.046C114.996 100.609 114.175 99.2499 114.326 98.2687Z" fill="#EE9A9B"/>
<path d="M111.525 98.6793C112.999 97.7843 114.812 99.8699 114.036 101.303C112.587 102.259 110.7 100.112 111.525 98.6793Z" fill="#EE9A9B"/>
<path d="M93.5591 102.699C94.4043 102.181 95.2618 101.68 96.1315 101.204C96.2131 102.448 96.3356 103.688 96.5439 104.92C95.7558 105.4 94.9841 105.901 94.2328 106.426C94.0817 105.17 93.8531 103.926 93.5591 102.699Z" fill="#EE9A9B"/>
<path d="M110.549 101.442C111.611 100.798 113.056 102.514 112.031 103.347C110.994 103.754 109.92 102.374 110.549 101.442Z" fill="#EE9A9B"/>
<path d="M115.122 101.947C118.23 101.118 121.129 103.934 121.925 106.771C122.517 108.364 121.855 110.7 119.949 110.918C117.143 111.197 114.71 108.849 113.824 106.336C113.236 104.833 113.403 102.596 115.122 101.947Z" fill="#EE9A9B"/>
<path d="M95.0535 108.705C95.6986 108.257 96.3315 107.798 96.9644 107.334C97.1604 108.491 97.4135 109.637 97.683 110.778C97.3237 111.115 96.9644 111.452 96.6132 111.788C96.0988 110.758 95.5802 109.731 95.0535 108.705Z" fill="#EE9A9B"/>
<path d="M50.8206 144.464C52.9928 142.124 56.4104 141.405 59.4606 141.947C66.157 142.986 72.0122 146.784 77.2428 150.918C83.6166 155.709 89.8476 160.849 97.1115 164.244C95.3517 163.953 93.6286 163.468 91.8606 163.243C88.6635 161.74 85.8787 159.445 83.0042 157.405C76.6303 152.794 70.7301 147.153 63.1518 144.583C60.265 143.565 57.1576 143.249 54.1606 143.922C53.0173 143.86 51.8863 144.058 50.8206 144.464Z" fill="#EE9A9B"/>
<path d="M69.738 25.8926C70.13 25.2029 70.4117 24.3653 71.1671 23.9835C70.179 27.7729 68.8683 31.4761 67.7536 35.2326C67.9496 35.2367 68.3416 35.2449 68.5375 35.249C67.6188 36.0291 66.2265 35.6719 65.1526 36.1523C66.5 32.6544 67.9741 29.2016 69.738 25.8926Z" fill="#74605A"/>
<path d="M53.6216 47.8653C61.6083 42.0888 71.7019 38.9317 81.5424 40.3686C87.9366 41.2841 94.1186 43.6448 99.586 47.0893L99.7697 47.6107C98.0262 47.9268 96.3684 47.1222 94.6331 47.1961C92.2036 47.1714 89.7169 48.3128 88.2511 50.2834L88.198 50.1685C87.0057 47.233 83.6901 45.9151 80.7258 45.8577C75.1726 45.7181 69.6644 48.4195 66.1529 52.7098C64.0582 55.2962 62.6904 59.0282 64.3645 62.1935C64.7973 62.2387 65.2301 62.292 65.667 62.3495C60.9999 61.5982 56.0225 63.9219 53.6747 68.0603C52.5927 69.7846 52.3722 71.9975 50.9022 73.4796C50.0897 74.3787 48.8035 74.276 47.7296 74.5552C47.4683 75.1053 48.0889 75.3558 48.4523 75.6144C49.7957 76.2959 51.3759 76.2467 52.8213 75.9757C51.1431 80.8284 48.4686 85.2542 45.6513 89.5157C42.9155 93.5719 39.9511 97.4681 36.8398 101.241C36.068 102.189 35.1534 103.056 34.7124 104.226C35.0105 99.1965 34.5246 94.1549 34.5899 89.1175C34.6634 85.8248 34.2184 82.5404 34.4633 79.2519C34.7859 70.269 37.8565 61.4217 43.0625 54.1262C43.3769 53.6869 43.7077 53.2024 43.5648 52.6318C43.1769 52.1555 42.6869 51.786 42.201 51.4206C37.8973 48.3005 33.218 45.7017 28.2937 43.7228C27.8363 43.5175 27.4117 43.2589 27.0156 42.9551C27.967 42.992 28.9266 43.0249 29.8616 43.2219C36.1742 44.548 42.3684 46.3873 48.4727 48.4606C50.1632 48.8588 52.2047 49.0887 53.6216 47.8653Z" fill="#74605A"/>
<path d="M101.325 48.0542L101.485 48.1692C103.236 49.4706 105.168 50.497 107.07 51.5562C108.642 52.3814 110.178 53.3585 111.937 53.7321C112.546 53.7691 112.905 54.2535 113.113 54.7831C108.74 53.3626 104.212 52.3855 99.6226 52.0858C99.2265 51.7081 98.8387 51.3222 98.4548 50.9445C99.7043 50.3163 100.843 49.4254 101.325 48.0542Z" fill="#74605A"/>
<path d="M66.1529 52.7098C69.6644 48.4195 75.1726 45.7181 80.7257 45.8577C83.6901 45.9152 87.0057 47.233 88.198 50.1685C87.1363 51.5808 86.336 53.2435 86.2299 55.0335C86.2013 55.7602 86.777 56.2529 87.2302 56.7291C88.1735 56.8112 89.3984 56.5567 89.5331 55.4194C89.7986 53.5432 90.9704 51.7984 92.7425 51.0635C94.4942 50.2629 96.4337 50.7966 98.2793 50.7679L98.4549 50.9444C98.8387 51.3221 99.2266 51.7081 99.6227 52.0858C104.212 52.3855 108.74 53.3626 113.114 54.7831C113.763 55.0048 114.392 55.3004 115.024 55.5713C115.02 56.3801 115.016 57.1889 115.033 57.9977C114.882 57.7924 114.588 57.3778 114.441 57.1725C112.048 62.4317 108.634 67.1571 104.784 71.4268C104.331 71.862 104.086 72.4368 104.261 73.0649C97.5076 74.662 91.2358 78.2748 86.483 83.3533C85.5194 84.4536 84.0004 84.7082 82.8 85.4595C78.6841 87.8037 74.9603 90.8664 71.9469 94.5367C71.2364 94.6353 70.5178 94.7133 69.84 94.9637C59.583 99.1678 48.7912 101.968 37.8769 103.811C37.1623 103.893 36.509 104.185 35.9782 104.669C35.5535 104.53 35.1289 104.378 34.7124 104.226C35.1534 103.056 36.068 102.189 36.8397 101.241C39.9511 97.4681 42.9155 93.572 45.6512 89.5157C48.4686 85.2542 51.1431 80.8284 52.8213 75.9757C55.753 74.2145 55.6632 70.2116 58.0804 68.0028C60.0567 66.0938 62.9966 65.2686 65.6711 65.8639C66.7858 66.0979 67.7576 66.804 68.8886 66.9559C70.3463 66.9395 71.0364 64.78 69.8767 63.8973C68.6436 63.0187 67.141 62.5836 65.667 62.3495C65.2301 62.2921 64.7973 62.2387 64.3644 62.1935C62.6903 59.0282 64.0582 55.2963 66.1529 52.7098ZM81.8159 59.4059C81.032 59.8657 79.8193 60.4487 80.1827 61.5695C80.3705 62.8011 81.7343 62.875 82.6979 62.6657C83.1879 63.3677 83.78 64.1313 83.7187 65.0428C83.3553 67.9043 80.3419 70.2239 77.4919 69.5096C76.5936 69.2796 76.1485 68.3805 75.3972 67.9207C74.6255 67.5389 73.6006 68.1876 73.5475 69.0333C73.4005 69.9653 74.2335 70.6345 74.8337 71.2133C76.4547 72.6503 78.7944 72.6995 80.787 72.1535C82.4815 73.7218 84.1923 75.4338 86.4299 76.181C88.6226 76.9159 91.4931 75.9552 92.2607 73.6192C93.2039 70.655 92.5425 67.4979 91.9463 64.5296C92.6445 63.5525 93.355 62.4399 93.2488 61.1795C93.159 60.4035 93.2366 59.3115 92.4077 58.9173C91.7095 58.4863 90.901 58.9871 90.5417 59.6153C90.4682 60.5636 90.8969 61.6598 90.1946 62.4645C89.2841 63.5689 87.6345 63.4129 86.4054 63.0598C85.7603 62.5466 85.4786 61.6803 85.0212 61.0029C85.2336 60.2639 85.4581 59.3197 84.7518 58.7654C83.7473 58.0018 82.6979 58.9338 81.8159 59.4059Z" fill="white"/>
<path d="M113.22 67.543C116.752 66.3319 121.055 68.1671 122.676 71.5377C123.399 73.0485 122.921 74.8714 121.676 75.9429C121.513 74.5963 120.455 73.7629 119.467 72.9911C119.434 72.4655 119.802 71.6239 119.14 71.3653C118.467 70.8644 117.675 71.3612 117.344 72.0139C116.609 71.6896 115.882 71.3612 115.163 71.0122C114.935 70.0022 113.779 69.7066 113.036 70.3758C112.236 70.4415 111.44 70.499 110.643 70.5647C110.97 69.2017 111.872 67.9988 113.22 67.543Z" fill="white"/>
<path d="M156.346 67.8591C158.167 67.6005 160.115 67.5636 161.846 68.2902C163.5 69.1195 164.161 71.1682 163.606 72.8966C162.7 71.9482 161.826 70.655 160.368 70.6755C157.338 70.5729 154.317 71.5541 151.695 73.0321C148.347 74.974 146.84 78.8742 146.383 82.5569C145.485 90.0659 146.992 97.5748 148.335 104.936C149.87 114.075 147.686 124.039 141.647 131.158L141.422 130.608C143.827 126.613 145.366 122.093 145.66 117.417C146.395 109.062 144.595 100.798 143.325 92.5908C142.692 87.2372 142.623 81.5059 145.011 76.5464C147.29 72.1987 151.516 68.8116 156.346 67.8591Z" fill="white"/>
<path d="M133.913 73.2333C134.803 72.4615 135.82 71.6937 137.061 71.7225C139.503 71.7389 141.602 73.1717 143.509 74.5471C143.088 75.3846 142.688 76.2303 142.317 77.0925C141.19 76.7887 139.809 76.452 138.838 77.3142C137.592 78.3693 137.764 80.266 138.331 81.6414C138.776 82.9059 139.785 83.8214 140.687 84.7616C140.716 84.9627 140.777 85.3692 140.806 85.5704C138.883 83.4314 136.898 81.3294 134.591 79.6009C134.22 77.5318 134.056 75.4338 133.921 73.34L133.913 73.2333ZM138.58 73.4016C138.54 74.3541 140.03 76.0045 140.589 74.6004C140.508 73.6151 139.491 72.8966 138.58 73.4016ZM135.93 73.6233C134.963 75.0274 137.204 77.4743 138.503 76.0907C139.034 74.6949 137.327 72.8104 135.93 73.6233ZM134.816 77.425C135.012 78.2543 135.881 78.3775 136.592 78.3816C136.694 77.6426 136.796 76.5547 135.841 76.3494C135.175 75.9429 134.469 76.801 134.816 77.425Z" fill="white"/>
<path d="M80.7298 89.4911C84.2168 87.0401 88.2796 85.0941 92.6282 85.1844C91.9259 85.5252 91.2276 85.8742 90.5417 86.2436C90.4682 86.4489 90.3171 86.8554 90.2436 87.0606C90.3171 87.2741 90.4682 87.7052 90.5457 87.9187C92.1954 88.7069 93.698 86.6665 95.466 87.1181C96.45 87.0565 96.7195 88.1199 96.6787 88.9081C94.7065 88.941 92.6078 89.2201 90.9786 90.4231C90.5049 91.2277 91.1092 92.4922 92.1137 92.2131C93.4081 91.6917 94.7351 91.2236 96.1397 91.1251C94.633 93.7978 91.9259 95.3579 89.4964 97.0535C85.2254 100.05 80.8686 103.318 78.2962 107.991C76.765 110.692 76.1689 113.886 76.5813 116.965C75.0787 115.803 74.2743 114.034 73.5352 112.334C72.4736 109.793 71.9224 107.038 71.9836 104.279C71.9509 101.869 72.6614 99.5373 72.8901 97.152C74.8786 94.0359 77.7572 91.6219 80.7298 89.4911Z" fill="white"/>
<path d="M151.896 84.9258C153.17 87.2208 154.407 89.5609 155.301 92.0365C155.272 93.3421 155.285 94.6764 154.954 95.9532C154.55 96.7702 153.888 97.4147 153.308 98.1045C152.541 93.7567 151.569 89.3679 151.896 84.9258Z" fill="white"/>
<path d="M32.2829 99.3402C32.3891 97.6569 31.9563 95.8916 32.5279 94.2699C32.5402 98.047 32.5892 101.828 32.5034 105.605C31.9726 103.561 32.4095 101.422 32.2829 99.3402Z" fill="white"/>
<path d="M109.026 99.1308C109.88 97.7842 111.288 96.5977 112.979 96.7701C116.217 97.074 118.851 99.2663 121.133 101.413C125.678 106.053 128.96 111.837 131.235 117.901C131.022 119.174 130.851 120.492 130.267 121.662C129.426 122.902 127.674 122.873 126.396 122.425C123.285 121.374 120.729 119.162 118.41 116.895C114.702 112.843 111.329 108.196 109.953 102.781C109.569 101.586 110.019 100.063 109.026 99.1308ZM114.326 98.2687C114.175 99.2499 114.996 100.609 116.094 100.046C116.421 98.9666 115.368 98.0018 114.326 98.2687ZM111.525 98.6792C110.7 100.112 112.587 102.259 114.036 101.303C114.812 99.8698 112.999 97.7842 111.525 98.6792ZM110.549 101.442C109.921 102.374 110.994 103.754 112.032 103.347C113.056 102.514 111.611 100.798 110.549 101.442ZM115.123 101.947C113.404 102.596 113.236 104.833 113.824 106.336C114.71 108.849 117.144 111.197 119.949 110.918C121.856 110.7 122.517 108.364 121.925 106.771C121.129 103.934 118.23 101.118 115.123 101.947Z" fill="white"/>
<path d="M102.154 125.817C105.335 122.356 109.541 119.933 113.963 118.443C115.441 120.389 116.801 122.43 118.393 124.285C112.46 124.355 106.45 126.572 102.293 130.903C101.481 131.766 101.423 133.026 101.182 134.13C101.027 131.334 101.236 128.469 102.154 125.817Z" fill="white"/>
<path d="M117.16 79.6995C118.042 79.8514 118.928 80.0115 119.814 80.1675C120.545 81.3745 121.259 82.5897 121.982 83.8009C121.063 83.5874 120.137 83.4026 119.206 83.2548L119.148 83.1604C118.446 82.0314 117.785 80.8736 117.16 79.6995Z" fill="#D53947"/>
<path d="M120.557 85.8208C121.402 85.9891 122.26 86.1205 123.085 86.3874C123.893 87.27 124.158 88.5263 124.661 89.5938C123.746 89.3885 122.836 89.1545 121.929 88.9081C121.447 87.89 120.986 86.8595 120.557 85.8208Z" fill="#D53947"/>
<path d="M98.7776 89.9551C99.6188 89.8114 100.468 89.6841 101.317 89.5979C101.183 90.6161 101.105 91.6424 101.081 92.6688L100.917 92.558C100.811 92.4841 100.595 92.3363 100.484 92.2624C99.7453 92.402 99.0104 92.5374 98.2754 92.677C98.3693 91.7533 98.5653 90.8542 98.7776 89.9551Z" fill="#D53947"/>
<path d="M103.632 89.4664C104.539 89.4131 105.445 89.3925 106.356 89.3966C106.197 90.1438 106.078 90.8992 105.984 91.6588C105.082 91.708 104.179 91.7532 103.277 91.7984C103.4 91.0183 103.514 90.2424 103.632 89.4664Z" fill="#D53947"/>
<path d="M108.561 89.4459C109.529 89.4747 110.496 89.5034 111.468 89.5198C111.407 90.2342 111.341 90.9527 111.284 91.6711C110.268 91.6752 109.251 91.6752 108.234 91.6793C108.353 90.9362 108.459 90.189 108.561 89.4459Z" fill="#D53947"/>
<path d="M113.432 92.0612C113.518 91.3099 113.62 90.5668 113.722 89.8196C114.665 89.8894 115.613 89.9756 116.556 90.0947C116.499 90.7926 116.441 91.4946 116.388 92.1967C115.4 92.1474 114.416 92.1022 113.432 92.0612Z" fill="#D53947"/>
<path d="M118.707 90.5298C119.561 90.694 120.418 90.8746 121.268 91.0758C121.304 91.8271 121.341 92.5784 121.382 93.3297C120.484 93.145 119.585 92.9685 118.687 92.796C118.691 92.0406 118.699 91.2852 118.707 90.5298Z" fill="#D53947"/>
<path d="M123.579 91.6383C124.354 91.9873 125.588 91.9052 125.902 92.8618C127.543 97.579 128.385 102.543 128.711 107.518C127.666 105.954 126.661 104.357 125.449 102.92C125.571 100.219 124.914 97.4763 123.885 94.9966C123.428 93.9415 123.656 92.7509 123.579 91.6383Z" fill="#D53947"/>
<path d="M83.7841 104.435C86.969 101.397 90.6683 98.983 94.286 96.5156C94.0819 97.6118 93.9226 98.7162 93.796 99.8288C88.3287 103.011 83.6698 107.67 80.7707 113.332C80.0439 114.703 79.5376 116.177 78.8026 117.544C78.6597 115.59 78.4882 113.562 79.1129 111.669C79.9132 108.853 81.7466 106.471 83.7841 104.435Z" fill="#D53947"/>
<path d="M80.1338 121.555C81.7997 113.783 86.8996 106.915 93.5593 102.698C93.8533 103.926 94.0819 105.17 94.233 106.426C88.7003 110.581 84.0986 116.271 82.1835 123.025C81.9508 123.674 81.9671 124.482 81.3873 124.946C80.9382 123.83 80.4033 122.733 80.1338 121.555Z" fill="#D53947"/>
<path d="M83.3105 128.485C84.1149 120.558 88.7942 113.422 95.0538 108.705C95.5805 109.731 96.0991 110.758 96.6135 111.788C91.0359 116.961 86.1974 123.69 85.495 131.495C84.6253 130.6 83.9557 129.545 83.3105 128.485Z" fill="#D53947"/>
<path d="M140.659 116.119C141.643 114.658 142.598 113.172 143.599 111.722C143.754 116.197 143.386 120.779 141.737 124.979C140.075 128.851 137.805 132.48 134.983 135.604C135.367 134.015 136.331 132.661 136.886 131.141C138.952 126.375 140.005 121.235 140.659 116.119Z" fill="#D53947"/>
<path d="M98.1324 113.397C98.2141 113.402 98.3856 113.406 98.4713 113.41C98.7775 114.44 99.0144 115.487 99.3084 116.522C94.2248 121.904 90.2274 128.822 89.9375 136.392C89.1412 135.715 88.3001 135.054 87.6917 134.192C87.3038 130.612 88.5206 127.069 90.0395 123.883C92.0117 119.888 94.9108 116.431 98.1324 113.397Z" fill="#D53947"/>
<path d="M92.1628 138.31C91.8402 131.068 95.3721 124.117 100.215 118.948C100.664 120.34 101.26 121.682 101.709 123.074C97.0871 127.36 94.4289 133.679 94.6045 140.001C93.7797 139.455 92.9631 138.893 92.1628 138.31Z" fill="#D53947"/>
<path d="M134.812 121.67C135.857 120.853 136.894 120.028 137.943 119.219C137.51 122.089 136.906 124.983 135.747 127.652C135.665 125.628 135.322 123.624 134.812 121.67Z" fill="#D53947"/>
<path d="M101.501 146.209C98.2671 141.75 96.7727 135.674 99.0062 130.448C98.5897 135.83 99.9943 141.377 103.277 145.691C106.67 150.097 110.023 154.838 111.182 160.397C111.815 162.992 110.729 166.215 108.075 167.171C104.412 168.485 100.403 167.43 96.936 166.005C95.1925 165.193 93.351 164.491 91.8606 163.242C93.6286 163.468 95.3517 163.953 97.1116 164.244C99.7166 165.18 102.399 166.149 105.221 165.923C107.034 166.047 109.145 165.049 109.455 163.082C109.9 160.574 108.806 158.115 107.834 155.861C106.197 152.351 103.816 149.276 101.501 146.209Z" fill="#D53947"/>
<path d="M50.8206 144.464C51.8863 144.057 53.0173 143.86 54.1606 143.922C51.923 145.338 50.4163 147.642 49.9958 150.269C49.861 151.234 48.4197 151.32 48.3748 150.24C48.4238 148.138 49.5344 146.258 50.6287 144.525L50.8206 144.464Z" fill="#D53947"/>
</svg>
