<svg class="illustration" width="186" height="186" viewBox="0 0 186 186" fill="none" xmlns="http://www.w3.org/2000/svg">
<g clip-path="url(#clip0_59_51)">
<path d="M47.9041 39.7323C55.7008 41.0345 63.3333 43.8657 69.6923 48.6419C68.3079 48.6955 66.9359 48.951 65.5474 48.9634L65.3584 48.9325L65.1695 48.9016C60.1004 45.6377 54.4479 43.2517 48.5942 41.8546C48.36 41.1458 48.1259 40.4411 47.9041 39.7323Z" fill="#FDB9BE"/>
<path d="M46.1705 58.6602C45.2667 53.1051 44.8272 47.3645 45.9199 41.8093C46.1376 42.1637 45.9158 43.7421 46.4211 43.2847C46.3307 43.6102 46.1499 44.2655 46.0596 44.5951C46.1787 48.6461 46.6634 52.6929 47.448 56.6697C47.7397 58.2975 48.3928 59.8841 48.2901 61.5614C48.2162 62.8348 47.2714 63.7785 46.4087 64.6109C43.3812 67.4833 41.1506 71.2293 40.2099 75.3091C39.9347 76.3517 39.8608 77.4933 39.2569 78.4164C38.727 79.1911 37.7904 79.4714 36.9811 79.834C35.5927 78.5276 34.0892 79.8052 33.3169 81.0579C31.7723 81.8822 30.7331 83.3987 30.4126 85.113C29.5294 89.4813 30.4168 94.0392 31.9901 98.1478C32.4912 99.5737 33.5141 100.765 33.8674 102.252C29.8909 100.076 28.8106 95.2878 27.989 91.1915C27.3728 87.6145 27.2414 83.3657 29.8581 80.5181C31.9777 78.6513 34.804 77.9383 37.4125 77.0317C38.0574 76.8586 38.1642 76.1169 38.2505 75.5564C38.7968 71.8722 40.3702 68.3528 42.6829 65.4475C43.4634 64.4337 44.515 63.6631 45.275 62.6329C46.0678 61.4872 46.3882 60.0325 46.1705 58.6602Z" fill="#C0D2EC"/>
<path d="M37.6424 40.9603C39.5156 39.5715 41.4053 38.2033 43.4058 37C43.7344 37.4286 44.0548 37.8572 44.3835 38.2899C43.6235 39.3366 43.4674 40.643 43.2661 41.8793C42.3953 47.4633 42.6746 53.1709 43.6112 58.7302C43.8412 59.7975 43.5578 60.9514 42.7239 61.6849C39.0063 65.1383 36.6442 69.9064 35.7528 74.8804C33.0416 75.8159 30.1661 76.7267 28.0382 78.7418C25.1874 81.7131 24.7807 86.1638 25.2572 90.0705C25.7994 93.6476 26.5594 97.3235 28.449 100.456C30.1497 103.295 33.1402 105.112 36.3033 105.862C33.1197 105.846 29.9278 105.739 26.7483 105.928C20.7344 92.5967 14.6383 79.3023 8.60384 65.979C8.13554 64.9405 7.69599 63.8814 7.03052 62.9501C17.2345 55.6188 27.3276 48.1391 37.6424 40.9603Z" fill="url(#paint0_linear_59_51)"/>
<path d="M77.0986 56.6614C79.4524 55.2273 82.291 55.0789 84.9611 55.3674C85.832 56.1916 86.7357 57.024 87.3519 58.0666C88.6336 61.8621 90.1658 65.6287 90.4328 69.6797C91.086 73.4339 90.5643 77.2335 89.9974 80.9589C89.5291 83.2502 88.8595 85.5456 89.0977 87.9111C87.0643 89.5142 84.7516 90.7216 82.8086 92.4401C81.6296 93.4497 80.767 94.752 79.7729 95.9306C78.1872 95.1476 77.6902 96.9979 77.6244 98.1642C76.1374 99.5818 74.3094 101.094 72.1158 100.863C70.3576 100.55 68.965 99.3263 67.4574 98.4527C63.1893 95.7081 57.8286 94.7891 52.8868 95.8688C52.2049 96.0295 51.5024 95.9924 50.8123 95.9553C52.9689 95.1352 55.331 94.5789 57.1631 93.1159C59.1513 90.5568 57.9847 86.2833 55.0516 84.9563C52.0611 83.5057 48.3476 82.4425 46.8564 79.1457C44.8518 75.2142 47.3001 69.9352 51.5805 68.9338C55.1749 67.8747 58.416 70.2566 61.3079 72.0451C63.4317 73.5164 66.5496 73.232 68.3037 71.3116C69.6387 69.9764 69.7578 67.9901 70.3083 66.284C71.4626 62.4885 73.5453 58.6724 77.0986 56.6614ZM70.107 74.3653C72.6457 77.0728 69.3306 81.9026 65.9663 81.165C65.3501 79.7144 64.6271 78.2143 63.2222 77.3778C62.5814 76.6524 61.2874 76.3228 60.6301 77.2005C59.7798 78.5069 59.0445 79.9039 58.453 81.3504C58.1202 82.4507 59.3033 83.481 60.359 83.2337C61.2627 84.1115 62.7128 83.5923 63.8548 83.6829C63.8384 83.5098 63.8096 83.1596 63.7932 82.9865C67.5026 84.4 65.7321 91.076 61.8748 90.767C61.0081 90.6104 59.8496 90.9648 59.9318 92.0486C60.1084 93.6105 62.0515 93.3797 63.1606 93.2066C67.2808 92.436 69.2772 87.3795 67.897 83.6705C71.5982 82.7433 74.5271 78.5687 73.2167 74.7774C72.7771 73.7142 72.1856 72.3501 70.9245 72.1482C69.8154 72.1853 69.2854 73.6111 70.107 74.3653Z" fill="white"/>
<path d="M49.1855 102.125C52.7101 97.3853 61.275 98.1436 63.5097 103.765C62.684 103.497 61.8625 103.233 61.0902 102.846C60.4576 102.31 59.7182 102.351 58.9582 102.524C57.9805 102.623 57.0029 102.652 56.0211 102.64C55.1584 102.067 54.1972 102.438 53.696 103.274C52.0734 103.579 50.3686 103.377 49.1855 102.125Z" fill="white"/>
<path d="M79.6456 101.634C80.1057 103.975 80.7794 106.369 82.3116 108.253C84.2875 110.803 87.3356 112.188 90.3384 113.124C90.511 116.552 89.9811 119.952 89.8619 123.373C89.4758 127.032 89.3526 130.811 87.997 134.277C87.5081 135.653 86.3004 136.56 84.9448 136.976C83.199 133.935 82.0241 130.601 81.3504 127.168C79.4361 118.827 78.29 110.156 79.6456 101.634Z" fill="white"/>
<path d="M63.5633 133.296C65.3748 126.5 70.5302 120.661 77.1398 118.238C77.908 123.204 78.7912 128.186 80.307 132.987C79.8305 133.918 79.3827 134.87 79.0253 135.859C78.9966 135.946 78.9391 136.123 78.9103 136.209C74.9462 136.267 71.208 138.303 68.5585 141.179C67.5068 142.366 65.8924 142.807 64.3643 142.857C58.3463 142.894 52.3241 142.968 46.3102 143.207C45.9199 142.457 45.0696 141.769 44.2316 142.346C43.447 143.096 43.1882 144.175 43.0115 145.206C42.1776 144.723 42.2516 143.607 42.1694 142.774C42.4529 140.977 44.2069 139.939 45.7803 139.395C49.6622 138.15 53.7865 138.241 57.8122 138.039C59.4431 137.965 61.1766 137.458 62.2529 136.148C62.9471 135.34 63.3004 134.31 63.5633 133.296Z" fill="white"/>
<path d="M44.3835 38.2898C45.0942 37.5686 46.0308 36.9752 47.0865 37.0618C56.8345 38.397 66.41 42.1842 73.837 48.7655C76.5606 49.26 79.3745 49.499 81.9501 50.6158C86.6947 52.495 90.248 56.6325 92.1787 61.2851C94.1834 66.0037 94.9762 71.1591 95.1364 76.2609C102.469 77.6044 108.832 82.0139 114.193 87.0209C120.071 92.6338 124.914 99.4417 127.806 107.078C130.341 113.725 131.142 121.118 129.478 128.083C138.992 130.044 148.691 131.47 158.427 131.169C162.732 130.947 167.148 130.56 171.161 128.87C168.384 128.244 165.369 129.558 162.764 128.112C160.066 126.756 158.673 123.344 159.634 120.475C160.345 118.126 162.497 116.301 164.938 116.037C169.657 115.493 174.64 115.889 178.945 118.032C182.125 119.61 184.832 122.416 185.723 125.923C186.34 128.825 185.962 132.002 184.232 134.466C181.246 138.938 175.996 141.163 170.98 142.449C163.426 144.303 155.555 144.225 147.845 143.677C139.67 143.03 131.557 141.695 123.555 139.927C119.443 144.031 113.647 146.195 107.895 146.285C97.7572 146.318 87.6231 146.314 77.4848 146.294C74.2602 145.882 72.0748 149.108 68.8624 148.968C61.0615 149.042 53.2483 148.964 45.4434 148.96C43.0115 149.059 40.6495 147.423 39.9059 145.094C39.3596 143.586 39.6143 141.921 40.2633 140.495C42.116 137.532 45.7145 136.547 48.9556 136.094C52.1803 135.562 55.4625 135.756 58.6954 135.381C60.3344 135.22 61.1437 133.51 61.1848 132.031C61.271 129.208 61.1807 126.381 61.2176 123.554C53.5071 123.537 45.7966 123.554 38.0862 123.546C38.0779 129.171 38.0861 134.796 38.082 140.421C38.0492 142.712 38.1683 145.004 38.041 147.291C38.0574 147.946 37.4042 148.424 36.7881 148.383C34.3357 148.453 31.8791 148.371 29.4267 148.416C28.6791 148.379 27.6603 148.527 27.2989 147.674C27.0524 145.68 27.2537 143.66 27.1962 141.653C27.1962 135.62 27.1962 129.583 27.1962 123.55C25.742 123.525 24.2878 123.591 22.8377 123.525C22.1435 123.574 21.6053 122.861 21.6628 122.21C21.6546 119.029 21.6094 115.843 21.6834 112.666C21.7902 111.306 23.4169 111.562 24.3781 111.516C24.3083 111.426 24.1687 111.244 24.0988 111.158C22.2092 111.673 19.9992 110.836 19.2145 108.969C13.0158 95.3825 6.85804 81.779 0.655135 68.1961C-0.260922 66.5518 -0.32254 64.2069 1.1563 62.8635C2.72962 61.281 5.51065 61.3016 7.03057 62.95C7.69604 63.8814 8.13559 64.9405 8.60389 65.979C14.6384 79.3022 20.7345 92.5967 26.7484 105.928C29.9279 105.739 33.1197 105.846 36.3033 105.862C33.1403 105.112 30.1497 103.295 28.4491 100.455C26.5594 97.3235 25.7995 93.6475 25.2572 90.0705C24.7807 86.1638 25.1874 81.713 28.0383 78.7418C30.1662 76.7266 33.0417 75.8159 35.7529 74.8804C36.6443 69.9063 39.0063 65.1383 42.7239 61.6849C43.5578 60.9513 43.8413 59.7974 43.6112 58.7301C42.6746 53.1708 42.3953 47.4632 43.2662 41.8792C43.4675 40.6429 43.6236 39.3366 44.3835 38.2898ZM47.904 39.7322C48.1258 40.441 48.36 41.1457 48.5941 41.8545C49.8141 45.514 51.4121 49.0622 53.351 52.392C53.8686 53.3151 54.8833 52.7093 55.5652 52.3714C58.6009 50.826 61.8954 49.874 65.1941 49.1075L65.1694 48.9015L65.5473 48.9633C66.9358 48.9509 68.3078 48.6954 69.6922 48.6418C63.3332 43.8656 55.7007 41.0344 47.904 39.7322ZM46.1705 58.66C46.3882 60.0323 46.0678 61.4871 45.2749 62.6327C44.515 63.663 43.4634 64.4336 42.6829 65.4474C40.3701 68.3527 38.7968 71.872 38.2505 75.5562C38.1642 76.1167 38.0574 76.8585 37.4125 77.0316C34.804 77.9382 31.9777 78.6511 29.8581 80.5179C27.2413 83.3656 27.3728 87.6143 27.989 91.1914C28.8106 95.2877 29.8909 100.076 33.8674 102.252L33.8961 102.363C36.4841 103.53 39.3432 103.983 42.1653 104.004C43.4675 103.793 43.4059 102.186 42.6706 101.391C40.0908 96.9773 37.5275 92.5555 35.1162 88.0471C33.929 85.9206 32.7623 83.5716 33.3169 81.0578C34.0892 79.805 35.5927 78.5275 36.9811 79.8339C37.0756 80.1635 37.1742 80.4973 37.2851 80.827C36.6771 83.9343 37.4659 87.1693 38.994 89.8974C40.3989 92.3824 41.7791 94.8838 43.2498 97.3276C44.2603 96.2685 45.3694 95.3124 46.5278 94.414C46.5361 93.767 46.5484 93.12 46.5525 92.4772C47.1933 88.9372 50.4837 86.2173 54.0781 86.3574C55.2571 86.4522 55.5693 88.2614 54.4684 88.727C53.2073 88.9908 51.8229 89.0938 50.7959 89.9716C49.8429 90.6474 49.5102 91.8095 49.1076 92.8439C50.9151 91.9538 52.8211 91.1584 54.8504 90.973C56.1362 90.8988 56.5182 93.017 55.2612 93.3508C52.4925 94.1627 49.543 95.0404 47.4357 97.1215C46.2814 97.6985 45.4269 98.704 44.5766 99.6477C45.4598 101.024 46.2156 102.767 45.3735 104.358C44.6793 106.023 42.8308 106.563 41.2081 106.794C43.1594 106.67 45.1188 106.74 47.0701 106.892C46.2937 105.702 45.7227 104.255 46.1335 102.829C46.762 100.657 48.475 98.943 50.3975 97.851C55.1215 95.2424 61.7845 96.4251 64.8778 101.02C66.3484 102.743 66.1307 105.388 64.6559 107.041C67.2973 107.094 69.9345 107.173 72.5759 107.309C74.0014 107.3 75.2543 108.055 76.5441 108.57C76.614 105.075 77.0864 101.609 77.6245 98.1642C77.6902 96.9979 78.1873 95.1476 79.7729 95.9306C79.9742 96.149 80.1796 96.3715 80.3891 96.5899C80.2618 98.2878 79.8099 99.9403 79.6456 101.634C78.29 110.156 79.4361 118.827 81.3504 127.168C82.0241 130.601 83.1989 133.935 84.9448 136.976C85.8485 138.468 86.7481 140.017 88.1407 141.113C87.9106 140.425 87.6642 139.741 87.4957 139.041C87.6108 138.014 89.0403 137.479 89.6852 138.357C90.3302 139.519 90.9382 140.718 91.8501 141.703C92.4786 141.464 93.0907 141.171 93.6904 140.866C92.9962 139.618 92.1664 138.389 91.8953 136.964C92.0349 136.04 93.2345 135.443 93.9657 136.131C94.5695 136.935 94.8489 137.944 95.4404 138.769C96.0278 136.687 95.6786 134.524 95.4445 132.422C94.7831 126.962 94.6599 121.46 94.6845 115.967C94.7749 113.564 94.7996 111.154 95.0953 108.768C95.1446 108.108 95.8676 107.919 96.303 107.56C97.0014 107.89 97.7778 108.442 97.5395 109.345C96.8781 117.71 97.1616 126.134 98.1844 134.462C98.3077 136.37 98.4309 138.402 97.482 140.141C96.759 141.736 95.313 142.782 93.9328 143.763C96.8001 143.759 99.6674 143.739 102.535 143.755C105.837 143.71 109.198 143.986 112.439 143.178C116.863 142.152 121.152 139.692 123.583 135.748C125.843 132.018 127.285 127.774 127.663 123.418C128.098 119.26 127.519 115.064 126.496 111.034C126.048 109.612 125.527 108.219 125.009 106.831L124.902 106.864C123.657 103.344 121.645 100.163 119.57 97.0845C118.609 95.7575 117.627 94.447 116.526 93.2313C113.688 89.9139 110.463 86.9344 106.955 84.3381C103.032 81.6059 98.6569 79.2033 93.8383 78.6635L93.6042 78.8572L93.6288 78.7583C93.1071 78.3915 92.5074 77.9876 92.647 77.2541C92.5402 72.1894 91.8583 67.0546 89.8947 62.3566C89.2169 60.8359 88.5104 59.2823 87.352 58.0666C86.7358 57.024 85.832 56.1915 84.9612 55.3673C82.1021 52.8453 78.2941 51.881 74.597 51.4771C68.2462 50.5087 61.7393 52.0499 56.0622 54.9181C54.4602 55.8783 52.1762 55.3756 51.219 53.7437C49.2966 50.4221 47.6863 46.911 46.421 43.2845C45.9158 43.7419 46.1376 42.1636 45.9199 41.8092C44.8272 47.3643 45.2667 53.1049 46.1705 58.66ZM2.56119 66.1026C5.20667 72.1275 8.0411 78.0742 10.6866 84.1074C14.2194 91.9497 17.8096 99.7796 21.363 107.614C21.6218 108.38 22.4269 109.023 23.2608 108.706C24.2919 108.487 24.752 107.239 24.1851 106.373C19.9991 97.2122 15.8831 88.0141 11.6437 78.8737C9.47065 74.221 7.43725 69.4983 5.21899 64.8663C4.44671 63.4858 2.02717 64.6108 2.56119 66.1026ZM49.1856 102.124C48.3148 103.196 48.2039 104.98 49.6211 105.64C51.3341 105.924 53.0922 105.71 54.8258 105.755C54.3903 104.956 54.0165 104.127 53.6961 103.274C54.1973 102.438 55.1585 102.067 56.0212 102.64C56.6497 103.596 57.0974 104.651 57.3603 105.763C58.1367 105.767 58.9172 105.763 59.6977 105.755C59.1883 104.741 58.3257 103.678 58.9583 102.524C59.7183 102.351 60.4577 102.31 61.0903 102.846C61.5668 103.752 61.9488 104.704 62.2282 105.689C62.9347 105.265 63.325 104.556 63.5098 103.765C61.2751 98.1436 52.7102 97.3853 49.1856 102.124ZM27.0976 108.652C25.894 109.493 26.6416 111.706 28.1615 111.446C43.2498 111.422 58.3421 111.549 73.4304 111.347C74.7202 111.537 75.2912 109.884 74.6586 108.937C73.7549 108.125 72.465 108.483 71.3682 108.409C57.2453 108.376 43.1265 108.368 29.0036 108.36C28.371 108.421 27.6439 108.248 27.0976 108.652ZM24.1481 114.059C24.1317 116.375 24.2344 118.691 24.1851 121.007C36.899 121.032 49.6088 121.028 62.3226 121.011C64.2164 121.011 66.1183 121.032 68.0162 120.999C70.3453 118.782 73.1182 117.088 76.0882 115.876C76.0799 115.283 76.0717 114.689 76.0676 114.1C73.8863 114.146 71.7009 114.071 69.5238 114.141C54.4027 113.96 39.2733 114.121 24.1481 114.059ZM63.5632 133.296C63.3003 134.31 62.947 135.34 62.2528 136.148C61.1765 137.458 59.443 137.965 57.8122 138.039C53.7865 138.241 49.6622 138.15 45.7802 139.395C44.2069 139.939 42.4528 140.977 42.1694 142.774C42.2515 143.607 42.1776 144.723 43.0115 145.206C43.1881 144.175 43.4469 143.096 44.2315 142.346C45.0695 141.769 45.9199 142.457 46.3101 143.207C45.8788 144.237 45.5255 145.305 45.4187 146.425C53.0964 146.52 60.7781 146.454 68.4598 146.467C70.2385 146.508 71.7379 145.478 73.2126 144.633C74.5313 143.862 76.0799 143.726 77.5711 143.763C80.9683 143.78 84.3655 143.747 87.7628 143.784C84.5956 142.082 82.9771 138.69 81.412 135.624C81.0299 134.746 80.6684 133.869 80.307 132.987C78.7911 128.186 77.908 123.204 77.1398 118.238C70.5302 120.661 65.3748 126.5 63.5632 133.296ZM162.756 119.878C160.747 122.058 162.37 126.187 165.381 126.228C168.314 126.092 171.334 125.948 174.086 127.18C173.408 126.356 172.484 125.515 172.931 124.341C174.451 123.377 175.721 124.918 176.329 126.154C176.497 127.667 175.692 128.961 174.607 129.933C173.375 130.654 172.102 131.305 170.758 131.796C168.442 132.468 166.075 132.896 163.709 133.325C161.622 133.506 159.536 133.704 157.441 133.72C154.795 133.671 152.15 133.72 149.508 133.543C145.589 133.275 141.695 132.756 137.801 132.229C134.814 131.643 131.766 131.19 128.776 130.527C127.909 133.053 126.759 135.472 125.346 137.734C133.138 139.379 141.017 140.664 148.962 141.212C151.866 141.402 154.775 141.456 157.683 141.468C160.082 141.451 162.469 141.229 164.859 141.056C167.612 140.59 170.356 140.054 173.042 139.267L173.03 139.21C175.519 138.373 177.947 137.223 179.948 135.492C181.804 133.898 183.275 131.685 183.476 129.183C183.674 127.349 183.008 125.581 182.228 123.958L182.162 123.97C180.642 121.815 178.354 120.422 175.967 119.429C173.1 118.518 170.076 118.217 167.082 118.37C165.533 118.378 163.775 118.555 162.756 119.878ZM29.7102 123.624C29.7389 124.967 29.7472 126.319 29.7348 127.667C29.7184 133.724 29.743 139.782 29.7225 145.84C31.6614 145.877 33.5962 145.844 35.5351 145.865C35.5351 139.791 35.5639 133.72 35.5228 127.646C35.5146 126.286 35.5187 124.922 35.5187 123.562C33.5839 123.599 31.645 123.517 29.7102 123.624ZM63.7604 123.574C63.7563 124.493 63.7522 125.412 63.7481 126.331C64.3807 125.4 65.0256 124.477 65.687 123.562C65.0421 123.566 64.4012 123.57 63.7604 123.574Z" fill="black"/>
<path d="M109.97 49.3794C111.872 49.0827 113.795 48.889 115.717 48.7242C116.719 48.6006 117.446 49.9605 116.789 50.7435C115.659 52.4331 114.431 54.0568 113.269 55.7299C114.337 55.6599 115.425 55.2807 116.493 55.4909C117.541 55.8618 117.57 57.5432 116.497 57.9017C114.608 58.3015 112.665 58.4292 110.755 58.6971C109.711 59.0144 108.684 57.6957 109.333 56.789C110.475 55.0335 111.761 53.3727 112.944 51.646C111.95 51.7367 110.96 51.951 109.966 51.8727C108.812 51.51 108.803 49.7009 109.97 49.3794Z" fill="black"/>
<path d="M121.875 51.7161C120.901 51.4399 120.901 49.9605 121.842 49.6473C123.481 49.5608 125.132 49.5855 126.771 49.6514C127.494 49.6473 127.991 50.6487 127.539 51.2298C126.471 52.598 125.214 53.8137 124.085 55.1324C124.927 55.1406 125.777 55.0664 126.615 55.186C127.515 55.5033 127.498 56.9168 126.591 57.2094C124.894 57.3619 123.177 57.3289 121.476 57.3083C120.667 57.3 120.186 56.1338 120.803 55.5692C121.891 54.267 123.078 53.0471 124.196 51.7696C123.419 51.7655 122.643 51.7985 121.875 51.7161Z" fill="black"/>
<path d="M100.049 50.7765C100.715 50.5334 101.36 50.1007 102.091 50.1254C102.995 50.1996 103.718 51.2051 103.356 52.0829C102.666 54.3165 101.836 56.5089 101.113 58.7342C102.149 58.3633 103.122 57.8358 104.166 57.4856C105.254 57.2259 106.335 58.4746 105.842 59.5131C105.62 60.2302 104.819 60.4321 104.231 60.7412C102.498 61.4747 100.797 62.2948 99.0554 63.0118C97.9832 63.527 96.6153 62.3113 97.0918 61.1821C97.7943 58.8908 98.6446 56.649 99.384 54.3701C98.3899 54.7698 97.4246 55.2561 96.4017 55.5775C94.9804 55.8165 94.1013 53.8632 95.1775 52.9359C96.7262 52.0664 98.4433 51.5348 100.049 50.7765Z" fill="black"/>
<path d="M66.1676 59.3482C67.0138 58.9856 68.2379 59.3111 68.2995 60.3826C68.3981 61.3181 67.4903 61.6642 66.7632 61.8414C64.5901 62.3772 63.0949 64.7591 63.4563 66.9556C63.596 67.9818 64.1711 68.8678 64.508 69.8321C64.5285 70.8706 63.2345 71.5341 62.4335 70.8582C61.5051 69.762 61.082 68.3073 60.9136 66.9021C60.5521 63.5599 62.9264 60.1765 66.1676 59.3482Z" fill="black"/>
<path d="M70.107 74.3653C69.2854 73.6112 69.8153 72.1853 70.9245 72.1482C72.1856 72.3501 72.7771 73.7142 73.2167 74.7774C74.5271 78.5687 71.5982 82.7433 67.897 83.6706C69.2772 87.3795 67.2808 92.436 63.1606 93.2066C62.0514 93.3797 60.1084 93.6105 59.9318 92.0486C59.8496 90.9648 61.008 90.6104 61.8748 90.767C65.7321 91.076 67.5026 84.4 63.7932 82.9865C63.2099 82.6486 62.6142 82.3354 62.0227 82.0263C61.4722 82.4343 60.93 82.8546 60.359 83.2337C59.3033 83.481 58.1202 82.4508 58.4529 81.3504C59.0445 79.904 59.7798 78.5069 60.6301 77.2006C61.2874 76.3228 62.5814 76.6525 63.2222 77.3778C63.255 78.1566 63.2386 78.9396 63.2263 79.7226C64.1218 80.2336 65.0255 80.7323 65.9662 81.165C69.3306 81.9027 72.6457 77.0728 70.107 74.3653Z" fill="black"/>
<path d="M48.594 41.8546C54.4477 43.2516 60.1002 45.6377 65.1693 48.9016L65.1939 49.1076C61.8953 49.8741 58.6008 50.8261 55.5651 52.3715C54.8832 52.7094 53.8685 53.3152 53.3509 52.3921C51.412 49.0623 49.814 45.5141 48.594 41.8546Z" fill="#FC899A"/>
<path d="M2.5611 66.1027C2.02707 64.6109 4.44662 63.4859 5.2189 64.8664C7.43715 69.4984 9.47056 74.2211 11.6436 78.8738C10.4893 80.3821 10.6824 82.3231 10.6865 84.1075C8.04101 78.0743 5.20657 72.1277 2.5611 66.1027Z" fill="#E6545A"/>
<path d="M24.148 114.059C39.2733 114.121 54.4026 113.96 69.5237 114.141C66.5044 115.666 63.9288 118.011 62.3226 121.011C49.6087 121.028 36.8989 121.032 24.185 121.007C24.2343 118.691 24.1316 116.375 24.148 114.059Z" fill="#D29F6D"/>
<path d="M24.0965 114.063C39.2951 114.081 54.4936 114.067 69.688 114.121C69.688 114.121 70.4846 115.23 68.8706 116.116C56.0951 116.121 36.9092 116.123 24.1337 116.116C24.1832 115.432 24.08 114.747 24.0965 114.063Z" fill="#E3C59A"/>
<path d="M29.7347 127.667C31.6654 127.663 33.592 127.667 35.5227 127.646C35.5638 133.721 35.5351 139.791 35.5351 145.865C33.5961 145.845 31.6613 145.878 29.7224 145.84C29.743 139.783 29.7183 133.725 29.7347 127.667Z" fill="#D29F6D"/>
<path d="M46.4211 43.2845C47.6863 46.911 49.2966 50.4222 51.2191 53.7437C52.1763 55.3756 54.4602 55.8784 56.0623 54.9182C61.7394 52.05 68.2463 50.5087 74.5971 51.4771C78.2942 51.881 82.1022 52.8453 84.9612 55.3674C82.2911 55.0789 79.4526 55.2273 77.0988 56.6614C73.5455 58.6724 71.4628 62.4885 70.3084 66.284C69.758 67.9901 69.6389 69.9764 68.3038 71.3116C66.5497 73.232 63.4318 73.5164 61.3081 72.0452C58.4161 70.2566 55.175 67.8747 51.5806 68.9338C47.3002 69.9352 44.8519 75.2142 46.8566 79.1457C48.3477 82.4425 52.0612 83.5057 55.0518 84.9563C57.9848 86.2833 59.1514 90.5568 57.1632 93.116C55.3311 94.5789 52.9691 95.1353 50.8124 95.9553C49.6704 96.2974 48.549 96.6971 47.4358 97.1216C49.5431 95.0405 52.4926 94.1627 55.2613 93.3509C56.5183 93.0171 56.1362 90.8988 54.8505 90.973C52.8212 91.1585 50.9151 91.9538 49.1077 92.844C49.5102 91.8096 49.843 90.6475 50.796 89.9716C51.823 89.0938 53.2073 88.9908 54.4685 88.7271C55.5694 88.2614 55.2572 86.4523 54.0782 86.3575C50.4838 86.2174 47.1934 88.9372 46.5526 92.4772C45.3448 92.4896 43.8414 92.7451 43.0485 91.5788C40.6249 88.3067 38.6038 84.6885 37.2852 80.8271C37.1743 80.4974 37.0757 80.1636 36.9812 79.8339C37.7905 79.4712 38.7271 79.191 39.257 78.4163C39.8608 77.4932 39.9348 76.3516 40.21 75.309C41.1507 71.2292 43.3813 67.4832 46.4088 64.6108C47.2714 63.7784 48.2163 62.8347 48.2902 61.5613C48.3929 59.884 47.7397 58.2974 47.4481 56.6696C46.6635 52.6928 46.1787 48.646 46.0596 44.595C46.15 44.2653 46.3307 43.6101 46.4211 43.2845ZM66.1677 59.3483C62.9266 60.1766 60.5522 63.56 60.9137 66.9021C61.0821 68.3074 61.5052 69.7621 62.4336 70.8583C63.2347 71.5342 64.5287 70.8707 64.5081 69.8322C64.1713 68.8679 63.5962 67.9818 63.4565 66.9557C63.095 64.7592 64.5903 62.3772 66.7633 61.8415C67.4904 61.6643 68.3983 61.3181 68.2997 60.3827C68.2381 59.3112 67.0139 58.9856 66.1677 59.3483Z" fill="#757991"/>
<path d="M30.4125 85.1129C30.7329 83.3986 31.7722 81.8821 33.3168 81.0579C32.7622 83.5717 33.9289 85.9207 35.1161 88.0471C37.5274 92.5555 40.0907 96.9774 42.6705 101.391C43.4058 102.186 43.4674 103.794 42.1652 104.004C39.3431 103.983 36.484 103.53 33.896 102.364L33.8673 102.252C33.514 100.765 32.4911 99.5736 31.99 98.1477C30.4166 94.0391 29.5293 89.4812 30.4125 85.1129Z" fill="#757991"/>
<path d="M82.8086 92.4401C84.7516 90.7217 87.0643 89.5142 89.0977 87.9111L89.1758 88.043C89.9111 88.8136 90.8189 89.4236 91.8829 89.6131C94.1217 90.087 96.2537 90.9236 98.3774 91.7561C98.4596 93.2149 98.5171 94.8097 99.4948 95.9925C100.818 97.8057 103.319 98.5186 105.418 97.7521C107.226 97.8181 107.978 99.9322 109.218 101.004C106.84 102.59 104.408 104.329 102.888 106.81C101.274 109.65 103.093 113.602 106.248 114.306C109.436 115.13 111.954 112.468 114.624 111.216C115.479 112.773 116.008 114.475 116.616 116.14C115.322 117.261 113.786 118.398 113.388 120.162C113.154 121.551 113.162 123.105 113.963 124.324C114.587 125.408 115.688 126.072 116.748 126.665C115.61 129.039 113.803 131.095 111.424 132.266C107.357 134.347 102.662 134.606 98.1844 134.462C97.1615 126.134 96.8781 117.71 97.5394 109.345C97.7777 108.442 97.0013 107.89 96.303 107.56C96.3482 106.303 96.5741 105.005 96.2331 103.777C95.658 102.405 93.3617 102.318 92.7743 103.732C91.3899 106.67 90.7204 109.909 90.3383 113.124C87.3355 112.188 84.2874 110.803 82.3115 108.253C80.7793 106.369 80.1056 103.975 79.6455 101.634C79.8098 99.9404 80.2617 98.2879 80.389 96.59C80.1795 96.3716 79.9741 96.1491 79.7729 95.9306C80.767 94.752 81.6296 93.4498 82.8086 92.4401Z" fill="#757991"/>
<path d="M69.5239 114.141C71.701 114.071 73.8864 114.146 76.0677 114.1C76.0718 114.69 76.08 115.283 76.0883 115.876C73.1183 117.088 70.3454 118.782 68.0163 120.999C66.1184 121.032 64.2165 121.011 62.3228 121.011C63.9289 118.011 66.5046 115.666 69.5239 114.141Z" fill="#9A7456"/>
<path d="M172.931 124.341C173.129 122.363 173.925 120.142 175.967 119.429C178.354 120.422 180.642 121.815 182.162 123.97C180.059 124.188 178.058 124.934 176.329 126.154C175.721 124.918 174.451 123.377 172.931 124.341Z" fill="#757991"/>
<path d="M29.7102 123.624C31.645 123.517 33.5839 123.599 35.5188 123.562C35.5188 124.922 35.5146 126.286 35.5229 127.646C33.5922 127.667 31.6656 127.663 29.7349 127.667C29.7472 126.319 29.739 124.967 29.7102 123.624Z" fill="#9A7456"/>
<path d="M63.7604 123.574C64.4012 123.57 65.042 123.566 65.687 123.562C65.0256 124.477 64.3807 125.4 63.748 126.331C63.7522 125.412 63.7563 124.493 63.7604 123.574Z" fill="#9A7456"/>
<path d="M170.758 131.796C172.102 131.306 173.375 130.654 174.607 129.933C175.799 130.514 176.978 131.161 177.943 132.093C176.156 133.358 174.098 134.128 172.056 134.858C171.674 133.815 171.214 132.806 170.758 131.796Z" fill="#757991"/>
<path d="M137.801 132.229C141.695 132.756 145.589 133.275 149.508 133.543L149.545 133.997C149.545 134.376 149.545 135.13 149.545 135.509C147.656 135.628 145.865 134.895 144.053 134.495C141.937 133.844 139.653 133.523 137.801 132.229Z" fill="#757991"/>
<path d="M79.0254 135.859C79.3828 134.87 79.8305 133.918 80.307 132.987C80.6685 133.869 81.03 134.746 81.4121 135.624C80.6151 135.719 79.8223 135.797 79.0254 135.859Z" fill="#757991"/>
<path d="M157.441 133.72C159.536 133.704 161.623 133.506 163.709 133.325C164.034 134.306 164.375 135.282 164.646 136.284C162.452 136.568 160.238 136.634 158.028 136.622C157.876 135.645 157.654 134.681 157.441 133.72Z" fill="#757991"/>
<path d="M87.3521 58.0667C88.5105 59.2824 89.217 60.836 89.8948 62.3566C91.8584 67.0546 92.5403 72.1894 92.6471 77.2541C92.5074 77.9877 93.1072 78.3915 93.6289 78.7583L93.6042 78.8572C92.7457 82.1499 91.6119 85.5621 89.176 88.043L89.0979 87.9111C88.8596 85.5456 89.5292 83.2502 89.9975 80.9589C90.5644 77.2335 91.0861 73.4339 90.433 69.6797C90.1659 65.6287 88.6337 61.8621 87.3521 58.0667Z" fill="#C6C4D2"/>
<path d="M63.2224 77.3778C64.6273 78.2144 65.3503 79.7144 65.9665 81.165C65.0258 80.7323 64.122 80.2337 63.2265 79.7227C63.2388 78.9397 63.2553 78.1567 63.2224 77.3778Z" fill="#C6C4D2"/>
<path d="M60.3591 83.2337C60.9301 82.8546 61.4724 82.4342 62.0228 82.0262C62.6144 82.3353 63.21 82.6485 63.7933 82.9865C63.8097 83.1595 63.8385 83.5098 63.8549 83.6829C62.7129 83.5922 61.2629 84.1115 60.3591 83.2337Z" fill="#C6C4D2"/>
<path d="M52.887 95.8688C57.8287 94.7891 63.1895 95.7081 67.4576 98.4527C68.9652 99.3263 70.3578 100.55 72.1159 100.863C74.3096 101.094 76.1376 99.5818 77.6246 98.1642C77.0865 101.609 76.6141 105.075 76.5442 108.57C75.2544 108.055 74.0015 107.3 72.576 107.309C69.9347 107.173 67.2974 107.094 64.656 107.041C66.1308 105.388 66.3485 102.743 64.8779 101.02C61.7846 96.4251 55.1216 95.2424 50.3976 97.851C48.4751 98.9431 46.7621 100.657 46.1336 102.829C45.7228 104.255 46.2938 105.702 47.0702 106.893C45.119 106.74 43.1595 106.67 41.2083 106.794C42.8309 106.563 44.6794 106.023 45.3736 104.358C46.2158 102.767 45.4599 101.024 44.5767 99.6478C45.427 98.704 46.2815 97.6985 47.4358 97.1216C48.549 96.6971 49.6705 96.2974 50.8125 95.9553C51.5026 95.9924 52.205 96.0295 52.887 95.8688Z" fill="#C6C4D2"/>
<path d="M49.6211 105.64C48.2039 104.98 48.3148 103.196 49.1857 102.125C50.3688 103.377 52.0735 103.579 53.6961 103.274C54.0166 104.127 54.3904 104.956 54.8258 105.755C53.0923 105.71 51.3341 105.924 49.6211 105.64Z" fill="#C6C4D2"/>
<path d="M56.0212 102.64C57.003 102.652 57.9807 102.623 58.9584 102.524C58.3258 103.678 59.1884 104.741 59.6978 105.755C58.9173 105.763 58.1368 105.768 57.3604 105.763C57.0975 104.651 56.6497 103.596 56.0212 102.64Z" fill="#C6C4D2"/>
<path d="M61.0903 102.846C61.8626 103.233 62.6842 103.497 63.5099 103.765C63.325 104.556 62.9348 105.265 62.2282 105.689C61.9489 104.704 61.5668 103.752 61.0903 102.846Z" fill="#C6C4D2"/>
<path d="M90.3385 113.124C92.0473 113.602 93.5139 114.644 94.6846 115.967C94.66 121.46 94.7832 126.962 95.4446 132.422C95.6787 134.524 96.0279 136.688 95.4405 138.769C94.8489 137.944 94.5696 136.935 93.9657 136.131C93.2345 135.443 92.035 136.041 91.8954 136.964C92.1665 138.39 92.9963 139.618 93.6905 140.866C93.0907 141.171 92.4787 141.464 91.8502 141.703C90.9382 140.718 90.3302 139.519 89.6853 138.357C89.0404 137.479 87.6108 138.015 87.4958 139.041C87.6642 139.741 87.9107 140.425 88.1408 141.114C86.7482 140.017 85.8486 138.468 84.9448 136.976C86.3004 136.56 87.5081 135.653 87.997 134.277C89.3526 130.811 89.4758 127.032 89.8619 123.373C89.9811 119.952 90.511 116.552 90.3385 113.124Z" fill="#C6C4D2"/>
<path d="M68.5586 141.179C71.2082 138.303 74.9464 136.267 78.9105 136.209C78.1588 138.666 77.7439 141.204 77.5713 143.763C76.0802 143.726 74.5315 143.862 73.2129 144.633C71.7381 145.478 70.2388 146.508 68.46 146.467C60.7783 146.454 53.0966 146.52 45.4189 146.425C45.5258 145.305 45.879 144.237 46.3103 143.207C52.3243 142.968 58.3464 142.894 64.3645 142.857C65.8926 142.807 67.507 142.366 68.5586 141.179Z" fill="#C6C4D2"/>
<path d="M93.6043 78.8573L93.8385 78.6636C98.657 79.2034 103.032 81.606 106.955 84.3382C103.648 86.0979 99.6306 87.9029 98.3777 91.7561C96.2539 90.9236 94.1219 90.0871 91.8831 89.6131C90.8192 89.4236 89.9113 88.8137 89.176 88.043C91.612 85.5622 92.7458 82.15 93.6043 78.8573Z" fill="#555877"/>
<path d="M37.2852 80.8271C38.6038 84.6885 40.6249 88.3068 43.0485 91.5789C43.8414 92.7451 45.3448 92.4897 46.5526 92.4773C46.5485 93.1202 46.5361 93.7672 46.5279 94.4142C45.3695 95.3125 44.2604 96.2686 43.2498 97.3277C41.7792 94.884 40.399 92.3825 38.9941 89.8975C37.4659 87.1694 36.6772 83.9344 37.2852 80.8271Z" fill="#555877"/>
<path d="M105.418 97.7522C109.185 96.4046 112.685 94.3936 116.526 93.2314C117.627 94.4471 118.609 95.7576 119.57 97.0846C115.963 97.9047 112.385 99.0586 109.218 101.004C107.978 99.9322 107.226 97.8181 105.418 97.7522Z" fill="#555877"/>
<path d="M92.7744 103.732C93.3618 102.318 95.6581 102.405 96.2332 103.777C96.5741 105.005 96.3482 106.303 96.303 107.56C95.8676 107.919 95.1446 108.108 95.0953 108.768C94.7995 111.154 94.7749 113.565 94.6845 115.967C93.5138 114.644 92.0473 113.602 90.3384 113.124C90.7204 109.909 91.39 106.67 92.7744 103.732Z" fill="#555877"/>
<path d="M114.624 111.216C117.869 109.365 121.332 107.952 124.902 106.864L125.009 106.831C125.527 108.22 126.048 109.613 126.496 111.034C126.443 111.22 126.332 111.591 126.278 111.776C122.893 112.802 119.439 113.923 116.617 116.14C116.009 114.475 115.479 112.773 114.624 111.216Z" fill="#555877"/>
<path d="M120.42 126.496C122.869 125.561 125.243 124.432 127.663 123.418C127.285 127.774 125.843 132.018 123.584 135.748C121.152 139.692 116.863 142.152 112.439 143.178C109.198 143.986 105.838 143.71 102.535 143.755C99.6675 143.739 96.8002 143.759 93.9329 143.763C95.3131 142.783 96.7591 141.736 97.4821 140.141C98.431 138.402 98.3078 136.37 98.1845 134.462C102.662 134.606 107.357 134.347 111.424 132.266C113.803 131.095 115.61 129.039 116.748 126.665C117.96 126.925 119.25 126.978 120.42 126.496Z" fill="#555877"/>
<path d="M125.346 137.734C126.759 135.472 127.909 133.053 128.776 130.527C131.767 131.19 134.815 131.643 137.801 132.229C139.654 133.523 141.938 133.844 144.053 134.495C145.865 134.895 147.656 135.628 149.545 135.509C149.545 135.13 149.545 134.376 149.545 133.997C149.952 136.416 149.504 138.851 148.962 141.212C141.018 140.664 133.139 139.379 125.346 137.734Z" fill="#555877"/>
<path d="M177.943 132.093C178.752 133.131 179.352 134.318 179.948 135.492C177.947 137.223 175.52 138.373 173.03 139.21C172.78 137.743 172.517 136.275 172.057 134.858C174.098 134.128 176.156 133.358 177.943 132.093Z" fill="#555877"/>
<path d="M81.4122 135.624C82.9773 138.69 84.5958 142.082 87.7629 143.784C84.3657 143.747 80.9685 143.78 77.5713 143.763C77.7438 141.204 78.1587 138.666 78.9105 136.21C78.9392 136.123 78.9967 135.946 79.0255 135.859C79.8224 135.797 80.6152 135.719 81.4122 135.624Z" fill="#555877"/>
<path d="M158.028 136.622C160.238 136.634 162.452 136.568 164.646 136.284C164.995 137.841 165.373 139.49 164.86 141.056C162.469 141.229 160.082 141.451 157.683 141.468C158.082 139.885 158.234 138.241 158.028 136.622Z" fill="#555877"/>
<path d="M10.6866 84.1074C10.6825 82.323 10.4895 80.382 11.6438 78.8737C15.8831 88.0141 19.9992 97.2122 24.1851 106.373C24.752 107.239 24.292 108.487 23.2609 108.706C22.427 109.023 21.6218 108.38 21.363 107.614C17.8097 99.7796 14.2194 91.9497 10.6866 84.1074Z" fill="#AF1F24"/>
<path d="M27.0977 108.652C27.644 108.248 28.3711 108.421 29.0037 108.36C43.1266 108.368 57.2454 108.376 71.3683 108.409C72.4651 108.483 73.755 108.125 74.6587 108.937C75.2913 109.884 74.7203 111.537 73.4304 111.347C58.3422 111.549 43.2498 111.422 28.1616 111.446C26.6417 111.706 25.894 109.493 27.0977 108.652Z" fill="#AF1F24"/>
<path d="M69.4827 111.442L61.6777 108.351H73.5145C74.3506 108.351 75.0283 109.029 75.0283 109.865C75.0283 110.736 74.3223 111.442 73.4514 111.442H69.4827Z" fill="#87171B"/>
<path d="M106.955 84.3383C110.463 86.9345 113.688 89.914 116.526 93.2314C112.685 94.3935 109.185 96.4046 105.418 97.7522C103.319 98.5187 100.818 97.8058 99.4948 95.9925C98.5171 94.8098 98.4596 93.2149 98.3774 91.7561C99.6303 87.9029 103.648 86.0979 106.955 84.3383Z" fill="#313341"/>
<path d="M119.57 97.0846C121.645 100.163 123.657 103.344 124.902 106.864C121.332 107.952 117.869 109.365 114.624 111.216C111.954 112.468 109.436 115.131 106.248 114.306C103.093 113.602 101.274 109.65 102.888 106.81C104.408 104.329 106.84 102.59 109.218 101.004C112.385 99.0586 115.963 97.9047 119.57 97.0846Z" fill="#313341"/>
<path d="M126.496 111.034C127.519 115.065 128.098 119.26 127.662 123.418C125.243 124.432 122.869 125.561 120.42 126.496C119.25 126.979 117.96 126.925 116.748 126.665C115.688 126.072 114.587 125.408 113.963 124.325C113.162 123.105 113.153 121.551 113.388 120.162C113.786 118.399 115.322 117.261 116.616 116.14C119.438 113.923 122.893 112.802 126.278 111.776C126.332 111.591 126.442 111.22 126.496 111.034Z" fill="#313341"/>
<path d="M162.756 119.878C163.775 118.555 165.533 118.378 167.082 118.37C170.076 118.217 173.1 118.518 175.967 119.429C173.925 120.142 173.129 122.363 172.931 124.341C172.484 125.516 173.408 126.356 174.086 127.18C171.333 125.948 168.314 126.092 165.381 126.228C162.37 126.187 160.747 122.058 162.756 119.878Z" fill="#313341"/>
<path d="M182.162 123.97L182.228 123.958C183.008 125.581 183.674 127.349 183.476 129.183C183.275 131.685 181.804 133.898 179.948 135.493C179.352 134.318 178.752 133.131 177.943 132.093C176.978 131.161 175.799 130.514 174.607 129.933C175.692 128.961 176.497 127.667 176.329 126.154C178.058 124.934 180.059 124.189 182.162 123.97Z" fill="#313341"/>
<path d="M163.709 133.325C166.075 132.896 168.441 132.468 170.758 131.796C171.214 132.806 171.674 133.815 172.056 134.858C172.517 136.275 172.779 137.743 173.03 139.21L173.042 139.267C170.356 140.054 167.612 140.59 164.859 141.056C165.373 139.49 164.995 137.841 164.646 136.284C164.375 135.282 164.034 134.306 163.709 133.325Z" fill="#313341"/>
<path d="M149.508 133.543C152.15 133.72 154.795 133.671 157.441 133.72C157.654 134.681 157.876 135.645 158.028 136.622C158.233 138.241 158.081 139.885 157.683 141.468C154.775 141.456 151.866 141.402 148.962 141.212C149.504 138.851 149.952 136.416 149.545 133.997L149.508 133.543Z" fill="#313341"/>
</g>
<defs>
<linearGradient id="paint0_linear_59_51" x1="44" y1="37" x2="14" y2="111.5" gradientUnits="userSpaceOnUse">
<stop stop-color="#F8FAFF" stop-opacity="0"/>
<stop offset="1" stop-color="#F3F7FF"/>
</linearGradient>
<clipPath id="clip0_59_51">
<rect width="186" height="112" fill="white" transform="translate(0 37)"/>
</clipPath>
</defs>
</svg>
