<svg width="100%" height="100%" style="max-width: 332px; max-height: 141px;" viewBox="0 0 332 141" fill="none" xmlns="http://www.w3.org/2000/svg">
<path d="M2.592 11V6.152H0.696V5.072H2.592V3.968C2.592 3.44 2.764 3.02 3.108 2.708C3.452 2.396 3.92 2.24 4.512 2.24H6.444V3.308H4.512C4.024 3.308 3.78 3.532 3.78 3.98V5.072H6.444V6.152H3.78V11H2.592ZM10.5433 11.12C9.76731 11.12 9.14731 10.892 8.68331 10.436C8.21931 9.98 7.98731 9.36 7.98731 8.576V4.4H9.17531V8.576C9.17531 9.056 9.29531 9.428 9.53531 9.692C9.78331 9.948 10.1193 10.076 10.5433 10.076C10.9753 10.076 11.3153 9.948 11.5633 9.692C11.8113 9.428 11.9353 9.056 11.9353 8.576V4.4H13.1233V8.576C13.1233 9.36 12.8873 9.98 12.4153 10.436C11.9513 10.892 11.3273 11.12 10.5433 11.12ZM14.9666 11V4.4H16.1426V5.66H16.1666C16.2226 5.22 16.4026 4.88 16.7066 4.64C17.0106 4.4 17.4146 4.28 17.9186 4.28C18.5746 4.28 19.0986 4.488 19.4906 4.904C19.8826 5.32 20.0786 5.88 20.0786 6.584V11H18.8906V6.716C18.8906 6.268 18.7706 5.924 18.5306 5.684C18.2906 5.436 17.9626 5.312 17.5466 5.312C17.1146 5.312 16.7746 5.444 16.5266 5.708C16.2786 5.964 16.1546 6.332 16.1546 6.812V11H14.9666Z" fill="#B973A9"/>
<path d="M31.4693 11.12C30.6613 11.12 30.0133 10.896 29.5253 10.448C29.0373 9.992 28.7933 9.368 28.7933 8.576V6.812C28.7933 6.028 29.0373 5.412 29.5253 4.964C30.0133 4.508 30.6613 4.28 31.4693 4.28C32.2453 4.28 32.8693 4.488 33.3413 4.904C33.8133 5.312 34.0613 5.872 34.0853 6.584H32.9093C32.8853 6.184 32.7453 5.876 32.4893 5.66C32.2333 5.436 31.8933 5.324 31.4693 5.324C31.0133 5.324 30.6493 5.456 30.3773 5.72C30.1133 5.976 29.9813 6.34 29.9813 6.812V8.576C29.9813 9.056 30.1133 9.424 30.3773 9.68C30.6493 9.936 31.0133 10.064 31.4693 10.064C31.8933 10.064 32.2333 9.956 32.4893 9.74C32.7453 9.524 32.8853 9.216 32.9093 8.816H34.0853C34.0613 9.528 33.8133 10.092 33.3413 10.508C32.8693 10.916 32.2453 11.12 31.4693 11.12ZM35.8326 11V2.24H37.0206V4.4L37.0086 5.66H37.0326C37.0886 5.22 37.2686 4.88 37.5726 4.64C37.8766 4.4 38.2806 4.28 38.7846 4.28C39.4406 4.28 39.9646 4.488 40.3566 4.904C40.7486 5.32 40.9446 5.88 40.9446 6.584V11H39.7566V6.716C39.7566 6.268 39.6366 5.92 39.3966 5.672C39.1566 5.416 38.8286 5.288 38.4126 5.288C37.9806 5.288 37.6406 5.424 37.3926 5.696C37.1446 5.96 37.0206 6.332 37.0206 6.812V11H35.8326ZM44.7199 11.12C44.0239 11.12 43.4759 10.944 43.0759 10.592C42.6839 10.232 42.4879 9.748 42.4879 9.14C42.4879 8.516 42.6919 8.028 43.0999 7.676C43.5159 7.316 44.0799 7.136 44.7919 7.136H46.7119V6.512C46.7119 6.128 46.5919 5.832 46.3519 5.624C46.1199 5.408 45.7959 5.3 45.3799 5.3C45.0039 5.3 44.6879 5.384 44.4319 5.552C44.1839 5.712 44.0319 5.924 43.9759 6.188H42.8119C42.8439 5.804 42.9759 5.472 43.2079 5.192C43.4399 4.904 43.7439 4.68 44.1199 4.52C44.4959 4.36 44.9199 4.28 45.3919 4.28C46.1599 4.28 46.7679 4.48 47.2159 4.88C47.6719 5.272 47.8999 5.804 47.8999 6.476V11H46.7359V9.776H46.7239C46.6679 10.192 46.4599 10.52 46.0999 10.76C45.7399 11 45.2799 11.12 44.7199 11.12ZM45.0439 10.196C45.5239 10.196 45.9199 10.076 46.2319 9.836C46.5519 9.588 46.7119 9.272 46.7119 8.888V7.988H44.8159C44.4639 7.988 44.1839 8.084 43.9759 8.276C43.7759 8.468 43.6759 8.728 43.6759 9.056C43.6759 9.416 43.7959 9.696 44.0359 9.896C44.2759 10.096 44.6119 10.196 45.0439 10.196ZM52.3352 11.12C51.5272 11.12 50.8792 10.896 50.3912 10.448C49.9032 9.992 49.6592 9.368 49.6592 8.576V6.812C49.6592 6.028 49.9032 5.412 50.3912 4.964C50.8792 4.508 51.5272 4.28 52.3352 4.28C53.1112 4.28 53.7352 4.488 54.2072 4.904C54.6792 5.312 54.9272 5.872 54.9512 6.584H53.7752C53.7512 6.184 53.6112 5.876 53.3552 5.66C53.0992 5.436 52.7592 5.324 52.3352 5.324C51.8792 5.324 51.5152 5.456 51.2432 5.72C50.9792 5.976 50.8472 6.34 50.8472 6.812V8.576C50.8472 9.056 50.9792 9.424 51.2432 9.68C51.5152 9.936 51.8792 10.064 52.3352 10.064C52.7592 10.064 53.0992 9.956 53.3552 9.74C53.6112 9.524 53.7512 9.216 53.7752 8.816H54.9512C54.9272 9.528 54.6792 10.092 54.2072 10.508C53.7352 10.916 53.1112 11.12 52.3352 11.12ZM56.6985 11V2.24H57.8865V4.4L57.8745 5.66H57.8985C57.9545 5.22 58.1345 4.88 58.4385 4.64C58.7425 4.4 59.1465 4.28 59.6505 4.28C60.3065 4.28 60.8305 4.488 61.2225 4.904C61.6145 5.32 61.8105 5.88 61.8105 6.584V11H60.6225V6.716C60.6225 6.268 60.5025 5.92 60.2625 5.672C60.0225 5.416 59.6945 5.288 59.2785 5.288C58.8465 5.288 58.5065 5.424 58.2585 5.696C58.0105 5.96 57.8865 6.332 57.8865 6.812V11H56.6985ZM65.5858 11.12C64.8898 11.12 64.3418 10.944 63.9418 10.592C63.5498 10.232 63.3538 9.748 63.3538 9.14C63.3538 8.516 63.5578 8.028 63.9658 7.676C64.3818 7.316 64.9458 7.136 65.6578 7.136H67.5778V6.512C67.5778 6.128 67.4578 5.832 67.2178 5.624C66.9858 5.408 66.6618 5.3 66.2458 5.3C65.8698 5.3 65.5538 5.384 65.2978 5.552C65.0498 5.712 64.8978 5.924 64.8418 6.188H63.6778C63.7098 5.804 63.8418 5.472 64.0738 5.192C64.3058 4.904 64.6098 4.68 64.9858 4.52C65.3618 4.36 65.7858 4.28 66.2578 4.28C67.0258 4.28 67.6338 4.48 68.0818 4.88C68.5378 5.272 68.7658 5.804 68.7658 6.476V11H67.6018V9.776H67.5898C67.5338 10.192 67.3258 10.52 66.9658 10.76C66.6058 11 66.1458 11.12 65.5858 11.12ZM65.9098 10.196C66.3898 10.196 66.7858 10.076 67.0978 9.836C67.4178 9.588 67.5778 9.272 67.5778 8.888V7.988H65.6818C65.3298 7.988 65.0498 8.084 64.8418 8.276C64.6418 8.468 64.5418 8.728 64.5418 9.056C64.5418 9.416 64.6618 9.696 64.9018 9.896C65.1418 10.096 65.4778 10.196 65.9098 10.196ZM70.6451 11V2.24H71.8331V7.088H73.0571L74.8931 4.4H76.2371L74.0771 7.556L76.2731 11H74.9051L73.0571 8.108H71.8331V11H70.6451ZM80.1084 11.096C79.3004 11.096 78.6604 10.872 78.1884 10.424C77.7164 9.968 77.4804 9.348 77.4804 8.564V6.836C77.4804 6.052 77.7164 5.436 78.1884 4.988C78.6604 4.532 79.3004 4.304 80.1084 4.304C80.9164 4.304 81.5564 4.532 82.0284 4.988C82.5004 5.436 82.7364 6.048 82.7364 6.824V8.564C82.7364 9.348 82.5004 9.968 82.0284 10.424C81.5564 10.872 80.9164 11.096 80.1084 11.096ZM80.1084 10.052C80.5564 10.052 80.9084 9.928 81.1644 9.68C81.4204 9.424 81.5484 9.052 81.5484 8.564V6.836C81.5484 6.348 81.4204 5.98 81.1644 5.732C80.9084 5.476 80.5564 5.348 80.1084 5.348C79.6604 5.348 79.3084 5.476 79.0524 5.732C78.7964 5.98 78.6684 6.348 78.6684 6.836V8.564C78.6684 9.052 78.7964 9.424 79.0524 9.68C79.3084 9.928 79.6604 10.052 80.1084 10.052ZM121.228 11.12C120.532 11.12 119.984 10.944 119.584 10.592C119.192 10.232 118.996 9.748 118.996 9.14C118.996 8.516 119.2 8.028 119.608 7.676C120.024 7.316 120.588 7.136 121.3 7.136H123.22V6.512C123.22 6.128 123.1 5.832 122.86 5.624C122.628 5.408 122.304 5.3 121.888 5.3C121.512 5.3 121.196 5.384 120.94 5.552C120.692 5.712 120.54 5.924 120.484 6.188H119.32C119.352 5.804 119.484 5.472 119.716 5.192C119.948 4.904 120.252 4.68 120.628 4.52C121.004 4.36 121.428 4.28 121.9 4.28C122.668 4.28 123.276 4.48 123.724 4.88C124.18 5.272 124.408 5.804 124.408 6.476V11H123.244V9.776H123.232C123.176 10.192 122.968 10.52 122.608 10.76C122.248 11 121.788 11.12 121.228 11.12ZM121.552 10.196C122.032 10.196 122.428 10.076 122.74 9.836C123.06 9.588 123.22 9.272 123.22 8.888V7.988H121.324C120.972 7.988 120.692 8.084 120.484 8.276C120.284 8.468 120.184 8.728 120.184 9.056C120.184 9.416 120.304 9.696 120.544 9.896C120.784 10.096 121.12 10.196 121.552 10.196ZM129.228 11.12C128.732 11.12 128.324 11 128.004 10.76C127.684 10.512 127.496 10.172 127.44 9.74H127.428V11H126.252V2.24H127.44V4.136L127.416 5.66H127.44C127.504 5.236 127.696 4.9 128.016 4.652C128.336 4.404 128.74 4.28 129.228 4.28C129.892 4.28 130.424 4.504 130.824 4.952C131.224 5.392 131.424 5.992 131.424 6.752V8.648C131.424 9.416 131.22 10.02 130.812 10.46C130.412 10.9 129.884 11.12 129.228 11.12ZM128.82 10.088C129.26 10.088 129.604 9.96 129.852 9.704C130.108 9.44 130.236 9.064 130.236 8.576V6.812C130.236 6.332 130.108 5.964 129.852 5.708C129.604 5.444 129.26 5.312 128.82 5.312C128.396 5.312 128.06 5.444 127.812 5.708C127.564 5.972 127.44 6.34 127.44 6.812V8.576C127.44 9.056 127.564 9.428 127.812 9.692C128.06 9.956 128.396 10.088 128.82 10.088ZM135.751 11.096C134.943 11.096 134.303 10.872 133.831 10.424C133.359 9.968 133.123 9.348 133.123 8.564V6.836C133.123 6.052 133.359 5.436 133.831 4.988C134.303 4.532 134.943 4.304 135.751 4.304C136.559 4.304 137.199 4.532 137.671 4.988C138.143 5.436 138.379 6.048 138.379 6.824V8.564C138.379 9.348 138.143 9.968 137.671 10.424C137.199 10.872 136.559 11.096 135.751 11.096ZM135.751 10.052C136.199 10.052 136.551 9.928 136.807 9.68C137.063 9.424 137.191 9.052 137.191 8.564V6.836C137.191 6.348 137.063 5.98 136.807 5.732C136.551 5.476 136.199 5.348 135.751 5.348C135.303 5.348 134.951 5.476 134.695 5.732C134.439 5.98 134.311 6.348 134.311 6.836V8.564C134.311 9.052 134.439 9.424 134.695 9.68C134.951 9.928 135.303 10.052 135.751 10.052ZM142.694 11.12C141.918 11.12 141.298 10.892 140.834 10.436C140.37 9.98 140.138 9.36 140.138 8.576V4.4H141.326V8.576C141.326 9.056 141.446 9.428 141.686 9.692C141.934 9.948 142.27 10.076 142.694 10.076C143.126 10.076 143.466 9.948 143.714 9.692C143.962 9.428 144.086 9.056 144.086 8.576V4.4H145.274V8.576C145.274 9.36 145.038 9.98 144.566 10.436C144.102 10.892 143.478 11.12 142.694 11.12ZM150.382 11C149.814 11 149.362 10.836 149.026 10.508C148.698 10.18 148.534 9.744 148.534 9.2V5.48H146.686V4.4H148.534V2.54H149.722V4.4H152.326V5.48H149.722V9.188C149.722 9.404 149.782 9.58 149.902 9.716C150.03 9.852 150.198 9.92 150.406 9.92H152.206V11H150.382ZM32.4053 59C31.8053 59 31.3253 58.824 30.9653 58.472C30.6053 58.12 30.4253 57.652 30.4253 57.068V51.32H28.1693V50.24H31.6133V57.056C31.6133 57.32 31.6853 57.532 31.8293 57.692C31.9813 57.844 32.1853 57.92 32.4413 57.92H34.4453V59H32.4053ZM37.7646 59.12C37.0686 59.12 36.5206 58.944 36.1206 58.592C35.7286 58.232 35.5326 57.748 35.5326 57.14C35.5326 56.516 35.7366 56.028 36.1446 55.676C36.5606 55.316 37.1246 55.136 37.8366 55.136H39.7566V54.512C39.7566 54.128 39.6366 53.832 39.3966 53.624C39.1646 53.408 38.8406 53.3 38.4246 53.3C38.0486 53.3 37.7326 53.384 37.4766 53.552C37.2286 53.712 37.0766 53.924 37.0206 54.188H35.8566C35.8886 53.804 36.0206 53.472 36.2526 53.192C36.4846 52.904 36.7886 52.68 37.1646 52.52C37.5406 52.36 37.9646 52.28 38.4366 52.28C39.2046 52.28 39.8126 52.48 40.2606 52.88C40.7166 53.272 40.9446 53.804 40.9446 54.476V59H39.7806V57.776H39.7686C39.7126 58.192 39.5046 58.52 39.1446 58.76C38.7846 59 38.3246 59.12 37.7646 59.12ZM38.0886 58.196C38.5686 58.196 38.9646 58.076 39.2766 57.836C39.5966 57.588 39.7566 57.272 39.7566 56.888V55.988H37.8606C37.5086 55.988 37.2286 56.084 37.0206 56.276C36.8206 56.468 36.7206 56.728 36.7206 57.056C36.7206 57.416 36.8406 57.696 37.0806 57.896C37.3206 58.096 37.6566 58.196 38.0886 58.196ZM42.7879 59V52.4H43.9639V53.66H43.9879C44.0439 53.22 44.2239 52.88 44.5279 52.64C44.8319 52.4 45.2359 52.28 45.7399 52.28C46.3959 52.28 46.9199 52.488 47.3119 52.904C47.7039 53.32 47.8999 53.88 47.8999 54.584V59H46.7119V54.716C46.7119 54.268 46.5919 53.924 46.3519 53.684C46.1119 53.436 45.7839 53.312 45.3679 53.312C44.9359 53.312 44.5959 53.444 44.3479 53.708C44.0999 53.964 43.9759 54.332 43.9759 54.812V59H42.7879ZM50.5952 61.16V60.104H52.6592C53.3152 60.104 53.6432 59.792 53.6432 59.168V58.412L53.6672 57.212H53.6432C53.5952 57.636 53.4152 57.972 53.1032 58.22C52.7912 58.468 52.3872 58.592 51.8912 58.592C51.2112 58.592 50.6752 58.368 50.2832 57.92C49.8912 57.472 49.6952 56.868 49.6952 56.108V54.752C49.6952 53.992 49.8912 53.392 50.2832 52.952C50.6752 52.504 51.2112 52.28 51.8912 52.28C52.3872 52.28 52.7912 52.404 53.1032 52.652C53.4152 52.892 53.5952 53.228 53.6432 53.66H53.6552L53.6432 52.4H54.8192V59.18C54.8192 59.796 54.6272 60.28 54.2432 60.632C53.8592 60.984 53.3312 61.16 52.6592 61.16H50.5952ZM52.2632 57.56C52.6872 57.56 53.0232 57.428 53.2712 57.164C53.5192 56.9 53.6432 56.528 53.6432 56.048V54.812C53.6432 54.34 53.5192 53.972 53.2712 53.708C53.0232 53.444 52.6872 53.312 52.2632 53.312C51.8232 53.312 51.4832 53.444 51.2432 53.708C51.0032 53.964 50.8832 54.332 50.8832 54.812V56.048C50.8832 56.536 51.0032 56.912 51.2432 57.176C51.4832 57.432 51.8232 57.56 52.2632 57.56ZM59.2305 59.12C58.4545 59.12 57.8345 58.892 57.3705 58.436C56.9065 57.98 56.6745 57.36 56.6745 56.576V52.4H57.8625V56.576C57.8625 57.056 57.9825 57.428 58.2225 57.692C58.4705 57.948 58.8065 58.076 59.2305 58.076C59.6625 58.076 60.0025 57.948 60.2505 57.692C60.4985 57.428 60.6225 57.056 60.6225 56.576V52.4H61.8105V56.576C61.8105 57.36 61.5745 57.98 61.1025 58.436C60.6385 58.892 60.0145 59.12 59.2305 59.12ZM65.5858 59.12C64.8898 59.12 64.3418 58.944 63.9418 58.592C63.5498 58.232 63.3538 57.748 63.3538 57.14C63.3538 56.516 63.5578 56.028 63.9658 55.676C64.3818 55.316 64.9458 55.136 65.6578 55.136H67.5778V54.512C67.5778 54.128 67.4578 53.832 67.2178 53.624C66.9858 53.408 66.6618 53.3 66.2458 53.3C65.8698 53.3 65.5538 53.384 65.2978 53.552C65.0498 53.712 64.8978 53.924 64.8418 54.188H63.6778C63.7098 53.804 63.8418 53.472 64.0738 53.192C64.3058 52.904 64.6098 52.68 64.9858 52.52C65.3618 52.36 65.7858 52.28 66.2578 52.28C67.0258 52.28 67.6338 52.48 68.0818 52.88C68.5378 53.272 68.7658 53.804 68.7658 54.476V59H67.6018V57.776H67.5898C67.5338 58.192 67.3258 58.52 66.9658 58.76C66.6058 59 66.1458 59.12 65.5858 59.12ZM65.9098 58.196C66.3898 58.196 66.7858 58.076 67.0978 57.836C67.4178 57.588 67.5778 57.272 67.5778 56.888V55.988H65.6818C65.3298 55.988 65.0498 56.084 64.8418 56.276C64.6418 56.468 64.5418 56.728 64.5418 57.056C64.5418 57.416 64.6618 57.696 64.9018 57.896C65.1418 58.096 65.4778 58.196 65.9098 58.196ZM71.4611 61.16V60.104H73.5251C74.1811 60.104 74.5091 59.792 74.5091 59.168V58.412L74.5331 57.212H74.5091C74.4611 57.636 74.2811 57.972 73.9691 58.22C73.6571 58.468 73.2531 58.592 72.7571 58.592C72.0771 58.592 71.5411 58.368 71.1491 57.92C70.7571 57.472 70.5611 56.868 70.5611 56.108V54.752C70.5611 53.992 70.7571 53.392 71.1491 52.952C71.5411 52.504 72.0771 52.28 72.7571 52.28C73.2531 52.28 73.6571 52.404 73.9691 52.652C74.2811 52.892 74.4611 53.228 74.5091 53.66H74.5211L74.5091 52.4H75.6851V59.18C75.6851 59.796 75.4931 60.28 75.1091 60.632C74.7251 60.984 74.1971 61.16 73.5251 61.16H71.4611ZM73.1291 57.56C73.5531 57.56 73.8891 57.428 74.1371 57.164C74.3851 56.9 74.5091 56.528 74.5091 56.048V54.812C74.5091 54.34 74.3851 53.972 74.1371 53.708C73.8891 53.444 73.5531 53.312 73.1291 53.312C72.6891 53.312 72.3491 53.444 72.1091 53.708C71.8691 53.964 71.7491 54.332 71.7491 54.812V56.048C71.7491 56.536 71.8691 56.912 72.1091 57.176C72.3491 57.432 72.6891 57.56 73.1291 57.56ZM80.1084 59.12C79.5804 59.12 79.1164 59.016 78.7164 58.808C78.3244 58.592 78.0204 58.296 77.8044 57.92C77.5884 57.536 77.4804 57.088 77.4804 56.576V54.812C77.4804 54.308 77.5884 53.868 77.8044 53.492C78.0204 53.108 78.3244 52.812 78.7164 52.604C79.1164 52.388 79.5804 52.28 80.1084 52.28C80.6364 52.28 81.0964 52.388 81.4884 52.604C81.8884 52.812 82.1964 53.108 82.4124 53.492C82.6284 53.868 82.7364 54.308 82.7364 54.812V55.988H78.6444V56.576C78.6444 57.088 78.7684 57.476 79.0164 57.74C79.2724 58.004 79.6364 58.136 80.1084 58.136C80.5084 58.136 80.8284 58.068 81.0684 57.932C81.3084 57.788 81.4604 57.576 81.5244 57.296H82.7004C82.6204 57.856 82.3404 58.3 81.8604 58.628C81.3884 58.956 80.8044 59.12 80.1084 59.12ZM78.6444 54.812V55.136H81.5844V54.812C81.5844 54.308 81.4564 53.924 81.2004 53.66C80.9524 53.388 80.5884 53.252 80.1084 53.252C79.6284 53.252 79.2644 53.388 79.0164 53.66C78.7684 53.924 78.6444 54.308 78.6444 54.812ZM86.8478 59.096C86.1518 59.096 85.5798 58.936 85.1318 58.616C84.6918 58.296 84.4718 57.86 84.4718 57.308H85.6838C85.6838 57.556 85.7918 57.748 86.0078 57.884C86.2318 58.012 86.5198 58.076 86.8718 58.076H87.3758C87.7918 58.076 88.0998 57.996 88.2998 57.836C88.4998 57.668 88.5998 57.448 88.5998 57.176C88.5998 56.904 88.5038 56.692 88.3118 56.54C88.1198 56.388 87.8478 56.28 87.4958 56.216L86.5958 56.084C85.2838 55.876 84.6278 55.24 84.6278 54.176C84.6278 53.568 84.8278 53.104 85.2278 52.784C85.6278 52.464 86.1998 52.304 86.9438 52.304H87.3998C88.0878 52.304 88.6398 52.46 89.0558 52.772C89.4718 53.076 89.6798 53.48 89.6798 53.984H88.4678C88.4678 53.784 88.3678 53.624 88.1678 53.504C87.9758 53.384 87.7118 53.324 87.3758 53.324H86.9198C86.5518 53.324 86.2718 53.4 86.0798 53.552C85.8878 53.696 85.7918 53.904 85.7918 54.176C85.7918 54.64 86.1198 54.924 86.7758 55.028L87.6758 55.172C88.3958 55.284 88.9238 55.496 89.2598 55.808C89.5958 56.112 89.7638 56.552 89.7638 57.128C89.7638 57.744 89.5598 58.228 89.1518 58.58C88.7518 58.924 88.1518 59.096 87.3518 59.096H86.8478Z" fill="#466FFF"/>
<path d="M89.2838 12.44C88.1318 12.152 87.2358 11.6 86.5958 10.784C85.9558 9.96 85.6358 8.952 85.6358 7.76V5.6C85.6358 4.824 85.7798 4.12 86.0678 3.488C86.3638 2.848 86.7838 2.308 87.3278 1.868C87.8798 1.428 88.5318 1.112 89.2838 0.92V2.06C88.7798 2.18 88.3438 2.404 87.9758 2.732C87.6078 3.052 87.3238 3.46 87.1238 3.956C86.9238 4.444 86.8238 4.992 86.8238 5.6V7.76C86.8238 8.36 86.9238 8.904 87.1238 9.392C87.3238 9.872 87.6078 10.276 87.9758 10.604C88.3438 10.924 88.7798 11.144 89.2838 11.264V12.44ZM91.7991 12.44V11.264C92.3031 11.144 92.7391 10.924 93.1071 10.604C93.4751 10.276 93.7591 9.872 93.9591 9.392C94.1671 8.904 94.2711 8.36 94.2711 7.76V5.6C94.2711 4.992 94.1671 4.444 93.9591 3.956C93.7591 3.46 93.4751 3.052 93.1071 2.732C92.7391 2.404 92.3031 2.18 91.7991 2.06V0.92C92.5511 1.112 93.1991 1.428 93.7431 1.868C94.2951 2.308 94.7191 2.848 95.0151 3.488C95.3111 4.12 95.4591 4.824 95.4591 5.6V7.76C95.4591 8.952 95.1351 9.96 94.4871 10.784C93.8471 11.6 92.9511 12.152 91.7991 12.44ZM165.444 12.32C164.732 12.32 164.168 12.14 163.752 11.78C163.344 11.428 163.168 10.932 163.224 10.292L163.404 8.36C163.444 7.96 163.384 7.672 163.224 7.496C163.072 7.312 162.756 7.22 162.276 7.22H160.86V6.152H162.276C162.756 6.152 163.072 6.06 163.224 5.876C163.384 5.692 163.444 5.4 163.404 5L163.224 3.056C163.168 2.424 163.344 1.932 163.752 1.58C164.168 1.22 164.732 1.04 165.444 1.04H166.056V2.108H165.492C165.132 2.108 164.856 2.192 164.664 2.36C164.472 2.528 164.388 2.772 164.412 3.092L164.592 5.036C164.632 5.484 164.54 5.848 164.316 6.128C164.092 6.4 163.776 6.568 163.368 6.632C163.776 6.712 164.092 6.904 164.316 7.208C164.54 7.512 164.632 7.884 164.592 8.324L164.412 10.268C164.388 10.588 164.472 10.832 164.664 11C164.856 11.168 165.132 11.252 165.492 11.252H166.056V12.32H165.444ZM102.846 60.32C102.134 60.32 101.57 60.14 101.154 59.78C100.746 59.428 100.57 58.932 100.626 58.292L100.806 56.36C100.846 55.96 100.786 55.672 100.626 55.496C100.474 55.312 100.158 55.22 99.6784 55.22H98.2624V54.152H99.6784C100.158 54.152 100.474 54.06 100.626 53.876C100.786 53.692 100.846 53.4 100.806 53L100.626 51.056C100.57 50.424 100.746 49.932 101.154 49.58C101.57 49.22 102.134 49.04 102.846 49.04H103.458V50.108H102.894C102.534 50.108 102.258 50.192 102.066 50.36C101.874 50.528 101.79 50.772 101.814 51.092L101.994 53.036C102.034 53.484 101.942 53.848 101.718 54.128C101.494 54.4 101.178 54.568 100.77 54.632C101.178 54.712 101.494 54.904 101.718 55.208C101.942 55.512 102.034 55.884 101.994 56.324L101.814 58.268C101.79 58.588 101.874 58.832 102.066 59C102.258 59.168 102.534 59.252 102.894 59.252H103.458V60.32H102.846ZM28.9493 124.32V123.252H29.5013C29.8613 123.252 30.1373 123.168 30.3293 123C30.5213 122.832 30.6053 122.588 30.5813 122.268L30.4013 120.324C30.3613 119.884 30.4533 119.512 30.6773 119.208C30.9013 118.896 31.2173 118.704 31.6253 118.632C31.2173 118.56 30.9013 118.388 30.6773 118.116C30.4533 117.844 30.3613 117.484 30.4013 117.036L30.5813 115.092C30.6053 114.772 30.5213 114.528 30.3293 114.36C30.1373 114.192 29.8613 114.108 29.5013 114.108H28.9493V113.04H29.5613C30.2653 113.04 30.8213 113.22 31.2293 113.58C31.6453 113.932 31.8253 114.424 31.7693 115.056L31.5893 117C31.5493 117.4 31.6053 117.692 31.7573 117.876C31.9173 118.06 32.2373 118.152 32.7173 118.152H34.1453V119.22H32.7173C32.2373 119.22 31.9173 119.312 31.7573 119.496C31.6053 119.672 31.5493 119.96 31.5893 120.36L31.7693 122.292C31.8253 122.932 31.6453 123.428 31.2293 123.78C30.8213 124.14 30.2653 124.32 29.5613 124.32H28.9493ZM1.128 140.32V139.252H1.68C2.04 139.252 2.316 139.168 2.508 139C2.7 138.832 2.784 138.588 2.76 138.268L2.58 136.324C2.54 135.884 2.632 135.512 2.856 135.208C3.08 134.896 3.396 134.704 3.804 134.632C3.396 134.56 3.08 134.388 2.856 134.116C2.632 133.844 2.54 133.484 2.58 133.036L2.76 131.092C2.784 130.772 2.7 130.528 2.508 130.36C2.316 130.192 2.04 130.108 1.68 130.108H1.128V129.04H1.74C2.444 129.04 3 129.22 3.408 129.58C3.824 129.932 4.004 130.424 3.948 131.056L3.768 133C3.728 133.4 3.784 133.692 3.936 133.876C4.096 134.06 4.416 134.152 4.896 134.152H6.324V135.22H4.896C4.416 135.22 4.096 135.312 3.936 135.496C3.784 135.672 3.728 135.96 3.768 136.36L3.948 138.292C4.004 138.932 3.824 139.428 3.408 139.78C3 140.14 2.444 140.32 1.74 140.32H1.128Z" fill="#7490ED"/>
<path d="M105.338 6.128V5.06H110.522V6.128H105.338ZM105.338 9.02V7.952H110.522V9.02H105.338ZM70.5611 22.128V21.06H75.7451V22.128H70.5611ZM70.5611 25.02V23.952H75.7451V25.02H70.5611ZM72.5651 41.872V39.568H70.3211V38.5H72.5651V36.208H73.7411V38.5H75.9971V39.568H73.7411V41.872H72.5651ZM162.984 73.872V71.568H160.74V70.5H162.984V68.208H164.16V70.5H166.416V71.568H164.16V73.872H162.984ZM211.671 73.872V71.568H209.427V70.5H211.671V68.208H212.847V70.5H215.103V71.568H212.847V73.872H211.671ZM267.314 73.872V71.568H265.07V70.5H267.314V68.208H268.49V70.5H270.746V71.568H268.49V73.872H267.314ZM156.029 89.872V87.568H153.785V86.5H156.029V84.208H157.205V86.5H159.461V87.568H157.205V89.872H156.029ZM204.716 89.872V87.568H202.472V86.5H204.716V84.208H205.892V86.5H208.148V87.568H205.892V89.872H204.716ZM142.118 105.872V103.568H139.874V102.5H142.118V100.208H143.294V102.5H145.55V103.568H143.294V105.872H142.118ZM183.85 105.872V103.568H181.606V102.5H183.85V100.208H185.026V102.5H187.282V103.568H185.026V105.872H183.85ZM232.537 105.872V103.568H230.293V102.5H232.537V100.208H233.713V102.5H235.969V103.568H233.713V105.872H232.537ZM274.269 105.872V103.568H272.025V102.5H274.269V100.208H275.445V102.5H277.701V103.568H275.445V105.872H274.269Z" fill="#BCC2CE"/>
<path d="M28.8173 27V25.92H31.1333V21.48H29.0573V20.4H32.3213V25.92H34.4933V27H28.8173ZM31.6133 19.236C31.3413 19.236 31.1253 19.168 30.9653 19.032C30.8053 18.888 30.7253 18.696 30.7253 18.456C30.7253 18.208 30.8053 18.012 30.9653 17.868C31.1253 17.724 31.3413 17.652 31.6133 17.652C31.8853 17.652 32.1013 17.724 32.2613 17.868C32.4213 18.012 32.5013 18.208 32.5013 18.456C32.5013 18.696 32.4213 18.888 32.2613 19.032C32.1013 19.168 31.8853 19.236 31.6133 19.236ZM35.8326 27V20.4H37.0086V21.66H37.0326C37.0886 21.22 37.2686 20.88 37.5726 20.64C37.8766 20.4 38.2806 20.28 38.7846 20.28C39.4406 20.28 39.9646 20.488 40.3566 20.904C40.7486 21.32 40.9446 21.88 40.9446 22.584V27H39.7566V22.716C39.7566 22.268 39.6366 21.924 39.3966 21.684C39.1566 21.436 38.8286 21.312 38.4126 21.312C37.9806 21.312 37.6406 21.444 37.3926 21.708C37.1446 21.964 37.0206 22.332 37.0206 22.812V27H35.8326ZM46.0519 27C45.4839 27 45.0319 26.836 44.6959 26.508C44.3679 26.18 44.2039 25.744 44.2039 25.2V21.48H42.3559V20.4H44.2039V18.54H45.3919V20.4H47.9959V21.48H45.3919V25.188C45.3919 25.404 45.4519 25.58 45.5719 25.716C45.6999 25.852 45.8679 25.92 46.0759 25.92H47.8759V27H46.0519ZM49.9472 27V20.4H51.1232V21.66H51.1472C51.2032 21.22 51.3832 20.88 51.6872 20.64C51.9992 20.4 52.4072 20.28 52.9112 20.28C53.5912 20.28 54.1352 20.5 54.5432 20.94C54.9512 21.38 55.1552 21.972 55.1552 22.716V23.196H53.9552V22.812C53.9552 22.34 53.8312 21.972 53.5832 21.708C53.3432 21.444 52.9872 21.312 52.5152 21.312C51.5952 21.312 51.1352 21.82 51.1352 22.836V27H49.9472ZM59.2425 27.096C58.4345 27.096 57.7945 26.872 57.3225 26.424C56.8505 25.968 56.6145 25.348 56.6145 24.564V22.836C56.6145 22.052 56.8505 21.436 57.3225 20.988C57.7945 20.532 58.4345 20.304 59.2425 20.304C60.0505 20.304 60.6905 20.532 61.1625 20.988C61.6345 21.436 61.8705 22.048 61.8705 22.824V24.564C61.8705 25.348 61.6345 25.968 61.1625 26.424C60.6905 26.872 60.0505 27.096 59.2425 27.096ZM59.2425 26.052C59.6905 26.052 60.0425 25.928 60.2985 25.68C60.5545 25.424 60.6825 25.052 60.6825 24.564V22.836C60.6825 22.348 60.5545 21.98 60.2985 21.732C60.0425 21.476 59.6905 21.348 59.2425 21.348C58.7945 21.348 58.4425 21.476 58.1865 21.732C57.9305 21.98 57.8025 22.348 57.8025 22.836V24.564C57.8025 25.052 57.9305 25.424 58.1865 25.68C58.4425 25.928 58.7945 26.052 59.2425 26.052Z" fill="#CF657E"/>
<path d="M85.0634 19.002L84.2723 22.4941H85.702L86.1884 19.002H85.0634ZM87.7177 19.002L86.9266 22.4941H88.3563L88.8427 19.002H87.7177ZM330.48 22.4941L331.271 19.002H329.841L329.355 22.4941H330.48ZM327.825 22.4941L328.616 19.002H327.193L326.7 22.4941H327.825ZM85.0634 35.002L84.2723 38.4941H85.702L86.1884 35.002H85.0634ZM87.7177 35.002L86.9266 38.4941H88.3563L88.8427 35.002H87.7177ZM288.748 38.4941L289.539 35.002H288.109L287.623 38.4941H288.748ZM286.094 38.4941L286.885 35.002H285.461L284.969 38.4941H286.094Z" fill="#3F9FA5" fill-opacity="0.6"/>
<path d="M90.4672 27V18.24H92.8192C93.3872 18.24 93.8792 18.352 94.2952 18.576C94.7192 18.792 95.0472 19.1 95.2792 19.5C95.5112 19.892 95.6272 20.356 95.6272 20.892V24.336C95.6272 24.872 95.5112 25.34 95.2792 25.74C95.0472 26.14 94.7192 26.452 94.2952 26.676C93.8792 26.892 93.3872 27 92.8192 27H90.4672ZM91.6552 25.944H92.8192C93.3232 25.944 93.7192 25.8 94.0072 25.512C94.2952 25.224 94.4392 24.832 94.4392 24.336V20.892C94.4392 20.396 94.2952 20.008 94.0072 19.728C93.7192 19.44 93.3232 19.296 92.8192 19.296H91.6552V25.944ZM99.9666 27.096C99.1586 27.096 98.5186 26.872 98.0466 26.424C97.5746 25.968 97.3386 25.348 97.3386 24.564V22.836C97.3386 22.052 97.5746 21.436 98.0466 20.988C98.5186 20.532 99.1586 20.304 99.9666 20.304C100.775 20.304 101.415 20.532 101.887 20.988C102.359 21.436 102.595 22.048 102.595 22.824V24.564C102.595 25.348 102.359 25.968 101.887 26.424C101.415 26.872 100.775 27.096 99.9666 27.096ZM99.9666 26.052C100.415 26.052 100.767 25.928 101.023 25.68C101.279 25.424 101.407 25.052 101.407 24.564V22.836C101.407 22.348 101.279 21.98 101.023 21.732C100.767 21.476 100.415 21.348 99.9666 21.348C99.5186 21.348 99.1666 21.476 98.9106 21.732C98.6546 21.98 98.5266 22.348 98.5266 22.836V24.564C98.5266 25.052 98.6546 25.424 98.9106 25.68C99.1666 25.928 99.5186 26.052 99.9666 26.052ZM113.661 27.096C112.965 27.096 112.393 26.936 111.945 26.616C111.505 26.296 111.285 25.86 111.285 25.308H112.497C112.497 25.556 112.605 25.748 112.821 25.884C113.045 26.012 113.333 26.076 113.685 26.076H114.189C114.605 26.076 114.913 25.996 115.113 25.836C115.313 25.668 115.413 25.448 115.413 25.176C115.413 24.904 115.317 24.692 115.125 24.54C114.933 24.388 114.661 24.28 114.309 24.216L113.409 24.084C112.097 23.876 111.441 23.24 111.441 22.176C111.441 21.568 111.641 21.104 112.041 20.784C112.441 20.464 113.013 20.304 113.757 20.304H114.213C114.901 20.304 115.453 20.46 115.869 20.772C116.285 21.076 116.493 21.48 116.493 21.984H115.281C115.281 21.784 115.181 21.624 114.981 21.504C114.789 21.384 114.525 21.324 114.189 21.324H113.733C113.365 21.324 113.085 21.4 112.893 21.552C112.701 21.696 112.605 21.904 112.605 22.176C112.605 22.64 112.933 22.924 113.589 23.028L114.489 23.172C115.209 23.284 115.737 23.496 116.073 23.808C116.409 24.112 116.577 24.552 116.577 25.128C116.577 25.744 116.373 26.228 115.965 26.58C115.565 26.924 114.965 27.096 114.165 27.096H113.661ZM120.832 27.096C120.024 27.096 119.384 26.872 118.912 26.424C118.44 25.968 118.204 25.348 118.204 24.564V22.836C118.204 22.052 118.44 21.436 118.912 20.988C119.384 20.532 120.024 20.304 120.832 20.304C121.64 20.304 122.28 20.532 122.752 20.988C123.224 21.436 123.46 22.048 123.46 22.824V24.564C123.46 25.348 123.224 25.968 122.752 26.424C122.28 26.872 121.64 27.096 120.832 27.096ZM120.832 26.052C121.28 26.052 121.632 25.928 121.888 25.68C122.144 25.424 122.272 25.052 122.272 24.564V22.836C122.272 22.348 122.144 21.98 121.888 21.732C121.632 21.476 121.28 21.348 120.832 21.348C120.384 21.348 120.032 21.476 119.776 21.732C119.52 21.98 119.392 22.348 119.392 22.836V24.564C119.392 25.052 119.52 25.424 119.776 25.68C120.032 25.928 120.384 26.052 120.832 26.052ZM124.872 27V20.4H125.892V21.216H125.964C126.012 20.936 126.136 20.712 126.336 20.544C126.536 20.368 126.78 20.28 127.068 20.28C127.332 20.28 127.56 20.364 127.752 20.532C127.944 20.7 128.084 20.928 128.172 21.216H128.232C128.28 20.936 128.404 20.712 128.604 20.544C128.812 20.368 129.064 20.28 129.36 20.28C129.752 20.28 130.072 20.44 130.32 20.76C130.576 21.072 130.704 21.48 130.704 21.984V27H129.624V21.996C129.624 21.452 129.4 21.18 128.952 21.18C128.728 21.18 128.556 21.252 128.436 21.396C128.316 21.532 128.256 21.732 128.256 21.996V27H127.32V21.996C127.32 21.74 127.256 21.54 127.128 21.396C127.008 21.252 126.84 21.18 126.624 21.18C126.176 21.18 125.952 21.452 125.952 21.996V27H124.872ZM134.743 27.12C134.215 27.12 133.751 27.016 133.351 26.808C132.959 26.592 132.655 26.296 132.439 25.92C132.223 25.536 132.115 25.088 132.115 24.576V22.812C132.115 22.308 132.223 21.868 132.439 21.492C132.655 21.108 132.959 20.812 133.351 20.604C133.751 20.388 134.215 20.28 134.743 20.28C135.271 20.28 135.731 20.388 136.123 20.604C136.523 20.812 136.831 21.108 137.047 21.492C137.263 21.868 137.371 22.308 137.371 22.812V23.988H133.279V24.576C133.279 25.088 133.403 25.476 133.651 25.74C133.907 26.004 134.271 26.136 134.743 26.136C135.143 26.136 135.463 26.068 135.703 25.932C135.943 25.788 136.095 25.576 136.159 25.296H137.335C137.255 25.856 136.975 26.3 136.495 26.628C136.023 26.956 135.439 27.12 134.743 27.12ZM133.279 22.812V23.136H136.219V22.812C136.219 22.308 136.091 21.924 135.835 21.66C135.587 21.388 135.223 21.252 134.743 21.252C134.263 21.252 133.899 21.388 133.651 21.66C133.403 21.924 133.279 22.308 133.279 22.812ZM149.086 27.12C148.59 27.12 148.182 27 147.862 26.76C147.542 26.512 147.354 26.172 147.298 25.74H147.286V27H146.11V18.24H147.298V20.136L147.274 21.66H147.298C147.362 21.236 147.554 20.9 147.874 20.652C148.194 20.404 148.598 20.28 149.086 20.28C149.75 20.28 150.282 20.504 150.682 20.952C151.082 21.392 151.282 21.992 151.282 22.752V24.648C151.282 25.416 151.078 26.02 150.67 26.46C150.27 26.9 149.742 27.12 149.086 27.12ZM148.678 26.088C149.118 26.088 149.462 25.96 149.71 25.704C149.966 25.44 150.094 25.064 150.094 24.576V22.812C150.094 22.332 149.966 21.964 149.71 21.708C149.462 21.444 149.118 21.312 148.678 21.312C148.254 21.312 147.918 21.444 147.67 21.708C147.422 21.972 147.298 22.34 147.298 22.812V24.576C147.298 25.056 147.422 25.428 147.67 25.692C147.918 25.956 148.254 26.088 148.678 26.088ZM155.609 27.12C155.081 27.12 154.617 27.016 154.217 26.808C153.825 26.592 153.521 26.296 153.305 25.92C153.089 25.536 152.981 25.088 152.981 24.576V22.812C152.981 22.308 153.089 21.868 153.305 21.492C153.521 21.108 153.825 20.812 154.217 20.604C154.617 20.388 155.081 20.28 155.609 20.28C156.137 20.28 156.597 20.388 156.989 20.604C157.389 20.812 157.697 21.108 157.913 21.492C158.129 21.868 158.237 22.308 158.237 22.812V23.988H154.145V24.576C154.145 25.088 154.269 25.476 154.517 25.74C154.773 26.004 155.137 26.136 155.609 26.136C156.009 26.136 156.329 26.068 156.569 25.932C156.809 25.788 156.961 25.576 157.025 25.296H158.201C158.121 25.856 157.841 26.3 157.361 26.628C156.889 26.956 156.305 27.12 155.609 27.12ZM154.145 22.812V23.136H157.085V22.812C157.085 22.308 156.957 21.924 156.701 21.66C156.453 21.388 156.089 21.252 155.609 21.252C155.129 21.252 154.765 21.388 154.517 21.66C154.269 21.924 154.145 22.308 154.145 22.812ZM161.952 27.12C161.256 27.12 160.708 26.944 160.308 26.592C159.916 26.232 159.72 25.748 159.72 25.14C159.72 24.516 159.924 24.028 160.332 23.676C160.748 23.316 161.312 23.136 162.024 23.136H163.944V22.512C163.944 22.128 163.824 21.832 163.584 21.624C163.352 21.408 163.028 21.3 162.612 21.3C162.236 21.3 161.92 21.384 161.664 21.552C161.416 21.712 161.264 21.924 161.208 22.188H160.044C160.076 21.804 160.208 21.472 160.44 21.192C160.672 20.904 160.976 20.68 161.352 20.52C161.728 20.36 162.152 20.28 162.624 20.28C163.392 20.28 164 20.48 164.448 20.88C164.904 21.272 165.132 21.804 165.132 22.476V27H163.968V25.776H163.956C163.9 26.192 163.692 26.52 163.332 26.76C162.972 27 162.512 27.12 161.952 27.12ZM162.276 26.196C162.756 26.196 163.152 26.076 163.464 25.836C163.784 25.588 163.944 25.272 163.944 24.888V23.988H162.048C161.696 23.988 161.416 24.084 161.208 24.276C161.008 24.468 160.908 24.728 160.908 25.056C160.908 25.416 161.028 25.696 161.268 25.896C161.508 26.096 161.844 26.196 162.276 26.196ZM169.508 27.12C168.732 27.12 168.112 26.892 167.648 26.436C167.184 25.98 166.952 25.36 166.952 24.576V20.4H168.14V24.576C168.14 25.056 168.26 25.428 168.5 25.692C168.748 25.948 169.084 26.076 169.508 26.076C169.94 26.076 170.28 25.948 170.528 25.692C170.776 25.428 170.9 25.056 170.9 24.576V20.4H172.088V24.576C172.088 25.36 171.852 25.98 171.38 26.436C170.916 26.892 170.292 27.12 169.508 27.12ZM177.195 27C176.627 27 176.175 26.836 175.839 26.508C175.511 26.18 175.347 25.744 175.347 25.2V21.48H173.499V20.4H175.347V18.54H176.535V20.4H179.139V21.48H176.535V25.188C176.535 25.404 176.595 25.58 176.715 25.716C176.843 25.852 177.011 25.92 177.219 25.92H179.019V27H177.195ZM180.826 27V25.92H183.142V21.48H181.066V20.4H184.33V25.92H186.502V27H180.826ZM183.622 19.236C183.35 19.236 183.134 19.168 182.974 19.032C182.814 18.888 182.734 18.696 182.734 18.456C182.734 18.208 182.814 18.012 182.974 17.868C183.134 17.724 183.35 17.652 183.622 17.652C183.894 17.652 184.11 17.724 184.27 17.868C184.43 18.012 184.51 18.208 184.51 18.456C184.51 18.696 184.43 18.888 184.27 19.032C184.11 19.168 183.894 19.236 183.622 19.236ZM189.378 27V22.152H187.482V21.072H189.378V19.968C189.378 19.44 189.55 19.02 189.894 18.708C190.238 18.396 190.706 18.24 191.298 18.24H193.23V19.308H191.298C190.81 19.308 190.566 19.532 190.566 19.98V21.072H193.23V22.152H190.566V27H189.378ZM197.329 27.12C196.553 27.12 195.933 26.892 195.469 26.436C195.005 25.98 194.773 25.36 194.773 24.576V20.4H195.961V24.576C195.961 25.056 196.081 25.428 196.321 25.692C196.569 25.948 196.905 26.076 197.329 26.076C197.761 26.076 198.101 25.948 198.349 25.692C198.597 25.428 198.721 25.056 198.721 24.576V20.4H199.909V24.576C199.909 25.36 199.673 25.98 199.201 26.436C198.737 26.892 198.113 27.12 197.329 27.12ZM205.28 27C204.68 27 204.2 26.824 203.84 26.472C203.48 26.12 203.3 25.652 203.3 25.068V19.32H201.044V18.24H204.488V25.056C204.488 25.32 204.56 25.532 204.704 25.692C204.856 25.844 205.06 25.92 205.316 25.92H207.32V27H205.28ZM217.775 27.12C217.111 27.12 216.579 26.9 216.179 26.46C215.779 26.012 215.579 25.408 215.579 24.648V22.752C215.579 21.992 215.779 21.392 216.179 20.952C216.579 20.504 217.111 20.28 217.775 20.28C218.255 20.28 218.651 20.404 218.963 20.652C219.283 20.892 219.483 21.22 219.563 21.636H219.587L219.563 20.136V18.24H220.751V27H219.575V25.752H219.563C219.483 26.184 219.283 26.52 218.963 26.76C218.651 27 218.255 27.12 217.775 27.12ZM218.183 26.088C218.607 26.088 218.943 25.956 219.191 25.692C219.439 25.428 219.563 25.056 219.563 24.576V22.824C219.563 22.344 219.439 21.972 219.191 21.708C218.943 21.444 218.607 21.312 218.183 21.312C217.743 21.312 217.395 21.444 217.139 21.708C216.891 21.964 216.767 22.332 216.767 22.812V24.576C216.767 25.064 216.891 25.44 217.139 25.704C217.395 25.96 217.743 26.088 218.183 26.088ZM225.162 27.12C224.634 27.12 224.17 27.016 223.77 26.808C223.378 26.592 223.074 26.296 222.858 25.92C222.642 25.536 222.534 25.088 222.534 24.576V22.812C222.534 22.308 222.642 21.868 222.858 21.492C223.074 21.108 223.378 20.812 223.77 20.604C224.17 20.388 224.634 20.28 225.162 20.28C225.69 20.28 226.15 20.388 226.542 20.604C226.942 20.812 227.25 21.108 227.466 21.492C227.682 21.868 227.79 22.308 227.79 22.812V23.988H223.698V24.576C223.698 25.088 223.822 25.476 224.07 25.74C224.326 26.004 224.69 26.136 225.162 26.136C225.562 26.136 225.882 26.068 226.122 25.932C226.362 25.788 226.514 25.576 226.578 25.296H227.754C227.674 25.856 227.394 26.3 226.914 26.628C226.442 26.956 225.858 27.12 225.162 27.12ZM223.698 22.812V23.136H226.638V22.812C226.638 22.308 226.51 21.924 226.254 21.66C226.006 21.388 225.642 21.252 225.162 21.252C224.682 21.252 224.318 21.388 224.07 21.66C223.822 21.924 223.698 22.308 223.698 22.812ZM231.902 27.096C231.206 27.096 230.634 26.936 230.186 26.616C229.746 26.296 229.526 25.86 229.526 25.308H230.738C230.738 25.556 230.846 25.748 231.062 25.884C231.286 26.012 231.574 26.076 231.926 26.076H232.43C232.846 26.076 233.154 25.996 233.354 25.836C233.554 25.668 233.654 25.448 233.654 25.176C233.654 24.904 233.558 24.692 233.366 24.54C233.174 24.388 232.902 24.28 232.55 24.216L231.65 24.084C230.338 23.876 229.682 23.24 229.682 22.176C229.682 21.568 229.882 21.104 230.282 20.784C230.682 20.464 231.254 20.304 231.998 20.304H232.454C233.142 20.304 233.694 20.46 234.11 20.772C234.526 21.076 234.734 21.48 234.734 21.984H233.522C233.522 21.784 233.422 21.624 233.222 21.504C233.03 21.384 232.766 21.324 232.43 21.324H231.974C231.606 21.324 231.326 21.4 231.134 21.552C230.942 21.696 230.846 21.904 230.846 22.176C230.846 22.64 231.174 22.924 231.83 23.028L232.73 23.172C233.45 23.284 233.978 23.496 234.314 23.808C234.65 24.112 234.818 24.552 234.818 25.128C234.818 25.744 234.614 26.228 234.206 26.58C233.806 26.924 233.206 27.096 232.406 27.096H231.902ZM236.469 27V25.92H238.785V21.48H236.709V20.4H239.973V25.92H242.145V27H236.469ZM239.265 19.236C238.993 19.236 238.777 19.168 238.617 19.032C238.457 18.888 238.377 18.696 238.377 18.456C238.377 18.208 238.457 18.012 238.617 17.868C238.777 17.724 238.993 17.652 239.265 17.652C239.537 17.652 239.753 17.724 239.913 17.868C240.073 18.012 240.153 18.208 240.153 18.456C240.153 18.696 240.073 18.888 239.913 19.032C239.753 19.168 239.537 19.236 239.265 19.236ZM244.336 29.16V28.104H246.4C247.056 28.104 247.384 27.792 247.384 27.168V26.412L247.408 25.212H247.384C247.336 25.636 247.156 25.972 246.844 26.22C246.532 26.468 246.128 26.592 245.632 26.592C244.952 26.592 244.416 26.368 244.024 25.92C243.632 25.472 243.436 24.868 243.436 24.108V22.752C243.436 21.992 243.632 21.392 244.024 20.952C244.416 20.504 244.952 20.28 245.632 20.28C246.128 20.28 246.532 20.404 246.844 20.652C247.156 20.892 247.336 21.228 247.384 21.66H247.396L247.384 20.4H248.56V27.18C248.56 27.796 248.368 28.28 247.984 28.632C247.6 28.984 247.072 29.16 246.4 29.16H244.336ZM246.004 25.56C246.428 25.56 246.764 25.428 247.012 25.164C247.26 24.9 247.384 24.528 247.384 24.048V22.812C247.384 22.34 247.26 21.972 247.012 21.708C246.764 21.444 246.428 21.312 246.004 21.312C245.564 21.312 245.224 21.444 244.984 21.708C244.744 21.964 244.624 22.332 244.624 22.812V24.048C244.624 24.536 244.744 24.912 244.984 25.176C245.224 25.432 245.564 25.56 246.004 25.56ZM250.439 27V20.4H251.615V21.66H251.639C251.695 21.22 251.875 20.88 252.179 20.64C252.483 20.4 252.887 20.28 253.391 20.28C254.047 20.28 254.571 20.488 254.963 20.904C255.355 21.32 255.551 21.88 255.551 22.584V27H254.363V22.716C254.363 22.268 254.243 21.924 254.003 21.684C253.763 21.436 253.435 21.312 253.019 21.312C252.587 21.312 252.247 21.444 251.999 21.708C251.751 21.964 251.627 22.332 251.627 22.812V27H250.439ZM259.723 27.096C259.027 27.096 258.455 26.936 258.007 26.616C257.567 26.296 257.347 25.86 257.347 25.308H258.559C258.559 25.556 258.667 25.748 258.883 25.884C259.107 26.012 259.395 26.076 259.747 26.076H260.251C260.667 26.076 260.975 25.996 261.175 25.836C261.375 25.668 261.475 25.448 261.475 25.176C261.475 24.904 261.379 24.692 261.187 24.54C260.995 24.388 260.723 24.28 260.371 24.216L259.471 24.084C258.159 23.876 257.503 23.24 257.503 22.176C257.503 21.568 257.703 21.104 258.103 20.784C258.503 20.464 259.075 20.304 259.819 20.304H260.275C260.963 20.304 261.515 20.46 261.931 20.772C262.347 21.076 262.555 21.48 262.555 21.984H261.343C261.343 21.784 261.243 21.624 261.043 21.504C260.851 21.384 260.587 21.324 260.251 21.324H259.795C259.427 21.324 259.147 21.4 258.955 21.552C258.763 21.696 258.667 21.904 258.667 22.176C258.667 22.64 258.995 22.924 259.651 23.028L260.551 23.172C261.271 23.284 261.799 23.496 262.135 23.808C262.471 24.112 262.639 24.552 262.639 25.128C262.639 25.744 262.435 26.228 262.027 26.58C261.627 26.924 261.027 27.096 260.227 27.096H259.723ZM273.633 27.096C272.937 27.096 272.365 26.936 271.917 26.616C271.477 26.296 271.257 25.86 271.257 25.308H272.469C272.469 25.556 272.577 25.748 272.793 25.884C273.017 26.012 273.305 26.076 273.657 26.076H274.161C274.577 26.076 274.885 25.996 275.085 25.836C275.285 25.668 275.385 25.448 275.385 25.176C275.385 24.904 275.289 24.692 275.097 24.54C274.905 24.388 274.633 24.28 274.281 24.216L273.381 24.084C272.069 23.876 271.413 23.24 271.413 22.176C271.413 21.568 271.613 21.104 272.013 20.784C272.413 20.464 272.985 20.304 273.729 20.304H274.185C274.873 20.304 275.425 20.46 275.841 20.772C276.257 21.076 276.465 21.48 276.465 21.984H275.253C275.253 21.784 275.153 21.624 274.953 21.504C274.761 21.384 274.497 21.324 274.161 21.324H273.705C273.337 21.324 273.057 21.4 272.865 21.552C272.673 21.696 272.577 21.904 272.577 22.176C272.577 22.64 272.905 22.924 273.561 23.028L274.461 23.172C275.181 23.284 275.709 23.496 276.045 23.808C276.381 24.112 276.549 24.552 276.549 25.128C276.549 25.744 276.345 26.228 275.937 26.58C275.537 26.924 274.937 27.096 274.137 27.096H273.633ZM280.805 27.096C279.997 27.096 279.357 26.872 278.885 26.424C278.413 25.968 278.177 25.348 278.177 24.564V22.836C278.177 22.052 278.413 21.436 278.885 20.988C279.357 20.532 279.997 20.304 280.805 20.304C281.613 20.304 282.253 20.532 282.725 20.988C283.197 21.436 283.433 22.048 283.433 22.824V24.564C283.433 25.348 283.197 25.968 282.725 26.424C282.253 26.872 281.613 27.096 280.805 27.096ZM280.805 26.052C281.253 26.052 281.605 25.928 281.861 25.68C282.117 25.424 282.245 25.052 282.245 24.564V22.836C282.245 22.348 282.117 21.98 281.861 21.732C281.605 21.476 281.253 21.348 280.805 21.348C280.357 21.348 280.005 21.476 279.749 21.732C279.493 21.98 279.365 22.348 279.365 22.836V24.564C279.365 25.052 279.493 25.424 279.749 25.68C280.005 25.928 280.357 26.052 280.805 26.052ZM284.844 27V20.4H285.864V21.216H285.936C285.984 20.936 286.108 20.712 286.308 20.544C286.508 20.368 286.752 20.28 287.04 20.28C287.304 20.28 287.532 20.364 287.724 20.532C287.916 20.7 288.056 20.928 288.144 21.216H288.204C288.252 20.936 288.376 20.712 288.576 20.544C288.784 20.368 289.036 20.28 289.332 20.28C289.724 20.28 290.044 20.44 290.292 20.76C290.548 21.072 290.676 21.48 290.676 21.984V27H289.596V21.996C289.596 21.452 289.372 21.18 288.924 21.18C288.7 21.18 288.528 21.252 288.408 21.396C288.288 21.532 288.228 21.732 288.228 21.996V27H287.292V21.996C287.292 21.74 287.228 21.54 287.1 21.396C286.98 21.252 286.812 21.18 286.596 21.18C286.148 21.18 285.924 21.452 285.924 21.996V27H284.844ZM294.715 27.12C294.187 27.12 293.723 27.016 293.323 26.808C292.931 26.592 292.627 26.296 292.411 25.92C292.195 25.536 292.087 25.088 292.087 24.576V22.812C292.087 22.308 292.195 21.868 292.411 21.492C292.627 21.108 292.931 20.812 293.323 20.604C293.723 20.388 294.187 20.28 294.715 20.28C295.243 20.28 295.703 20.388 296.095 20.604C296.495 20.812 296.803 21.108 297.019 21.492C297.235 21.868 297.343 22.308 297.343 22.812V23.988H293.251V24.576C293.251 25.088 293.375 25.476 293.623 25.74C293.879 26.004 294.243 26.136 294.715 26.136C295.115 26.136 295.435 26.068 295.675 25.932C295.915 25.788 296.067 25.576 296.131 25.296H297.307C297.227 25.856 296.947 26.3 296.467 26.628C295.995 26.956 295.411 27.12 294.715 27.12ZM293.251 22.812V23.136H296.191V22.812C296.191 22.308 296.063 21.924 295.807 21.66C295.559 21.388 295.195 21.252 294.715 21.252C294.235 21.252 293.871 21.388 293.623 21.66C293.375 21.924 293.251 22.308 293.251 22.812ZM302.391 27C301.823 27 301.371 26.836 301.035 26.508C300.707 26.18 300.543 25.744 300.543 25.2V21.48H298.695V20.4H300.543V18.54H301.731V20.4H304.335V21.48H301.731V25.188C301.731 25.404 301.791 25.58 301.911 25.716C302.039 25.852 302.207 25.92 302.415 25.92H304.215V27H302.391ZM306.022 27V25.92H308.338V21.48H306.262V20.4H309.526V25.92H311.698V27H306.022ZM308.818 19.236C308.546 19.236 308.33 19.168 308.17 19.032C308.01 18.888 307.93 18.696 307.93 18.456C307.93 18.208 308.01 18.012 308.17 17.868C308.33 17.724 308.546 17.652 308.818 17.652C309.09 17.652 309.306 17.724 309.466 17.868C309.626 18.012 309.706 18.208 309.706 18.456C309.706 18.696 309.626 18.888 309.466 19.032C309.306 19.168 309.09 19.236 308.818 19.236ZM312.665 27V20.4H313.685V21.216H313.757C313.805 20.936 313.929 20.712 314.129 20.544C314.329 20.368 314.573 20.28 314.861 20.28C315.125 20.28 315.353 20.364 315.545 20.532C315.737 20.7 315.877 20.928 315.965 21.216H316.025C316.073 20.936 316.197 20.712 316.397 20.544C316.605 20.368 316.857 20.28 317.153 20.28C317.545 20.28 317.865 20.44 318.113 20.76C318.369 21.072 318.497 21.48 318.497 21.984V27H317.417V21.996C317.417 21.452 317.193 21.18 316.745 21.18C316.521 21.18 316.349 21.252 316.229 21.396C316.109 21.532 316.049 21.732 316.049 21.996V27H315.113V21.996C315.113 21.74 315.049 21.54 314.921 21.396C314.801 21.252 314.633 21.18 314.417 21.18C313.969 21.18 313.745 21.452 313.745 21.996V27H312.665ZM322.537 27.12C322.009 27.12 321.545 27.016 321.145 26.808C320.753 26.592 320.449 26.296 320.233 25.92C320.017 25.536 319.909 25.088 319.909 24.576V22.812C319.909 22.308 320.017 21.868 320.233 21.492C320.449 21.108 320.753 20.812 321.145 20.604C321.545 20.388 322.009 20.28 322.537 20.28C323.065 20.28 323.525 20.388 323.917 20.604C324.317 20.812 324.625 21.108 324.841 21.492C325.057 21.868 325.165 22.308 325.165 22.812V23.988H321.073V24.576C321.073 25.088 321.197 25.476 321.445 25.74C321.701 26.004 322.065 26.136 322.537 26.136C322.937 26.136 323.257 26.068 323.497 25.932C323.737 25.788 323.889 25.576 323.953 25.296H325.129C325.049 25.856 324.769 26.3 324.289 26.628C323.817 26.956 323.233 27.12 322.537 27.12ZM321.073 22.812V23.136H324.013V22.812C324.013 22.308 323.885 21.924 323.629 21.66C323.381 21.388 323.017 21.252 322.537 21.252C322.057 21.252 321.693 21.388 321.445 21.66C321.197 21.924 321.073 22.308 321.073 22.812ZM92.3992 43.12C91.7032 43.12 91.1552 42.944 90.7552 42.592C90.3632 42.232 90.1672 41.748 90.1672 41.14C90.1672 40.516 90.3712 40.028 90.7792 39.676C91.1952 39.316 91.7592 39.136 92.4712 39.136H94.3912V38.512C94.3912 38.128 94.2712 37.832 94.0312 37.624C93.7992 37.408 93.4752 37.3 93.0592 37.3C92.6832 37.3 92.3672 37.384 92.1112 37.552C91.8632 37.712 91.7112 37.924 91.6552 38.188H90.4912C90.5232 37.804 90.6552 37.472 90.8872 37.192C91.1192 36.904 91.4232 36.68 91.7992 36.52C92.1752 36.36 92.5992 36.28 93.0712 36.28C93.8392 36.28 94.4472 36.48 94.8952 36.88C95.3512 37.272 95.5792 37.804 95.5792 38.476V43H94.4152V41.776H94.4032C94.3472 42.192 94.1392 42.52 93.7792 42.76C93.4192 43 92.9592 43.12 92.3992 43.12ZM92.7232 42.196C93.2032 42.196 93.5992 42.076 93.9112 41.836C94.2312 41.588 94.3912 41.272 94.3912 40.888V39.988H92.4952C92.1432 39.988 91.8632 40.084 91.6552 40.276C91.4552 40.468 91.3552 40.728 91.3552 41.056C91.3552 41.416 91.4752 41.696 91.7152 41.896C91.9552 42.096 92.2912 42.196 92.7232 42.196ZM97.4226 43V36.4H98.5986V37.66H98.6226C98.6786 37.22 98.8586 36.88 99.1626 36.64C99.4666 36.4 99.8706 36.28 100.375 36.28C101.031 36.28 101.555 36.488 101.947 36.904C102.339 37.32 102.535 37.88 102.535 38.584V43H101.347V38.716C101.347 38.268 101.227 37.924 100.987 37.684C100.747 37.436 100.419 37.312 100.003 37.312C99.5706 37.312 99.2306 37.444 98.9826 37.708C98.7346 37.964 98.6106 38.332 98.6106 38.812V43H97.4226ZM106.49 43.12C105.826 43.12 105.294 42.9 104.894 42.46C104.494 42.012 104.294 41.408 104.294 40.648V38.752C104.294 37.992 104.494 37.392 104.894 36.952C105.294 36.504 105.826 36.28 106.49 36.28C106.97 36.28 107.366 36.404 107.678 36.652C107.998 36.892 108.198 37.22 108.278 37.636H108.302L108.278 36.136V34.24H109.466V43H108.29V41.752H108.278C108.198 42.184 107.998 42.52 107.678 42.76C107.366 43 106.97 43.12 106.49 43.12ZM106.898 42.088C107.322 42.088 107.658 41.956 107.906 41.692C108.154 41.428 108.278 41.056 108.278 40.576V38.824C108.278 38.344 108.154 37.972 107.906 37.708C107.658 37.444 107.322 37.312 106.898 37.312C106.458 37.312 106.11 37.444 105.854 37.708C105.606 37.964 105.482 38.332 105.482 38.812V40.576C105.482 41.064 105.606 41.44 105.854 41.704C106.11 41.96 106.458 42.088 106.898 42.088ZM121.816 43C121.216 43 120.736 42.824 120.376 42.472C120.016 42.12 119.836 41.652 119.836 41.068V35.32H117.58V34.24H121.024V41.056C121.024 41.32 121.096 41.532 121.24 41.692C121.392 41.844 121.596 41.92 121.852 41.92H123.856V43H121.816ZM127.788 43.096C126.98 43.096 126.34 42.872 125.868 42.424C125.396 41.968 125.16 41.348 125.16 40.564V38.836C125.16 38.052 125.396 37.436 125.868 36.988C126.34 36.532 126.98 36.304 127.788 36.304C128.596 36.304 129.236 36.532 129.708 36.988C130.18 37.436 130.416 38.048 130.416 38.824V40.564C130.416 41.348 130.18 41.968 129.708 42.424C129.236 42.872 128.596 43.096 127.788 43.096ZM127.788 42.052C128.236 42.052 128.588 41.928 128.844 41.68C129.1 41.424 129.228 41.052 129.228 40.564V38.836C129.228 38.348 129.1 37.98 128.844 37.732C128.588 37.476 128.236 37.348 127.788 37.348C127.34 37.348 126.988 37.476 126.732 37.732C126.476 37.98 126.348 38.348 126.348 38.836V40.564C126.348 41.052 126.476 41.424 126.732 41.68C126.988 41.928 127.34 42.052 127.788 42.052ZM133.975 43L131.695 36.4H132.919L134.407 40.732C134.495 40.988 134.567 41.24 134.623 41.488C134.687 41.736 134.735 41.928 134.767 42.064C134.807 41.928 134.855 41.736 134.911 41.488C134.967 41.24 135.039 40.988 135.127 40.732L136.567 36.4H137.803L135.511 43H133.975ZM141.698 43.12C141.17 43.12 140.706 43.016 140.306 42.808C139.914 42.592 139.61 42.296 139.394 41.92C139.178 41.536 139.07 41.088 139.07 40.576V38.812C139.07 38.308 139.178 37.868 139.394 37.492C139.61 37.108 139.914 36.812 140.306 36.604C140.706 36.388 141.17 36.28 141.698 36.28C142.226 36.28 142.686 36.388 143.078 36.604C143.478 36.812 143.786 37.108 144.002 37.492C144.218 37.868 144.326 38.308 144.326 38.812V39.988H140.234V40.576C140.234 41.088 140.358 41.476 140.606 41.74C140.862 42.004 141.226 42.136 141.698 42.136C142.098 42.136 142.418 42.068 142.658 41.932C142.898 41.788 143.05 41.576 143.114 41.296H144.29C144.21 41.856 143.93 42.3 143.45 42.628C142.978 42.956 142.394 43.12 141.698 43.12ZM140.234 38.812V39.136H143.174V38.812C143.174 38.308 143.046 37.924 142.79 37.66C142.542 37.388 142.178 37.252 141.698 37.252C141.218 37.252 140.854 37.388 140.606 37.66C140.358 37.924 140.234 38.308 140.234 38.812ZM154.997 43.12C154.301 43.12 153.753 42.944 153.353 42.592C152.961 42.232 152.765 41.748 152.765 41.14C152.765 40.516 152.969 40.028 153.377 39.676C153.793 39.316 154.357 39.136 155.069 39.136H156.989V38.512C156.989 38.128 156.869 37.832 156.629 37.624C156.397 37.408 156.073 37.3 155.657 37.3C155.281 37.3 154.965 37.384 154.709 37.552C154.461 37.712 154.309 37.924 154.253 38.188H153.089C153.121 37.804 153.253 37.472 153.485 37.192C153.717 36.904 154.021 36.68 154.397 36.52C154.773 36.36 155.197 36.28 155.669 36.28C156.437 36.28 157.045 36.48 157.493 36.88C157.949 37.272 158.177 37.804 158.177 38.476V43H157.013V41.776H157.001C156.945 42.192 156.737 42.52 156.377 42.76C156.017 43 155.557 43.12 154.997 43.12ZM155.321 42.196C155.801 42.196 156.197 42.076 156.509 41.836C156.829 41.588 156.989 41.272 156.989 40.888V39.988H155.093C154.741 39.988 154.461 40.084 154.253 40.276C154.053 40.468 153.953 40.728 153.953 41.056C153.953 41.416 154.073 41.696 154.313 41.896C154.553 42.096 154.889 42.196 155.321 42.196ZM163.548 43C162.948 43 162.468 42.824 162.108 42.472C161.748 42.12 161.568 41.652 161.568 41.068V35.32H159.312V34.24H162.756V41.056C162.756 41.32 162.828 41.532 162.972 41.692C163.124 41.844 163.328 41.92 163.584 41.92H165.588V43H163.548ZM170.504 43C169.904 43 169.424 42.824 169.064 42.472C168.704 42.12 168.524 41.652 168.524 41.068V35.32H166.268V34.24H169.712V41.056C169.712 41.32 169.784 41.532 169.928 41.692C170.08 41.844 170.284 41.92 170.54 41.92H172.544V43H170.504ZM184.15 43C183.582 43 183.13 42.836 182.794 42.508C182.466 42.18 182.302 41.744 182.302 41.2V37.48H180.454V36.4H182.302V34.54H183.49V36.4H186.094V37.48H183.49V41.188C183.49 41.404 183.55 41.58 183.67 41.716C183.798 41.852 183.966 41.92 184.174 41.92H185.974V43H184.15ZM187.842 43V34.24H189.03V36.4L189.018 37.66H189.042C189.098 37.22 189.278 36.88 189.582 36.64C189.886 36.4 190.29 36.28 190.794 36.28C191.45 36.28 191.974 36.488 192.366 36.904C192.758 37.32 192.954 37.88 192.954 38.584V43H191.766V38.716C191.766 38.268 191.646 37.92 191.406 37.672C191.166 37.416 190.838 37.288 190.422 37.288C189.99 37.288 189.65 37.424 189.402 37.696C189.154 37.96 189.03 38.332 189.03 38.812V43H187.842ZM197.341 43.12C196.813 43.12 196.349 43.016 195.949 42.808C195.557 42.592 195.253 42.296 195.037 41.92C194.821 41.536 194.713 41.088 194.713 40.576V38.812C194.713 38.308 194.821 37.868 195.037 37.492C195.253 37.108 195.557 36.812 195.949 36.604C196.349 36.388 196.813 36.28 197.341 36.28C197.869 36.28 198.329 36.388 198.721 36.604C199.121 36.812 199.429 37.108 199.645 37.492C199.861 37.868 199.969 38.308 199.969 38.812V39.988H195.877V40.576C195.877 41.088 196.001 41.476 196.249 41.74C196.505 42.004 196.869 42.136 197.341 42.136C197.741 42.136 198.061 42.068 198.301 41.932C198.541 41.788 198.693 41.576 198.757 41.296H199.933C199.853 41.856 199.573 42.3 199.093 42.628C198.621 42.956 198.037 43.12 197.341 43.12ZM195.877 38.812V39.136H198.817V38.812C198.817 38.308 198.689 37.924 198.433 37.66C198.185 37.388 197.821 37.252 197.341 37.252C196.861 37.252 196.497 37.388 196.249 37.66C196.001 37.924 195.877 38.308 195.877 38.812ZM211.3 43.12C210.492 43.12 209.844 42.896 209.356 42.448C208.868 41.992 208.624 41.368 208.624 40.576V38.812C208.624 38.028 208.868 37.412 209.356 36.964C209.844 36.508 210.492 36.28 211.3 36.28C212.076 36.28 212.7 36.488 213.172 36.904C213.644 37.312 213.892 37.872 213.916 38.584H212.74C212.716 38.184 212.576 37.876 212.32 37.66C212.064 37.436 211.724 37.324 211.3 37.324C210.844 37.324 210.48 37.456 210.208 37.72C209.944 37.976 209.812 38.34 209.812 38.812V40.576C209.812 41.056 209.944 41.424 210.208 41.68C210.48 41.936 210.844 42.064 211.3 42.064C211.724 42.064 212.064 41.956 212.32 41.74C212.576 41.524 212.716 41.216 212.74 40.816H213.916C213.892 41.528 213.644 42.092 213.172 42.508C212.7 42.916 212.076 43.12 211.3 43.12ZM218.195 43.12C217.419 43.12 216.799 42.892 216.335 42.436C215.871 41.98 215.639 41.36 215.639 40.576V36.4H216.827V40.576C216.827 41.056 216.947 41.428 217.187 41.692C217.435 41.948 217.771 42.076 218.195 42.076C218.627 42.076 218.967 41.948 219.215 41.692C219.463 41.428 219.587 41.056 219.587 40.576V36.4H220.775V40.576C220.775 41.36 220.539 41.98 220.067 42.436C219.603 42.892 218.979 43.12 218.195 43.12ZM225.882 43C225.314 43 224.862 42.836 224.526 42.508C224.198 42.18 224.034 41.744 224.034 41.2V37.48H222.186V36.4H224.034V34.54H225.222V36.4H227.826V37.48H225.222V41.188C225.222 41.404 225.282 41.58 225.402 41.716C225.53 41.852 225.698 41.92 225.906 41.92H227.706V43H225.882ZM232.118 43.12C231.59 43.12 231.126 43.016 230.726 42.808C230.334 42.592 230.03 42.296 229.814 41.92C229.598 41.536 229.49 41.088 229.49 40.576V38.812C229.49 38.308 229.598 37.868 229.814 37.492C230.03 37.108 230.334 36.812 230.726 36.604C231.126 36.388 231.59 36.28 232.118 36.28C232.646 36.28 233.106 36.388 233.498 36.604C233.898 36.812 234.206 37.108 234.422 37.492C234.638 37.868 234.746 38.308 234.746 38.812V39.988H230.654V40.576C230.654 41.088 230.778 41.476 231.026 41.74C231.282 42.004 231.646 42.136 232.118 42.136C232.518 42.136 232.838 42.068 233.078 41.932C233.318 41.788 233.47 41.576 233.534 41.296H234.71C234.63 41.856 234.35 42.3 233.87 42.628C233.398 42.956 232.814 43.12 232.118 43.12ZM230.654 38.812V39.136H233.594V38.812C233.594 38.308 233.466 37.924 233.21 37.66C232.962 37.388 232.598 37.252 232.118 37.252C231.638 37.252 231.274 37.388 231.026 37.66C230.778 37.924 230.654 38.308 230.654 38.812ZM245.812 43.096C245.116 43.096 244.544 42.936 244.096 42.616C243.656 42.296 243.436 41.86 243.436 41.308H244.648C244.648 41.556 244.756 41.748 244.972 41.884C245.196 42.012 245.484 42.076 245.836 42.076H246.34C246.756 42.076 247.064 41.996 247.264 41.836C247.464 41.668 247.564 41.448 247.564 41.176C247.564 40.904 247.468 40.692 247.276 40.54C247.084 40.388 246.812 40.28 246.46 40.216L245.56 40.084C244.248 39.876 243.592 39.24 243.592 38.176C243.592 37.568 243.792 37.104 244.192 36.784C244.592 36.464 245.164 36.304 245.908 36.304H246.364C247.052 36.304 247.604 36.46 248.02 36.772C248.436 37.076 248.644 37.48 248.644 37.984H247.432C247.432 37.784 247.332 37.624 247.132 37.504C246.94 37.384 246.676 37.324 246.34 37.324H245.884C245.516 37.324 245.236 37.4 245.044 37.552C244.852 37.696 244.756 37.904 244.756 38.176C244.756 38.64 245.084 38.924 245.74 39.028L246.64 39.172C247.36 39.284 247.888 39.496 248.224 39.808C248.56 40.112 248.728 40.552 248.728 41.128C248.728 41.744 248.524 42.228 248.116 42.58C247.716 42.924 247.116 43.096 246.316 43.096H245.812ZM253.703 43C253.135 43 252.683 42.836 252.347 42.508C252.019 42.18 251.855 41.744 251.855 41.2V37.48H250.007V36.4H251.855V34.54H253.043V36.4H255.647V37.48H253.043V41.188C253.043 41.404 253.103 41.58 253.223 41.716C253.351 41.852 253.519 41.92 253.727 41.92H255.527V43H253.703ZM259.927 43.12C259.151 43.12 258.531 42.892 258.067 42.436C257.603 41.98 257.371 41.36 257.371 40.576V36.4H258.559V40.576C258.559 41.056 258.679 41.428 258.919 41.692C259.167 41.948 259.503 42.076 259.927 42.076C260.359 42.076 260.699 41.948 260.947 41.692C261.195 41.428 261.319 41.056 261.319 40.576V36.4H262.507V40.576C262.507 41.36 262.271 41.98 261.799 42.436C261.335 42.892 260.711 43.12 259.927 43.12ZM265.886 43V38.152H263.99V37.072H265.886V35.968C265.886 35.44 266.058 35.02 266.402 34.708C266.746 34.396 267.214 34.24 267.806 34.24H269.738V35.308H267.806C267.318 35.308 267.074 35.532 267.074 35.98V37.072H269.738V38.152H267.074V43H265.886ZM272.841 43V38.152H270.945V37.072H272.841V35.968C272.841 35.44 273.013 35.02 273.357 34.708C273.701 34.396 274.169 34.24 274.761 34.24H276.693V35.308H274.761C274.273 35.308 274.029 35.532 274.029 35.98V37.072H276.693V38.152H274.029V43H272.841ZM280.373 40.36L280.121 35.728V34.24H281.489V35.728L281.237 40.36H280.373ZM280.625 43.06C280.409 43.06 280.229 42.992 280.085 42.856C279.949 42.72 279.881 42.54 279.881 42.316C279.881 42.1 279.949 41.924 280.085 41.788C280.229 41.652 280.409 41.584 280.625 41.584H280.985C281.217 41.584 281.397 41.652 281.525 41.788C281.661 41.924 281.729 42.1 281.729 42.316C281.729 42.532 281.657 42.712 281.513 42.856C281.377 42.992 281.201 43.06 280.985 43.06H280.625Z" fill="#3F9FA5"/>
<path d="M59.2305 75.12C58.4545 75.12 57.8345 74.892 57.3705 74.436C56.9065 73.98 56.6745 73.36 56.6745 72.576V68.4H57.8625V72.576C57.8625 73.056 57.9825 73.428 58.2225 73.692C58.4705 73.948 58.8065 74.076 59.2305 74.076C59.6625 74.076 60.0025 73.948 60.2505 73.692C60.4985 73.428 60.6225 73.056 60.6225 72.576V68.4H61.8105V72.576C61.8105 73.36 61.5745 73.98 61.1025 74.436C60.6385 74.892 60.0145 75.12 59.2305 75.12ZM65.9818 75.096C65.2858 75.096 64.7138 74.936 64.2658 74.616C63.8258 74.296 63.6058 73.86 63.6058 73.308H64.8178C64.8178 73.556 64.9258 73.748 65.1418 73.884C65.3658 74.012 65.6538 74.076 66.0058 74.076H66.5098C66.9258 74.076 67.2338 73.996 67.4338 73.836C67.6338 73.668 67.7338 73.448 67.7338 73.176C67.7338 72.904 67.6378 72.692 67.4458 72.54C67.2538 72.388 66.9818 72.28 66.6298 72.216L65.7298 72.084C64.4178 71.876 63.7618 71.24 63.7618 70.176C63.7618 69.568 63.9618 69.104 64.3618 68.784C64.7618 68.464 65.3338 68.304 66.0778 68.304H66.5338C67.2218 68.304 67.7738 68.46 68.1898 68.772C68.6058 69.076 68.8138 69.48 68.8138 69.984H67.6018C67.6018 69.784 67.5018 69.624 67.3018 69.504C67.1098 69.384 66.8458 69.324 66.5098 69.324H66.0538C65.6858 69.324 65.4058 69.4 65.2138 69.552C65.0218 69.696 64.9258 69.904 64.9258 70.176C64.9258 70.64 65.2538 70.924 65.9098 71.028L66.8098 71.172C67.5298 71.284 68.0578 71.496 68.3938 71.808C68.7298 72.112 68.8978 72.552 68.8978 73.128C68.8978 73.744 68.6938 74.228 68.2858 74.58C67.8858 74.924 67.2858 75.096 66.4858 75.096H65.9818ZM70.5491 75V73.92H72.8651V69.48H70.7891V68.4H74.0531V73.92H76.2251V75H70.5491ZM73.3451 67.236C73.0731 67.236 72.8571 67.168 72.6971 67.032C72.5371 66.888 72.4571 66.696 72.4571 66.456C72.4571 66.208 72.5371 66.012 72.6971 65.868C72.8571 65.724 73.0731 65.652 73.3451 65.652C73.6171 65.652 73.8331 65.724 73.9931 65.868C74.1531 66.012 74.2331 66.208 74.2331 66.456C74.2331 66.696 74.1531 66.888 73.9931 67.032C73.8331 67.168 73.6171 67.236 73.3451 67.236ZM77.5644 75V68.4H78.7404V69.66H78.7644C78.8204 69.22 79.0004 68.88 79.3044 68.64C79.6084 68.4 80.0124 68.28 80.5164 68.28C81.1724 68.28 81.6964 68.488 82.0884 68.904C82.4804 69.32 82.6764 69.88 82.6764 70.584V75H81.4884V70.716C81.4884 70.268 81.3684 69.924 81.1284 69.684C80.8884 69.436 80.5604 69.312 80.1444 69.312C79.7124 69.312 79.3724 69.444 79.1244 69.708C78.8764 69.964 78.7524 70.332 78.7524 70.812V75H77.5644ZM85.3718 77.16V76.104H87.4358C88.0918 76.104 88.4198 75.792 88.4198 75.168V74.412L88.4438 73.212H88.4198C88.3718 73.636 88.1918 73.972 87.8798 74.22C87.5678 74.468 87.1638 74.592 86.6678 74.592C85.9878 74.592 85.4518 74.368 85.0598 73.92C84.6678 73.472 84.4718 72.868 84.4718 72.108V70.752C84.4718 69.992 84.6678 69.392 85.0598 68.952C85.4518 68.504 85.9878 68.28 86.6678 68.28C87.1638 68.28 87.5678 68.404 87.8798 68.652C88.1918 68.892 88.3718 69.228 88.4198 69.66H88.4318L88.4198 68.4H89.5958V75.18C89.5958 75.796 89.4038 76.28 89.0198 76.632C88.6358 76.984 88.1078 77.16 87.4358 77.16H85.3718ZM87.0398 73.56C87.4638 73.56 87.7998 73.428 88.0478 73.164C88.2958 72.9 88.4198 72.528 88.4198 72.048V70.812C88.4198 70.34 88.2958 69.972 88.0478 69.708C87.7998 69.444 87.4638 69.312 87.0398 69.312C86.5998 69.312 86.2598 69.444 86.0198 69.708C85.7798 69.964 85.6598 70.332 85.6598 70.812V72.048C85.6598 72.536 85.7798 72.912 86.0198 73.176C86.2598 73.432 86.5998 73.56 87.0398 73.56ZM60.2265 91C59.6265 91 59.1465 90.824 58.7865 90.472C58.4265 90.12 58.2465 89.652 58.2465 89.068V83.32H55.9905V82.24H59.4345V89.056C59.4345 89.32 59.5065 89.532 59.6505 89.692C59.8025 89.844 60.0065 89.92 60.2625 89.92H62.2665V91H60.2265ZM63.5938 91V89.92H65.9098V85.48H63.8338V84.4H67.0978V89.92H69.2698V91H63.5938ZM66.3898 83.236C66.1178 83.236 65.9018 83.168 65.7418 83.032C65.5818 82.888 65.5018 82.696 65.5018 82.456C65.5018 82.208 65.5818 82.012 65.7418 81.868C65.9018 81.724 66.1178 81.652 66.3898 81.652C66.6618 81.652 66.8778 81.724 67.0378 81.868C67.1978 82.012 67.2778 82.208 67.2778 82.456C67.2778 82.696 67.1978 82.888 67.0378 83.032C66.8778 83.168 66.6618 83.236 66.3898 83.236ZM70.6451 91V82.24H71.8331V87.088H73.0571L74.8931 84.4H76.2371L74.0771 87.556L76.2731 91H74.9051L73.0571 88.108H71.8331V91H70.6451ZM80.1084 91.12C79.5804 91.12 79.1164 91.016 78.7164 90.808C78.3244 90.592 78.0204 90.296 77.8044 89.92C77.5884 89.536 77.4804 89.088 77.4804 88.576V86.812C77.4804 86.308 77.5884 85.868 77.8044 85.492C78.0204 85.108 78.3244 84.812 78.7164 84.604C79.1164 84.388 79.5804 84.28 80.1084 84.28C80.6364 84.28 81.0964 84.388 81.4884 84.604C81.8884 84.812 82.1964 85.108 82.4124 85.492C82.6284 85.868 82.7364 86.308 82.7364 86.812V87.988H78.6444V88.576C78.6444 89.088 78.7684 89.476 79.0164 89.74C79.2724 90.004 79.6364 90.136 80.1084 90.136C80.5084 90.136 80.8284 90.068 81.0684 89.932C81.3084 89.788 81.4604 89.576 81.5244 89.296H82.7004C82.6204 89.856 82.3404 90.3 81.8604 90.628C81.3884 90.956 80.8044 91.12 80.1084 91.12ZM78.6444 86.812V87.136H81.5844V86.812C81.5844 86.308 81.4564 85.924 81.2004 85.66C80.9524 85.388 80.5884 85.252 80.1084 85.252C79.6284 85.252 79.2644 85.388 79.0164 85.66C78.7684 85.924 78.6444 86.308 78.6444 86.812ZM58.8105 107.12C58.1465 107.12 57.6145 106.9 57.2145 106.46C56.8145 106.012 56.6145 105.408 56.6145 104.648V102.752C56.6145 101.992 56.8145 101.392 57.2145 100.952C57.6145 100.504 58.1465 100.28 58.8105 100.28C59.2905 100.28 59.6865 100.404 59.9985 100.652C60.3185 100.892 60.5185 101.22 60.5985 101.636H60.6225L60.5985 100.136V98.24H61.7865V107H60.6105V105.752H60.5985C60.5185 106.184 60.3185 106.52 59.9985 106.76C59.6865 107 59.2905 107.12 58.8105 107.12ZM59.2185 106.088C59.6425 106.088 59.9785 105.956 60.2265 105.692C60.4745 105.428 60.5985 105.056 60.5985 104.576V102.824C60.5985 102.344 60.4745 101.972 60.2265 101.708C59.9785 101.444 59.6425 101.312 59.2185 101.312C58.7785 101.312 58.4305 101.444 58.1745 101.708C57.9265 101.964 57.8025 102.332 57.8025 102.812V104.576C57.8025 105.064 57.9265 105.44 58.1745 105.704C58.4305 105.96 58.7785 106.088 59.2185 106.088ZM63.5938 107V105.92H65.9098V101.48H63.8338V100.4H67.0978V105.92H69.2698V107H63.5938ZM66.3898 99.236C66.1178 99.236 65.9018 99.168 65.7418 99.032C65.5818 98.888 65.5018 98.696 65.5018 98.456C65.5018 98.208 65.5818 98.012 65.7418 97.868C65.9018 97.724 66.1178 97.652 66.3898 97.652C66.6618 97.652 66.8778 97.724 67.0378 97.868C67.1978 98.012 67.2778 98.208 67.2778 98.456C67.2778 98.696 67.1978 98.888 67.0378 99.032C66.8778 99.168 66.6618 99.236 66.3898 99.236ZM72.9371 107.096C72.2411 107.096 71.6691 106.936 71.2211 106.616C70.7811 106.296 70.5611 105.86 70.5611 105.308H71.7731C71.7731 105.556 71.8811 105.748 72.0971 105.884C72.3211 106.012 72.6091 106.076 72.9611 106.076H73.4651C73.8811 106.076 74.1891 105.996 74.3891 105.836C74.5891 105.668 74.6891 105.448 74.6891 105.176C74.6891 104.904 74.5931 104.692 74.4011 104.54C74.2091 104.388 73.9371 104.28 73.5851 104.216L72.6851 104.084C71.3731 103.876 70.7171 103.24 70.7171 102.176C70.7171 101.568 70.9171 101.104 71.3171 100.784C71.7171 100.464 72.2891 100.304 73.0331 100.304H73.4891C74.1771 100.304 74.7291 100.46 75.1451 100.772C75.5611 101.076 75.7691 101.48 75.7691 101.984H74.5571C74.5571 101.784 74.4571 101.624 74.2571 101.504C74.0651 101.384 73.8011 101.324 73.4651 101.324H73.0091C72.6411 101.324 72.3611 101.4 72.1691 101.552C71.9771 101.696 71.8811 101.904 71.8811 102.176C71.8811 102.64 72.2091 102.924 72.8651 103.028L73.7651 103.172C74.4851 103.284 75.0131 103.496 75.3491 103.808C75.6851 104.112 75.8531 104.552 75.8531 105.128C75.8531 105.744 75.6491 106.228 75.2411 106.58C74.8411 106.924 74.2411 107.096 73.4411 107.096H72.9371ZM81.0924 107C80.4924 107 80.0124 106.824 79.6524 106.472C79.2924 106.12 79.1124 105.652 79.1124 105.068V99.32H76.8564V98.24H80.3004V105.056C80.3004 105.32 80.3724 105.532 80.5164 105.692C80.6684 105.844 80.8724 105.92 81.1284 105.92H83.1324V107H81.0924ZM84.4598 107V105.92H86.7758V101.48H84.6998V100.4H87.9638V105.92H90.1358V107H84.4598ZM87.2558 99.236C86.9838 99.236 86.7678 99.168 86.6078 99.032C86.4478 98.888 86.3678 98.696 86.3678 98.456C86.3678 98.208 86.4478 98.012 86.6078 97.868C86.7678 97.724 86.9838 97.652 87.2558 97.652C87.5278 97.652 87.7438 97.724 87.9038 97.868C88.0638 98.012 88.1438 98.208 88.1438 98.456C88.1438 98.696 88.0638 98.888 87.9038 99.032C87.7438 99.168 87.5278 99.236 87.2558 99.236ZM91.5111 107V98.24H92.6991V103.088H93.9231L95.7591 100.4H97.1031L94.9431 103.556L97.1391 107H95.7711L93.9231 104.108H92.6991V107H91.5111ZM100.974 107.12C100.446 107.12 99.9824 107.016 99.5824 106.808C99.1904 106.592 98.8864 106.296 98.6704 105.92C98.4544 105.536 98.3464 105.088 98.3464 104.576V102.812C98.3464 102.308 98.4544 101.868 98.6704 101.492C98.8864 101.108 99.1904 100.812 99.5824 100.604C99.9824 100.388 100.446 100.28 100.974 100.28C101.502 100.28 101.962 100.388 102.354 100.604C102.754 100.812 103.062 101.108 103.278 101.492C103.494 101.868 103.602 102.308 103.602 102.812V103.988H99.5104V104.576C99.5104 105.088 99.6344 105.476 99.8824 105.74C100.138 106.004 100.502 106.136 100.974 106.136C101.374 106.136 101.694 106.068 101.934 105.932C102.174 105.788 102.326 105.576 102.39 105.296H103.566C103.486 105.856 103.206 106.3 102.726 106.628C102.254 106.956 101.67 107.12 100.974 107.12ZM99.5104 102.812V103.136H102.45V102.812C102.45 102.308 102.322 101.924 102.066 101.66C101.818 101.388 101.454 101.252 100.974 101.252C100.494 101.252 100.13 101.388 99.8824 101.66C99.6344 101.924 99.5104 102.308 99.5104 102.812Z" fill="#DA8A2C"/>
<path d="M98.3824 70.128V69.06H103.566V70.128H98.3824ZM98.3824 73.02V71.952H103.566V73.02H98.3824ZM91.4271 86.128V85.06H96.6111V86.128H91.4271ZM91.4271 89.02V87.952H96.6111V89.02H91.4271ZM112.293 102.128V101.06H117.477V102.128H112.293ZM112.293 105.02V103.952H117.477V105.02H112.293Z" fill="#DA8A2C" fill-opacity="0.6"/>
<path d="M112.341 75V66.24H113.529V69.948H114.753L116.625 66.24H117.921L115.797 70.44L118.029 75H116.685L114.729 70.992H113.529V75H112.341ZM121.84 75.096C121.032 75.096 120.392 74.872 119.92 74.424C119.448 73.968 119.212 73.348 119.212 72.564V70.836C119.212 70.052 119.448 69.436 119.92 68.988C120.392 68.532 121.032 68.304 121.84 68.304C122.648 68.304 123.288 68.532 123.76 68.988C124.232 69.436 124.468 70.048 124.468 70.824V72.564C124.468 73.348 124.232 73.968 123.76 74.424C123.288 74.872 122.648 75.096 121.84 75.096ZM121.84 74.052C122.288 74.052 122.64 73.928 122.896 73.68C123.152 73.424 123.28 73.052 123.28 72.564V70.836C123.28 70.348 123.152 69.98 122.896 69.732C122.64 69.476 122.288 69.348 121.84 69.348C121.392 69.348 121.04 69.476 120.784 69.732C120.528 69.98 120.4 70.348 120.4 70.836V72.564C120.4 73.052 120.528 73.424 120.784 73.68C121.04 73.928 121.392 74.052 121.84 74.052ZM129.516 75C128.948 75 128.496 74.836 128.16 74.508C127.832 74.18 127.668 73.744 127.668 73.2V69.48H125.82V68.4H127.668V66.54H128.856V68.4H131.46V69.48H128.856V73.188C128.856 73.404 128.916 73.58 129.036 73.716C129.164 73.852 129.332 73.92 129.54 73.92H131.34V75H129.516ZM136.735 75C136.135 75 135.655 74.824 135.295 74.472C134.935 74.12 134.755 73.652 134.755 73.068V67.32H132.499V66.24H135.943V73.056C135.943 73.32 136.015 73.532 136.159 73.692C136.311 73.844 136.515 73.92 136.771 73.92H138.775V75H136.735ZM140.102 75V73.92H142.418V69.48H140.342V68.4H143.606V73.92H145.778V75H140.102ZM142.898 67.236C142.626 67.236 142.41 67.168 142.25 67.032C142.09 66.888 142.01 66.696 142.01 66.456C142.01 66.208 142.09 66.012 142.25 65.868C142.41 65.724 142.626 65.652 142.898 65.652C143.17 65.652 143.386 65.724 143.546 65.868C143.706 66.012 143.786 66.208 143.786 66.456C143.786 66.696 143.706 66.888 143.546 67.032C143.386 67.168 143.17 67.236 142.898 67.236ZM147.118 75V68.4H148.294V69.66H148.318C148.374 69.22 148.554 68.88 148.858 68.64C149.162 68.4 149.566 68.28 150.07 68.28C150.726 68.28 151.25 68.488 151.642 68.904C152.034 69.32 152.23 69.88 152.23 70.584V75H151.042V70.716C151.042 70.268 150.922 69.924 150.682 69.684C150.442 69.436 150.114 69.312 149.698 69.312C149.266 69.312 148.926 69.444 148.678 69.708C148.43 69.964 148.306 70.332 148.306 70.812V75H147.118ZM174.939 75V66.24H177.663C178.199 66.24 178.667 66.348 179.067 66.564C179.467 66.772 179.779 67.068 180.003 67.452C180.227 67.828 180.339 68.272 180.339 68.784C180.339 69.376 180.187 69.884 179.883 70.308C179.579 70.732 179.167 71.028 178.647 71.196L180.459 75H179.079L177.447 71.34H176.127V75H174.939ZM176.127 70.284H177.663C178.111 70.284 178.463 70.148 178.719 69.876C178.983 69.604 179.115 69.244 179.115 68.796C179.115 68.34 178.983 67.976 178.719 67.704C178.455 67.432 178.103 67.296 177.663 67.296H176.127V70.284ZM184.426 75.12C183.65 75.12 183.03 74.892 182.566 74.436C182.102 73.98 181.87 73.36 181.87 72.576V68.4H183.058V72.576C183.058 73.056 183.178 73.428 183.418 73.692C183.666 73.948 184.002 74.076 184.426 74.076C184.858 74.076 185.198 73.948 185.446 73.692C185.694 73.428 185.818 73.056 185.818 72.576V68.4H187.006V72.576C187.006 73.36 186.77 73.98 186.298 74.436C185.834 74.892 185.21 75.12 184.426 75.12ZM191.177 75.096C190.481 75.096 189.909 74.936 189.461 74.616C189.021 74.296 188.801 73.86 188.801 73.308H190.013C190.013 73.556 190.121 73.748 190.337 73.884C190.561 74.012 190.849 74.076 191.201 74.076H191.705C192.121 74.076 192.429 73.996 192.629 73.836C192.829 73.668 192.929 73.448 192.929 73.176C192.929 72.904 192.833 72.692 192.641 72.54C192.449 72.388 192.177 72.28 191.825 72.216L190.925 72.084C189.613 71.876 188.957 71.24 188.957 70.176C188.957 69.568 189.157 69.104 189.557 68.784C189.957 68.464 190.529 68.304 191.273 68.304H191.729C192.417 68.304 192.969 68.46 193.385 68.772C193.801 69.076 194.009 69.48 194.009 69.984H192.797C192.797 69.784 192.697 69.624 192.497 69.504C192.305 69.384 192.041 69.324 191.705 69.324H191.249C190.881 69.324 190.601 69.4 190.409 69.552C190.217 69.696 190.121 69.904 190.121 70.176C190.121 70.64 190.449 70.924 191.105 71.028L192.005 71.172C192.725 71.284 193.253 71.496 193.589 71.808C193.925 72.112 194.093 72.552 194.093 73.128C194.093 73.744 193.889 74.228 193.481 74.58C193.081 74.924 192.481 75.096 191.681 75.096H191.177ZM199.069 75C198.501 75 198.049 74.836 197.713 74.508C197.385 74.18 197.221 73.744 197.221 73.2V69.48H195.373V68.4H197.221V66.54H198.409V68.4H201.013V69.48H198.409V73.188C198.409 73.404 198.469 73.58 198.589 73.716C198.717 73.852 198.885 73.92 199.093 73.92H200.893V75H199.069ZM226.206 75.12C225.638 75.12 225.142 75.02 224.718 74.82C224.294 74.62 223.966 74.34 223.734 73.98C223.502 73.612 223.386 73.18 223.386 72.684H224.574C224.574 73.1 224.722 73.436 225.018 73.692C225.322 73.94 225.722 74.064 226.218 74.064C226.698 74.064 227.078 73.94 227.358 73.692C227.638 73.436 227.778 73.1 227.778 72.684C227.778 72.356 227.69 72.068 227.514 71.82C227.338 71.564 227.098 71.392 226.794 71.304L225.558 70.932C224.942 70.748 224.462 70.44 224.118 70.008C223.782 69.576 223.614 69.068 223.614 68.484C223.614 67.764 223.85 67.192 224.322 66.768C224.794 66.336 225.43 66.12 226.23 66.12C227.022 66.12 227.654 66.336 228.126 66.768C228.598 67.192 228.834 67.76 228.834 68.472H227.646C227.646 68.08 227.518 67.764 227.262 67.524C227.006 67.284 226.662 67.164 226.23 67.164C225.79 67.164 225.438 67.284 225.174 67.524C224.91 67.756 224.778 68.068 224.778 68.46C224.778 68.772 224.866 69.04 225.042 69.264C225.226 69.488 225.478 69.648 225.798 69.744L227.07 70.14C227.654 70.324 228.114 70.64 228.45 71.088C228.786 71.536 228.954 72.064 228.954 72.672C228.954 73.168 228.838 73.6 228.606 73.968C228.382 74.336 228.066 74.62 227.658 74.82C227.25 75.02 226.766 75.12 226.206 75.12ZM230.941 75L229.897 68.4H230.905L231.541 72.912C231.565 73.104 231.585 73.316 231.601 73.548C231.625 73.772 231.645 73.956 231.661 74.1H231.709C231.725 73.948 231.745 73.76 231.769 73.536C231.801 73.312 231.833 73.104 231.865 72.912L232.561 68.4H233.689L234.385 72.912C234.417 73.112 234.445 73.324 234.469 73.548C234.501 73.764 234.525 73.948 234.541 74.1H234.589C234.613 73.956 234.637 73.772 234.661 73.548C234.685 73.316 234.709 73.104 234.733 72.912L235.393 68.4H236.353L235.261 75H233.989L233.305 70.56C233.273 70.344 233.241 70.12 233.209 69.888C233.177 69.648 233.153 69.456 233.137 69.312H233.089C233.073 69.456 233.049 69.648 233.017 69.888C232.993 70.12 232.965 70.344 232.933 70.56L232.225 75H230.941ZM237.477 75V73.92H239.793V69.48H237.717V68.4H240.981V73.92H243.153V75H237.477ZM240.273 67.236C240.001 67.236 239.785 67.168 239.625 67.032C239.465 66.888 239.385 66.696 239.385 66.456C239.385 66.208 239.465 66.012 239.625 65.868C239.785 65.724 240.001 65.652 240.273 65.652C240.545 65.652 240.761 65.724 240.921 65.868C241.081 66.012 241.161 66.208 241.161 66.456C241.161 66.696 241.081 66.888 240.921 67.032C240.761 67.168 240.545 67.236 240.273 67.236ZM246.028 75V70.152H244.132V69.072H246.028V67.968C246.028 67.44 246.2 67.02 246.544 66.708C246.888 66.396 247.356 66.24 247.948 66.24H249.88V67.308H247.948C247.46 67.308 247.216 67.532 247.216 67.98V69.072H249.88V70.152H247.216V75H246.028ZM254.711 75C254.143 75 253.691 74.836 253.355 74.508C253.027 74.18 252.863 73.744 252.863 73.2V69.48H251.015V68.4H252.863V66.54H254.051V68.4H256.655V69.48H254.051V73.188C254.051 73.404 254.111 73.58 254.231 73.716C254.359 73.852 254.527 73.92 254.735 73.92H256.535V75H254.711ZM281.452 75.12C280.596 75.12 279.924 74.884 279.436 74.412C278.948 73.932 278.704 73.28 278.704 72.456H279.892C279.892 72.968 280.028 73.364 280.3 73.644C280.58 73.924 280.964 74.064 281.452 74.064C281.94 74.064 282.32 73.924 282.592 73.644C282.872 73.364 283.012 72.972 283.012 72.468V67.32H280.552V66.24H284.2V72.468C284.2 73.284 283.952 73.932 283.456 74.412C282.968 74.884 282.3 75.12 281.452 75.12ZM288.156 75.12C287.46 75.12 286.912 74.944 286.512 74.592C286.12 74.232 285.924 73.748 285.924 73.14C285.924 72.516 286.128 72.028 286.536 71.676C286.952 71.316 287.516 71.136 288.228 71.136H290.148V70.512C290.148 70.128 290.028 69.832 289.788 69.624C289.556 69.408 289.232 69.3 288.816 69.3C288.44 69.3 288.124 69.384 287.868 69.552C287.62 69.712 287.468 69.924 287.412 70.188H286.248C286.28 69.804 286.412 69.472 286.644 69.192C286.876 68.904 287.18 68.68 287.556 68.52C287.932 68.36 288.356 68.28 288.828 68.28C289.596 68.28 290.204 68.48 290.652 68.88C291.108 69.272 291.336 69.804 291.336 70.476V75H290.172V73.776H290.16C290.104 74.192 289.896 74.52 289.536 74.76C289.176 75 288.716 75.12 288.156 75.12ZM288.48 74.196C288.96 74.196 289.356 74.076 289.668 73.836C289.988 73.588 290.148 73.272 290.148 72.888V71.988H288.252C287.9 71.988 287.62 72.084 287.412 72.276C287.212 72.468 287.112 72.728 287.112 73.056C287.112 73.416 287.232 73.696 287.472 73.896C287.712 74.096 288.048 74.196 288.48 74.196ZM294.955 75L292.675 68.4H293.899L295.387 72.732C295.475 72.988 295.547 73.24 295.603 73.488C295.667 73.736 295.715 73.928 295.747 74.064C295.787 73.928 295.835 73.736 295.891 73.488C295.947 73.24 296.019 72.988 296.107 72.732L297.547 68.4H298.783L296.491 75H294.955ZM302.066 75.12C301.37 75.12 300.822 74.944 300.422 74.592C300.03 74.232 299.834 73.748 299.834 73.14C299.834 72.516 300.038 72.028 300.446 71.676C300.862 71.316 301.426 71.136 302.138 71.136H304.058V70.512C304.058 70.128 303.938 69.832 303.698 69.624C303.466 69.408 303.142 69.3 302.726 69.3C302.35 69.3 302.034 69.384 301.778 69.552C301.53 69.712 301.378 69.924 301.322 70.188H300.158C300.19 69.804 300.322 69.472 300.554 69.192C300.786 68.904 301.09 68.68 301.466 68.52C301.842 68.36 302.266 68.28 302.738 68.28C303.506 68.28 304.114 68.48 304.562 68.88C305.018 69.272 305.246 69.804 305.246 70.476V75H304.082V73.776H304.07C304.014 74.192 303.806 74.52 303.446 74.76C303.086 75 302.626 75.12 302.066 75.12ZM302.39 74.196C302.87 74.196 303.266 74.076 303.578 73.836C303.898 73.588 304.058 73.272 304.058 72.888V71.988H302.162C301.81 71.988 301.53 72.084 301.322 72.276C301.122 72.468 301.022 72.728 301.022 73.056C301.022 73.416 301.142 73.696 301.382 73.896C301.622 74.096 301.958 74.196 302.39 74.196ZM105.386 91V82.24H106.574V85.948H107.798L109.67 82.24H110.966L108.842 86.44L111.074 91H109.73L107.774 86.992H106.574V91H105.386ZM114.885 91.096C114.077 91.096 113.437 90.872 112.965 90.424C112.493 89.968 112.257 89.348 112.257 88.564V86.836C112.257 86.052 112.493 85.436 112.965 84.988C113.437 84.532 114.077 84.304 114.885 84.304C115.693 84.304 116.333 84.532 116.805 84.988C117.277 85.436 117.513 86.048 117.513 86.824V88.564C117.513 89.348 117.277 89.968 116.805 90.424C116.333 90.872 115.693 91.096 114.885 91.096ZM114.885 90.052C115.333 90.052 115.685 89.928 115.941 89.68C116.197 89.424 116.325 89.052 116.325 88.564V86.836C116.325 86.348 116.197 85.98 115.941 85.732C115.685 85.476 115.333 85.348 114.885 85.348C114.437 85.348 114.085 85.476 113.829 85.732C113.573 85.98 113.445 86.348 113.445 86.836V88.564C113.445 89.052 113.573 89.424 113.829 89.68C114.085 89.928 114.437 90.052 114.885 90.052ZM122.56 91C121.992 91 121.54 90.836 121.204 90.508C120.876 90.18 120.712 89.744 120.712 89.2V85.48H118.864V84.4H120.712V82.54H121.9V84.4H124.504V85.48H121.9V89.188C121.9 89.404 121.96 89.58 122.08 89.716C122.208 89.852 122.376 89.92 122.584 89.92H124.384V91H122.56ZM129.78 91C129.18 91 128.7 90.824 128.34 90.472C127.98 90.12 127.8 89.652 127.8 89.068V83.32H125.544V82.24H128.988V89.056C128.988 89.32 129.06 89.532 129.204 89.692C129.356 89.844 129.56 89.92 129.816 89.92H131.82V91H129.78ZM133.147 91V89.92H135.463V85.48H133.387V84.4H136.651V89.92H138.823V91H133.147ZM135.943 83.236C135.671 83.236 135.455 83.168 135.295 83.032C135.135 82.888 135.055 82.696 135.055 82.456C135.055 82.208 135.135 82.012 135.295 81.868C135.455 81.724 135.671 81.652 135.943 81.652C136.215 81.652 136.431 81.724 136.591 81.868C136.751 82.012 136.831 82.208 136.831 82.456C136.831 82.696 136.751 82.888 136.591 83.032C136.431 83.168 136.215 83.236 135.943 83.236ZM140.162 91V84.4H141.338V85.66H141.362C141.418 85.22 141.598 84.88 141.902 84.64C142.206 84.4 142.61 84.28 143.114 84.28C143.77 84.28 144.294 84.488 144.686 84.904C145.078 85.32 145.274 85.88 145.274 86.584V91H144.086V86.716C144.086 86.268 143.966 85.924 143.726 85.684C143.486 85.436 143.158 85.312 142.742 85.312C142.31 85.312 141.97 85.444 141.722 85.708C141.474 85.964 141.35 86.332 141.35 86.812V91H140.162ZM167.984 91V82.24H170.708C171.244 82.24 171.712 82.348 172.112 82.564C172.512 82.772 172.824 83.068 173.048 83.452C173.272 83.828 173.384 84.272 173.384 84.784C173.384 85.376 173.232 85.884 172.928 86.308C172.624 86.732 172.212 87.028 171.692 87.196L173.504 91H172.124L170.492 87.34H169.172V91H167.984ZM169.172 86.284H170.708C171.156 86.284 171.508 86.148 171.764 85.876C172.028 85.604 172.16 85.244 172.16 84.796C172.16 84.34 172.028 83.976 171.764 83.704C171.5 83.432 171.148 83.296 170.708 83.296H169.172V86.284ZM177.471 91.12C176.695 91.12 176.075 90.892 175.611 90.436C175.147 89.98 174.915 89.36 174.915 88.576V84.4H176.103V88.576C176.103 89.056 176.223 89.428 176.463 89.692C176.711 89.948 177.047 90.076 177.471 90.076C177.903 90.076 178.243 89.948 178.491 89.692C178.739 89.428 178.863 89.056 178.863 88.576V84.4H180.051V88.576C180.051 89.36 179.815 89.98 179.343 90.436C178.879 90.892 178.255 91.12 177.471 91.12ZM184.222 91.096C183.526 91.096 182.954 90.936 182.506 90.616C182.066 90.296 181.846 89.86 181.846 89.308H183.058C183.058 89.556 183.166 89.748 183.382 89.884C183.606 90.012 183.894 90.076 184.246 90.076H184.75C185.166 90.076 185.474 89.996 185.674 89.836C185.874 89.668 185.974 89.448 185.974 89.176C185.974 88.904 185.878 88.692 185.686 88.54C185.494 88.388 185.222 88.28 184.87 88.216L183.97 88.084C182.658 87.876 182.002 87.24 182.002 86.176C182.002 85.568 182.202 85.104 182.602 84.784C183.002 84.464 183.574 84.304 184.318 84.304H184.774C185.462 84.304 186.014 84.46 186.43 84.772C186.846 85.076 187.054 85.48 187.054 85.984H185.842C185.842 85.784 185.742 85.624 185.542 85.504C185.35 85.384 185.086 85.324 184.75 85.324H184.294C183.926 85.324 183.646 85.4 183.454 85.552C183.262 85.696 183.166 85.904 183.166 86.176C183.166 86.64 183.494 86.924 184.15 87.028L185.05 87.172C185.77 87.284 186.298 87.496 186.634 87.808C186.97 88.112 187.138 88.552 187.138 89.128C187.138 89.744 186.934 90.228 186.526 90.58C186.126 90.924 185.526 91.096 184.726 91.096H184.222ZM192.113 91C191.545 91 191.093 90.836 190.757 90.508C190.429 90.18 190.265 89.744 190.265 89.2V85.48H188.417V84.4H190.265V82.54H191.453V84.4H194.057V85.48H191.453V89.188C191.453 89.404 191.513 89.58 191.633 89.716C191.761 89.852 191.929 89.92 192.137 89.92H193.937V91H192.113ZM218.627 91V83.32H216.251V82.24H222.179V83.32H219.815V91H218.627ZM224.682 93.16L225.642 90.604L223.11 84.4H224.406L225.942 88.3C225.998 88.452 226.054 88.632 226.11 88.84C226.166 89.04 226.21 89.208 226.242 89.344C226.274 89.208 226.318 89.04 226.374 88.84C226.438 88.632 226.498 88.452 226.554 88.3L227.982 84.4H229.23L225.918 93.16H224.682ZM230.593 93.16V84.4H231.769V85.636H231.781C231.861 85.212 232.057 84.88 232.369 84.64C232.689 84.4 233.093 84.28 233.581 84.28C234.237 84.28 234.765 84.504 235.165 84.952C235.565 85.392 235.765 85.992 235.765 86.752V88.636C235.765 89.404 235.565 90.012 235.165 90.46C234.773 90.9 234.245 91.12 233.581 91.12C233.101 91.12 232.701 91 232.381 90.76C232.061 90.512 231.861 90.176 231.781 89.752H231.757L231.781 91.252V93.16H230.593ZM233.173 90.088C233.613 90.088 233.957 89.96 234.205 89.704C234.453 89.44 234.577 89.064 234.577 88.576V86.812C234.577 86.332 234.453 85.964 234.205 85.708C233.957 85.444 233.613 85.312 233.173 85.312C232.741 85.312 232.401 85.444 232.153 85.708C231.905 85.972 231.781 86.344 231.781 86.824V88.576C231.781 89.056 231.905 89.428 232.153 89.692C232.401 89.956 232.741 90.088 233.173 90.088ZM240.081 91.12C239.553 91.12 239.089 91.016 238.689 90.808C238.297 90.592 237.993 90.296 237.777 89.92C237.561 89.536 237.453 89.088 237.453 88.576V86.812C237.453 86.308 237.561 85.868 237.777 85.492C237.993 85.108 238.297 84.812 238.689 84.604C239.089 84.388 239.553 84.28 240.081 84.28C240.609 84.28 241.069 84.388 241.461 84.604C241.861 84.812 242.169 85.108 242.385 85.492C242.601 85.868 242.709 86.308 242.709 86.812V87.988H238.617V88.576C238.617 89.088 238.741 89.476 238.989 89.74C239.245 90.004 239.609 90.136 240.081 90.136C240.481 90.136 240.801 90.068 241.041 89.932C241.281 89.788 241.433 89.576 241.497 89.296H242.673C242.593 89.856 242.313 90.3 241.833 90.628C241.361 90.956 240.777 91.12 240.081 91.12ZM238.617 86.812V87.136H241.557V86.812C241.557 86.308 241.429 85.924 241.173 85.66C240.925 85.388 240.561 85.252 240.081 85.252C239.601 85.252 239.237 85.388 238.989 85.66C238.741 85.924 238.617 86.308 238.617 86.812ZM247.072 91.12C246.504 91.12 246.008 91.02 245.584 90.82C245.16 90.62 244.832 90.34 244.6 89.98C244.368 89.612 244.252 89.18 244.252 88.684H245.44C245.44 89.1 245.588 89.436 245.884 89.692C246.188 89.94 246.588 90.064 247.084 90.064C247.564 90.064 247.944 89.94 248.224 89.692C248.504 89.436 248.644 89.1 248.644 88.684C248.644 88.356 248.556 88.068 248.38 87.82C248.204 87.564 247.964 87.392 247.66 87.304L246.424 86.932C245.808 86.748 245.328 86.44 244.984 86.008C244.648 85.576 244.48 85.068 244.48 84.484C244.48 83.764 244.716 83.192 245.188 82.768C245.66 82.336 246.296 82.12 247.096 82.12C247.888 82.12 248.52 82.336 248.992 82.768C249.464 83.192 249.7 83.76 249.7 84.472H248.512C248.512 84.08 248.384 83.764 248.128 83.524C247.872 83.284 247.528 83.164 247.096 83.164C246.656 83.164 246.304 83.284 246.04 83.524C245.776 83.756 245.644 84.068 245.644 84.46C245.644 84.772 245.732 85.04 245.908 85.264C246.092 85.488 246.344 85.648 246.664 85.744L247.936 86.14C248.52 86.324 248.98 86.64 249.316 87.088C249.652 87.536 249.82 88.064 249.82 88.672C249.82 89.168 249.704 89.6 249.472 89.968C249.248 90.336 248.932 90.62 248.524 90.82C248.116 91.02 247.632 91.12 247.072 91.12ZM254.039 91.12C253.231 91.12 252.583 90.896 252.095 90.448C251.607 89.992 251.363 89.368 251.363 88.576V86.812C251.363 86.028 251.607 85.412 252.095 84.964C252.583 84.508 253.231 84.28 254.039 84.28C254.815 84.28 255.439 84.488 255.911 84.904C256.383 85.312 256.631 85.872 256.655 86.584H255.479C255.455 86.184 255.315 85.876 255.059 85.66C254.803 85.436 254.463 85.324 254.039 85.324C253.583 85.324 253.219 85.456 252.947 85.72C252.683 85.976 252.551 86.34 252.551 86.812V88.576C252.551 89.056 252.683 89.424 252.947 89.68C253.219 89.936 253.583 90.064 254.039 90.064C254.463 90.064 254.803 89.956 255.059 89.74C255.315 89.524 255.455 89.216 255.479 88.816H256.655C256.631 89.528 256.383 90.092 255.911 90.508C255.439 90.916 254.815 91.12 254.039 91.12ZM258.607 91V84.4H259.783V85.66H259.807C259.863 85.22 260.043 84.88 260.347 84.64C260.659 84.4 261.067 84.28 261.571 84.28C262.251 84.28 262.795 84.5 263.203 84.94C263.611 85.38 263.815 85.972 263.815 86.716V87.196H262.615V86.812C262.615 86.34 262.491 85.972 262.243 85.708C262.003 85.444 261.647 85.312 261.175 85.312C260.255 85.312 259.795 85.82 259.795 86.836V91H258.607ZM265.298 91V89.92H267.614V85.48H265.538V84.4H268.802V89.92H270.974V91H265.298ZM268.094 83.236C267.822 83.236 267.606 83.168 267.446 83.032C267.286 82.888 267.206 82.696 267.206 82.456C267.206 82.208 267.286 82.012 267.446 81.868C267.606 81.724 267.822 81.652 268.094 81.652C268.366 81.652 268.582 81.724 268.742 81.868C268.902 82.012 268.982 82.208 268.982 82.456C268.982 82.696 268.902 82.888 268.742 83.032C268.582 83.168 268.366 83.236 268.094 83.236ZM272.325 93.16V84.4H273.501V85.636H273.513C273.593 85.212 273.789 84.88 274.101 84.64C274.421 84.4 274.825 84.28 275.313 84.28C275.969 84.28 276.497 84.504 276.897 84.952C277.297 85.392 277.497 85.992 277.497 86.752V88.636C277.497 89.404 277.297 90.012 276.897 90.46C276.505 90.9 275.977 91.12 275.313 91.12C274.833 91.12 274.433 91 274.113 90.76C273.793 90.512 273.593 90.176 273.513 89.752H273.489L273.513 91.252V93.16H272.325ZM274.905 90.088C275.345 90.088 275.689 89.96 275.937 89.704C276.185 89.44 276.309 89.064 276.309 88.576V86.812C276.309 86.332 276.185 85.964 275.937 85.708C275.689 85.444 275.345 85.312 274.905 85.312C274.473 85.312 274.133 85.444 273.885 85.708C273.637 85.972 273.513 86.344 273.513 86.824V88.576C273.513 89.056 273.637 89.428 273.885 89.692C274.133 89.956 274.473 90.088 274.905 90.088ZM282.532 91C281.964 91 281.512 90.836 281.176 90.508C280.848 90.18 280.684 89.744 280.684 89.2V85.48H278.836V84.4H280.684V82.54H281.872V84.4H284.476V85.48H281.872V89.188C281.872 89.404 281.932 89.58 282.052 89.716C282.18 89.852 282.348 89.92 282.556 89.92H284.356V91H282.532ZM128.844 107.12C128.036 107.12 127.392 106.896 126.912 106.448C126.44 105.992 126.204 105.368 126.204 104.576V100.652C126.204 99.868 126.44 99.252 126.912 98.804C127.392 98.348 128.036 98.12 128.844 98.12C129.644 98.12 130.28 98.348 130.752 98.804C131.232 99.26 131.472 99.876 131.472 100.652H130.284C130.284 100.18 130.156 99.816 129.9 99.56C129.644 99.304 129.292 99.176 128.844 99.176C128.388 99.176 128.032 99.304 127.776 99.56C127.52 99.816 127.392 100.18 127.392 100.652V104.576C127.392 105.056 127.52 105.424 127.776 105.68C128.032 105.936 128.388 106.064 128.844 106.064C129.292 106.064 129.644 105.936 129.9 105.68C130.156 105.424 130.284 105.056 130.284 104.576H131.472C131.472 105.36 131.232 105.98 130.752 106.436C130.28 106.892 129.644 107.12 128.844 107.12ZM156.665 107.12C155.857 107.12 155.213 106.896 154.733 106.448C154.261 105.992 154.025 105.368 154.025 104.576V100.652C154.025 99.868 154.261 99.252 154.733 98.804C155.213 98.348 155.857 98.12 156.665 98.12C157.465 98.12 158.101 98.348 158.573 98.804C159.053 99.26 159.293 99.876 159.293 100.652H158.105C158.105 100.18 157.977 99.816 157.721 99.56C157.465 99.304 157.113 99.176 156.665 99.176C156.209 99.176 155.853 99.304 155.597 99.56C155.341 99.816 155.213 100.18 155.213 100.652V104.576C155.213 105.056 155.341 105.424 155.597 105.68C155.853 105.936 156.209 106.064 156.665 106.064C157.113 106.064 157.465 105.936 157.721 105.68C157.977 105.424 158.105 105.056 158.105 104.576H159.293C159.293 105.36 159.053 105.98 158.573 106.436C158.101 106.892 157.465 107.12 156.665 107.12ZM161.04 109.16V100.4H162.216V101.636H162.228C162.308 101.212 162.504 100.88 162.816 100.64C163.136 100.4 163.54 100.28 164.028 100.28C164.684 100.28 165.212 100.504 165.612 100.952C166.012 101.392 166.212 101.992 166.212 102.752V104.636C166.212 105.404 166.012 106.012 165.612 106.46C165.22 106.9 164.692 107.12 164.028 107.12C163.548 107.12 163.148 107 162.828 106.76C162.508 106.512 162.308 106.176 162.228 105.752H162.204L162.228 107.252V109.16H161.04ZM163.62 106.088C164.06 106.088 164.404 105.96 164.652 105.704C164.9 105.44 165.024 105.064 165.024 104.576V102.812C165.024 102.332 164.9 101.964 164.652 101.708C164.404 101.444 164.06 101.312 163.62 101.312C163.188 101.312 162.848 101.444 162.6 101.708C162.352 101.972 162.228 102.344 162.228 102.824V104.576C162.228 105.056 162.352 105.428 162.6 105.692C162.848 105.956 163.188 106.088 163.62 106.088ZM167.996 109.16V100.4H169.172V101.636H169.184C169.264 101.212 169.46 100.88 169.772 100.64C170.092 100.4 170.496 100.28 170.984 100.28C171.64 100.28 172.168 100.504 172.568 100.952C172.968 101.392 173.168 101.992 173.168 102.752V104.636C173.168 105.404 172.968 106.012 172.568 106.46C172.176 106.9 171.648 107.12 170.984 107.12C170.504 107.12 170.104 107 169.784 106.76C169.464 106.512 169.264 106.176 169.184 105.752H169.16L169.184 107.252V109.16H167.996ZM170.576 106.088C171.016 106.088 171.36 105.96 171.608 105.704C171.856 105.44 171.98 105.064 171.98 104.576V102.812C171.98 102.332 171.856 101.964 171.608 101.708C171.36 101.444 171.016 101.312 170.576 101.312C170.144 101.312 169.804 101.444 169.556 101.708C169.308 101.972 169.184 102.344 169.184 102.824V104.576C169.184 105.056 169.308 105.428 169.556 105.692C169.804 105.956 170.144 106.088 170.576 106.088ZM195.805 107V98.24H198.157C198.725 98.24 199.217 98.352 199.633 98.576C200.057 98.792 200.385 99.1 200.617 99.5C200.849 99.892 200.965 100.356 200.965 100.892V104.336C200.965 104.872 200.849 105.34 200.617 105.74C200.385 106.14 200.057 106.452 199.633 106.676C199.217 106.892 198.725 107 198.157 107H195.805ZM196.993 105.944H198.157C198.661 105.944 199.057 105.8 199.345 105.512C199.633 105.224 199.777 104.832 199.777 104.336V100.892C199.777 100.396 199.633 100.008 199.345 99.728C199.057 99.44 198.661 99.296 198.157 99.296H196.993V105.944ZM204.692 107.12C203.996 107.12 203.448 106.944 203.048 106.592C202.656 106.232 202.46 105.748 202.46 105.14C202.46 104.516 202.664 104.028 203.072 103.676C203.488 103.316 204.052 103.136 204.764 103.136H206.684V102.512C206.684 102.128 206.564 101.832 206.324 101.624C206.092 101.408 205.768 101.3 205.352 101.3C204.976 101.3 204.66 101.384 204.404 101.552C204.156 101.712 204.004 101.924 203.948 102.188H202.784C202.816 101.804 202.948 101.472 203.18 101.192C203.412 100.904 203.716 100.68 204.092 100.52C204.468 100.36 204.892 100.28 205.364 100.28C206.132 100.28 206.74 100.48 207.188 100.88C207.644 101.272 207.872 101.804 207.872 102.476V107H206.708V105.776H206.696C206.64 106.192 206.432 106.52 206.072 106.76C205.712 107 205.252 107.12 204.692 107.12ZM205.016 106.196C205.496 106.196 205.892 106.076 206.204 105.836C206.524 105.588 206.684 105.272 206.684 104.888V103.988H204.788C204.436 103.988 204.156 104.084 203.948 104.276C203.748 104.468 203.648 104.728 203.648 105.056C203.648 105.416 203.768 105.696 204.008 105.896C204.248 106.096 204.584 106.196 205.016 106.196ZM209.919 107V100.4H211.095V101.66H211.119C211.175 101.22 211.355 100.88 211.659 100.64C211.971 100.4 212.379 100.28 212.883 100.28C213.563 100.28 214.107 100.5 214.515 100.94C214.923 101.38 215.127 101.972 215.127 102.716V103.196H213.927V102.812C213.927 102.34 213.803 101.972 213.555 101.708C213.315 101.444 212.959 101.312 212.487 101.312C211.567 101.312 211.107 101.82 211.107 102.836V107H209.919ZM219.935 107C219.367 107 218.915 106.836 218.579 106.508C218.251 106.18 218.087 105.744 218.087 105.2V101.48H216.239V100.4H218.087V98.54H219.275V100.4H221.879V101.48H219.275V105.188C219.275 105.404 219.335 105.58 219.455 105.716C219.583 105.852 219.751 105.92 219.959 105.92H221.759V107H219.935ZM243.88 107L246.376 102.548L244.012 98.24H245.368L246.664 100.736C246.736 100.88 246.808 101.028 246.88 101.18C246.96 101.332 247.02 101.448 247.06 101.528C247.1 101.448 247.156 101.332 247.228 101.18C247.3 101.028 247.372 100.88 247.444 100.736L248.752 98.24H250.06L247.696 102.488L250.192 107H248.848L247.408 104.312C247.336 104.168 247.264 104.02 247.192 103.868C247.12 103.708 247.064 103.58 247.024 103.484C246.984 103.58 246.928 103.708 246.856 103.868C246.784 104.02 246.708 104.164 246.628 104.3L245.188 107H243.88ZM251.075 107V100.4H252.095V101.216H252.167C252.215 100.936 252.339 100.712 252.539 100.544C252.739 100.368 252.983 100.28 253.271 100.28C253.535 100.28 253.763 100.364 253.955 100.532C254.147 100.7 254.287 100.928 254.375 101.216H254.435C254.483 100.936 254.607 100.712 254.807 100.544C255.015 100.368 255.267 100.28 255.563 100.28C255.955 100.28 256.275 100.44 256.523 100.76C256.779 101.072 256.907 101.48 256.907 101.984V107H255.827V101.996C255.827 101.452 255.603 101.18 255.155 101.18C254.931 101.18 254.759 101.252 254.639 101.396C254.519 101.532 254.459 101.732 254.459 101.996V107H253.523V101.996C253.523 101.74 253.459 101.54 253.331 101.396C253.211 101.252 253.043 101.18 252.827 101.18C252.379 101.18 252.155 101.452 252.155 101.996V107H251.075ZM261.931 107C261.331 107 260.851 106.824 260.491 106.472C260.131 106.12 259.951 105.652 259.951 105.068V99.32H257.695V98.24H261.139V105.056C261.139 105.32 261.211 105.532 261.355 105.692C261.507 105.844 261.711 105.92 261.967 105.92H263.971V107H261.931ZM286.236 107V98.24H287.424V101.924H290.112V98.24H291.3V107H290.112V103.004H287.424V107H286.236ZM296.443 107C295.875 107 295.423 106.836 295.087 106.508C294.759 106.18 294.595 105.744 294.595 105.2V101.48H292.747V100.4H294.595V98.54H295.783V100.4H298.387V101.48H295.783V105.188C295.783 105.404 295.843 105.58 295.963 105.716C296.091 105.852 296.259 105.92 296.467 105.92H298.267V107H296.443ZM299.762 107V100.4H300.782V101.216H300.854C300.902 100.936 301.026 100.712 301.226 100.544C301.426 100.368 301.67 100.28 301.958 100.28C302.222 100.28 302.45 100.364 302.642 100.532C302.834 100.7 302.974 100.928 303.062 101.216H303.122C303.17 100.936 303.294 100.712 303.494 100.544C303.702 100.368 303.954 100.28 304.25 100.28C304.642 100.28 304.962 100.44 305.21 100.76C305.466 101.072 305.594 101.48 305.594 101.984V107H304.514V101.996C304.514 101.452 304.29 101.18 303.842 101.18C303.618 101.18 303.446 101.252 303.326 101.396C303.206 101.532 303.146 101.732 303.146 101.996V107H302.21V101.996C302.21 101.74 302.146 101.54 302.018 101.396C301.898 101.252 301.73 101.18 301.514 101.18C301.066 101.18 300.842 101.452 300.842 101.996V107H299.762ZM310.618 107C310.018 107 309.538 106.824 309.178 106.472C308.818 106.12 308.638 105.652 308.638 105.068V99.32H306.382V98.24H309.826V105.056C309.826 105.32 309.898 105.532 310.042 105.692C310.194 105.844 310.398 105.92 310.654 105.92H312.658V107H310.618Z" fill="#B558E1"/>
</svg>
