<svg class="illustration" width="186" height="186" viewBox="0 0 186 186" fill="none" xmlns="http://www.w3.org/2000/svg">
<path d="M123.784 12.5435C124.643 11.0994 126.197 9.97968 127.924 10.0034C129.822 9.9322 131.55 10.9846 132.865 12.2626C134.756 14.1261 136.408 16.2191 137.842 18.4506C138.029 18.3081 138.397 18.0312 138.579 17.8888C138.096 16.5831 137.438 15.3289 137.141 13.9599C137.03 12.7334 138.861 12.041 139.562 13.0776C140.255 14.2685 140.62 15.6217 141.151 16.8917C142.296 16.1044 143.366 15.1864 144.61 14.5455C145.486 14.2646 146.405 15.0598 146.358 15.9501C145.993 17.9204 142.708 17.9323 142.863 20.0767C145.545 18.7038 148.291 17.1528 151.346 16.8838C153.466 16.6701 155.535 18.2092 155.875 20.3181C156.466 23.9818 154.92 27.9027 152.052 30.2529C153.01 33.2717 152.559 36.6545 151.017 39.4003C150.237 40.7376 148.993 41.9839 147.376 42.1462C145.668 42.3598 144.115 41.3113 143.073 40.0611C141.416 38.0274 140.03 35.7762 138.968 33.3825C138.04 33.8929 136.982 34.5575 135.893 34.1223C134.977 33.8572 134.553 32.9275 134.058 32.2034C131.613 33.3825 129.018 34.2292 126.367 34.8108C124.525 35.1708 122.436 35.2539 120.808 34.1738C119.354 33.2519 118.676 31.4794 118.7 29.8176C118.751 26.5733 120.523 23.4556 123.233 21.6791C121.981 18.7711 122.135 15.2656 123.784 12.5435ZM126.652 13.4416C124.945 15.4753 124.83 18.502 125.983 20.8364C126.458 20.7256 126.942 20.6148 127.421 20.5001C128.503 20.2904 130.199 20.3814 130.108 21.9007C129.715 23.693 127.382 23.1549 126.038 23.6574C123.233 24.4289 121.426 27.3725 121.541 30.1896C121.505 31.1866 122.357 31.7524 123.062 32.2746C126.835 32.1599 130.528 30.8938 133.801 29.058C134.019 26.2805 134.795 23.5743 136.016 21.0737C134.217 17.9244 132.002 14.8304 128.923 12.8244L128.994 12.7334C128.186 12.8323 127.203 12.7057 126.652 13.4416ZM143.12 23.5387C142.839 25.4259 142.363 27.2855 141.646 29.058C141.42 29.5446 141.195 30.0313 140.973 30.5219C141.603 32.5279 142.538 34.423 143.727 36.156C144.479 37.2282 145.185 38.4191 146.318 39.1392C146.952 39.6061 147.574 38.9928 148.16 38.7515C149.333 36.698 150.118 34.2648 149.551 31.8988C149.096 30.2806 147.725 29.1965 146.873 27.8117C146.572 26.8463 147.598 25.8255 148.561 26.142C149.377 26.5021 149.9 27.2815 150.526 27.8908C152.321 26.0708 153.541 23.4477 153.094 20.8641C152.951 19.867 151.861 19.4951 150.994 19.7562C148.145 20.4407 145.407 21.7028 143.12 23.5387ZM136.749 31.2855C137.418 30.6723 138.068 30.0076 138.464 29.1767C139.859 26.4071 140.652 23.2538 140.224 20.144C137.509 23.1034 136.4 27.3409 136.749 31.2855Z" fill="#433F4D"/>
<path d="M66.3523 39.7129C66.6099 36.5081 69.6055 33.7267 72.8665 33.9206C80.1693 34.1936 87.5275 36.4725 93.3047 41.0304C94.22 41.7149 95.0125 42.7159 96.2369 42.8188C101.467 43.8198 106.508 46.4746 109.804 50.7239C111.247 52.536 112.261 54.6369 113.069 56.7932C114.163 53.2917 115.217 49.7783 116.243 46.257C116.806 44.2946 117.804 42.3005 119.631 41.2401C122.444 39.6219 126.232 40.4726 128.364 42.8346C131.067 45.7743 132.184 49.7704 132.885 53.6042C133.587 52.4133 134.395 51.1591 135.726 50.6012C138.5 49.3708 141.912 50.4905 143.687 52.8762C146.152 56.1048 146.92 60.2749 147.158 64.2354C147.538 72.3107 144.456 79.9744 143.639 87.9231C146.096 91.6818 148.065 95.8163 148.921 100.244C150.265 107.326 150.118 114.831 147.546 121.633C143.746 131.817 136.028 140.485 126.427 145.577C125.543 150.444 125.749 155.429 126.161 160.335C126.411 162.646 126.522 165.142 125.27 167.212C123.225 171.053 117.951 172.747 114.107 170.61C109.963 168.379 107.744 163.944 106.012 159.777C105.802 162.484 106.127 165.186 106.143 167.888C106.107 171.967 102.64 175.548 98.6144 175.94C95.5078 176.347 92.5598 174.638 90.5706 172.379C87.5235 168.929 85.7404 164.537 84.6864 160.106C84.0445 157.396 83.8068 154.59 84.0723 151.817C75.5015 154.511 66.0353 155.322 57.417 152.383C49.0246 149.597 42.126 143.413 37.3275 136.117C34.4865 131.832 32.2319 127.168 30.5993 122.297C29.7276 120.141 29.684 117.462 31.2967 115.635C33.1353 113.28 36.9036 112.999 39.1265 114.966C40.973 116.37 41.1473 118.831 42.0111 120.818C45.1375 128.754 50.6175 136.22 58.5265 139.884C64.8387 142.891 72.1573 142.855 78.8379 141.221C76.0127 134.464 74.9864 126.859 76.512 119.654C77.5501 114.732 79.6542 110.099 82.198 105.779C76.7101 106.135 71.2182 104.066 67.1448 100.422C66.281 99.6977 65.5479 98.7362 64.4186 98.4276C55.8004 95.6422 48.4937 89.5294 43.5644 82.016C41.9834 79.741 42.1141 76.5006 43.7823 74.3087C44.7492 72.9951 46.2549 72.2632 47.6734 71.5431C50.6968 70.0317 53.9658 69.0505 57.2982 68.5045C58.7484 61.6399 62.5048 55.3214 67.8105 50.7318C66.7089 47.1789 66.1106 43.436 66.3523 39.7129ZM71.5629 36.7218C71.7452 37.2797 71.9354 37.8375 72.1256 38.3954L72.1929 38.4033C73.3935 40.8366 75.0736 42.9889 76.7735 45.0898C79.7057 43.8435 82.7924 43.0206 85.9346 42.4983C87.3928 42.3836 88.8549 42.2807 90.321 42.2253C84.8212 38.5576 78.1841 36.5596 71.5629 36.7218ZM70.1206 48.8564C71.448 47.9662 72.8031 47.1156 74.1939 46.3243C72.3356 44.069 70.7149 41.6318 69.3241 39.068C68.6664 42.3282 69.3558 45.6754 70.1206 48.8564ZM119.045 46.5814C116.984 53.442 115.027 60.3501 112.479 67.0524C111.013 70.4234 109.218 73.644 107.181 76.7063C100.873 86.2415 92.8847 94.5265 86.5607 104.05L86.5012 104.014C84.6864 107.021 82.8439 110.032 81.4689 113.276C81.0687 114.266 80.6844 115.267 80.3159 116.272C79.1747 119.979 78.0969 123.975 78.8775 127.856C78.9687 127.959 79.147 128.165 79.2341 128.272L78.937 128.224L78.6675 128.311C78.6477 129.91 78.9488 131.484 79.2024 133.059C79.9276 136.588 81.1757 139.999 82.8677 143.18C84.0564 145.273 85.4789 147.208 86.9767 149.091C87.6226 149.676 87.2422 150.523 87.0679 151.227C86.208 154.848 87.0401 158.614 88.0941 162.104C89.481 166.163 91.4939 170.432 95.3374 172.691C95.484 171.049 95.3652 169.392 94.961 167.793C95.6505 167.275 96.7401 166.654 97.4573 167.497C98.4281 169.245 98.1864 171.374 98.0715 173.297C98.7134 173.111 99.3751 172.972 99.9972 172.719C100.782 171.133 100.033 169.384 99.6169 167.805C99.2246 166.8 100.453 165.815 101.396 166.211C102.605 166.863 102.577 168.486 103.052 169.629C103.286 168.668 103.46 167.682 103.369 166.693C103.12 162.816 102.929 158.8 104.237 155.081C105.763 152.359 108.477 150.693 111.025 149.067C116.505 146.333 122.615 144.968 127.79 141.605C132.81 138.381 137.26 134.155 140.477 129.114C142.78 125.977 144.416 122.365 145.593 118.661C147.301 113.237 147.297 107.417 146.401 101.846C145.819 98.1071 144.384 94.5423 142.463 91.298C139.633 86.4592 135.77 82.3365 132.683 77.6757C130.179 73.6638 130.575 68.7379 130.797 64.2275C130.975 59.8437 130.599 55.4203 129.525 51.167C128.864 48.5636 127.809 45.9444 125.785 44.0928C124.647 43.4518 123.336 42.9098 122.012 43.2659C120.4 43.5705 119.488 45.1373 119.045 46.5814ZM75.1845 48.9118C72.7635 50.4153 70.3108 51.9544 68.3969 54.0949L68.2741 54.0909C67.7114 54.6725 67.1448 55.2541 66.5861 55.8318C64.799 57.8971 63.5429 60.3264 62.2155 62.6924C61.9738 63.1671 61.7321 63.6459 61.4904 64.1286L61.423 64.1128C60.8643 66.0594 60.1313 67.9743 59.9292 70.008C59.5488 70.4471 59.2318 71.0881 58.5701 71.1197C54.0252 71.8398 49.306 73.1217 45.7239 76.1406C50.0152 75.9586 54.3303 76.4848 58.4988 77.4858C59.5171 77.7034 59.4022 78.9141 59.5766 79.6975C60.3215 85.9527 62.9327 92.0181 67.2003 96.6828C71.4361 101.241 77.8314 104.022 84.0881 102.756C87.266 97.8697 90.9907 93.3751 94.5529 88.7658C100.806 81.0743 107.28 73.2127 110.751 63.8041C111.896 61.4223 110.763 58.7794 109.971 56.4648C107.621 50.4153 101.598 46.5537 95.381 45.438C88.4904 44.2194 81.3342 45.6991 75.1845 48.9118ZM136.293 53.5449C135.096 54.8308 134.918 56.6745 134.355 58.2729C133.226 61.2759 133.618 64.544 133.488 67.6855C133.143 70.827 133.595 74.2454 135.469 76.8804C137.331 79.5076 139.364 82.012 141.29 84.5956C142.478 77.189 145.197 69.8457 144.218 62.2492C143.738 58.9574 142.887 55.2699 139.994 53.2402C138.789 52.896 137.284 52.532 136.293 53.5449ZM45.1731 79.1198C46.2668 81.3711 47.8597 83.3216 49.4922 85.201C52.9553 89.1298 57.215 92.3623 61.9857 94.5423C59.2318 90.1031 57.425 85.0942 56.783 79.9072C52.9633 79.2346 49.0523 78.471 45.1731 79.1198ZM33.064 117.858C32.4181 118.934 32.7787 120.212 33.1194 121.32C34.3478 125.015 35.9843 128.568 37.91 131.951C42.3281 139.575 48.878 146.317 57.2744 149.439C65.6628 152.656 75.0617 151.884 83.466 149.142C82.1861 147.421 81.045 145.601 80.0266 143.718C76.7854 144.501 73.4688 145.047 70.1285 145.039C63.3052 145.146 56.4542 142.847 51.196 138.483C47.7804 135.805 45.193 132.28 42.7798 128.719C41.4049 125.957 39.8635 123.247 38.9561 120.283C38.4806 119.002 38.2231 117.415 36.9155 116.695C35.596 115.9 33.7415 116.497 33.064 117.858ZM116.267 149.866C113.014 150.954 109.971 152.719 107.53 155.132C108.865 160.078 110.914 165.451 115.494 168.26C115.621 166.721 115.645 165.131 115.074 163.671C115.625 162.812 116.881 162.131 117.678 163.109C118.573 164.869 118.351 166.939 118.256 168.846C118.946 168.656 119.643 168.47 120.336 168.268C120.677 166.638 120.344 165.012 119.809 163.469C119.274 162.266 120.951 161.146 121.921 161.961C122.734 162.848 122.825 164.13 123.221 165.218C123.542 164.023 123.633 162.78 123.486 161.55C123.035 156.743 122.856 151.888 123.344 147.073C121.038 148.141 118.561 148.79 116.267 149.866Z" fill="#433F4D"/>
<path d="M90.0041 47.6576C91.2285 46.9889 92.9244 48.1047 92.2349 49.5132C91.3315 50.5419 89.5484 50.3836 88.8193 51.6695C87.7178 53.082 88.6331 54.811 88.9184 56.3303C88.6965 57.5212 86.8936 57.8219 86.3467 56.7338C84.2744 53.4262 86.1328 48.5359 90.0041 47.6576Z" fill="#433F4D"/>
<path d="M90.9511 60.2235C90.6896 59.0326 92.5519 58.4826 93.0432 59.5509C93.4553 60.6548 93.2453 61.8655 93.178 63.0129C95.393 65.272 97.6951 67.7805 98.3846 70.9655C98.9116 73.1811 97.5208 75.6421 95.2979 76.2395C91.9219 77.1693 88.3795 76.3384 85.0827 75.4561C84.0446 75.9111 82.4913 77.3552 81.5483 76.0575C80.8746 75.0921 81.9841 74.3839 82.7687 74.0634C85.2729 72.9358 86.8539 70.2256 86.7588 67.5075C86.6915 67.0089 86.6162 66.5144 86.533 66.0198C85.5543 66.3957 84.5835 66.7953 83.5889 67.1237C82.9074 66.9377 82.1981 66.2414 82.5111 65.4896C83.1412 64.0851 83.9891 62.7755 84.9322 61.5648C85.5028 60.8724 86.5607 61.2285 87.0758 61.8101C87.1749 62.6607 87.2264 63.5153 87.2858 64.3699C87.904 64.4451 88.5221 64.5163 89.1482 64.5242C90.7966 63.7369 91.1492 61.8734 90.9511 60.2235ZM89.275 74.0397C89.8456 74.1228 90.4201 74.2019 90.9947 74.2889C92.5202 74.2771 94.331 74.5303 95.5673 73.4304C96.657 72.3107 95.8843 70.7162 95.4286 69.4976C95.1156 69.0347 94.8065 68.5678 94.5014 68.1009C92.1081 69.3947 90.3805 71.5945 89.275 74.0397Z" fill="#433F4D"/>
<path d="M75.4341 73.1653C76.5119 72.8765 77.6808 72.7103 78.7704 73.0228C79.7214 73.4264 79.8522 74.8903 78.9685 75.4363C78.2712 75.6381 77.5341 75.6381 76.8249 75.7489C74.2968 75.9388 72.5098 78.8627 73.3379 81.2168C73.6431 82.0516 74.1938 82.7677 74.5187 83.5986C74.7961 84.8528 72.9972 85.6837 72.1888 84.7262C70.0174 82.4196 69.8074 78.5897 71.5984 76.0021C72.4979 74.649 73.8808 73.6361 75.4341 73.1653Z" fill="#433F4D"/>
<path d="M126.653 13.4416C127.203 12.7057 128.186 12.8323 128.994 12.7334L128.923 12.8244C127.766 14.0114 127.005 15.5386 127.195 17.2359L127.199 17.4377C127.251 18.4585 127.342 19.4793 127.421 20.5C126.942 20.6148 126.458 20.7256 125.983 20.8363C124.83 18.502 124.945 15.4753 126.653 13.4416Z" fill="#FAC965"/>
<path d="M121.541 30.1896C121.426 27.3725 123.233 24.4289 126.038 23.6573C125.702 24.3695 125.373 25.0857 124.996 25.7741C124.659 26.3636 124.283 26.9294 123.934 27.511C122.972 28.9116 122.979 30.6485 123.063 32.2746C122.357 31.7524 121.505 31.1866 121.541 30.1896Z" fill="#FAC965"/>
<path d="M140.973 30.5219C141.195 30.0313 141.421 29.5446 141.647 29.058C142.336 31.1945 143.35 33.2123 144.658 35.0402C144.725 35.1352 144.86 35.333 144.927 35.4319C145.771 36.7455 146.917 37.8177 148.161 38.7514C147.574 38.9928 146.952 39.6061 146.318 39.1392C145.185 38.4191 144.48 37.2282 143.727 36.156C142.538 34.423 141.603 32.5278 140.973 30.5219Z" fill="#FAC965"/>
<path d="M127.195 17.2359C127.005 15.5386 127.766 14.0114 128.923 12.8244C132.002 14.8304 134.217 17.9244 136.016 21.0737C134.795 23.5743 134.019 26.2805 133.801 29.058C130.528 30.8938 126.835 32.1599 123.062 32.2746C122.979 30.6485 122.971 28.9116 123.934 27.511C124.374 28.4052 124.754 29.7148 125.999 29.6633C127.473 29.8097 128.538 28.0451 127.805 26.783C127.326 25.6791 125.967 25.9046 124.996 25.7741C125.373 25.0856 125.701 24.3695 126.038 23.6573C127.381 23.1549 129.715 23.693 130.108 21.9007C130.199 20.3813 128.503 20.2903 127.421 20.5C127.342 19.4793 127.251 18.4585 127.199 17.4377C127.694 18.1657 128.158 19.1865 129.169 19.2537C130.369 19.4397 131.518 18.3121 131.34 17.1093C131.28 15.8907 129.909 15.0282 128.776 15.4515C127.972 15.7245 127.635 16.591 127.195 17.2359Z" fill="#FAE880"/>
<path d="M143.12 23.5387C145.407 21.7029 148.145 20.4407 150.994 19.7563C151.861 19.4951 152.951 19.8671 153.094 20.8641C153.541 23.4477 152.321 26.0709 150.526 27.8909C149.9 27.2816 149.377 26.5021 148.561 26.1421C147.598 25.8256 146.572 26.8463 146.873 27.8117C147.725 29.1965 149.096 30.2806 149.551 31.8988C150.118 34.2648 149.333 36.6981 148.16 38.7515C146.916 37.8178 145.771 36.7456 144.927 35.432C145.625 35.523 146.465 35.9622 147.083 35.4043C148.402 34.5101 148.125 31.6614 146.235 31.8474C144.769 32.1323 144.681 33.8494 144.658 35.0403C143.35 33.2124 142.336 31.1946 141.646 29.058C142.363 27.2855 142.839 25.426 143.12 23.5387ZM148.687 21.5881C147.435 22.3874 147.376 24.781 148.961 25.2281C150.641 25.4062 151.525 23.0956 150.597 21.8691C150.189 21.2518 149.262 21.1569 148.687 21.5881Z" fill="#FAE880"/>
<path d="M127.195 17.2359C127.635 16.591 127.972 15.7245 128.776 15.4515C129.91 15.0282 131.281 15.8907 131.34 17.1093C131.518 18.3121 130.369 19.4397 129.169 19.2537C128.158 19.1865 127.695 18.1657 127.199 17.4377L127.195 17.2359Z" fill="#F26D70"/>
<path d="M148.688 21.5881C149.262 21.1568 150.189 21.2518 150.597 21.869C151.525 23.0955 150.641 25.4061 148.961 25.2281C147.376 24.781 147.435 22.3873 148.688 21.5881Z" fill="#F26D70"/>
<path d="M124.996 25.774C125.967 25.9046 127.326 25.6791 127.806 26.783C128.539 28.0451 127.473 29.8097 125.999 29.6633C124.755 29.7147 124.374 28.4051 123.934 27.511C124.283 26.9294 124.659 26.3636 124.996 25.774Z" fill="#F26D70"/>
<path d="M144.658 35.0402C144.681 33.8493 144.769 32.1322 146.235 31.8473C148.125 31.6614 148.402 34.5101 147.083 35.4042C146.465 35.9621 145.625 35.5229 144.927 35.4319C144.86 35.333 144.725 35.1352 144.658 35.0402Z" fill="#F26D70"/>
<path d="M136.749 31.2855C136.4 27.3408 137.51 23.1034 140.224 20.1439C140.652 23.2537 139.859 26.4071 138.465 29.1766C138.068 30.0075 137.418 30.6722 136.749 31.2855Z" fill="#8C6867"/>
<path d="M68.397 54.0948C70.3108 51.9543 72.7636 50.4152 75.1846 48.9117C75.8701 49.7664 76.9122 50.8425 76.1356 51.986C74.5665 54.6645 71.0161 54.0513 68.397 54.0948Z" fill="#8C6867"/>
<path d="M62.2156 62.6923C63.543 60.3263 64.7991 57.897 66.5861 55.8317C69.978 55.7803 73.5362 55.4558 76.7458 56.7931C78.0375 57.3233 79.3174 58.3836 79.4165 59.8753C79.4561 62.0316 77.3758 63.7724 75.2955 63.7645C72.7636 63.8001 70.295 63.1473 67.7867 62.9178C65.9363 62.7121 64.074 62.6725 62.2156 62.6923Z" fill="#8C6867"/>
<path d="M63.2814 64.5203C64.7713 64.9515 66.8119 65.5292 66.9586 67.3848C67.0418 69.4263 64.8228 70.6964 62.9724 70.3838C62.5603 70.3245 62.1482 70.2691 61.7361 70.2097C62.0333 70.2018 62.6316 70.186 62.9288 70.1741C62.9961 68.2869 63.1031 66.3996 63.2814 64.5203Z" fill="#8C6867"/>
<path d="M71.563 36.7218C78.1842 36.5596 84.8213 38.5576 90.3211 42.2253C88.855 42.2807 87.3929 42.3836 85.9347 42.4983C81.6949 40.2352 77.0034 38.7238 72.193 38.4033L72.1257 38.3954C71.9355 37.8375 71.7453 37.2797 71.563 36.7218Z" fill="#F9BFBE"/>
<path d="M90.9946 74.2889C91.9337 72.2592 93.4434 70.5579 95.4286 69.4976C95.8843 70.7162 96.6569 72.3106 95.5673 73.4303C94.331 74.5302 92.5202 74.277 90.9946 74.2889Z" fill="#F9BFBE"/>
<path d="M72.1929 38.4033C77.0033 38.7238 81.6948 40.2352 85.9346 42.4983C82.7924 43.0206 79.7056 43.8435 76.7734 45.0898C75.0736 42.9889 73.3935 40.8366 72.1929 38.4033Z" fill="#F48789"/>
<path d="M124.029 47.5626C125.551 46.6052 126.244 49.5488 125.19 50.4192C123.807 50.3995 123.629 48.5636 124.029 47.5626Z" fill="#F48789"/>
<path d="M126.454 47.6418C126.787 46.8347 127.58 47.8515 127.766 48.2551C128.051 48.9673 127.952 49.7784 127.588 50.443C126.173 50.7833 125.638 48.5044 126.454 47.6418Z" fill="#F48789"/>
<path d="M122.119 48.4767C122.528 47.7764 123.169 48.7378 123.36 49.1176C123.712 49.9168 123.601 50.9258 122.896 51.5034C121.735 51.1117 121.24 49.3432 122.119 48.4767Z" fill="#F48789"/>
<path d="M124.176 51.4084C125.182 51.1472 126.431 50.7199 127.358 51.4005C128.483 52.9633 128.024 55.8951 125.967 56.4371C124.018 56.6982 122.761 54.4905 122.904 52.7773C122.896 52.0533 123.55 51.5983 124.176 51.4084Z" fill="#F48789"/>
<path d="M138.195 57.3511C138.666 56.8446 139.114 56.3184 139.578 55.8041C140.204 56.5321 140.624 57.4302 140.307 58.4035C140.081 58.4114 139.637 58.4273 139.415 58.4352L138.983 57.6241C138.686 58.2294 138.449 58.8546 138.143 59.4559C136.883 59.0682 137.105 57.5964 137.418 56.6231L138.195 57.3511Z" fill="#F48789"/>
<path d="M139.578 59.2502C140.358 59.1117 141.527 58.7715 141.987 59.6617C142.605 60.9713 142.252 63.0801 140.675 63.5074C138.385 63.9861 136.852 59.5707 139.578 59.2502Z" fill="#F48789"/>
<path d="M89.2749 74.0397C90.3804 71.5946 92.108 69.3947 94.5013 68.101C94.8064 68.5678 95.1155 69.0347 95.4285 69.4976C93.4434 70.5579 91.9337 72.2592 90.9946 74.2889C90.42 74.2019 89.8455 74.1228 89.2749 74.0397Z" fill="#F48789"/>
<path d="M45.1731 79.1198C49.0523 78.4709 52.9632 79.2346 56.783 79.9072C57.4249 85.0942 59.2318 90.1031 61.9857 94.5423C57.2149 92.3623 52.9553 89.1298 49.4921 85.201C47.8596 83.3216 46.2667 81.3711 45.1731 79.1198Z" fill="#F48789"/>
<path d="M70.1206 48.8564C69.3558 45.6754 68.6664 42.3282 69.3241 39.068C70.7149 41.6318 72.3356 44.069 74.194 46.3242C72.8031 47.1156 71.448 47.9662 70.1206 48.8564Z" fill="#FFB07A"/>
<path d="M75.1846 48.9119C81.3343 45.6992 88.4904 44.2194 95.3811 45.438C93.7684 48.3698 94.5688 51.8792 93.2731 54.8822C91.8941 57.7111 88.3993 57.8496 85.8237 58.9179C81.6077 60.4609 79.254 65.0544 79.2382 69.3591C79.1034 72.6272 81.1243 75.8518 79.8206 79.0803C78.3387 82.8983 74.5467 84.9636 71.769 87.7292L71.7096 87.7886C69.6927 86.1783 67.8185 84.3504 66.5109 82.107C64.3038 78.5897 63.3805 74.463 62.9724 70.3839C64.8229 70.6964 67.0418 69.4264 66.9586 67.3848C66.812 65.5292 64.7714 64.9516 63.2815 64.5203C63.3607 63.9941 63.44 63.4679 63.5232 62.9456C64.9417 62.8784 66.3642 62.819 67.7868 62.9179C70.295 63.1474 72.7636 63.8002 75.2956 63.7646C77.3758 63.7725 79.4561 62.0317 79.4165 59.8754C79.3174 58.3838 78.0376 57.3234 76.7458 56.7932C73.5362 55.4559 69.978 55.7804 66.5861 55.8318C67.1448 55.2541 67.7115 54.6725 68.2741 54.0909L68.397 54.0949C71.0161 54.0514 74.5665 54.6646 76.1356 51.9861C76.9122 50.8426 75.8701 49.7665 75.1846 48.9119ZM90.0041 47.6576C86.1328 48.536 84.2744 53.4262 86.3467 56.7339C86.8936 57.8219 88.6965 57.5212 88.9184 56.3303C88.6331 54.811 87.7178 53.082 88.8193 51.6695C89.5484 50.3837 91.3315 50.5419 92.2349 49.5132C92.9244 48.1047 91.2285 46.989 90.0041 47.6576ZM75.4342 73.1653C73.881 73.6361 72.4981 74.649 71.5986 76.0021C69.8076 78.5897 70.0176 82.4196 72.189 84.7262C72.9973 85.6837 74.7963 84.8528 74.5189 83.5986C74.194 82.7678 73.6432 82.0516 73.3381 81.2168C72.51 78.8627 74.297 75.9388 76.825 75.7489C77.5343 75.6381 78.2713 75.6381 78.9687 75.4363C79.8523 74.8903 79.7216 73.4264 78.7706 73.0229C77.6809 72.7103 76.512 72.8765 75.4342 73.1653Z" fill="#FFB07A"/>
<path d="M114.341 69.7152L114.424 69.8497C117.927 75.9111 117.59 83.4562 115.229 89.8618C113.042 96.3821 108.267 101.708 106.46 108.386C105.291 112.097 105.545 116.141 106.999 119.733C102.474 115.251 100.195 108.754 100.437 102.436C100.687 96.303 103.021 90.4315 106.246 85.2683C109.353 80.3108 112.13 75.1356 114.341 69.7152Z" fill="#FFB07A"/>
<path d="M119.045 46.5814C119.488 45.1373 120.4 43.5705 122.012 43.2658C123.336 42.9097 124.647 43.4518 125.785 44.0927C124.477 44.5754 122.892 44.8326 122.06 46.075C121.002 47.6615 120.709 49.5883 120.233 51.3965C118.751 57.6794 116.833 63.8595 114.424 69.8497L114.341 69.7151C113.763 68.7972 113.121 67.9228 112.479 67.0524C115.027 60.3501 116.984 53.442 119.045 46.5814Z" fill="#D7D6DA"/>
<path d="M136.293 53.5449C137.284 52.532 138.789 52.896 139.994 53.2402C138.789 53.9445 137.327 54.5973 136.887 56.0494C135.584 59.8753 135.073 63.9426 133.488 67.6855C133.618 64.544 133.226 61.2759 134.355 58.2729C134.918 56.6745 135.096 54.8308 136.293 53.5449Z" fill="#D7D6DA"/>
<path d="M71.7094 87.7885L71.7689 87.7291C75.9096 90.8231 81.3262 91.9072 86.3942 91.108C89.2273 90.7677 91.8187 89.5096 94.5528 88.7657C90.9906 93.3751 87.2659 97.8697 84.088 102.756C77.8314 104.022 71.436 101.241 67.2002 96.6827C67.8857 93.3869 69.2329 90.1426 71.7094 87.7885Z" fill="#D7D6DA"/>
<path d="M111.1 127.84C112.106 128.382 113.105 128.944 114.111 129.494C119.552 132.509 126.058 133.743 132.188 132.501C135.144 131.931 137.874 130.578 140.477 129.114C137.26 134.155 132.81 138.38 127.79 141.605C122.615 144.968 116.505 146.333 111.025 149.067C114.698 142.566 113.973 134.491 111.1 127.84Z" fill="#D7D6DA"/>
<path d="M107.53 155.132C109.971 152.719 113.014 150.954 116.267 149.866C114.789 151.457 113.398 153.352 113.291 155.599C112.99 158.42 114.032 161.111 115.074 163.67C115.645 165.13 115.621 166.721 115.494 168.26C110.914 165.451 108.865 160.078 107.53 155.132Z" fill="#D7D6DA"/>
<path d="M88.094 162.104C87.04 158.614 86.2079 154.848 87.0677 151.227C89.3699 153.202 91.9693 154.915 94.9371 155.682C93.4988 156.798 93.0708 158.61 93.261 160.355C93.3363 162.927 94.2516 165.352 94.9609 167.793C95.3651 169.392 95.4839 171.049 95.3373 172.691C91.4938 170.432 89.4809 166.163 88.094 162.104Z" fill="#D7D6DA"/>
<path d="M122.06 46.075C122.892 44.8326 124.477 44.5755 125.785 44.0928C127.81 45.9444 128.864 48.5636 129.525 51.167C130.599 55.4203 130.975 59.8437 130.797 64.2275C130.575 68.7379 130.179 73.6638 132.683 77.6757C135.77 82.3365 139.633 86.4591 142.463 91.298C144.384 94.5423 145.819 98.1071 146.401 101.846C147.297 107.417 147.301 113.237 145.593 118.661C144.416 122.365 142.78 125.977 140.477 129.114C137.874 130.578 135.144 131.931 132.188 132.501C126.058 133.743 119.552 132.509 114.111 129.494C113.105 128.944 112.106 128.382 111.1 127.84C109.82 125.095 108.37 122.432 106.999 119.733C105.545 116.141 105.291 112.097 106.46 108.386C108.267 101.708 113.042 96.3821 115.229 89.8617C117.59 83.4561 117.927 75.9111 114.424 69.8497C116.834 63.8595 118.751 57.6794 120.233 51.3965C120.709 49.5884 121.002 47.6615 122.06 46.075ZM124.029 47.5626C123.629 48.5636 123.807 50.3995 125.19 50.4192C126.244 49.5488 125.551 46.6052 124.029 47.5626ZM126.454 47.6418C125.638 48.5043 126.173 50.7832 127.588 50.443C127.952 49.7783 128.051 48.9672 127.766 48.255C127.58 47.8515 126.787 46.8346 126.454 47.6418ZM122.119 48.4766C121.24 49.3431 121.735 51.1116 122.896 51.5033C123.601 50.9257 123.712 49.9168 123.36 49.1175C123.17 48.7377 122.528 47.7763 122.119 48.4766ZM124.176 51.4084C123.55 51.5983 122.896 52.0533 122.904 52.7773C122.761 54.4905 124.017 56.6982 125.967 56.4371C128.023 55.8951 128.483 52.9633 127.358 51.4005C126.431 50.7199 125.182 51.1472 124.176 51.4084Z" fill="white"/>
<path d="M95.3811 45.438C101.598 46.5537 107.621 50.4153 109.971 56.4648C110.763 58.7794 111.897 61.4223 110.751 63.8041C107.28 73.2127 100.806 81.0743 94.553 88.7658C91.8189 89.5096 89.2275 90.7678 86.3943 91.108C81.3264 91.9073 75.9098 90.8232 71.769 87.7292C74.5467 84.9636 78.3387 82.8983 79.8207 79.0802C81.1243 75.8517 79.1035 72.6272 79.2382 69.3591C79.2541 65.0544 81.6077 60.4609 85.8238 58.9178C88.3993 57.8496 91.8942 57.7111 93.2731 54.8822C94.5688 51.8792 93.7684 48.3698 95.3811 45.438ZM90.9511 60.2235C91.1493 61.8734 90.7966 63.7369 89.1482 64.5242C88.5697 63.539 87.8882 62.6172 87.0759 61.8101C86.5608 61.2284 85.5028 60.8724 84.9322 61.5647C83.9892 62.7754 83.1412 64.085 82.5112 65.4896C82.1981 66.2413 82.9074 66.9377 83.5889 67.1236C84.6271 67.3729 85.689 67.4916 86.7589 67.5074C86.854 70.2256 85.273 72.9358 82.7687 74.0634C81.9842 74.3839 80.8747 75.0921 81.5483 76.0575C82.4914 77.3552 84.0446 75.9111 85.0828 75.4561C88.3795 76.3384 91.9219 77.1692 95.2979 76.2395C97.5208 75.642 98.9116 73.1811 98.3846 70.9654C97.6952 67.7804 95.393 65.272 93.178 63.0128C93.2454 61.8654 93.4554 60.6547 93.0433 59.5509C92.5519 58.4826 90.6896 59.0326 90.9511 60.2235Z" fill="white"/>
<path d="M136.888 56.0494C137.327 54.5973 138.79 53.9445 139.994 53.2402C142.887 55.2699 143.739 58.9574 144.218 62.2492C145.197 69.8457 142.479 77.189 141.29 84.5956C139.364 82.012 137.331 79.5075 135.469 76.8804C133.595 74.2454 133.143 70.8269 133.488 67.6855C135.073 63.9426 135.584 59.8753 136.888 56.0494ZM138.195 57.3511L137.419 56.6231C137.106 57.5964 136.884 59.0682 138.144 59.4559C138.449 58.8545 138.687 58.2294 138.984 57.6241L139.416 58.4351C139.638 58.4272 140.081 58.4114 140.307 58.4035C140.624 57.4302 140.204 56.5321 139.578 55.8041C139.114 56.3184 138.667 56.8446 138.195 57.3511ZM141.856 58.9732C142.241 57.9841 142.566 56.6151 141.417 55.9861C140.081 56.6666 140.886 58.3521 141.856 58.9732ZM139.578 59.2502C136.852 59.5707 138.385 63.9861 140.676 63.5074C142.253 63.0801 142.605 60.9713 141.987 59.6617C141.528 58.7714 140.359 59.1117 139.578 59.2502Z" fill="white"/>
<path d="M116.267 149.866C118.561 148.79 121.038 148.141 123.344 147.073C122.857 151.888 123.035 156.743 123.487 161.55C123.633 162.78 123.542 164.023 123.221 165.218C122.825 164.13 122.734 162.848 121.921 161.961C120.951 161.146 119.274 162.266 119.809 163.469C120.344 165.012 120.677 166.638 120.336 168.268C119.643 168.47 118.946 168.656 118.256 168.846C118.351 166.939 118.573 164.869 117.678 163.109C116.881 162.131 115.625 162.812 115.074 163.671C114.032 161.111 112.99 158.42 113.291 155.599C113.398 153.352 114.789 151.457 116.267 149.866Z" fill="white"/>
<path d="M94.9374 155.682C98.0162 156.391 101.281 156.201 104.237 155.081C102.93 158.8 103.12 162.816 103.369 166.693C103.461 167.682 103.286 168.668 103.052 169.629C102.577 168.486 102.605 166.863 101.396 166.211C100.453 165.815 99.2248 166.8 99.617 167.805C100.033 169.384 100.782 171.133 99.9974 172.719C99.3753 172.972 98.7136 173.111 98.0717 173.297C98.1866 171.374 98.4283 169.245 97.4575 167.496C96.7403 166.654 95.6507 167.275 94.9612 167.793C94.2519 165.352 93.3366 162.927 93.2613 160.355C93.0711 158.61 93.4991 156.798 94.9374 155.682Z" fill="white"/>
<path d="M141.856 58.9733C140.886 58.3521 140.081 56.6666 141.417 55.9861C142.566 56.6152 142.241 57.9841 141.856 58.9733Z" fill="#F48B8D"/>
<path d="M87.0757 61.8101C87.888 62.6172 88.5695 63.5391 89.148 64.5242C88.522 64.5163 87.9038 64.4451 87.2857 64.3699C87.2263 63.5153 87.1747 62.6607 87.0757 61.8101Z" fill="#CBCACF"/>
<path d="M62.2154 62.6923C64.0737 62.6725 65.9361 62.7121 67.7865 62.9178C66.364 62.8189 64.9415 62.8782 63.5229 62.9455C63.4397 63.4678 63.3605 63.994 63.2812 64.5202C62.6829 64.3936 62.0846 64.263 61.4902 64.1285C61.7319 63.6458 61.9736 63.1671 62.2154 62.6923Z" fill="#F09866"/>
<path d="M107.181 76.7063C109.218 73.6439 111.013 70.4233 112.479 67.0524C113.121 67.9228 113.763 68.7972 114.341 69.7151C112.13 75.1355 109.352 80.3107 106.246 85.2682C103.02 90.4314 100.687 96.3029 100.437 102.435C100.195 108.754 102.474 115.251 106.999 119.733C108.37 122.432 109.82 125.094 111.1 127.84C113.973 134.491 114.698 142.566 111.025 149.067C108.477 150.693 105.762 152.359 104.237 155.081C101.281 156.201 98.016 156.39 94.9372 155.682C91.9693 154.915 89.3699 153.202 87.0678 151.227C87.2421 150.523 87.6225 149.676 86.9766 149.091C85.4788 147.207 84.0563 145.273 82.8676 143.18C84.2465 142.65 85.7602 142.111 86.6121 140.826C88.1495 138.824 87.8603 135.583 85.7522 134.088C83.8622 132.711 81.3975 133.039 79.2024 133.059C78.9488 131.484 78.6476 129.91 78.6674 128.311L78.9369 128.224L79.2341 128.272C82.091 129.64 85.4789 131.247 88.6211 129.815C91.6761 128.56 93.1897 124.517 91.4463 121.648C90.1743 119.54 87.7018 118.701 85.4392 118.139C83.672 117.684 81.98 117.007 80.3158 116.271C80.6843 115.266 81.0687 114.265 81.4689 113.276C83.3431 113.795 85.467 114.408 87.3055 113.435C89.5403 112.422 90.8043 109.664 89.9524 107.338C89.4175 105.755 87.8801 104.9 86.5606 104.05C92.8846 94.5264 100.873 86.2415 107.181 76.7063Z" fill="#F09866"/>
<path d="M59.9292 70.0079C60.5275 70.0712 61.1298 70.1425 61.736 70.2097C62.1481 70.2691 62.5602 70.3245 62.9723 70.3838C63.3804 74.463 64.3037 78.5896 66.5108 82.107C67.8184 84.3503 69.6926 86.1782 71.7095 87.7885C69.2329 90.1426 67.8857 93.387 67.2002 96.6828C62.9327 92.018 60.3214 85.9527 59.5765 79.6974C59.4022 78.914 59.5171 77.7034 58.4987 77.4857C54.3303 76.4847 50.0152 75.9585 45.7239 76.1405C49.3059 73.1217 54.0251 71.8398 58.5701 71.1197C59.2318 71.0881 59.5488 70.4471 59.9292 70.0079Z" fill="#F09866"/>
<path d="M37.9099 131.951C39.3126 130.578 40.8936 129.344 42.7797 128.719C45.1928 132.279 47.7803 135.805 51.1959 138.483C56.4541 142.847 63.3051 145.146 70.1284 145.039C73.4687 145.047 76.7853 144.501 80.0265 143.718C81.0449 145.601 82.186 147.421 83.4659 149.142C75.0616 151.884 65.6627 152.656 57.2743 149.439C48.8779 146.317 42.328 139.575 37.9099 131.951Z" fill="#F09866"/>
<path d="M61.423 64.1127L61.4904 64.1285C62.0848 64.263 62.6831 64.3936 63.2814 64.5202C63.1031 66.3995 62.9961 68.2868 62.9287 70.1741C62.6316 70.1859 62.0332 70.2018 61.7361 70.2097C61.1298 70.1424 60.5275 70.0712 59.9292 70.0079C60.1313 67.9742 60.8643 66.0593 61.423 64.1127Z" fill="#785352"/>
<path d="M86.5013 104.014L86.5607 104.05C87.8802 104.9 89.4176 105.755 89.9525 107.338C90.8045 109.664 89.5405 112.422 87.3056 113.435C85.4671 114.408 83.3432 113.795 81.469 113.276C82.844 110.032 84.6865 107.021 86.5013 104.014Z" fill="#785352"/>
<path d="M33.064 117.858C33.7415 116.497 35.596 115.899 36.9154 116.695C38.223 117.415 38.4806 119.001 38.9561 120.283C39.8635 123.247 41.4049 125.957 42.7798 128.719C40.8937 129.344 39.3127 130.578 37.91 131.951C35.9843 128.568 34.3478 125.015 33.1194 121.32C32.7787 120.212 32.4181 118.934 33.064 117.858Z" fill="#785352"/>
<path d="M78.8776 127.856C78.097 123.975 79.1748 119.979 80.3159 116.271C81.9801 117.007 83.6721 117.684 85.4394 118.139C87.7019 118.701 90.1744 119.54 91.4464 121.648C93.1898 124.517 91.6762 128.56 88.6212 129.815C85.479 131.247 82.0911 129.641 79.2342 128.272C79.147 128.165 78.9687 127.959 78.8776 127.856Z" fill="#785352"/>
<path d="M79.2024 133.059C81.3976 133.039 83.8622 132.711 85.7523 134.088C87.8603 135.583 88.1496 138.824 86.6121 140.826C85.7602 142.111 84.2466 142.65 82.8676 143.18C81.1757 139.999 79.9275 136.588 79.2024 133.059Z" fill="#785352"/>
<path d="M83.5889 67.1236C84.5834 66.7952 85.5542 66.3956 86.5329 66.0198C86.6162 66.5143 86.6914 67.0089 86.7588 67.5074C85.689 67.4916 84.627 67.3729 83.5889 67.1236Z" fill="#C9C8CD"/>
</svg>
