<svg width="100%" height="100%" style="max-width: 332px; max-height: 141px;" viewBox="0 0 324 141" fill="none" xmlns="http://www.w3.org/2000/svg">
<path d="M0.068 13.16V4.4H1.244V5.636H1.256C1.336 5.212 1.532 4.88 1.844 4.64C2.164 4.4 2.568 4.28 3.056 4.28C3.712 4.28 4.24 4.504 4.64 4.952C5.04 5.392 5.24 5.992 5.24 6.752V8.636C5.24 9.404 5.04 10.012 4.64 10.46C4.248 10.9 3.72 11.12 3.056 11.12C2.576 11.12 2.176 11 1.856 10.76C1.536 10.512 1.336 10.176 1.256 9.752H1.232L1.256 11.252V13.16H0.068ZM2.648 10.088C3.088 10.088 3.432 9.96 3.68 9.704C3.928 9.44 4.052 9.064 4.052 8.576V6.812C4.052 6.332 3.928 5.964 3.68 5.708C3.432 5.444 3.088 5.312 2.648 5.312C2.216 5.312 1.876 5.444 1.628 5.708C1.38 5.972 1.256 6.344 1.256 6.824V8.576C1.256 9.056 1.38 9.428 1.628 9.692C1.876 9.956 2.216 10.088 2.648 10.088ZM9.54331 11.12C8.76731 11.12 8.14731 10.892 7.68331 10.436C7.21931 9.98 6.98731 9.36 6.98731 8.576V4.4H8.17531V8.576C8.17531 9.056 8.29531 9.428 8.53531 9.692C8.78331 9.948 9.11931 10.076 9.54331 10.076C9.97531 10.076 10.3153 9.948 10.5633 9.692C10.8113 9.428 10.9353 9.056 10.9353 8.576V4.4H12.1233V8.576C12.1233 9.36 11.8873 9.98 11.4153 10.436C10.9513 10.892 10.3273 11.12 9.54331 11.12ZM16.9426 11.12C16.4466 11.12 16.0386 11 15.7186 10.76C15.3986 10.512 15.2106 10.172 15.1546 9.74H15.1426V11H13.9666V2.24H15.1546V4.136L15.1306 5.66H15.1546C15.2186 5.236 15.4106 4.9 15.7306 4.652C16.0506 4.404 16.4546 4.28 16.9426 4.28C17.6066 4.28 18.1386 4.504 18.5386 4.952C18.9386 5.392 19.1386 5.992 19.1386 6.752V8.648C19.1386 9.416 18.9346 10.02 18.5266 10.46C18.1266 10.9 17.5986 11.12 16.9426 11.12ZM16.5346 10.088C16.9746 10.088 17.3186 9.96 17.5666 9.704C17.8226 9.44 17.9506 9.064 17.9506 8.576V6.812C17.9506 6.332 17.8226 5.964 17.5666 5.708C17.3186 5.444 16.9746 5.312 16.5346 5.312C16.1106 5.312 15.7746 5.444 15.5266 5.708C15.2786 5.972 15.1546 6.34 15.1546 6.812V8.576C15.1546 9.056 15.2786 9.428 15.5266 9.692C15.7746 9.956 16.1106 10.088 16.5346 10.088ZM29.4133 11V6.152H27.5173V5.072H29.4133V3.968C29.4133 3.44 29.5853 3.02 29.9293 2.708C30.2733 2.396 30.7413 2.24 31.3333 2.24H33.2653V3.308H31.3333C30.8453 3.308 30.6013 3.532 30.6013 3.98V5.072H33.2653V6.152H30.6013V11H29.4133ZM34.8326 11V4.4H36.0086V5.66H36.0326C36.0886 5.22 36.2686 4.88 36.5726 4.64C36.8766 4.4 37.2806 4.28 37.7846 4.28C38.4406 4.28 38.9646 4.488 39.3566 4.904C39.7486 5.32 39.9446 5.88 39.9446 6.584V11H38.7566V6.716C38.7566 6.268 38.6366 5.924 38.3966 5.684C38.1566 5.436 37.8286 5.312 37.4126 5.312C36.9806 5.312 36.6406 5.444 36.3926 5.708C36.1446 5.964 36.0206 6.332 36.0206 6.812V11H34.8326Z" fill="#B973A9"/>
<path d="M51.3352 11.12C50.5272 11.12 49.8792 10.896 49.3912 10.448C48.9032 9.992 48.6592 9.368 48.6592 8.576V6.812C48.6592 6.028 48.9032 5.412 49.3912 4.964C49.8792 4.508 50.5272 4.28 51.3352 4.28C52.1112 4.28 52.7352 4.488 53.2072 4.904C53.6792 5.312 53.9272 5.872 53.9512 6.584H52.7752C52.7512 6.184 52.6112 5.876 52.3552 5.66C52.0992 5.436 51.7592 5.324 51.3352 5.324C50.8792 5.324 50.5152 5.456 50.2432 5.72C49.9792 5.976 49.8472 6.34 49.8472 6.812V8.576C49.8472 9.056 49.9792 9.424 50.2432 9.68C50.5152 9.936 50.8792 10.064 51.3352 10.064C51.7592 10.064 52.0992 9.956 52.3552 9.74C52.6112 9.524 52.7512 9.216 52.7752 8.816H53.9512C53.9272 9.528 53.6792 10.092 53.2072 10.508C52.7352 10.916 52.1112 11.12 51.3352 11.12ZM55.6985 11V2.24H56.8865V4.4L56.8745 5.66H56.8985C56.9545 5.22 57.1345 4.88 57.4385 4.64C57.7425 4.4 58.1465 4.28 58.6505 4.28C59.3065 4.28 59.8305 4.488 60.2225 4.904C60.6145 5.32 60.8105 5.88 60.8105 6.584V11H59.6225V6.716C59.6225 6.268 59.5025 5.92 59.2625 5.672C59.0225 5.416 58.6945 5.288 58.2785 5.288C57.8465 5.288 57.5065 5.424 57.2585 5.696C57.0105 5.96 56.8865 6.332 56.8865 6.812V11H55.6985ZM64.5858 11.12C63.8898 11.12 63.3418 10.944 62.9418 10.592C62.5498 10.232 62.3538 9.748 62.3538 9.14C62.3538 8.516 62.5578 8.028 62.9658 7.676C63.3818 7.316 63.9458 7.136 64.6578 7.136H66.5778V6.512C66.5778 6.128 66.4578 5.832 66.2178 5.624C65.9858 5.408 65.6618 5.3 65.2458 5.3C64.8698 5.3 64.5538 5.384 64.2978 5.552C64.0498 5.712 63.8978 5.924 63.8418 6.188H62.6778C62.7098 5.804 62.8418 5.472 63.0738 5.192C63.3058 4.904 63.6098 4.68 63.9858 4.52C64.3618 4.36 64.7858 4.28 65.2578 4.28C66.0258 4.28 66.6338 4.48 67.0818 4.88C67.5378 5.272 67.7658 5.804 67.7658 6.476V11H66.6018V9.776H66.5898C66.5338 10.192 66.3258 10.52 65.9658 10.76C65.6058 11 65.1458 11.12 64.5858 11.12ZM64.9098 10.196C65.3898 10.196 65.7858 10.076 66.0978 9.836C66.4178 9.588 66.5778 9.272 66.5778 8.888V7.988H64.6818C64.3298 7.988 64.0498 8.084 63.8418 8.276C63.6418 8.468 63.5418 8.728 63.5418 9.056C63.5418 9.416 63.6618 9.696 63.9018 9.896C64.1418 10.096 64.4778 10.196 64.9098 10.196ZM72.2011 11.12C71.3931 11.12 70.7451 10.896 70.2571 10.448C69.7691 9.992 69.5251 9.368 69.5251 8.576V6.812C69.5251 6.028 69.7691 5.412 70.2571 4.964C70.7451 4.508 71.3931 4.28 72.2011 4.28C72.9771 4.28 73.6011 4.488 74.0731 4.904C74.5451 5.312 74.7931 5.872 74.8171 6.584H73.6411C73.6171 6.184 73.4771 5.876 73.2211 5.66C72.9651 5.436 72.6251 5.324 72.2011 5.324C71.7451 5.324 71.3811 5.456 71.1091 5.72C70.8451 5.976 70.7131 6.34 70.7131 6.812V8.576C70.7131 9.056 70.8451 9.424 71.1091 9.68C71.3811 9.936 71.7451 10.064 72.2011 10.064C72.6251 10.064 72.9651 9.956 73.2211 9.74C73.4771 9.524 73.6171 9.216 73.6411 8.816H74.8171C74.7931 9.528 74.5451 10.092 74.0731 10.508C73.6011 10.916 72.9771 11.12 72.2011 11.12ZM76.5644 11V2.24H77.7524V4.4L77.7404 5.66H77.7644C77.8204 5.22 78.0004 4.88 78.3044 4.64C78.6084 4.4 79.0124 4.28 79.5164 4.28C80.1724 4.28 80.6964 4.488 81.0884 4.904C81.4804 5.32 81.6764 5.88 81.6764 6.584V11H80.4884V6.716C80.4884 6.268 80.3684 5.92 80.1284 5.672C79.8884 5.416 79.5604 5.288 79.1444 5.288C78.7124 5.288 78.3724 5.424 78.1244 5.696C77.8764 5.96 77.7524 6.332 77.7524 6.812V11H76.5644ZM85.4518 11.12C84.7558 11.12 84.2078 10.944 83.8078 10.592C83.4158 10.232 83.2198 9.748 83.2198 9.14C83.2198 8.516 83.4238 8.028 83.8318 7.676C84.2478 7.316 84.8118 7.136 85.5238 7.136H87.4438V6.512C87.4438 6.128 87.3238 5.832 87.0838 5.624C86.8518 5.408 86.5278 5.3 86.1118 5.3C85.7358 5.3 85.4198 5.384 85.1638 5.552C84.9158 5.712 84.7638 5.924 84.7078 6.188H83.5438C83.5758 5.804 83.7078 5.472 83.9398 5.192C84.1718 4.904 84.4758 4.68 84.8518 4.52C85.2278 4.36 85.6518 4.28 86.1238 4.28C86.8918 4.28 87.4998 4.48 87.9478 4.88C88.4038 5.272 88.6318 5.804 88.6318 6.476V11H87.4678V9.776H87.4558C87.3998 10.192 87.1918 10.52 86.8318 10.76C86.4718 11 86.0118 11.12 85.4518 11.12ZM85.7758 10.196C86.2558 10.196 86.6518 10.076 86.9638 9.836C87.2838 9.588 87.4438 9.272 87.4438 8.888V7.988H85.5478C85.1958 7.988 84.9158 8.084 84.7078 8.276C84.5078 8.468 84.4078 8.728 84.4078 9.056C84.4078 9.416 84.5278 9.696 84.7678 9.896C85.0078 10.096 85.3438 10.196 85.7758 10.196ZM90.5111 11V2.24H91.6991V7.088H92.9231L94.7591 4.4H96.1031L93.9431 7.556L96.1391 11H94.7711L92.9231 8.108H91.6991V11H90.5111ZM99.9744 11.096C99.1664 11.096 98.5264 10.872 98.0544 10.424C97.5824 9.968 97.3464 9.348 97.3464 8.564V6.836C97.3464 6.052 97.5824 5.436 98.0544 4.988C98.5264 4.532 99.1664 4.304 99.9744 4.304C100.782 4.304 101.422 4.532 101.894 4.988C102.366 5.436 102.602 6.048 102.602 6.824V8.564C102.602 9.348 102.366 9.968 101.894 10.424C101.422 10.872 100.782 11.096 99.9744 11.096ZM99.9744 10.052C100.422 10.052 100.774 9.928 101.03 9.68C101.286 9.424 101.414 9.052 101.414 8.564V6.836C101.414 6.348 101.286 5.98 101.03 5.732C100.774 5.476 100.422 5.348 99.9744 5.348C99.5264 5.348 99.1744 5.476 98.9184 5.732C98.6624 5.98 98.5344 6.348 98.5344 6.836V8.564C98.5344 9.052 98.6624 9.424 98.9184 9.68C99.1744 9.928 99.5264 10.052 99.9744 10.052ZM62.6538 27V20.4H63.8298V21.66H63.8538C63.9098 21.22 64.0898 20.88 64.3938 20.64C64.6978 20.4 65.1018 20.28 65.6058 20.28C66.2618 20.28 66.7858 20.488 67.1778 20.904C67.5698 21.32 67.7658 21.88 67.7658 22.584V27H66.5778V22.716C66.5778 22.268 66.4578 21.924 66.2178 21.684C65.9778 21.436 65.6498 21.312 65.2338 21.312C64.8018 21.312 64.4618 21.444 64.2138 21.708C63.9658 21.964 63.8418 22.332 63.8418 22.812V27H62.6538ZM72.1531 27.12C71.6251 27.12 71.1611 27.016 70.7611 26.808C70.3691 26.592 70.0651 26.296 69.8491 25.92C69.6331 25.536 69.5251 25.088 69.5251 24.576V22.812C69.5251 22.308 69.6331 21.868 69.8491 21.492C70.0651 21.108 70.3691 20.812 70.7611 20.604C71.1611 20.388 71.6251 20.28 72.1531 20.28C72.6811 20.28 73.1411 20.388 73.5331 20.604C73.9331 20.812 74.2411 21.108 74.4571 21.492C74.6731 21.868 74.7811 22.308 74.7811 22.812V23.988H70.6891V24.576C70.6891 25.088 70.8131 25.476 71.0611 25.74C71.3171 26.004 71.6811 26.136 72.1531 26.136C72.5531 26.136 72.8731 26.068 73.1131 25.932C73.3531 25.788 73.5051 25.576 73.5691 25.296H74.7451C74.6651 25.856 74.3851 26.3 73.9051 26.628C73.4331 26.956 72.8491 27.12 72.1531 27.12ZM70.6891 22.812V23.136H73.6291V22.812C73.6291 22.308 73.5011 21.924 73.2451 21.66C72.9971 21.388 72.6331 21.252 72.1531 21.252C71.6731 21.252 71.3091 21.388 71.0611 21.66C70.8131 21.924 70.6891 22.308 70.6891 22.812ZM76.9244 27L75.8804 20.4H76.8884L77.5244 24.912C77.5484 25.104 77.5684 25.316 77.5844 25.548C77.6084 25.772 77.6284 25.956 77.6444 26.1H77.6924C77.7084 25.948 77.7284 25.76 77.7524 25.536C77.7844 25.312 77.8164 25.104 77.8484 24.912L78.5444 20.4H79.6724L80.3684 24.912C80.4004 25.112 80.4284 25.324 80.4524 25.548C80.4844 25.764 80.5084 25.948 80.5244 26.1H80.5724C80.5964 25.956 80.6204 25.772 80.6444 25.548C80.6684 25.316 80.6924 25.104 80.7164 24.912L81.3764 20.4H82.3364L81.2444 27H79.9724L79.2884 22.56C79.2564 22.344 79.2244 22.12 79.1924 21.888C79.1604 21.648 79.1364 21.456 79.1204 21.312H79.0724C79.0564 21.456 79.0324 21.648 79.0004 21.888C78.9764 22.12 78.9484 22.344 78.9164 22.56L78.2084 27H76.9244ZM48.6832 43V41.92H50.9992V37.48H48.9232V36.4H52.1872V41.92H54.3592V43H48.6832ZM51.4792 35.236C51.2072 35.236 50.9912 35.168 50.8312 35.032C50.6712 34.888 50.5912 34.696 50.5912 34.456C50.5912 34.208 50.6712 34.012 50.8312 33.868C50.9912 33.724 51.2072 33.652 51.4792 33.652C51.7512 33.652 51.9672 33.724 52.1272 33.868C52.2872 34.012 52.3672 34.208 52.3672 34.456C52.3672 34.696 52.2872 34.888 52.1272 35.032C51.9672 35.168 51.7512 35.236 51.4792 35.236ZM55.6985 43V36.4H56.8745V37.66H56.8985C56.9545 37.22 57.1345 36.88 57.4385 36.64C57.7425 36.4 58.1465 36.28 58.6505 36.28C59.3065 36.28 59.8305 36.488 60.2225 36.904C60.6145 37.32 60.8105 37.88 60.8105 38.584V43H59.6225V38.716C59.6225 38.268 59.5025 37.924 59.2625 37.684C59.0225 37.436 58.6945 37.312 58.2785 37.312C57.8465 37.312 57.5065 37.444 57.2585 37.708C57.0105 37.964 56.8865 38.332 56.8865 38.812V43H55.6985ZM65.9178 43C65.3498 43 64.8978 42.836 64.5618 42.508C64.2338 42.18 64.0698 41.744 64.0698 41.2V37.48H62.2218V36.4H64.0698V34.54H65.2578V36.4H67.8618V37.48H65.2578V41.188C65.2578 41.404 65.3178 41.58 65.4378 41.716C65.5658 41.852 65.7338 41.92 65.9418 41.92H67.7418V43H65.9178ZM69.8131 43V36.4H70.9891V37.66H71.0131C71.0691 37.22 71.2491 36.88 71.5531 36.64C71.8651 36.4 72.2731 36.28 72.7771 36.28C73.4571 36.28 74.0011 36.5 74.4091 36.94C74.8171 37.38 75.0211 37.972 75.0211 38.716V39.196H73.8211V38.812C73.8211 38.34 73.6971 37.972 73.4491 37.708C73.2091 37.444 72.8531 37.312 72.3811 37.312C71.4611 37.312 71.0011 37.82 71.0011 38.836V43H69.8131ZM79.1084 43.096C78.3004 43.096 77.6604 42.872 77.1884 42.424C76.7164 41.968 76.4804 41.348 76.4804 40.564V38.836C76.4804 38.052 76.7164 37.436 77.1884 36.988C77.6604 36.532 78.3004 36.304 79.1084 36.304C79.9164 36.304 80.5564 36.532 81.0284 36.988C81.5004 37.436 81.7364 38.048 81.7364 38.824V40.564C81.7364 41.348 81.5004 41.968 81.0284 42.424C80.5564 42.872 79.9164 43.096 79.1084 43.096ZM79.1084 42.052C79.5564 42.052 79.9084 41.928 80.1644 41.68C80.4204 41.424 80.5484 41.052 80.5484 40.564V38.836C80.5484 38.348 80.4204 37.98 80.1644 37.732C79.9084 37.476 79.5564 37.348 79.1084 37.348C78.6604 37.348 78.3084 37.476 78.0524 37.732C77.7964 37.98 77.6684 38.348 77.6684 38.836V40.564C77.6684 41.052 77.7964 41.424 78.0524 41.68C78.3084 41.928 78.6604 42.052 79.1084 42.052ZM52.2712 59C51.6712 59 51.1912 58.824 50.8312 58.472C50.4712 58.12 50.2912 57.652 50.2912 57.068V51.32H48.0352V50.24H51.4792V57.056C51.4792 57.32 51.5512 57.532 51.6952 57.692C51.8472 57.844 52.0512 57.92 52.3072 57.92H54.3112V59H52.2712ZM57.6305 59.12C56.9345 59.12 56.3865 58.944 55.9865 58.592C55.5945 58.232 55.3985 57.748 55.3985 57.14C55.3985 56.516 55.6025 56.028 56.0105 55.676C56.4265 55.316 56.9905 55.136 57.7025 55.136H59.6225V54.512C59.6225 54.128 59.5025 53.832 59.2625 53.624C59.0305 53.408 58.7065 53.3 58.2905 53.3C57.9145 53.3 57.5985 53.384 57.3425 53.552C57.0945 53.712 56.9425 53.924 56.8865 54.188H55.7225C55.7545 53.804 55.8865 53.472 56.1185 53.192C56.3505 52.904 56.6545 52.68 57.0305 52.52C57.4065 52.36 57.8305 52.28 58.3025 52.28C59.0705 52.28 59.6785 52.48 60.1265 52.88C60.5825 53.272 60.8105 53.804 60.8105 54.476V59H59.6465V57.776H59.6345C59.5785 58.192 59.3705 58.52 59.0105 58.76C58.6505 59 58.1905 59.12 57.6305 59.12ZM57.9545 58.196C58.4345 58.196 58.8305 58.076 59.1425 57.836C59.4625 57.588 59.6225 57.272 59.6225 56.888V55.988H57.7265C57.3745 55.988 57.0945 56.084 56.8865 56.276C56.6865 56.468 56.5865 56.728 56.5865 57.056C56.5865 57.416 56.7065 57.696 56.9465 57.896C57.1865 58.096 57.5225 58.196 57.9545 58.196ZM62.6538 59V52.4H63.8298V53.66H63.8538C63.9098 53.22 64.0898 52.88 64.3938 52.64C64.6978 52.4 65.1018 52.28 65.6058 52.28C66.2618 52.28 66.7858 52.488 67.1778 52.904C67.5698 53.32 67.7658 53.88 67.7658 54.584V59H66.5778V54.716C66.5778 54.268 66.4578 53.924 66.2178 53.684C65.9778 53.436 65.6498 53.312 65.2338 53.312C64.8018 53.312 64.4618 53.444 64.2138 53.708C63.9658 53.964 63.8418 54.332 63.8418 54.812V59H62.6538ZM70.4611 61.16V60.104H72.5251C73.1811 60.104 73.5091 59.792 73.5091 59.168V58.412L73.5331 57.212H73.5091C73.4611 57.636 73.2811 57.972 72.9691 58.22C72.6571 58.468 72.2531 58.592 71.7571 58.592C71.0771 58.592 70.5411 58.368 70.1491 57.92C69.7571 57.472 69.5611 56.868 69.5611 56.108V54.752C69.5611 53.992 69.7571 53.392 70.1491 52.952C70.5411 52.504 71.0771 52.28 71.7571 52.28C72.2531 52.28 72.6571 52.404 72.9691 52.652C73.2811 52.892 73.4611 53.228 73.5091 53.66H73.5211L73.5091 52.4H74.6851V59.18C74.6851 59.796 74.4931 60.28 74.1091 60.632C73.7251 60.984 73.1971 61.16 72.5251 61.16H70.4611ZM72.1291 57.56C72.5531 57.56 72.8891 57.428 73.1371 57.164C73.3851 56.9 73.5091 56.528 73.5091 56.048V54.812C73.5091 54.34 73.3851 53.972 73.1371 53.708C72.8891 53.444 72.5531 53.312 72.1291 53.312C71.6891 53.312 71.3491 53.444 71.1091 53.708C70.8691 53.964 70.7491 54.332 70.7491 54.812V56.048C70.7491 56.536 70.8691 56.912 71.1091 57.176C71.3491 57.432 71.6891 57.56 72.1291 57.56ZM79.0964 59.12C78.3204 59.12 77.7004 58.892 77.2364 58.436C76.7724 57.98 76.5404 57.36 76.5404 56.576V52.4H77.7284V56.576C77.7284 57.056 77.8484 57.428 78.0884 57.692C78.3364 57.948 78.6724 58.076 79.0964 58.076C79.5284 58.076 79.8684 57.948 80.1164 57.692C80.3644 57.428 80.4884 57.056 80.4884 56.576V52.4H81.6764V56.576C81.6764 57.36 81.4404 57.98 80.9684 58.436C80.5044 58.892 79.8804 59.12 79.0964 59.12ZM85.4518 59.12C84.7558 59.12 84.2078 58.944 83.8078 58.592C83.4158 58.232 83.2198 57.748 83.2198 57.14C83.2198 56.516 83.4238 56.028 83.8318 55.676C84.2478 55.316 84.8118 55.136 85.5238 55.136H87.4438V54.512C87.4438 54.128 87.3238 53.832 87.0838 53.624C86.8518 53.408 86.5278 53.3 86.1118 53.3C85.7358 53.3 85.4198 53.384 85.1638 53.552C84.9158 53.712 84.7638 53.924 84.7078 54.188H83.5438C83.5758 53.804 83.7078 53.472 83.9398 53.192C84.1718 52.904 84.4758 52.68 84.8518 52.52C85.2278 52.36 85.6518 52.28 86.1238 52.28C86.8918 52.28 87.4998 52.48 87.9478 52.88C88.4038 53.272 88.6318 53.804 88.6318 54.476V59H87.4678V57.776H87.4558C87.3998 58.192 87.1918 58.52 86.8318 58.76C86.4718 59 86.0118 59.12 85.4518 59.12ZM85.7758 58.196C86.2558 58.196 86.6518 58.076 86.9638 57.836C87.2838 57.588 87.4438 57.272 87.4438 56.888V55.988H85.5478C85.1958 55.988 84.9158 56.084 84.7078 56.276C84.5078 56.468 84.4078 56.728 84.4078 57.056C84.4078 57.416 84.5278 57.696 84.7678 57.896C85.0078 58.096 85.3438 58.196 85.7758 58.196ZM91.3271 61.16V60.104H93.3911C94.0471 60.104 94.3751 59.792 94.3751 59.168V58.412L94.3991 57.212H94.3751C94.3271 57.636 94.1471 57.972 93.8351 58.22C93.5231 58.468 93.1191 58.592 92.6231 58.592C91.9431 58.592 91.4071 58.368 91.0151 57.92C90.6231 57.472 90.4271 56.868 90.4271 56.108V54.752C90.4271 53.992 90.6231 53.392 91.0151 52.952C91.4071 52.504 91.9431 52.28 92.6231 52.28C93.1191 52.28 93.5231 52.404 93.8351 52.652C94.1471 52.892 94.3271 53.228 94.3751 53.66H94.3871L94.3751 52.4H95.5511V59.18C95.5511 59.796 95.3591 60.28 94.9751 60.632C94.5911 60.984 94.0631 61.16 93.3911 61.16H91.3271ZM92.9951 57.56C93.4191 57.56 93.7551 57.428 94.0031 57.164C94.2511 56.9 94.3751 56.528 94.3751 56.048V54.812C94.3751 54.34 94.2511 53.972 94.0031 53.708C93.7551 53.444 93.4191 53.312 92.9951 53.312C92.5551 53.312 92.2151 53.444 91.9751 53.708C91.7351 53.964 91.6151 54.332 91.6151 54.812V56.048C91.6151 56.536 91.7351 56.912 91.9751 57.176C92.2151 57.432 92.5551 57.56 92.9951 57.56ZM99.9744 59.12C99.4464 59.12 98.9824 59.016 98.5824 58.808C98.1904 58.592 97.8864 58.296 97.6704 57.92C97.4544 57.536 97.3464 57.088 97.3464 56.576V54.812C97.3464 54.308 97.4544 53.868 97.6704 53.492C97.8864 53.108 98.1904 52.812 98.5824 52.604C98.9824 52.388 99.4464 52.28 99.9744 52.28C100.502 52.28 100.962 52.388 101.354 52.604C101.754 52.812 102.062 53.108 102.278 53.492C102.494 53.868 102.602 54.308 102.602 54.812V55.988H98.5104V56.576C98.5104 57.088 98.6344 57.476 98.8824 57.74C99.1384 58.004 99.5024 58.136 99.9744 58.136C100.374 58.136 100.694 58.068 100.934 57.932C101.174 57.788 101.326 57.576 101.39 57.296H102.566C102.486 57.856 102.206 58.3 101.726 58.628C101.254 58.956 100.67 59.12 99.9744 59.12ZM98.5104 54.812V55.136H101.45V54.812C101.45 54.308 101.322 53.924 101.066 53.66C100.818 53.388 100.454 53.252 99.9744 53.252C99.4944 53.252 99.1304 53.388 98.8824 53.66C98.6344 53.924 98.5104 54.308 98.5104 54.812ZM106.714 59.096C106.018 59.096 105.446 58.936 104.998 58.616C104.558 58.296 104.338 57.86 104.338 57.308H105.55C105.55 57.556 105.658 57.748 105.874 57.884C106.098 58.012 106.386 58.076 106.738 58.076H107.242C107.658 58.076 107.966 57.996 108.166 57.836C108.366 57.668 108.466 57.448 108.466 57.176C108.466 56.904 108.37 56.692 108.178 56.54C107.986 56.388 107.714 56.28 107.362 56.216L106.462 56.084C105.15 55.876 104.494 55.24 104.494 54.176C104.494 53.568 104.694 53.104 105.094 52.784C105.494 52.464 106.066 52.304 106.81 52.304H107.266C107.954 52.304 108.506 52.46 108.922 52.772C109.338 53.076 109.546 53.48 109.546 53.984H108.334C108.334 53.784 108.234 53.624 108.034 53.504C107.842 53.384 107.578 53.324 107.242 53.324H106.786C106.418 53.324 106.138 53.4 105.946 53.552C105.754 53.696 105.658 53.904 105.658 54.176C105.658 54.64 105.986 54.924 106.642 55.028L107.542 55.172C108.262 55.284 108.79 55.496 109.126 55.808C109.462 56.112 109.63 56.552 109.63 57.128C109.63 57.744 109.426 58.228 109.018 58.58C108.618 58.924 108.018 59.096 107.218 59.096H106.714Z" fill="#5D7CE9"/>
<path d="M109.15 12.44C107.998 12.152 107.102 11.6 106.462 10.784C105.822 9.96 105.502 8.952 105.502 7.76V5.6C105.502 4.824 105.646 4.12 105.934 3.488C106.23 2.848 106.65 2.308 107.194 1.868C107.746 1.428 108.398 1.112 109.15 0.92V2.06C108.646 2.18 108.21 2.404 107.842 2.732C107.474 3.052 107.19 3.46 106.99 3.956C106.79 4.444 106.69 4.992 106.69 5.6V7.76C106.69 8.36 106.79 8.904 106.99 9.392C107.19 9.872 107.474 10.276 107.842 10.604C108.21 10.924 108.646 11.144 109.15 11.264V12.44ZM111.665 12.44V11.264C112.169 11.144 112.605 10.924 112.973 10.604C113.341 10.276 113.625 9.872 113.825 9.392C114.033 8.904 114.137 8.36 114.137 7.76V5.6C114.137 4.992 114.033 4.444 113.825 3.956C113.625 3.46 113.341 3.052 112.973 2.732C112.605 2.404 112.169 2.18 111.665 2.06V0.92C112.417 1.112 113.065 1.428 113.609 1.868C114.161 2.308 114.585 2.848 114.881 3.488C115.177 4.12 115.325 4.824 115.325 5.6V7.76C115.325 8.952 115.001 9.96 114.353 10.784C113.713 11.6 112.817 12.152 111.665 12.44ZM88.2838 28.44C87.1318 28.152 86.2358 27.6 85.5958 26.784C84.9558 25.96 84.6358 24.952 84.6358 23.76V21.6C84.6358 20.824 84.7798 20.12 85.0678 19.488C85.3638 18.848 85.7838 18.308 86.3278 17.868C86.8798 17.428 87.5318 17.112 88.2838 16.92V18.06C87.7798 18.18 87.3438 18.404 86.9758 18.732C86.6078 19.052 86.3238 19.46 86.1238 19.956C85.9238 20.444 85.8238 20.992 85.8238 21.6V23.76C85.8238 24.36 85.9238 24.904 86.1238 25.392C86.3238 25.872 86.6078 26.276 86.9758 26.604C87.3438 26.924 87.7798 27.144 88.2838 27.264V28.44ZM90.7991 28.44V27.264C91.3031 27.144 91.7391 26.924 92.1071 26.604C92.4751 26.276 92.7591 25.872 92.9591 25.392C93.1671 24.904 93.2711 24.36 93.2711 23.76V21.6C93.2711 20.992 93.1671 20.444 92.9591 19.956C92.7591 19.46 92.4751 19.052 92.1071 18.732C91.7391 18.404 91.3031 18.18 90.7991 18.06V16.92C91.5511 17.112 92.1991 17.428 92.7431 17.868C93.2951 18.308 93.7191 18.848 94.0151 19.488C94.3111 20.12 94.4591 20.824 94.4591 21.6V23.76C94.4591 24.952 94.1351 25.96 93.4871 26.784C92.8471 27.6 91.9511 28.152 90.7991 28.44ZM88.2838 44.44C87.1318 44.152 86.2358 43.6 85.5958 42.784C84.9558 41.96 84.6358 40.952 84.6358 39.76V37.6C84.6358 36.824 84.7798 36.12 85.0678 35.488C85.3638 34.848 85.7838 34.308 86.3278 33.868C86.8798 33.428 87.5318 33.112 88.2838 32.92V34.06C87.7798 34.18 87.3438 34.404 86.9758 34.732C86.6078 35.052 86.3238 35.46 86.1238 35.956C85.9238 36.444 85.8238 36.992 85.8238 37.6V39.76C85.8238 40.36 85.9238 40.904 86.1238 41.392C86.3238 41.872 86.6078 42.276 86.9758 42.604C87.3438 42.924 87.7798 43.144 88.2838 43.264V44.44ZM208.534 44.44V43.264C209.038 43.144 209.474 42.924 209.842 42.604C210.21 42.276 210.494 41.872 210.694 41.392C210.902 40.904 211.006 40.36 211.006 39.76V37.6C211.006 36.992 210.902 36.444 210.694 35.956C210.494 35.46 210.21 35.052 209.842 34.732C209.474 34.404 209.038 34.18 208.534 34.06V32.92C209.286 33.112 209.934 33.428 210.478 33.868C211.03 34.308 211.454 34.848 211.75 35.488C212.046 36.12 212.194 36.824 212.194 37.6V39.76C212.194 40.952 211.87 41.96 211.222 42.784C210.582 43.6 209.686 44.152 208.534 44.44ZM116.105 60.44C114.953 60.152 114.057 59.6 113.417 58.784C112.777 57.96 112.457 56.952 112.457 55.76V53.6C112.457 52.824 112.601 52.12 112.889 51.488C113.185 50.848 113.605 50.308 114.149 49.868C114.701 49.428 115.353 49.112 116.105 48.92V50.06C115.601 50.18 115.165 50.404 114.797 50.732C114.429 51.052 114.145 51.46 113.945 51.956C113.745 52.444 113.645 52.992 113.645 53.6V55.76C113.645 56.36 113.745 56.904 113.945 57.392C114.145 57.872 114.429 58.276 114.797 58.604C115.165 58.924 115.601 59.144 116.105 59.264V60.44ZM49.0672 124.44V123.264C49.5712 123.144 50.0072 122.924 50.3752 122.604C50.7432 122.276 51.0272 121.872 51.2272 121.392C51.4352 120.904 51.5392 120.36 51.5392 119.76V117.6C51.5392 116.992 51.4352 116.444 51.2272 115.956C51.0272 115.46 50.7432 115.052 50.3752 114.732C50.0072 114.404 49.5712 114.18 49.0672 114.06V112.92C49.8192 113.112 50.4672 113.428 51.0112 113.868C51.5632 114.308 51.9872 114.848 52.2832 115.488C52.5792 116.12 52.7272 116.824 52.7272 117.6V119.76C52.7272 120.952 52.4032 121.96 51.7552 122.784C51.1152 123.6 50.2192 124.152 49.0672 124.44Z" fill="#7490ED"/>
<path d="M133.311 3.5H134.703L137.463 7.04L134.691 10.58H133.311L135.531 7.76C135.555 7.736 135.579 7.708 135.603 7.676C135.635 7.636 135.663 7.6 135.687 7.568H124.959V6.5H135.675C135.643 6.468 135.611 6.432 135.579 6.392C135.555 6.352 135.523 6.312 135.483 6.272L133.311 3.5ZM52.0025 22.128C51.6905 22.128 51.4425 22.044 51.2585 21.876C51.0665 21.708 50.9705 21.484 50.9705 21.204C50.9705 20.924 51.0665 20.7 51.2585 20.532C51.4425 20.364 51.6905 20.28 52.0025 20.28C52.3145 20.28 52.5665 20.364 52.7585 20.532C52.9425 20.7 53.0345 20.924 53.0345 21.204C53.0345 21.484 52.9425 21.708 52.7585 21.876C52.5665 22.044 52.3145 22.128 52.0025 22.128ZM52.0025 27.12C51.6905 27.12 51.4425 27.036 51.2585 26.868C51.0665 26.7 50.9705 26.476 50.9705 26.196C50.9705 25.916 51.0665 25.692 51.2585 25.524C51.4425 25.348 51.6905 25.26 52.0025 25.26C52.3145 25.26 52.5665 25.348 52.7585 25.524C52.9425 25.692 53.0345 25.916 53.0345 26.196C53.0345 26.476 52.9425 26.7 52.7585 26.868C52.5665 27.036 52.3145 27.12 52.0025 27.12ZM57.2825 22.128C56.9705 22.128 56.7185 22.044 56.5265 21.876C56.3425 21.708 56.2505 21.484 56.2505 21.204C56.2505 20.924 56.3425 20.7 56.5265 20.532C56.7185 20.364 56.9705 20.28 57.2825 20.28C57.5945 20.28 57.8425 20.364 58.0265 20.532C58.2185 20.7 58.3145 20.924 58.3145 21.204C58.3145 21.484 58.2185 21.708 58.0265 21.876C57.8425 22.044 57.5945 22.128 57.2825 22.128ZM57.2825 27.12C56.9705 27.12 56.7185 27.036 56.5265 26.868C56.3425 26.7 56.2505 26.476 56.2505 26.196C56.2505 25.916 56.3425 25.692 56.5265 25.524C56.7185 25.348 56.9705 25.26 57.2825 25.26C57.5945 25.26 57.8425 25.348 58.0265 25.524C58.2185 25.692 58.3145 25.916 58.3145 26.196C58.3145 26.476 58.2185 26.7 58.0265 26.868C57.8425 27.036 57.5945 27.12 57.2825 27.12ZM44.3319 43.12C44.0199 43.12 43.7679 43.032 43.5759 42.856C43.3919 42.672 43.2999 42.424 43.2999 42.112C43.2999 41.792 43.3919 41.54 43.5759 41.356C43.7679 41.164 44.0199 41.068 44.3319 41.068C44.6439 41.068 44.8919 41.164 45.0759 41.356C45.2679 41.54 45.3639 41.792 45.3639 42.112C45.3639 42.424 45.2679 42.672 45.0759 42.856C44.8919 43.032 44.6439 43.12 44.3319 43.12ZM44.3319 59.12C44.0199 59.12 43.7679 59.032 43.5759 58.856C43.3919 58.672 43.2999 58.424 43.2999 58.112C43.2999 57.792 43.3919 57.54 43.5759 57.356C43.7679 57.164 44.0199 57.068 44.3319 57.068C44.6439 57.068 44.8919 57.164 45.0759 57.356C45.2679 57.54 45.3639 57.792 45.3639 58.112C45.3639 58.424 45.2679 58.672 45.0759 58.856C44.8919 59.032 44.6439 59.12 44.3319 59.12ZM168.94 73.872V71.568H166.696V70.5H168.94V68.208H170.116V70.5H172.372V71.568H170.116V73.872H168.94ZM217.627 73.872V71.568H215.383V70.5H217.627V68.208H218.803V70.5H221.059V71.568H218.803V73.872H217.627ZM273.269 73.872V71.568H271.025V70.5H273.269V68.208H274.445V70.5H276.701V71.568H274.445V73.872H273.269ZM313.921 76.92L314.881 73.188H316.537L314.977 76.92H313.921ZM161.984 89.872V87.568H159.74V86.5H161.984V84.208H163.16V86.5H165.416V87.568H163.16V89.872H161.984ZM210.671 89.872V87.568H208.427V86.5H210.671V84.208H211.847V86.5H214.103V87.568H211.847V89.872H210.671ZM293.055 92.92L294.015 89.188H295.671L294.111 92.92H293.055ZM148.074 105.872V103.568H145.83V102.5H148.074V100.208H149.25V102.5H151.506V103.568H149.25V105.872H148.074ZM189.805 105.872V103.568H187.561V102.5H189.805V100.208H190.981V102.5H193.237V103.568H190.981V105.872H189.805ZM238.493 105.872V103.568H236.249V102.5H238.493V100.208H239.669V102.5H241.925V103.568H239.669V105.872H238.493ZM280.224 105.872V103.568H277.98V102.5H280.224V100.208H281.4V102.5H283.656V103.568H281.4V105.872H280.224ZM320.876 108.92L321.836 105.188H323.492L321.932 108.92H320.876Z" fill="#E3D0C5"/>
<path d="M145.614 11L147.882 2.24H149.454L151.71 11H150.498L149.946 8.72H147.378L146.826 11H145.614ZM147.618 7.736H149.706L149.082 5.12C148.962 4.64 148.866 4.232 148.794 3.896C148.722 3.56 148.678 3.332 148.662 3.212C148.646 3.332 148.602 3.56 148.53 3.896C148.458 4.232 148.366 4.636 148.254 5.108L147.618 7.736ZM156.049 11.12C155.553 11.12 155.145 11 154.825 10.76C154.505 10.512 154.317 10.172 154.261 9.74H154.249V11H153.073V2.24H154.261V4.136L154.237 5.66H154.261C154.325 5.236 154.517 4.9 154.837 4.652C155.157 4.404 155.561 4.28 156.049 4.28C156.713 4.28 157.245 4.504 157.645 4.952C158.045 5.392 158.245 5.992 158.245 6.752V8.648C158.245 9.416 158.041 10.02 157.633 10.46C157.233 10.9 156.705 11.12 156.049 11.12ZM155.641 10.088C156.081 10.088 156.425 9.96 156.673 9.704C156.929 9.44 157.057 9.064 157.057 8.576V6.812C157.057 6.332 156.929 5.964 156.673 5.708C156.425 5.444 156.081 5.312 155.641 5.312C155.217 5.312 154.881 5.444 154.633 5.708C154.385 5.972 154.261 6.34 154.261 6.812V8.576C154.261 9.056 154.385 9.428 154.633 9.692C154.881 9.956 155.217 10.088 155.641 10.088ZM162.572 11.096C161.764 11.096 161.124 10.872 160.652 10.424C160.18 9.968 159.944 9.348 159.944 8.564V6.836C159.944 6.052 160.18 5.436 160.652 4.988C161.124 4.532 161.764 4.304 162.572 4.304C163.38 4.304 164.02 4.532 164.492 4.988C164.964 5.436 165.2 6.048 165.2 6.824V8.564C165.2 9.348 164.964 9.968 164.492 10.424C164.02 10.872 163.38 11.096 162.572 11.096ZM162.572 10.052C163.02 10.052 163.372 9.928 163.628 9.68C163.884 9.424 164.012 9.052 164.012 8.564V6.836C164.012 6.348 163.884 5.98 163.628 5.732C163.372 5.476 163.02 5.348 162.572 5.348C162.124 5.348 161.772 5.476 161.516 5.732C161.26 5.98 161.132 6.348 161.132 6.836V8.564C161.132 9.052 161.26 9.424 161.516 9.68C161.772 9.928 162.124 10.052 162.572 10.052ZM169.516 11.12C168.74 11.12 168.12 10.892 167.656 10.436C167.192 9.98 166.96 9.36 166.96 8.576V4.4H168.148V8.576C168.148 9.056 168.268 9.428 168.508 9.692C168.756 9.948 169.092 10.076 169.516 10.076C169.948 10.076 170.288 9.948 170.536 9.692C170.784 9.428 170.908 9.056 170.908 8.576V4.4H172.096V8.576C172.096 9.36 171.86 9.98 171.388 10.436C170.924 10.892 170.3 11.12 169.516 11.12ZM177.203 11C176.635 11 176.183 10.836 175.847 10.508C175.519 10.18 175.355 9.744 175.355 9.2V5.48H173.507V4.4H175.355V2.54H176.543V4.4H179.147V5.48H176.543V9.188C176.543 9.404 176.603 9.58 176.723 9.716C176.851 9.852 177.019 9.92 177.227 9.92H179.027V11H177.203ZM13.4626 27L15.7306 18.24H17.3026L19.5586 27H18.3466L17.7946 24.72H15.2266L14.6746 27H13.4626ZM15.4666 23.736H17.5546L16.9306 21.12C16.8106 20.64 16.7146 20.232 16.6426 19.896C16.5706 19.56 16.5266 19.332 16.5106 19.212C16.4946 19.332 16.4506 19.56 16.3786 19.896C16.3066 20.232 16.2146 20.636 16.1026 21.108L15.4666 23.736ZM23.8979 27.12C23.4019 27.12 22.9939 27 22.6739 26.76C22.3539 26.512 22.1659 26.172 22.1099 25.74H22.0979V27H20.9219V18.24H22.1099V20.136L22.0859 21.66H22.1099C22.1739 21.236 22.3659 20.9 22.6859 20.652C23.0059 20.404 23.4099 20.28 23.8979 20.28C24.5619 20.28 25.0939 20.504 25.4939 20.952C25.8939 21.392 26.0939 21.992 26.0939 22.752V24.648C26.0939 25.416 25.8899 26.02 25.4819 26.46C25.0819 26.9 24.5539 27.12 23.8979 27.12ZM23.4899 26.088C23.9299 26.088 24.2739 25.96 24.5219 25.704C24.7779 25.44 24.9059 25.064 24.9059 24.576V22.812C24.9059 22.332 24.7779 21.964 24.5219 21.708C24.2739 21.444 23.9299 21.312 23.4899 21.312C23.0659 21.312 22.7299 21.444 22.4819 21.708C22.2339 21.972 22.1099 22.34 22.1099 22.812V24.576C22.1099 25.056 22.2339 25.428 22.4819 25.692C22.7299 25.956 23.0659 26.088 23.4899 26.088ZM30.4213 27.096C29.6133 27.096 28.9733 26.872 28.5013 26.424C28.0293 25.968 27.7933 25.348 27.7933 24.564V22.836C27.7933 22.052 28.0293 21.436 28.5013 20.988C28.9733 20.532 29.6133 20.304 30.4213 20.304C31.2293 20.304 31.8693 20.532 32.3413 20.988C32.8133 21.436 33.0493 22.048 33.0493 22.824V24.564C33.0493 25.348 32.8133 25.968 32.3413 26.424C31.8693 26.872 31.2293 27.096 30.4213 27.096ZM30.4213 26.052C30.8693 26.052 31.2213 25.928 31.4773 25.68C31.7333 25.424 31.8613 25.052 31.8613 24.564V22.836C31.8613 22.348 31.7333 21.98 31.4773 21.732C31.2213 21.476 30.8693 21.348 30.4213 21.348C29.9733 21.348 29.6213 21.476 29.3653 21.732C29.1093 21.98 28.9813 22.348 28.9813 22.836V24.564C28.9813 25.052 29.1093 25.424 29.3653 25.68C29.6213 25.928 29.9733 26.052 30.4213 26.052ZM37.3646 27.12C36.5886 27.12 35.9686 26.892 35.5046 26.436C35.0406 25.98 34.8086 25.36 34.8086 24.576V20.4H35.9966V24.576C35.9966 25.056 36.1166 25.428 36.3566 25.692C36.6046 25.948 36.9406 26.076 37.3646 26.076C37.7966 26.076 38.1366 25.948 38.3846 25.692C38.6326 25.428 38.7566 25.056 38.7566 24.576V20.4H39.9446V24.576C39.9446 25.36 39.7086 25.98 39.2366 26.436C38.7726 26.892 38.1486 27.12 37.3646 27.12ZM45.0519 27C44.4839 27 44.0319 26.836 43.6959 26.508C43.3679 26.18 43.2039 25.744 43.2039 25.2V21.48H41.3559V20.4H43.2039V18.54H44.3919V20.4H46.9959V21.48H44.3919V25.188C44.3919 25.404 44.4519 25.58 44.5719 25.716C44.6999 25.852 44.8679 25.92 45.0759 25.92H46.8759V27H45.0519ZM118.776 59V50.24H119.964V57.92H123.864V59H118.776ZM127.184 59.12C126.488 59.12 125.94 58.944 125.54 58.592C125.148 58.232 124.952 57.748 124.952 57.14C124.952 56.516 125.156 56.028 125.564 55.676C125.98 55.316 126.544 55.136 127.256 55.136H129.176V54.512C129.176 54.128 129.056 53.832 128.816 53.624C128.584 53.408 128.26 53.3 127.844 53.3C127.468 53.3 127.152 53.384 126.896 53.552C126.648 53.712 126.496 53.924 126.44 54.188H125.276C125.308 53.804 125.44 53.472 125.672 53.192C125.904 52.904 126.208 52.68 126.584 52.52C126.96 52.36 127.384 52.28 127.856 52.28C128.624 52.28 129.232 52.48 129.68 52.88C130.136 53.272 130.364 53.804 130.364 54.476V59H129.2V57.776H129.188C129.132 58.192 128.924 58.52 128.564 58.76C128.204 59 127.744 59.12 127.184 59.12ZM127.508 58.196C127.988 58.196 128.384 58.076 128.696 57.836C129.016 57.588 129.176 57.272 129.176 56.888V55.988H127.28C126.928 55.988 126.648 56.084 126.44 56.276C126.24 56.468 126.14 56.728 126.14 57.056C126.14 57.416 126.26 57.696 126.5 57.896C126.74 58.096 127.076 58.196 127.508 58.196ZM132.207 59V52.4H133.383V53.66H133.407C133.463 53.22 133.643 52.88 133.947 52.64C134.251 52.4 134.655 52.28 135.159 52.28C135.815 52.28 136.339 52.488 136.731 52.904C137.123 53.32 137.319 53.88 137.319 54.584V59H136.131V54.716C136.131 54.268 136.011 53.924 135.771 53.684C135.531 53.436 135.203 53.312 134.787 53.312C134.355 53.312 134.015 53.444 133.767 53.708C133.519 53.964 133.395 54.332 133.395 54.812V59H132.207ZM140.014 61.16V60.104H142.078C142.734 60.104 143.062 59.792 143.062 59.168V58.412L143.086 57.212H143.062C143.014 57.636 142.834 57.972 142.522 58.22C142.21 58.468 141.806 58.592 141.31 58.592C140.63 58.592 140.094 58.368 139.702 57.92C139.31 57.472 139.114 56.868 139.114 56.108V54.752C139.114 53.992 139.31 53.392 139.702 52.952C140.094 52.504 140.63 52.28 141.31 52.28C141.806 52.28 142.21 52.404 142.522 52.652C142.834 52.892 143.014 53.228 143.062 53.66H143.074L143.062 52.4H144.238V59.18C144.238 59.796 144.046 60.28 143.662 60.632C143.278 60.984 142.75 61.16 142.078 61.16H140.014ZM141.682 57.56C142.106 57.56 142.442 57.428 142.69 57.164C142.938 56.9 143.062 56.528 143.062 56.048V54.812C143.062 54.34 142.938 53.972 142.69 53.708C142.442 53.444 142.106 53.312 141.682 53.312C141.242 53.312 140.902 53.444 140.662 53.708C140.422 53.964 140.302 54.332 140.302 54.812V56.048C140.302 56.536 140.422 56.912 140.662 57.176C140.902 57.432 141.242 57.56 141.682 57.56ZM148.65 59.12C147.874 59.12 147.254 58.892 146.79 58.436C146.326 57.98 146.094 57.36 146.094 56.576V52.4H147.282V56.576C147.282 57.056 147.402 57.428 147.642 57.692C147.89 57.948 148.226 58.076 148.65 58.076C149.082 58.076 149.422 57.948 149.67 57.692C149.918 57.428 150.042 57.056 150.042 56.576V52.4H151.23V56.576C151.23 57.36 150.994 57.98 150.522 58.436C150.058 58.892 149.434 59.12 148.65 59.12ZM155.005 59.12C154.309 59.12 153.761 58.944 153.361 58.592C152.969 58.232 152.773 57.748 152.773 57.14C152.773 56.516 152.977 56.028 153.385 55.676C153.801 55.316 154.365 55.136 155.077 55.136H156.997V54.512C156.997 54.128 156.877 53.832 156.637 53.624C156.405 53.408 156.081 53.3 155.665 53.3C155.289 53.3 154.973 53.384 154.717 53.552C154.469 53.712 154.317 53.924 154.261 54.188H153.097C153.129 53.804 153.261 53.472 153.493 53.192C153.725 52.904 154.029 52.68 154.405 52.52C154.781 52.36 155.205 52.28 155.677 52.28C156.445 52.28 157.053 52.48 157.501 52.88C157.957 53.272 158.185 53.804 158.185 54.476V59H157.021V57.776H157.009C156.953 58.192 156.745 58.52 156.385 58.76C156.025 59 155.565 59.12 155.005 59.12ZM155.329 58.196C155.809 58.196 156.205 58.076 156.517 57.836C156.837 57.588 156.997 57.272 156.997 56.888V55.988H155.101C154.749 55.988 154.469 56.084 154.261 56.276C154.061 56.468 153.961 56.728 153.961 57.056C153.961 57.416 154.081 57.696 154.321 57.896C154.561 58.096 154.897 58.196 155.329 58.196ZM160.88 61.16V60.104H162.944C163.6 60.104 163.928 59.792 163.928 59.168V58.412L163.952 57.212H163.928C163.88 57.636 163.7 57.972 163.388 58.22C163.076 58.468 162.672 58.592 162.176 58.592C161.496 58.592 160.96 58.368 160.568 57.92C160.176 57.472 159.98 56.868 159.98 56.108V54.752C159.98 53.992 160.176 53.392 160.568 52.952C160.96 52.504 161.496 52.28 162.176 52.28C162.672 52.28 163.076 52.404 163.388 52.652C163.7 52.892 163.88 53.228 163.928 53.66H163.94L163.928 52.4H165.104V59.18C165.104 59.796 164.912 60.28 164.528 60.632C164.144 60.984 163.616 61.16 162.944 61.16H160.88ZM162.548 57.56C162.972 57.56 163.308 57.428 163.556 57.164C163.804 56.9 163.928 56.528 163.928 56.048V54.812C163.928 54.34 163.804 53.972 163.556 53.708C163.308 53.444 162.972 53.312 162.548 53.312C162.108 53.312 161.768 53.444 161.528 53.708C161.288 53.964 161.168 54.332 161.168 54.812V56.048C161.168 56.536 161.288 56.912 161.528 57.176C161.768 57.432 162.108 57.56 162.548 57.56ZM169.528 59.12C169 59.12 168.536 59.016 168.136 58.808C167.744 58.592 167.44 58.296 167.224 57.92C167.008 57.536 166.9 57.088 166.9 56.576V54.812C166.9 54.308 167.008 53.868 167.224 53.492C167.44 53.108 167.744 52.812 168.136 52.604C168.536 52.388 169 52.28 169.528 52.28C170.056 52.28 170.516 52.388 170.908 52.604C171.308 52.812 171.616 53.108 171.832 53.492C172.048 53.868 172.156 54.308 172.156 54.812V55.988H168.064V56.576C168.064 57.088 168.188 57.476 168.436 57.74C168.692 58.004 169.056 58.136 169.528 58.136C169.928 58.136 170.248 58.068 170.488 57.932C170.728 57.788 170.88 57.576 170.944 57.296H172.12C172.04 57.856 171.76 58.3 171.28 58.628C170.808 58.956 170.224 59.12 169.528 59.12ZM168.064 54.812V55.136H171.004V54.812C171.004 54.308 170.876 53.924 170.62 53.66C170.372 53.388 170.008 53.252 169.528 53.252C169.048 53.252 168.684 53.388 168.436 53.66C168.188 53.924 168.064 54.308 168.064 54.812ZM176.267 59.096C175.571 59.096 174.999 58.936 174.551 58.616C174.111 58.296 173.891 57.86 173.891 57.308H175.103C175.103 57.556 175.211 57.748 175.427 57.884C175.651 58.012 175.939 58.076 176.291 58.076H176.795C177.211 58.076 177.519 57.996 177.719 57.836C177.919 57.668 178.019 57.448 178.019 57.176C178.019 56.904 177.923 56.692 177.731 56.54C177.539 56.388 177.267 56.28 176.915 56.216L176.015 56.084C174.703 55.876 174.047 55.24 174.047 54.176C174.047 53.568 174.247 53.104 174.647 52.784C175.047 52.464 175.619 52.304 176.363 52.304H176.819C177.507 52.304 178.059 52.46 178.475 52.772C178.891 53.076 179.099 53.48 179.099 53.984H177.887C177.887 53.784 177.787 53.624 177.587 53.504C177.395 53.384 177.131 53.324 176.795 53.324H176.339C175.971 53.324 175.691 53.4 175.499 53.552C175.307 53.696 175.211 53.904 175.211 54.176C175.211 54.64 175.539 54.924 176.195 55.028L177.095 55.172C177.815 55.284 178.343 55.496 178.679 55.808C179.015 56.112 179.183 56.552 179.183 57.128C179.183 57.744 178.979 58.228 178.571 58.58C178.171 58.924 177.571 59.096 176.771 59.096H176.267Z" fill="#A451E4"/>
<path d="M192.265 12.32C191.553 12.32 190.989 12.14 190.573 11.78C190.165 11.428 189.989 10.932 190.045 10.292L190.225 8.36C190.265 7.96 190.205 7.672 190.045 7.496C189.893 7.312 189.577 7.22 189.097 7.22H187.681V6.152H189.097C189.577 6.152 189.893 6.06 190.045 5.876C190.205 5.692 190.265 5.4 190.225 5L190.045 3.056C189.989 2.424 190.165 1.932 190.573 1.58C190.989 1.22 191.553 1.04 192.265 1.04H192.877V2.108H192.313C191.953 2.108 191.677 2.192 191.485 2.36C191.293 2.528 191.209 2.772 191.233 3.092L191.413 5.036C191.453 5.484 191.361 5.848 191.137 6.128C190.913 6.4 190.597 6.568 190.189 6.632C190.597 6.712 190.913 6.904 191.137 7.208C191.361 7.512 191.453 7.884 191.413 8.324L191.233 10.268C191.209 10.588 191.293 10.832 191.485 11C191.677 11.168 191.953 11.252 192.313 11.252H192.877V12.32H192.265ZM41.8599 124.32V123.252H42.4119C42.7719 123.252 43.0479 123.168 43.2399 123C43.4319 122.832 43.5159 122.588 43.4919 122.268L43.3119 120.324C43.2719 119.884 43.3639 119.512 43.5879 119.208C43.8119 118.896 44.1279 118.704 44.5359 118.632C44.1279 118.56 43.8119 118.388 43.5879 118.116C43.3639 117.844 43.2719 117.484 43.3119 117.036L43.4919 115.092C43.5159 114.772 43.4319 114.528 43.2399 114.36C43.0479 114.192 42.7719 114.108 42.4119 114.108H41.8599V113.04H42.4719C43.1759 113.04 43.7319 113.22 44.1399 113.58C44.5559 113.932 44.7359 114.424 44.6799 115.056L44.4999 117C44.4599 117.4 44.5159 117.692 44.6679 117.876C44.8279 118.06 45.1479 118.152 45.6279 118.152H47.0559V119.22H45.6279C45.1479 119.22 44.8279 119.312 44.6679 119.496C44.5159 119.672 44.4599 119.96 44.4999 120.36L44.6799 122.292C44.7359 122.932 44.5559 123.428 44.1399 123.78C43.7319 124.14 43.1759 124.32 42.4719 124.32H41.8599ZM0.128 140.32V139.252H0.68C1.04 139.252 1.316 139.168 1.508 139C1.7 138.832 1.784 138.588 1.76 138.268L1.58 136.324C1.54 135.884 1.632 135.512 1.856 135.208C2.08 134.896 2.396 134.704 2.804 134.632C2.396 134.56 2.08 134.388 1.856 134.116C1.632 133.844 1.54 133.484 1.58 133.036L1.76 131.092C1.784 130.772 1.7 130.528 1.508 130.36C1.316 130.192 1.04 130.108 0.68 130.108H0.128V129.04H0.74C1.444 129.04 2 129.22 2.408 129.58C2.824 129.932 3.004 130.424 2.948 131.056L2.768 133C2.728 133.4 2.784 133.692 2.936 133.876C3.096 134.06 3.416 134.152 3.896 134.152H5.324V135.22H3.896C3.416 135.22 3.096 135.312 2.936 135.496C2.784 135.672 2.728 135.96 2.768 136.36L2.948 138.292C3.004 138.932 2.824 139.428 2.408 139.78C2 140.14 1.444 140.32 0.74 140.32H0.128Z" fill="#BC9CD4"/>
<path d="M91.0187 35.002L90.2277 38.4941H91.6573L92.1437 35.002H91.0187ZM93.673 35.002L92.882 38.4941H94.3116L94.798 35.002H93.673ZM205.794 38.4941L206.585 35.002H205.156L204.669 38.4941H205.794ZM203.14 38.4941L203.931 35.002H202.507L202.015 38.4941H203.14Z" fill="#58AF86" fill-opacity="0.6"/>
<path d="M98.0666 42.928V43.588H104.703V42.928H98.0666ZM97.5146 41.068V43.972H98.4026V41.728H104.355V43.96H105.279V41.068H97.5146ZM96.3146 33.772V34.468H106.455V33.772H96.3146ZM97.1666 35.284V35.956H105.651V35.284H97.1666ZM95.9426 39.676V40.396H106.779V39.676H95.9426ZM100.875 32.908V35.572H101.787V32.908H100.875ZM98.5826 38.896C98.7986 39.22 99.0146 39.688 99.0746 40L99.9386 39.736C99.8426 39.436 99.6386 38.992 99.3986 38.668L98.5826 38.896ZM103.227 38.608C103.119 38.956 102.867 39.46 102.663 39.796L103.431 40C103.647 39.7 103.935 39.268 104.187 38.812L103.227 38.608ZM98.5826 37.192H104.127V38.152H98.5826V37.192ZM97.7306 36.568V38.764H105.027V36.568H97.7306ZM107.727 34.3V35.116H111.675V34.3H107.727ZM111.411 34.3V34.504C110.931 38.236 109.347 41.188 107.427 42.472C107.619 42.628 107.895 42.952 108.039 43.168C110.115 41.632 111.711 38.68 112.263 34.456L111.711 34.264L111.567 34.3H111.411ZM107.751 36.412C109.119 38.188 110.679 40.612 111.327 42.124L112.035 41.524C111.387 40.048 109.779 37.684 108.399 35.92L107.751 36.412ZM113.715 34.744V35.572H117.795V34.744H113.715ZM113.691 32.944C113.451 34.696 113.019 36.364 112.251 37.432C112.455 37.552 112.827 37.804 112.983 37.948C113.763 36.772 114.255 34.984 114.543 33.052L113.691 32.944ZM117.591 34.744V34.888C117.447 35.692 117.183 36.688 116.955 37.3L117.663 37.528C117.963 36.868 118.263 35.8 118.479 34.876L117.891 34.708L117.735 34.744H117.591ZM115.455 37.492L114.711 37.612C115.179 40.6 116.127 42.904 118.167 43.972C118.299 43.732 118.563 43.384 118.767 43.204C116.835 42.328 115.875 40.156 115.455 37.492ZM114.699 36.292V37.132C114.699 38.896 114.471 41.476 111.411 43.372C111.615 43.516 111.903 43.792 112.047 43.996C115.287 41.956 115.551 39.124 115.551 37.144V36.292H114.699ZM123.039 34.648V35.476H130.239V34.648H123.039ZM124.755 32.932V37.048H125.619V32.932H124.755ZM127.731 32.932V37.048H128.607V32.932H127.731ZM123.579 37.576V43.948H124.407V38.38H128.943V43.888H129.795V37.576H123.579ZM124.023 40.036V40.828H129.279V40.036H124.023ZM124.047 42.52V43.324H129.291V42.52H124.047ZM126.243 37.936V43.084H127.059V37.936H126.243ZM119.691 33.7C121.611 35.392 121.899 37.264 121.899 39.388C121.899 40.912 121.779 42.352 121.479 42.736C121.395 42.856 121.287 42.916 121.107 42.94C120.855 42.964 120.399 42.964 119.847 42.928C120.003 43.18 120.111 43.516 120.111 43.792C120.591 43.828 121.083 43.828 121.467 43.744C121.767 43.696 121.983 43.564 122.151 43.348C122.619 42.7 122.751 41.116 122.751 39.4C122.751 37.168 122.475 35.08 120.315 33.208L119.691 33.7ZM121.875 37.228C121.347 38.368 120.279 39.664 119.331 40.312C119.547 40.48 119.799 40.78 119.943 41.008C120.903 40.216 121.983 38.824 122.547 37.612L121.875 37.228ZM122.379 33.172C121.707 34.36 120.531 35.656 119.295 36.52C119.487 36.676 119.751 36.952 119.883 37.132C121.131 36.232 122.319 34.996 123.075 33.7L122.379 33.172ZM134.799 34.648V35.476H141.999V34.648H134.799ZM136.515 32.932V37.048H137.379V32.932H136.515ZM139.491 32.932V37.048H140.367V32.932H139.491ZM135.339 37.576V43.948H136.167V38.38H140.703V43.888H141.555V37.576H135.339ZM135.783 40.036V40.828H141.039V40.036H135.783ZM135.807 42.52V43.324H141.051V42.52H135.807ZM138.003 37.936V43.084H138.819V37.936H138.003ZM131.451 33.7C133.371 35.392 133.659 37.264 133.659 39.388C133.659 40.912 133.539 42.352 133.239 42.736C133.155 42.856 133.047 42.916 132.867 42.94C132.615 42.964 132.159 42.964 131.607 42.928C131.763 43.18 131.871 43.516 131.871 43.792C132.351 43.828 132.843 43.828 133.227 43.744C133.527 43.696 133.743 43.564 133.911 43.348C134.379 42.7 134.511 41.116 134.511 39.4C134.511 37.168 134.235 35.08 132.075 33.208L131.451 33.7ZM133.635 37.228C133.107 38.368 132.039 39.664 131.091 40.312C131.307 40.48 131.559 40.78 131.703 41.008C132.663 40.216 133.743 38.824 134.307 37.612L133.635 37.228ZM134.139 33.172C133.467 34.36 132.291 35.656 131.055 36.52C131.247 36.676 131.511 36.952 131.643 37.132C132.891 36.232 134.079 34.996 134.835 33.7L134.139 33.172ZM144.291 44.284C145.551 43.852 146.367 42.868 146.367 41.572C146.367 40.732 146.007 40.18 145.335 40.18C144.855 40.18 144.423 40.48 144.423 41.044C144.423 41.62 144.831 41.908 145.323 41.908C145.551 41.908 145.791 41.848 145.959 41.632L145.311 40.72L145.539 41.74C145.539 42.64 144.999 43.252 144.015 43.66L144.291 44.284ZM157.851 42.64V43.48H165.759V42.64H157.851ZM159.795 37.828H163.779V40.24H159.795V37.828ZM159.795 34.624H163.779V36.988H159.795V34.624ZM158.871 33.784V41.08H164.739V33.784H158.871ZM157.503 32.968C156.819 34.792 155.679 36.592 154.479 37.756C154.647 37.972 154.911 38.452 155.007 38.668C156.327 37.324 157.575 35.284 158.367 33.244L157.503 32.968ZM156.219 36.064V43.948H157.119V35.2L157.107 35.188L156.219 36.064ZM166.623 38.212V39.028H177.243V38.212H166.623ZM171.963 40.36V41.152H176.451V40.36H171.963ZM171.567 38.572V43.12H172.479V38.572H171.567ZM169.215 40.528L168.471 40.804C169.407 43.228 171.039 43.732 173.847 43.732H177.147C177.195 43.468 177.339 43.072 177.471 42.868C176.847 42.88 174.339 42.88 173.883 42.88C171.531 42.868 169.947 42.496 169.215 40.528ZM168.699 39.412C168.387 41.176 167.619 42.52 166.347 43.348C166.551 43.492 166.899 43.816 167.031 43.984C168.351 43.024 169.215 41.536 169.599 39.544L168.699 39.412ZM168.759 35.728H175.011V36.712H168.759V35.728ZM168.759 34.108H175.011V35.08H168.759V34.108ZM167.883 33.424V37.396H175.923V33.424H167.883ZM179.655 33.832V34.756H187.779V33.832H179.655ZM178.359 37.444V38.356H189.027V37.444H178.359ZM182.151 37.984C181.719 39.4 180.903 41.368 180.243 42.58L181.083 42.868C181.779 41.692 182.619 39.796 183.231 38.272L182.151 37.984ZM178.467 42.4L178.551 43.36C180.915 43.276 184.551 43.108 187.923 42.94L187.971 42.088C184.515 42.22 180.783 42.352 178.467 42.4ZM185.235 39.892C186.363 41.128 187.599 42.856 188.127 43.984L189.015 43.48C188.463 42.364 187.251 40.696 186.087 39.484L185.235 39.892ZM190.683 34.276V35.02H200.295V34.276H190.683ZM191.259 35.92V36.652H199.671V35.92H191.259ZM190.131 37.6V38.356H200.679V37.6H190.131ZM194.967 34.696V37.828H195.891V34.696H194.967ZM192.351 33.22C192.675 33.64 193.023 34.204 193.155 34.576L193.995 34.252C193.851 33.892 193.491 33.352 193.131 32.968L192.351 33.22ZM197.691 32.908C197.487 33.292 197.115 33.868 196.839 34.228L197.655 34.48C197.943 34.144 198.303 33.664 198.615 33.16L197.691 32.908ZM197.079 37.756L196.323 38.02C197.199 39.316 198.771 40.408 200.379 40.924C200.499 40.684 200.775 40.336 200.979 40.156C199.407 39.748 197.847 38.836 197.079 37.756ZM193.839 37.756C193.035 38.836 191.427 39.808 189.915 40.252C190.107 40.432 190.371 40.756 190.503 40.984C192.039 40.42 193.671 39.316 194.583 38.056L193.839 37.756ZM193.083 39.244V40.036C193.083 41.044 192.879 42.4 190.743 43.324C190.947 43.48 191.223 43.804 191.343 43.996C193.683 42.916 193.959 41.32 193.959 40.06V39.244H193.083ZM196.755 39.232V43.948H197.631V39.232H196.755Z" fill="#58AF86"/>
<path d="M192.265 60.32C191.553 60.32 190.989 60.14 190.573 59.78C190.165 59.428 189.989 58.932 190.045 58.292L190.225 56.36C190.265 55.96 190.205 55.672 190.045 55.496C189.893 55.312 189.577 55.22 189.097 55.22H187.681V54.152H189.097C189.577 54.152 189.893 54.06 190.045 53.876C190.205 53.692 190.265 53.4 190.225 53L190.045 51.056C189.989 50.424 190.165 49.932 190.573 49.58C190.989 49.22 191.553 49.04 192.265 49.04H192.877V50.108H192.313C191.953 50.108 191.677 50.192 191.485 50.36C191.293 50.528 191.209 50.772 191.233 51.092L191.413 53.036C191.453 53.484 191.361 53.848 191.137 54.128C190.913 54.4 190.597 54.568 190.189 54.632C190.597 54.712 190.913 54.904 191.137 55.208C191.361 55.512 191.453 55.884 191.413 56.324L191.233 58.268C191.209 58.588 191.293 58.832 191.485 59C191.677 59.168 191.953 59.252 192.313 59.252H192.877V60.32H192.265Z" fill="#BC9CD5"/>
<path d="M72.1411 75.12C71.3651 75.12 70.7451 74.892 70.2811 74.436C69.8171 73.98 69.5851 73.36 69.5851 72.576V68.4H70.7731V72.576C70.7731 73.056 70.8931 73.428 71.1331 73.692C71.3811 73.948 71.7171 74.076 72.1411 74.076C72.5731 74.076 72.9131 73.948 73.1611 73.692C73.4091 73.428 73.5331 73.056 73.5331 72.576V68.4H74.7211V72.576C74.7211 73.36 74.4851 73.98 74.0131 74.436C73.5491 74.892 72.9251 75.12 72.1411 75.12ZM78.8924 75.096C78.1964 75.096 77.6244 74.936 77.1764 74.616C76.7364 74.296 76.5164 73.86 76.5164 73.308H77.7284C77.7284 73.556 77.8364 73.748 78.0524 73.884C78.2764 74.012 78.5644 74.076 78.9164 74.076H79.4204C79.8364 74.076 80.1444 73.996 80.3444 73.836C80.5444 73.668 80.6444 73.448 80.6444 73.176C80.6444 72.904 80.5484 72.692 80.3564 72.54C80.1644 72.388 79.8924 72.28 79.5404 72.216L78.6404 72.084C77.3284 71.876 76.6724 71.24 76.6724 70.176C76.6724 69.568 76.8724 69.104 77.2724 68.784C77.6724 68.464 78.2444 68.304 78.9884 68.304H79.4444C80.1324 68.304 80.6844 68.46 81.1004 68.772C81.5164 69.076 81.7244 69.48 81.7244 69.984H80.5124C80.5124 69.784 80.4124 69.624 80.2124 69.504C80.0204 69.384 79.7564 69.324 79.4204 69.324H78.9644C78.5964 69.324 78.3164 69.4 78.1244 69.552C77.9324 69.696 77.8364 69.904 77.8364 70.176C77.8364 70.64 78.1644 70.924 78.8204 71.028L79.7204 71.172C80.4404 71.284 80.9684 71.496 81.3044 71.808C81.6404 72.112 81.8084 72.552 81.8084 73.128C81.8084 73.744 81.6044 74.228 81.1964 74.58C80.7964 74.924 80.1964 75.096 79.3964 75.096H78.8924ZM83.4598 75V73.92H85.7758V69.48H83.6998V68.4H86.9638V73.92H89.1358V75H83.4598ZM86.2558 67.236C85.9838 67.236 85.7678 67.168 85.6078 67.032C85.4478 66.888 85.3678 66.696 85.3678 66.456C85.3678 66.208 85.4478 66.012 85.6078 65.868C85.7678 65.724 85.9838 65.652 86.2558 65.652C86.5278 65.652 86.7438 65.724 86.9038 65.868C87.0638 66.012 87.1438 66.208 87.1438 66.456C87.1438 66.696 87.0638 66.888 86.9038 67.032C86.7438 67.168 86.5278 67.236 86.2558 67.236ZM90.4751 75V68.4H91.6511V69.66H91.6751C91.7311 69.22 91.9111 68.88 92.2151 68.64C92.5191 68.4 92.9231 68.28 93.4271 68.28C94.0831 68.28 94.6071 68.488 94.9991 68.904C95.3911 69.32 95.5871 69.88 95.5871 70.584V75H94.3991V70.716C94.3991 70.268 94.2791 69.924 94.0391 69.684C93.7991 69.436 93.4711 69.312 93.0551 69.312C92.6231 69.312 92.2831 69.444 92.0351 69.708C91.7871 69.964 91.6631 70.332 91.6631 70.812V75H90.4751ZM98.2824 77.16V76.104H100.346C101.002 76.104 101.33 75.792 101.33 75.168V74.412L101.354 73.212H101.33C101.282 73.636 101.102 73.972 100.79 74.22C100.478 74.468 100.074 74.592 99.5784 74.592C98.8984 74.592 98.3624 74.368 97.9704 73.92C97.5784 73.472 97.3824 72.868 97.3824 72.108V70.752C97.3824 69.992 97.5784 69.392 97.9704 68.952C98.3624 68.504 98.8984 68.28 99.5784 68.28C100.074 68.28 100.478 68.404 100.79 68.652C101.102 68.892 101.282 69.228 101.33 69.66H101.342L101.33 68.4H102.506V75.18C102.506 75.796 102.314 76.28 101.93 76.632C101.546 76.984 101.018 77.16 100.346 77.16H98.2824ZM99.9504 73.56C100.374 73.56 100.71 73.428 100.958 73.164C101.206 72.9 101.33 72.528 101.33 72.048V70.812C101.33 70.34 101.206 69.972 100.958 69.708C100.71 69.444 100.374 69.312 99.9504 69.312C99.5104 69.312 99.1704 69.444 98.9304 69.708C98.6904 69.964 98.5704 70.332 98.5704 70.812V72.048C98.5704 72.536 98.6904 72.912 98.9304 73.176C99.1704 73.432 99.5104 73.56 99.9504 73.56ZM73.1371 91C72.5371 91 72.0571 90.824 71.6971 90.472C71.3371 90.12 71.1571 89.652 71.1571 89.068V83.32H68.9011V82.24H72.3451V89.056C72.3451 89.32 72.4171 89.532 72.5611 89.692C72.7131 89.844 72.9171 89.92 73.1731 89.92H75.1771V91H73.1371ZM76.5044 91V89.92H78.8204V85.48H76.7444V84.4H80.0084V89.92H82.1804V91H76.5044ZM79.3004 83.236C79.0284 83.236 78.8124 83.168 78.6524 83.032C78.4924 82.888 78.4124 82.696 78.4124 82.456C78.4124 82.208 78.4924 82.012 78.6524 81.868C78.8124 81.724 79.0284 81.652 79.3004 81.652C79.5724 81.652 79.7884 81.724 79.9484 81.868C80.1084 82.012 80.1884 82.208 80.1884 82.456C80.1884 82.696 80.1084 82.888 79.9484 83.032C79.7884 83.168 79.5724 83.236 79.3004 83.236ZM83.5558 91V82.24H84.7438V87.088H85.9678L87.8038 84.4H89.1478L86.9878 87.556L89.1838 91H87.8158L85.9678 88.108H84.7438V91H83.5558ZM93.0191 91.12C92.4911 91.12 92.0271 91.016 91.6271 90.808C91.2351 90.592 90.9311 90.296 90.7151 89.92C90.4991 89.536 90.3911 89.088 90.3911 88.576V86.812C90.3911 86.308 90.4991 85.868 90.7151 85.492C90.9311 85.108 91.2351 84.812 91.6271 84.604C92.0271 84.388 92.4911 84.28 93.0191 84.28C93.5471 84.28 94.0071 84.388 94.3991 84.604C94.7991 84.812 95.1071 85.108 95.3231 85.492C95.5391 85.868 95.6471 86.308 95.6471 86.812V87.988H91.5551V88.576C91.5551 89.088 91.6791 89.476 91.9271 89.74C92.1831 90.004 92.5471 90.136 93.0191 90.136C93.4191 90.136 93.7391 90.068 93.9791 89.932C94.2191 89.788 94.3711 89.576 94.4351 89.296H95.6111C95.5311 89.856 95.2511 90.3 94.7711 90.628C94.2991 90.956 93.7151 91.12 93.0191 91.12ZM91.5551 86.812V87.136H94.4951V86.812C94.4951 86.308 94.3671 85.924 94.1111 85.66C93.8631 85.388 93.4991 85.252 93.0191 85.252C92.5391 85.252 92.1751 85.388 91.9271 85.66C91.6791 85.924 91.5551 86.308 91.5551 86.812ZM71.7211 107.12C71.0571 107.12 70.5251 106.9 70.1251 106.46C69.7251 106.012 69.5251 105.408 69.5251 104.648V102.752C69.5251 101.992 69.7251 101.392 70.1251 100.952C70.5251 100.504 71.0571 100.28 71.7211 100.28C72.2011 100.28 72.5971 100.404 72.9091 100.652C73.2291 100.892 73.4291 101.22 73.5091 101.636H73.5331L73.5091 100.136V98.24H74.6971V107H73.5211V105.752H73.5091C73.4291 106.184 73.2291 106.52 72.9091 106.76C72.5971 107 72.2011 107.12 71.7211 107.12ZM72.1291 106.088C72.5531 106.088 72.8891 105.956 73.1371 105.692C73.3851 105.428 73.5091 105.056 73.5091 104.576V102.824C73.5091 102.344 73.3851 101.972 73.1371 101.708C72.8891 101.444 72.5531 101.312 72.1291 101.312C71.6891 101.312 71.3411 101.444 71.0851 101.708C70.8371 101.964 70.7131 102.332 70.7131 102.812V104.576C70.7131 105.064 70.8371 105.44 71.0851 105.704C71.3411 105.96 71.6891 106.088 72.1291 106.088ZM76.5044 107V105.92H78.8204V101.48H76.7444V100.4H80.0084V105.92H82.1804V107H76.5044ZM79.3004 99.236C79.0284 99.236 78.8124 99.168 78.6524 99.032C78.4924 98.888 78.4124 98.696 78.4124 98.456C78.4124 98.208 78.4924 98.012 78.6524 97.868C78.8124 97.724 79.0284 97.652 79.3004 97.652C79.5724 97.652 79.7884 97.724 79.9484 97.868C80.1084 98.012 80.1884 98.208 80.1884 98.456C80.1884 98.696 80.1084 98.888 79.9484 99.032C79.7884 99.168 79.5724 99.236 79.3004 99.236ZM85.8478 107.096C85.1518 107.096 84.5798 106.936 84.1318 106.616C83.6918 106.296 83.4718 105.86 83.4718 105.308H84.6838C84.6838 105.556 84.7918 105.748 85.0078 105.884C85.2318 106.012 85.5198 106.076 85.8718 106.076H86.3758C86.7918 106.076 87.0998 105.996 87.2998 105.836C87.4998 105.668 87.5998 105.448 87.5998 105.176C87.5998 104.904 87.5038 104.692 87.3118 104.54C87.1198 104.388 86.8478 104.28 86.4958 104.216L85.5958 104.084C84.2838 103.876 83.6278 103.24 83.6278 102.176C83.6278 101.568 83.8278 101.104 84.2278 100.784C84.6278 100.464 85.1998 100.304 85.9438 100.304H86.3998C87.0878 100.304 87.6398 100.46 88.0558 100.772C88.4718 101.076 88.6798 101.48 88.6798 101.984H87.4678C87.4678 101.784 87.3678 101.624 87.1678 101.504C86.9758 101.384 86.7118 101.324 86.3758 101.324H85.9198C85.5518 101.324 85.2718 101.4 85.0798 101.552C84.8878 101.696 84.7918 101.904 84.7918 102.176C84.7918 102.64 85.1198 102.924 85.7758 103.028L86.6758 103.172C87.3958 103.284 87.9238 103.496 88.2598 103.808C88.5958 104.112 88.7638 104.552 88.7638 105.128C88.7638 105.744 88.5598 106.228 88.1518 106.58C87.7518 106.924 87.1518 107.096 86.3518 107.096H85.8478ZM94.0031 107C93.4031 107 92.9231 106.824 92.5631 106.472C92.2031 106.12 92.0231 105.652 92.0231 105.068V99.32H89.7671V98.24H93.2111V105.056C93.2111 105.32 93.2831 105.532 93.4271 105.692C93.5791 105.844 93.7831 105.92 94.0391 105.92H96.0431V107H94.0031ZM97.3704 107V105.92H99.6864V101.48H97.6104V100.4H100.874V105.92H103.046V107H97.3704ZM100.166 99.236C99.8944 99.236 99.6784 99.168 99.5184 99.032C99.3584 98.888 99.2784 98.696 99.2784 98.456C99.2784 98.208 99.3584 98.012 99.5184 97.868C99.6784 97.724 99.8944 97.652 100.166 97.652C100.438 97.652 100.654 97.724 100.814 97.868C100.974 98.012 101.054 98.208 101.054 98.456C101.054 98.696 100.974 98.888 100.814 99.032C100.654 99.168 100.438 99.236 100.166 99.236ZM104.422 107V98.24H105.61V103.088H106.834L108.67 100.4H110.014L107.854 103.556L110.05 107H108.682L106.834 104.108H105.61V107H104.422ZM113.885 107.12C113.357 107.12 112.893 107.016 112.493 106.808C112.101 106.592 111.797 106.296 111.581 105.92C111.365 105.536 111.257 105.088 111.257 104.576V102.812C111.257 102.308 111.365 101.868 111.581 101.492C111.797 101.108 112.101 100.812 112.493 100.604C112.893 100.388 113.357 100.28 113.885 100.28C114.413 100.28 114.873 100.388 115.265 100.604C115.665 100.812 115.973 101.108 116.189 101.492C116.405 101.868 116.513 102.308 116.513 102.812V103.988H112.421V104.576C112.421 105.088 112.545 105.476 112.793 105.74C113.049 106.004 113.413 106.136 113.885 106.136C114.285 106.136 114.605 106.068 114.845 105.932C115.085 105.788 115.237 105.576 115.301 105.296H116.477C116.397 105.856 116.117 106.3 115.637 106.628C115.165 106.956 114.581 107.12 113.885 107.12ZM112.421 102.812V103.136H115.361V102.812C115.361 102.308 115.233 101.924 114.977 101.66C114.729 101.388 114.365 101.252 113.885 101.252C113.405 101.252 113.041 101.388 112.793 101.66C112.545 101.924 112.421 102.308 112.421 102.812Z" fill="#DA8A2C"/>
<path d="M106.93 70.128C106.618 70.128 106.366 70.044 106.174 69.876C105.99 69.708 105.898 69.484 105.898 69.204C105.898 68.924 105.99 68.7 106.174 68.532C106.366 68.364 106.618 68.28 106.93 68.28C107.242 68.28 107.49 68.364 107.674 68.532C107.866 68.7 107.962 68.924 107.962 69.204C107.962 69.484 107.866 69.708 107.674 69.876C107.49 70.044 107.242 70.128 106.93 70.128ZM106.93 75.12C106.618 75.12 106.366 75.036 106.174 74.868C105.99 74.7 105.898 74.476 105.898 74.196C105.898 73.916 105.99 73.692 106.174 73.524C106.366 73.348 106.618 73.26 106.93 73.26C107.242 73.26 107.49 73.348 107.674 73.524C107.866 73.692 107.962 73.916 107.962 74.196C107.962 74.476 107.866 74.7 107.674 74.868C107.49 75.036 107.242 75.12 106.93 75.12ZM99.9744 86.128C99.6624 86.128 99.4104 86.044 99.2184 85.876C99.0344 85.708 98.9424 85.484 98.9424 85.204C98.9424 84.924 99.0344 84.7 99.2184 84.532C99.4104 84.364 99.6624 84.28 99.9744 84.28C100.286 84.28 100.534 84.364 100.718 84.532C100.91 84.7 101.006 84.924 101.006 85.204C101.006 85.484 100.91 85.708 100.718 85.876C100.534 86.044 100.286 86.128 99.9744 86.128ZM99.9744 91.12C99.6624 91.12 99.4104 91.036 99.2184 90.868C99.0344 90.7 98.9424 90.476 98.9424 90.196C98.9424 89.916 99.0344 89.692 99.2184 89.524C99.4104 89.348 99.6624 89.26 99.9744 89.26C100.286 89.26 100.534 89.348 100.718 89.524C100.91 89.692 101.006 89.916 101.006 90.196C101.006 90.476 100.91 90.7 100.718 90.868C100.534 91.036 100.286 91.12 99.9744 91.12ZM120.84 102.128C120.528 102.128 120.276 102.044 120.084 101.876C119.9 101.708 119.808 101.484 119.808 101.204C119.808 100.924 119.9 100.7 120.084 100.532C120.276 100.364 120.528 100.28 120.84 100.28C121.152 100.28 121.4 100.364 121.584 100.532C121.776 100.7 121.872 100.924 121.872 101.204C121.872 101.484 121.776 101.708 121.584 101.876C121.4 102.044 121.152 102.128 120.84 102.128ZM120.84 107.12C120.528 107.12 120.276 107.036 120.084 106.868C119.9 106.7 119.808 106.476 119.808 106.196C119.808 105.916 119.9 105.692 120.084 105.524C120.276 105.348 120.528 105.26 120.84 105.26C121.152 105.26 121.4 105.348 121.584 105.524C121.776 105.692 121.872 105.916 121.872 106.196C121.872 106.476 121.776 106.7 121.584 106.868C121.4 107.036 121.152 107.12 120.84 107.12Z" fill="#DA8A2C" fill-opacity="0.6"/>
<path d="M118.296 75V66.24H119.484V69.948H120.708L122.58 66.24H123.876L121.752 70.44L123.984 75H122.64L120.684 70.992H119.484V75H118.296ZM127.796 75.096C126.988 75.096 126.348 74.872 125.876 74.424C125.404 73.968 125.168 73.348 125.168 72.564V70.836C125.168 70.052 125.404 69.436 125.876 68.988C126.348 68.532 126.988 68.304 127.796 68.304C128.604 68.304 129.244 68.532 129.716 68.988C130.188 69.436 130.424 70.048 130.424 70.824V72.564C130.424 73.348 130.188 73.968 129.716 74.424C129.244 74.872 128.604 75.096 127.796 75.096ZM127.796 74.052C128.244 74.052 128.596 73.928 128.852 73.68C129.108 73.424 129.236 73.052 129.236 72.564V70.836C129.236 70.348 129.108 69.98 128.852 69.732C128.596 69.476 128.244 69.348 127.796 69.348C127.348 69.348 126.996 69.476 126.74 69.732C126.484 69.98 126.356 70.348 126.356 70.836V72.564C126.356 73.052 126.484 73.424 126.74 73.68C126.996 73.928 127.348 74.052 127.796 74.052ZM135.471 75C134.903 75 134.451 74.836 134.115 74.508C133.787 74.18 133.623 73.744 133.623 73.2V69.48H131.775V68.4H133.623V66.54H134.811V68.4H137.415V69.48H134.811V73.188C134.811 73.404 134.871 73.58 134.991 73.716C135.119 73.852 135.287 73.92 135.495 73.92H137.295V75H135.471ZM142.69 75C142.09 75 141.61 74.824 141.25 74.472C140.89 74.12 140.71 73.652 140.71 73.068V67.32H138.454V66.24H141.898V73.056C141.898 73.32 141.97 73.532 142.114 73.692C142.266 73.844 142.47 73.92 142.726 73.92H144.73V75H142.69ZM146.058 75V73.92H148.374V69.48H146.298V68.4H149.562V73.92H151.734V75H146.058ZM148.854 67.236C148.582 67.236 148.366 67.168 148.206 67.032C148.046 66.888 147.966 66.696 147.966 66.456C147.966 66.208 148.046 66.012 148.206 65.868C148.366 65.724 148.582 65.652 148.854 65.652C149.126 65.652 149.342 65.724 149.502 65.868C149.662 66.012 149.742 66.208 149.742 66.456C149.742 66.696 149.662 66.888 149.502 67.032C149.342 67.168 149.126 67.236 148.854 67.236ZM153.073 75V68.4H154.249V69.66H154.273C154.329 69.22 154.509 68.88 154.813 68.64C155.117 68.4 155.521 68.28 156.025 68.28C156.681 68.28 157.205 68.488 157.597 68.904C157.989 69.32 158.185 69.88 158.185 70.584V75H156.997V70.716C156.997 70.268 156.877 69.924 156.637 69.684C156.397 69.436 156.069 69.312 155.653 69.312C155.221 69.312 154.881 69.444 154.633 69.708C154.385 69.964 154.261 70.332 154.261 70.812V75H153.073ZM180.894 75V66.24H183.618C184.154 66.24 184.622 66.348 185.022 66.564C185.422 66.772 185.734 67.068 185.958 67.452C186.182 67.828 186.294 68.272 186.294 68.784C186.294 69.376 186.142 69.884 185.838 70.308C185.534 70.732 185.122 71.028 184.602 71.196L186.414 75H185.034L183.402 71.34H182.082V75H180.894ZM182.082 70.284H183.618C184.066 70.284 184.418 70.148 184.674 69.876C184.938 69.604 185.07 69.244 185.07 68.796C185.07 68.34 184.938 67.976 184.674 67.704C184.41 67.432 184.058 67.296 183.618 67.296H182.082V70.284ZM190.381 75.12C189.605 75.12 188.985 74.892 188.521 74.436C188.057 73.98 187.825 73.36 187.825 72.576V68.4H189.013V72.576C189.013 73.056 189.133 73.428 189.373 73.692C189.621 73.948 189.957 74.076 190.381 74.076C190.813 74.076 191.153 73.948 191.401 73.692C191.649 73.428 191.773 73.056 191.773 72.576V68.4H192.961V72.576C192.961 73.36 192.725 73.98 192.253 74.436C191.789 74.892 191.165 75.12 190.381 75.12ZM197.133 75.096C196.437 75.096 195.865 74.936 195.417 74.616C194.977 74.296 194.757 73.86 194.757 73.308H195.969C195.969 73.556 196.077 73.748 196.293 73.884C196.517 74.012 196.805 74.076 197.157 74.076H197.661C198.077 74.076 198.385 73.996 198.585 73.836C198.785 73.668 198.885 73.448 198.885 73.176C198.885 72.904 198.789 72.692 198.597 72.54C198.405 72.388 198.133 72.28 197.781 72.216L196.881 72.084C195.569 71.876 194.913 71.24 194.913 70.176C194.913 69.568 195.113 69.104 195.513 68.784C195.913 68.464 196.485 68.304 197.229 68.304H197.685C198.373 68.304 198.925 68.46 199.341 68.772C199.757 69.076 199.965 69.48 199.965 69.984H198.753C198.753 69.784 198.653 69.624 198.453 69.504C198.261 69.384 197.997 69.324 197.661 69.324H197.205C196.837 69.324 196.557 69.4 196.365 69.552C196.173 69.696 196.077 69.904 196.077 70.176C196.077 70.64 196.405 70.924 197.061 71.028L197.961 71.172C198.681 71.284 199.209 71.496 199.545 71.808C199.881 72.112 200.049 72.552 200.049 73.128C200.049 73.744 199.845 74.228 199.437 74.58C199.037 74.924 198.437 75.096 197.637 75.096H197.133ZM205.024 75C204.456 75 204.004 74.836 203.668 74.508C203.34 74.18 203.176 73.744 203.176 73.2V69.48H201.328V68.4H203.176V66.54H204.364V68.4H206.968V69.48H204.364V73.188C204.364 73.404 204.424 73.58 204.544 73.716C204.672 73.852 204.84 73.92 205.048 73.92H206.848V75H205.024ZM232.161 75.12C231.593 75.12 231.097 75.02 230.673 74.82C230.249 74.62 229.921 74.34 229.689 73.98C229.457 73.612 229.341 73.18 229.341 72.684H230.529C230.529 73.1 230.677 73.436 230.973 73.692C231.277 73.94 231.677 74.064 232.173 74.064C232.653 74.064 233.033 73.94 233.313 73.692C233.593 73.436 233.733 73.1 233.733 72.684C233.733 72.356 233.645 72.068 233.469 71.82C233.293 71.564 233.053 71.392 232.749 71.304L231.513 70.932C230.897 70.748 230.417 70.44 230.073 70.008C229.737 69.576 229.569 69.068 229.569 68.484C229.569 67.764 229.805 67.192 230.277 66.768C230.749 66.336 231.385 66.12 232.185 66.12C232.977 66.12 233.609 66.336 234.081 66.768C234.553 67.192 234.789 67.76 234.789 68.472H233.601C233.601 68.08 233.473 67.764 233.217 67.524C232.961 67.284 232.617 67.164 232.185 67.164C231.745 67.164 231.393 67.284 231.129 67.524C230.865 67.756 230.733 68.068 230.733 68.46C230.733 68.772 230.821 69.04 230.997 69.264C231.181 69.488 231.433 69.648 231.753 69.744L233.025 70.14C233.609 70.324 234.069 70.64 234.405 71.088C234.741 71.536 234.909 72.064 234.909 72.672C234.909 73.168 234.793 73.6 234.561 73.968C234.337 74.336 234.021 74.62 233.613 74.82C233.205 75.02 232.721 75.12 232.161 75.12ZM236.897 75L235.853 68.4H236.861L237.497 72.912C237.521 73.104 237.541 73.316 237.557 73.548C237.581 73.772 237.601 73.956 237.617 74.1H237.665C237.681 73.948 237.701 73.76 237.725 73.536C237.757 73.312 237.789 73.104 237.821 72.912L238.517 68.4H239.645L240.341 72.912C240.373 73.112 240.401 73.324 240.425 73.548C240.457 73.764 240.481 73.948 240.497 74.1H240.545C240.569 73.956 240.593 73.772 240.617 73.548C240.641 73.316 240.665 73.104 240.689 72.912L241.349 68.4H242.309L241.217 75H239.945L239.261 70.56C239.229 70.344 239.197 70.12 239.165 69.888C239.133 69.648 239.109 69.456 239.093 69.312H239.045C239.029 69.456 239.005 69.648 238.973 69.888C238.949 70.12 238.921 70.344 238.889 70.56L238.181 75H236.897ZM243.432 75V73.92H245.748V69.48H243.672V68.4H246.936V73.92H249.108V75H243.432ZM246.228 67.236C245.956 67.236 245.74 67.168 245.58 67.032C245.42 66.888 245.34 66.696 245.34 66.456C245.34 66.208 245.42 66.012 245.58 65.868C245.74 65.724 245.956 65.652 246.228 65.652C246.5 65.652 246.716 65.724 246.876 65.868C247.036 66.012 247.116 66.208 247.116 66.456C247.116 66.696 247.036 66.888 246.876 67.032C246.716 67.168 246.5 67.236 246.228 67.236ZM251.983 75V70.152H250.087V69.072H251.983V67.968C251.983 67.44 252.155 67.02 252.499 66.708C252.843 66.396 253.311 66.24 253.903 66.24H255.835V67.308H253.903C253.415 67.308 253.171 67.532 253.171 67.98V69.072H255.835V70.152H253.171V75H251.983ZM260.667 75C260.099 75 259.647 74.836 259.311 74.508C258.983 74.18 258.819 73.744 258.819 73.2V69.48H256.971V68.4H258.819V66.54H260.007V68.4H262.611V69.48H260.007V73.188C260.007 73.404 260.067 73.58 260.187 73.716C260.315 73.852 260.483 73.92 260.691 73.92H262.491V75H260.667ZM287.408 75.12C286.552 75.12 285.88 74.884 285.392 74.412C284.904 73.932 284.66 73.28 284.66 72.456H285.848C285.848 72.968 285.984 73.364 286.256 73.644C286.536 73.924 286.92 74.064 287.408 74.064C287.896 74.064 288.276 73.924 288.548 73.644C288.828 73.364 288.968 72.972 288.968 72.468V67.32H286.508V66.24H290.156V72.468C290.156 73.284 289.908 73.932 289.412 74.412C288.924 74.884 288.256 75.12 287.408 75.12ZM294.111 75.12C293.415 75.12 292.867 74.944 292.467 74.592C292.075 74.232 291.879 73.748 291.879 73.14C291.879 72.516 292.083 72.028 292.491 71.676C292.907 71.316 293.471 71.136 294.183 71.136H296.103V70.512C296.103 70.128 295.983 69.832 295.743 69.624C295.511 69.408 295.187 69.3 294.771 69.3C294.395 69.3 294.079 69.384 293.823 69.552C293.575 69.712 293.423 69.924 293.367 70.188H292.203C292.235 69.804 292.367 69.472 292.599 69.192C292.831 68.904 293.135 68.68 293.511 68.52C293.887 68.36 294.311 68.28 294.783 68.28C295.551 68.28 296.159 68.48 296.607 68.88C297.063 69.272 297.291 69.804 297.291 70.476V75H296.127V73.776H296.115C296.059 74.192 295.851 74.52 295.491 74.76C295.131 75 294.671 75.12 294.111 75.12ZM294.435 74.196C294.915 74.196 295.311 74.076 295.623 73.836C295.943 73.588 296.103 73.272 296.103 72.888V71.988H294.207C293.855 71.988 293.575 72.084 293.367 72.276C293.167 72.468 293.067 72.728 293.067 73.056C293.067 73.416 293.187 73.696 293.427 73.896C293.667 74.096 294.003 74.196 294.435 74.196ZM300.91 75L298.63 68.4H299.854L301.342 72.732C301.43 72.988 301.502 73.24 301.558 73.488C301.622 73.736 301.67 73.928 301.702 74.064C301.742 73.928 301.79 73.736 301.846 73.488C301.902 73.24 301.974 72.988 302.062 72.732L303.502 68.4H304.738L302.446 75H300.91ZM308.022 75.12C307.326 75.12 306.778 74.944 306.378 74.592C305.986 74.232 305.79 73.748 305.79 73.14C305.79 72.516 305.994 72.028 306.402 71.676C306.818 71.316 307.382 71.136 308.094 71.136H310.014V70.512C310.014 70.128 309.894 69.832 309.654 69.624C309.422 69.408 309.098 69.3 308.682 69.3C308.306 69.3 307.99 69.384 307.734 69.552C307.486 69.712 307.334 69.924 307.278 70.188H306.114C306.146 69.804 306.278 69.472 306.51 69.192C306.742 68.904 307.046 68.68 307.422 68.52C307.798 68.36 308.222 68.28 308.694 68.28C309.462 68.28 310.07 68.48 310.518 68.88C310.974 69.272 311.202 69.804 311.202 70.476V75H310.038V73.776H310.026C309.97 74.192 309.762 74.52 309.402 74.76C309.042 75 308.582 75.12 308.022 75.12ZM308.346 74.196C308.826 74.196 309.222 74.076 309.534 73.836C309.854 73.588 310.014 73.272 310.014 72.888V71.988H308.118C307.766 71.988 307.486 72.084 307.278 72.276C307.078 72.468 306.978 72.728 306.978 73.056C306.978 73.416 307.098 73.696 307.338 73.896C307.578 74.096 307.914 74.196 308.346 74.196ZM111.341 91V82.24H112.529V85.948H113.753L115.625 82.24H116.921L114.797 86.44L117.029 91H115.685L113.729 86.992H112.529V91H111.341ZM120.84 91.096C120.032 91.096 119.392 90.872 118.92 90.424C118.448 89.968 118.212 89.348 118.212 88.564V86.836C118.212 86.052 118.448 85.436 118.92 84.988C119.392 84.532 120.032 84.304 120.84 84.304C121.648 84.304 122.288 84.532 122.76 84.988C123.232 85.436 123.468 86.048 123.468 86.824V88.564C123.468 89.348 123.232 89.968 122.76 90.424C122.288 90.872 121.648 91.096 120.84 91.096ZM120.84 90.052C121.288 90.052 121.64 89.928 121.896 89.68C122.152 89.424 122.28 89.052 122.28 88.564V86.836C122.28 86.348 122.152 85.98 121.896 85.732C121.64 85.476 121.288 85.348 120.84 85.348C120.392 85.348 120.04 85.476 119.784 85.732C119.528 85.98 119.4 86.348 119.4 86.836V88.564C119.4 89.052 119.528 89.424 119.784 89.68C120.04 89.928 120.392 90.052 120.84 90.052ZM128.516 91C127.948 91 127.496 90.836 127.16 90.508C126.832 90.18 126.668 89.744 126.668 89.2V85.48H124.82V84.4H126.668V82.54H127.856V84.4H130.46V85.48H127.856V89.188C127.856 89.404 127.916 89.58 128.036 89.716C128.164 89.852 128.332 89.92 128.54 89.92H130.34V91H128.516ZM135.735 91C135.135 91 134.655 90.824 134.295 90.472C133.935 90.12 133.755 89.652 133.755 89.068V83.32H131.499V82.24H134.943V89.056C134.943 89.32 135.015 89.532 135.159 89.692C135.311 89.844 135.515 89.92 135.771 89.92H137.775V91H135.735ZM139.102 91V89.92H141.418V85.48H139.342V84.4H142.606V89.92H144.778V91H139.102ZM141.898 83.236C141.626 83.236 141.41 83.168 141.25 83.032C141.09 82.888 141.01 82.696 141.01 82.456C141.01 82.208 141.09 82.012 141.25 81.868C141.41 81.724 141.626 81.652 141.898 81.652C142.17 81.652 142.386 81.724 142.546 81.868C142.706 82.012 142.786 82.208 142.786 82.456C142.786 82.696 142.706 82.888 142.546 83.032C142.386 83.168 142.17 83.236 141.898 83.236ZM146.118 91V84.4H147.294V85.66H147.318C147.374 85.22 147.554 84.88 147.858 84.64C148.162 84.4 148.566 84.28 149.07 84.28C149.726 84.28 150.25 84.488 150.642 84.904C151.034 85.32 151.23 85.88 151.23 86.584V91H150.042V86.716C150.042 86.268 149.922 85.924 149.682 85.684C149.442 85.436 149.114 85.312 148.698 85.312C148.266 85.312 147.926 85.444 147.678 85.708C147.43 85.964 147.306 86.332 147.306 86.812V91H146.118ZM173.939 91V82.24H176.663C177.199 82.24 177.667 82.348 178.067 82.564C178.467 82.772 178.779 83.068 179.003 83.452C179.227 83.828 179.339 84.272 179.339 84.784C179.339 85.376 179.187 85.884 178.883 86.308C178.579 86.732 178.167 87.028 177.647 87.196L179.459 91H178.079L176.447 87.34H175.127V91H173.939ZM175.127 86.284H176.663C177.111 86.284 177.463 86.148 177.719 85.876C177.983 85.604 178.115 85.244 178.115 84.796C178.115 84.34 177.983 83.976 177.719 83.704C177.455 83.432 177.103 83.296 176.663 83.296H175.127V86.284ZM183.426 91.12C182.65 91.12 182.03 90.892 181.566 90.436C181.102 89.98 180.87 89.36 180.87 88.576V84.4H182.058V88.576C182.058 89.056 182.178 89.428 182.418 89.692C182.666 89.948 183.002 90.076 183.426 90.076C183.858 90.076 184.198 89.948 184.446 89.692C184.694 89.428 184.818 89.056 184.818 88.576V84.4H186.006V88.576C186.006 89.36 185.77 89.98 185.298 90.436C184.834 90.892 184.21 91.12 183.426 91.12ZM190.177 91.096C189.481 91.096 188.909 90.936 188.461 90.616C188.021 90.296 187.801 89.86 187.801 89.308H189.013C189.013 89.556 189.121 89.748 189.337 89.884C189.561 90.012 189.849 90.076 190.201 90.076H190.705C191.121 90.076 191.429 89.996 191.629 89.836C191.829 89.668 191.929 89.448 191.929 89.176C191.929 88.904 191.833 88.692 191.641 88.54C191.449 88.388 191.177 88.28 190.825 88.216L189.925 88.084C188.613 87.876 187.957 87.24 187.957 86.176C187.957 85.568 188.157 85.104 188.557 84.784C188.957 84.464 189.529 84.304 190.273 84.304H190.729C191.417 84.304 191.969 84.46 192.385 84.772C192.801 85.076 193.009 85.48 193.009 85.984H191.797C191.797 85.784 191.697 85.624 191.497 85.504C191.305 85.384 191.041 85.324 190.705 85.324H190.249C189.881 85.324 189.601 85.4 189.409 85.552C189.217 85.696 189.121 85.904 189.121 86.176C189.121 86.64 189.449 86.924 190.105 87.028L191.005 87.172C191.725 87.284 192.253 87.496 192.589 87.808C192.925 88.112 193.093 88.552 193.093 89.128C193.093 89.744 192.889 90.228 192.481 90.58C192.081 90.924 191.481 91.096 190.681 91.096H190.177ZM198.069 91C197.501 91 197.049 90.836 196.713 90.508C196.385 90.18 196.221 89.744 196.221 89.2V85.48H194.373V84.4H196.221V82.54H197.409V84.4H200.013V85.48H197.409V89.188C197.409 89.404 197.469 89.58 197.589 89.716C197.717 89.852 197.885 89.92 198.093 89.92H199.893V91H198.069ZM224.582 91V83.32H222.206V82.24H228.134V83.32H225.77V91H224.582ZM230.637 93.16L231.597 90.604L229.065 84.4H230.361L231.897 88.3C231.953 88.452 232.009 88.632 232.065 88.84C232.121 89.04 232.165 89.208 232.197 89.344C232.229 89.208 232.273 89.04 232.329 88.84C232.393 88.632 232.453 88.452 232.509 88.3L233.937 84.4H235.185L231.873 93.16H230.637ZM236.549 93.16V84.4H237.725V85.636H237.737C237.817 85.212 238.013 84.88 238.325 84.64C238.645 84.4 239.049 84.28 239.537 84.28C240.193 84.28 240.721 84.504 241.121 84.952C241.521 85.392 241.721 85.992 241.721 86.752V88.636C241.721 89.404 241.521 90.012 241.121 90.46C240.729 90.9 240.201 91.12 239.537 91.12C239.057 91.12 238.657 91 238.337 90.76C238.017 90.512 237.817 90.176 237.737 89.752H237.713L237.737 91.252V93.16H236.549ZM239.129 90.088C239.569 90.088 239.913 89.96 240.161 89.704C240.409 89.44 240.533 89.064 240.533 88.576V86.812C240.533 86.332 240.409 85.964 240.161 85.708C239.913 85.444 239.569 85.312 239.129 85.312C238.697 85.312 238.357 85.444 238.109 85.708C237.861 85.972 237.737 86.344 237.737 86.824V88.576C237.737 89.056 237.861 89.428 238.109 89.692C238.357 89.956 238.697 90.088 239.129 90.088ZM246.036 91.12C245.508 91.12 245.044 91.016 244.644 90.808C244.252 90.592 243.948 90.296 243.732 89.92C243.516 89.536 243.408 89.088 243.408 88.576V86.812C243.408 86.308 243.516 85.868 243.732 85.492C243.948 85.108 244.252 84.812 244.644 84.604C245.044 84.388 245.508 84.28 246.036 84.28C246.564 84.28 247.024 84.388 247.416 84.604C247.816 84.812 248.124 85.108 248.34 85.492C248.556 85.868 248.664 86.308 248.664 86.812V87.988H244.572V88.576C244.572 89.088 244.696 89.476 244.944 89.74C245.2 90.004 245.564 90.136 246.036 90.136C246.436 90.136 246.756 90.068 246.996 89.932C247.236 89.788 247.388 89.576 247.452 89.296H248.628C248.548 89.856 248.268 90.3 247.788 90.628C247.316 90.956 246.732 91.12 246.036 91.12ZM244.572 86.812V87.136H247.512V86.812C247.512 86.308 247.384 85.924 247.128 85.66C246.88 85.388 246.516 85.252 246.036 85.252C245.556 85.252 245.192 85.388 244.944 85.66C244.696 85.924 244.572 86.308 244.572 86.812ZM253.027 91.12C252.459 91.12 251.963 91.02 251.539 90.82C251.115 90.62 250.787 90.34 250.555 89.98C250.323 89.612 250.207 89.18 250.207 88.684H251.395C251.395 89.1 251.543 89.436 251.839 89.692C252.143 89.94 252.543 90.064 253.039 90.064C253.519 90.064 253.899 89.94 254.179 89.692C254.459 89.436 254.599 89.1 254.599 88.684C254.599 88.356 254.511 88.068 254.335 87.82C254.159 87.564 253.919 87.392 253.615 87.304L252.379 86.932C251.763 86.748 251.283 86.44 250.939 86.008C250.603 85.576 250.435 85.068 250.435 84.484C250.435 83.764 250.671 83.192 251.143 82.768C251.615 82.336 252.251 82.12 253.051 82.12C253.843 82.12 254.475 82.336 254.947 82.768C255.419 83.192 255.655 83.76 255.655 84.472H254.467C254.467 84.08 254.339 83.764 254.083 83.524C253.827 83.284 253.483 83.164 253.051 83.164C252.611 83.164 252.259 83.284 251.995 83.524C251.731 83.756 251.599 84.068 251.599 84.46C251.599 84.772 251.687 85.04 251.863 85.264C252.047 85.488 252.299 85.648 252.619 85.744L253.891 86.14C254.475 86.324 254.935 86.64 255.271 87.088C255.607 87.536 255.775 88.064 255.775 88.672C255.775 89.168 255.659 89.6 255.427 89.968C255.203 90.336 254.887 90.62 254.479 90.82C254.071 91.02 253.587 91.12 253.027 91.12ZM259.995 91.12C259.187 91.12 258.539 90.896 258.051 90.448C257.563 89.992 257.319 89.368 257.319 88.576V86.812C257.319 86.028 257.563 85.412 258.051 84.964C258.539 84.508 259.187 84.28 259.995 84.28C260.771 84.28 261.395 84.488 261.867 84.904C262.339 85.312 262.587 85.872 262.611 86.584H261.435C261.411 86.184 261.271 85.876 261.015 85.66C260.759 85.436 260.419 85.324 259.995 85.324C259.539 85.324 259.175 85.456 258.903 85.72C258.639 85.976 258.507 86.34 258.507 86.812V88.576C258.507 89.056 258.639 89.424 258.903 89.68C259.175 89.936 259.539 90.064 259.995 90.064C260.419 90.064 260.759 89.956 261.015 89.74C261.271 89.524 261.411 89.216 261.435 88.816H262.611C262.587 89.528 262.339 90.092 261.867 90.508C261.395 90.916 260.771 91.12 259.995 91.12ZM264.562 91V84.4H265.738V85.66H265.762C265.818 85.22 265.998 84.88 266.302 84.64C266.614 84.4 267.022 84.28 267.526 84.28C268.206 84.28 268.75 84.5 269.158 84.94C269.566 85.38 269.77 85.972 269.77 86.716V87.196H268.57V86.812C268.57 86.34 268.446 85.972 268.198 85.708C267.958 85.444 267.602 85.312 267.13 85.312C266.21 85.312 265.75 85.82 265.75 86.836V91H264.562ZM271.253 91V89.92H273.569V85.48H271.493V84.4H274.757V89.92H276.929V91H271.253ZM274.049 83.236C273.777 83.236 273.561 83.168 273.401 83.032C273.241 82.888 273.161 82.696 273.161 82.456C273.161 82.208 273.241 82.012 273.401 81.868C273.561 81.724 273.777 81.652 274.049 81.652C274.321 81.652 274.537 81.724 274.697 81.868C274.857 82.012 274.937 82.208 274.937 82.456C274.937 82.696 274.857 82.888 274.697 83.032C274.537 83.168 274.321 83.236 274.049 83.236ZM278.28 93.16V84.4H279.456V85.636H279.468C279.548 85.212 279.744 84.88 280.056 84.64C280.376 84.4 280.78 84.28 281.268 84.28C281.924 84.28 282.452 84.504 282.852 84.952C283.252 85.392 283.452 85.992 283.452 86.752V88.636C283.452 89.404 283.252 90.012 282.852 90.46C282.46 90.9 281.932 91.12 281.268 91.12C280.788 91.12 280.388 91 280.068 90.76C279.748 90.512 279.548 90.176 279.468 89.752H279.444L279.468 91.252V93.16H278.28ZM280.86 90.088C281.3 90.088 281.644 89.96 281.892 89.704C282.14 89.44 282.264 89.064 282.264 88.576V86.812C282.264 86.332 282.14 85.964 281.892 85.708C281.644 85.444 281.3 85.312 280.86 85.312C280.428 85.312 280.088 85.444 279.84 85.708C279.592 85.972 279.468 86.344 279.468 86.824V88.576C279.468 89.056 279.592 89.428 279.84 89.692C280.088 89.956 280.428 90.088 280.86 90.088ZM288.488 91C287.92 91 287.468 90.836 287.132 90.508C286.804 90.18 286.64 89.744 286.64 89.2V85.48H284.792V84.4H286.64V82.54H287.828V84.4H290.432V85.48H287.828V89.188C287.828 89.404 287.888 89.58 288.008 89.716C288.136 89.852 288.304 89.92 288.512 89.92H290.312V91H288.488ZM134.799 107.12C133.991 107.12 133.347 106.896 132.867 106.448C132.395 105.992 132.159 105.368 132.159 104.576V100.652C132.159 99.868 132.395 99.252 132.867 98.804C133.347 98.348 133.991 98.12 134.799 98.12C135.599 98.12 136.235 98.348 136.707 98.804C137.187 99.26 137.427 99.876 137.427 100.652H136.239C136.239 100.18 136.111 99.816 135.855 99.56C135.599 99.304 135.247 99.176 134.799 99.176C134.343 99.176 133.987 99.304 133.731 99.56C133.475 99.816 133.347 100.18 133.347 100.652V104.576C133.347 105.056 133.475 105.424 133.731 105.68C133.987 105.936 134.343 106.064 134.799 106.064C135.247 106.064 135.599 105.936 135.855 105.68C136.111 105.424 136.239 105.056 136.239 104.576H137.427C137.427 105.36 137.187 105.98 136.707 106.436C136.235 106.892 135.599 107.12 134.799 107.12ZM162.62 107.12C161.812 107.12 161.168 106.896 160.688 106.448C160.216 105.992 159.98 105.368 159.98 104.576V100.652C159.98 99.868 160.216 99.252 160.688 98.804C161.168 98.348 161.812 98.12 162.62 98.12C163.42 98.12 164.056 98.348 164.528 98.804C165.008 99.26 165.248 99.876 165.248 100.652H164.06C164.06 100.18 163.932 99.816 163.676 99.56C163.42 99.304 163.068 99.176 162.62 99.176C162.164 99.176 161.808 99.304 161.552 99.56C161.296 99.816 161.168 100.18 161.168 100.652V104.576C161.168 105.056 161.296 105.424 161.552 105.68C161.808 105.936 162.164 106.064 162.62 106.064C163.068 106.064 163.42 105.936 163.676 105.68C163.932 105.424 164.06 105.056 164.06 104.576H165.248C165.248 105.36 165.008 105.98 164.528 106.436C164.056 106.892 163.42 107.12 162.62 107.12ZM166.996 109.16V100.4H168.172V101.636H168.184C168.264 101.212 168.46 100.88 168.772 100.64C169.092 100.4 169.496 100.28 169.984 100.28C170.64 100.28 171.168 100.504 171.568 100.952C171.968 101.392 172.168 101.992 172.168 102.752V104.636C172.168 105.404 171.968 106.012 171.568 106.46C171.176 106.9 170.648 107.12 169.984 107.12C169.504 107.12 169.104 107 168.784 106.76C168.464 106.512 168.264 106.176 168.184 105.752H168.16L168.184 107.252V109.16H166.996ZM169.576 106.088C170.016 106.088 170.36 105.96 170.608 105.704C170.856 105.44 170.98 105.064 170.98 104.576V102.812C170.98 102.332 170.856 101.964 170.608 101.708C170.36 101.444 170.016 101.312 169.576 101.312C169.144 101.312 168.804 101.444 168.556 101.708C168.308 101.972 168.184 102.344 168.184 102.824V104.576C168.184 105.056 168.308 105.428 168.556 105.692C168.804 105.956 169.144 106.088 169.576 106.088ZM173.951 109.16V100.4H175.127V101.636H175.139C175.219 101.212 175.415 100.88 175.727 100.64C176.047 100.4 176.451 100.28 176.939 100.28C177.595 100.28 178.123 100.504 178.523 100.952C178.923 101.392 179.123 101.992 179.123 102.752V104.636C179.123 105.404 178.923 106.012 178.523 106.46C178.131 106.9 177.603 107.12 176.939 107.12C176.459 107.12 176.059 107 175.739 106.76C175.419 106.512 175.219 106.176 175.139 105.752H175.115L175.139 107.252V109.16H173.951ZM176.531 106.088C176.971 106.088 177.315 105.96 177.563 105.704C177.811 105.44 177.935 105.064 177.935 104.576V102.812C177.935 102.332 177.811 101.964 177.563 101.708C177.315 101.444 176.971 101.312 176.531 101.312C176.099 101.312 175.759 101.444 175.511 101.708C175.263 101.972 175.139 102.344 175.139 102.824V104.576C175.139 105.056 175.263 105.428 175.511 105.692C175.759 105.956 176.099 106.088 176.531 106.088ZM201.76 107V98.24H204.112C204.68 98.24 205.172 98.352 205.588 98.576C206.012 98.792 206.34 99.1 206.572 99.5C206.804 99.892 206.92 100.356 206.92 100.892V104.336C206.92 104.872 206.804 105.34 206.572 105.74C206.34 106.14 206.012 106.452 205.588 106.676C205.172 106.892 204.68 107 204.112 107H201.76ZM202.948 105.944H204.112C204.616 105.944 205.012 105.8 205.3 105.512C205.588 105.224 205.732 104.832 205.732 104.336V100.892C205.732 100.396 205.588 100.008 205.3 99.728C205.012 99.44 204.616 99.296 204.112 99.296H202.948V105.944ZM210.647 107.12C209.951 107.12 209.403 106.944 209.003 106.592C208.611 106.232 208.415 105.748 208.415 105.14C208.415 104.516 208.619 104.028 209.027 103.676C209.443 103.316 210.007 103.136 210.719 103.136H212.639V102.512C212.639 102.128 212.519 101.832 212.279 101.624C212.047 101.408 211.723 101.3 211.307 101.3C210.931 101.3 210.615 101.384 210.359 101.552C210.111 101.712 209.959 101.924 209.903 102.188H208.739C208.771 101.804 208.903 101.472 209.135 101.192C209.367 100.904 209.671 100.68 210.047 100.52C210.423 100.36 210.847 100.28 211.319 100.28C212.087 100.28 212.695 100.48 213.143 100.88C213.599 101.272 213.827 101.804 213.827 102.476V107H212.663V105.776H212.651C212.595 106.192 212.387 106.52 212.027 106.76C211.667 107 211.207 107.12 210.647 107.12ZM210.971 106.196C211.451 106.196 211.847 106.076 212.159 105.836C212.479 105.588 212.639 105.272 212.639 104.888V103.988H210.743C210.391 103.988 210.111 104.084 209.903 104.276C209.703 104.468 209.603 104.728 209.603 105.056C209.603 105.416 209.723 105.696 209.963 105.896C210.203 106.096 210.539 106.196 210.971 106.196ZM215.875 107V100.4H217.051V101.66H217.075C217.131 101.22 217.311 100.88 217.615 100.64C217.927 100.4 218.335 100.28 218.839 100.28C219.519 100.28 220.063 100.5 220.471 100.94C220.879 101.38 221.083 101.972 221.083 102.716V103.196H219.883V102.812C219.883 102.34 219.759 101.972 219.511 101.708C219.271 101.444 218.915 101.312 218.443 101.312C217.523 101.312 217.063 101.82 217.063 102.836V107H215.875ZM225.89 107C225.322 107 224.87 106.836 224.534 106.508C224.206 106.18 224.042 105.744 224.042 105.2V101.48H222.194V100.4H224.042V98.54H225.23V100.4H227.834V101.48H225.23V105.188C225.23 105.404 225.29 105.58 225.41 105.716C225.538 105.852 225.706 105.92 225.914 105.92H227.714V107H225.89ZM249.835 107L252.331 102.548L249.967 98.24H251.323L252.619 100.736C252.691 100.88 252.763 101.028 252.835 101.18C252.915 101.332 252.975 101.448 253.015 101.528C253.055 101.448 253.111 101.332 253.183 101.18C253.255 101.028 253.327 100.88 253.399 100.736L254.707 98.24H256.015L253.651 102.488L256.147 107H254.803L253.363 104.312C253.291 104.168 253.219 104.02 253.147 103.868C253.075 103.708 253.019 103.58 252.979 103.484C252.939 103.58 252.883 103.708 252.811 103.868C252.739 104.02 252.663 104.164 252.583 104.3L251.143 107H249.835ZM257.031 107V100.4H258.051V101.216H258.123C258.171 100.936 258.295 100.712 258.495 100.544C258.695 100.368 258.939 100.28 259.227 100.28C259.491 100.28 259.719 100.364 259.911 100.532C260.103 100.7 260.243 100.928 260.331 101.216H260.391C260.439 100.936 260.563 100.712 260.763 100.544C260.971 100.368 261.223 100.28 261.519 100.28C261.911 100.28 262.231 100.44 262.479 100.76C262.735 101.072 262.863 101.48 262.863 101.984V107H261.783V101.996C261.783 101.452 261.559 101.18 261.111 101.18C260.887 101.18 260.715 101.252 260.595 101.396C260.475 101.532 260.415 101.732 260.415 101.996V107H259.479V101.996C259.479 101.74 259.415 101.54 259.287 101.396C259.167 101.252 258.999 101.18 258.783 101.18C258.335 101.18 258.111 101.452 258.111 101.996V107H257.031ZM267.886 107C267.286 107 266.806 106.824 266.446 106.472C266.086 106.12 265.906 105.652 265.906 105.068V99.32H263.65V98.24H267.094V105.056C267.094 105.32 267.166 105.532 267.31 105.692C267.462 105.844 267.666 105.92 267.922 105.92H269.926V107H267.886ZM292.191 107V98.24H293.379V101.924H296.067V98.24H297.255V107H296.067V103.004H293.379V107H292.191ZM302.398 107C301.83 107 301.378 106.836 301.042 106.508C300.714 106.18 300.55 105.744 300.55 105.2V101.48H298.702V100.4H300.55V98.54H301.738V100.4H304.342V101.48H301.738V105.188C301.738 105.404 301.798 105.58 301.918 105.716C302.046 105.852 302.214 105.92 302.422 105.92H304.222V107H302.398ZM305.718 107V100.4H306.738V101.216H306.81C306.858 100.936 306.982 100.712 307.182 100.544C307.382 100.368 307.626 100.28 307.914 100.28C308.178 100.28 308.406 100.364 308.598 100.532C308.79 100.7 308.93 100.928 309.018 101.216H309.078C309.126 100.936 309.25 100.712 309.45 100.544C309.658 100.368 309.91 100.28 310.206 100.28C310.598 100.28 310.918 100.44 311.166 100.76C311.422 101.072 311.55 101.48 311.55 101.984V107H310.47V101.996C310.47 101.452 310.246 101.18 309.798 101.18C309.574 101.18 309.402 101.252 309.282 101.396C309.162 101.532 309.102 101.732 309.102 101.996V107H308.166V101.996C308.166 101.74 308.102 101.54 307.974 101.396C307.854 101.252 307.686 101.18 307.47 101.18C307.022 101.18 306.798 101.452 306.798 101.996V107H305.718ZM316.573 107C315.973 107 315.493 106.824 315.133 106.472C314.773 106.12 314.593 105.652 314.593 105.068V99.32H312.337V98.24H315.781V105.056C315.781 105.32 315.853 105.532 315.997 105.692C316.149 105.844 316.353 105.92 316.609 105.92H318.613V107H316.573Z" fill="#CF657E"/>
</svg>
