<svg class="illustration" width="186" height="186" viewBox="0 0 186 186" fill="none" xmlns="http://www.w3.org/2000/svg">
<path d="M74.9412 21.1531C75.6771 17.1491 79.4532 14.1011 83.4635 14.0097C85.7373 13.8877 87.8155 14.9462 89.8744 15.7609C99.0333 19.6152 107.743 24.9714 114.504 32.3615C116.676 34.7444 118.625 37.338 120.251 40.1283C125.468 42.3063 130.372 45.2601 134.707 48.9038C138.213 51.8244 141.151 55.482 143.045 59.6605C145.161 64.324 145.886 69.561 145.418 74.6457C144.809 81.5231 142.295 88.0929 138.993 94.0948C145.407 103.635 147.893 115.326 147.915 126.708C147.959 128.293 147.785 129.873 147.857 131.458C151.523 133.724 153.835 137.651 155.064 141.707C156.528 146.67 156.663 152.026 155.514 157.067C154.516 161.303 152.435 165.454 148.968 168.178C146.592 170.071 143.585 171.137 140.556 171.184C120.7 171.184 100.844 171.184 80.9884 171.184C74.9467 170.844 68.7866 170.306 63.1226 168.012C59.4182 166.538 56.0308 164.108 53.7542 160.788C50.444 156.044 49.2009 150.292 47.1613 144.963C46.271 142.688 45.4745 140.236 43.6389 138.526C42.0513 137.03 39.9373 136.08 37.7571 135.969C34.7363 135.756 31.8643 134.087 30.1499 131.58C27.865 128.36 27.7382 123.78 29.7806 120.41C31.3186 117.806 34.061 115.966 37.046 115.553C38.471 115.306 39.918 115.481 41.3347 115.7C46.9932 116.622 52.4615 118.986 56.8439 122.732C60.2919 125.664 62.9985 129.441 64.7818 133.605C65.6583 135.714 66.51 137.842 67.086 140.056C68.3511 136.867 70.275 133.796 73.1607 131.86C73.384 131.646 73.8498 131.533 73.7726 131.136C73.7009 129.612 73.6954 128.088 73.6872 126.564C68.1885 122.624 63.6187 117.459 59.9805 111.762C59.8316 111.463 59.4954 111.38 59.2225 111.255C53.4979 108.983 48.3327 105.447 43.7987 101.294C38.1623 96.1092 33.4629 89.9522 29.5656 83.363C28.5513 81.7559 27.9064 79.8689 28.0111 77.9458C28.08 74.3381 30.5027 70.8966 33.9232 69.7411C41.8832 66.9869 49.8486 64.252 57.8113 61.5088C58.2964 61.312 58.9386 61.2815 59.1812 60.7384C62.2599 55.7702 66.1076 51.2896 70.5065 47.4602C71.9645 38.6875 73.4391 29.9175 74.9412 21.1531ZM82.4409 19.7649L82.4685 19.823C81.4211 20.2664 80.5419 21.1919 80.3517 22.3446C79.0508 29.8205 77.8656 37.3186 76.5288 44.7863L76.4103 44.7613C76.3745 46.4266 76.0134 48.0643 75.7102 49.6991C75.5559 50.5775 74.8007 51.1289 74.1695 51.6692C72.7611 52.8302 71.4932 54.1409 70.2116 55.4377C69.0043 56.7649 67.8247 58.1199 66.7415 59.5525C65.4957 61.1652 64.3601 62.861 63.3265 64.6149C62.9985 65.1885 62.5493 65.7289 61.9071 65.9533C60.314 66.5629 58.6768 67.0589 57.0727 67.638C50.0002 70.0709 42.925 72.5065 35.8525 74.9449C34.7225 75.3107 33.8929 76.3221 33.631 77.472L33.5787 77.4554C33.4574 78.3255 33.5566 79.2343 34.0362 79.988C37.1121 85.3026 40.7448 90.3125 45.0142 94.7238C49.223 99.088 54.1097 102.862 59.6304 105.389C61.0168 106.209 62.8718 106.287 63.9274 107.6C67.3203 113.17 71.6338 118.257 76.945 122.062C79.7839 123.996 83.0059 125.384 86.3988 125.938C91.4234 126.789 96.5858 125.722 101.222 123.738C109.085 120.338 115.75 114.672 121.563 108.454C128.004 101.416 133.737 93.5433 137.336 84.6376C139.489 79.1983 140.762 73.2048 139.723 67.3665C138.943 62.8277 136.658 58.6214 133.464 55.3462C128.831 50.6772 123.073 47.2496 117.015 44.7946C115.59 43.9633 115.262 42.1428 114.198 40.9624C112.881 38.923 111.31 37.0554 109.648 35.2931C102.84 28.2245 94.1273 23.2867 85.04 19.8147C84.2104 19.4517 83.2898 19.5072 82.4409 19.7649ZM121.353 116.597C127.8 114.25 134.073 110.776 138.593 105.494C137.83 103.405 136.818 101.418 135.724 99.4897C131.576 105.699 126.714 111.419 121.353 116.597ZM131.758 117.963C126.146 121.103 119.972 123.347 113.57 124.057C112.958 124.162 112.285 124.059 111.723 124.353C105.673 128.36 98.7274 131.452 91.3959 131.688L91.3766 131.768C90.6792 131.613 89.9654 131.765 89.2625 131.746C85.8421 131.704 82.4492 130.945 79.2823 129.66C79.3595 135.334 79.9493 141.015 81.1538 146.562C82.5429 152.478 84.6211 158.452 88.6121 163.132C89.7228 164.518 91.3628 165.515 93.1543 165.623C94.5214 165.673 95.8913 165.626 97.2611 165.648C98.7164 165.723 100.177 164.507 100.224 163.01C100.241 155.529 100.216 148.042 100.238 140.558C100.15 139.017 101.478 137.568 103.035 137.645C104.587 137.568 105.888 139.034 105.805 140.558C105.816 147.028 105.808 153.498 105.811 159.965C105.792 161.863 105.965 163.819 105.312 165.64C108.964 165.651 112.616 165.626 116.271 165.654C116.001 164.703 115.78 163.728 115.802 162.733C115.808 155.254 115.797 147.776 115.805 140.297C115.813 139.155 116.64 138.119 117.701 137.764C119.341 137.191 121.372 138.479 121.315 140.286C121.315 147.305 121.317 154.323 121.312 161.342C121.317 162.293 121.21 163.323 121.725 164.18C122.249 165.208 123.442 165.742 124.564 165.648C126.474 165.546 128.475 165.934 130.294 165.183C132.105 164.459 133.307 162.825 134.415 161.295C137.472 156.906 139.247 151.755 140.432 146.57C141.793 140.463 142.309 134.193 142.353 127.947C142.458 122.419 141.895 116.866 140.567 111.493C137.951 114.054 134.922 116.151 131.758 117.963ZM33.8846 125.287C33.5897 127.792 35.6293 130.225 38.1126 130.449C42.032 130.657 45.819 132.514 48.4264 135.459C50.3282 137.607 51.3011 140.339 52.3485 142.963C53.6825 146.606 54.7933 150.331 56.2486 153.927L56.2872 153.9C56.99 155.468 57.8389 156.986 58.9331 158.316C61.4385 161.428 65.187 163.19 68.9823 164.13C66.3914 160.037 65.3579 155.138 65.2834 150.336C64.7377 149.582 64.2526 148.793 63.8227 147.97C63.0454 146.219 62.4693 144.387 62.0035 142.533C61.3917 140.064 60.5345 137.659 59.4568 135.359C58.2827 132.658 56.5793 130.167 54.4598 128.124C51.461 125.043 47.5472 122.957 43.4404 121.798C41.8363 121.374 40.1991 121.039 38.5371 120.967C36.1971 120.97 34.0527 122.929 33.8846 125.287ZM70.9144 152.251C71.3085 156.488 72.6398 161.035 76.0272 163.833C78.0971 165.56 80.8781 165.798 83.4579 165.643C80.9939 162.428 79.1693 158.765 77.7857 154.964C75.8811 149.641 74.8585 144.043 74.2329 138.432C71.3885 142.381 70.5947 147.482 70.9144 152.251ZM147.358 138.465C146.741 144.063 145.707 149.641 143.814 154.952C142.441 158.765 140.6 162.431 138.128 165.648C139.688 165.62 141.292 165.773 142.802 165.274C144.944 164.656 146.694 163.093 147.879 161.234C150.048 157.784 150.853 153.609 150.729 149.566C150.605 145.681 149.731 141.619 147.358 138.465Z" fill="#5C2F17"/>
<path d="M108.683 57.5796C110.599 57.3246 112.619 57.5934 114.311 58.5716C116.974 60.0346 118.773 62.9773 118.776 66.042C118.875 68.5801 117.754 71.1183 115.855 72.7836C112.961 75.4326 108.275 75.6986 105.081 73.4375C101.972 71.3677 100.549 67.1614 101.707 63.6063C102.636 60.4807 105.469 58.034 108.683 57.5796ZM105.659 63.429C103.747 63.8696 103.253 66.7042 104.852 67.8098C106.293 69.0151 108.804 67.965 108.848 66.0447C109.099 64.3406 107.266 62.8609 105.659 63.429Z" fill="#5C2F17"/>
<path d="M107.316 83.3824C108.195 83.0194 109.251 83.5763 109.521 84.4741C110.053 86.0203 109.882 87.705 109.543 89.2733C109.273 90.4427 108.782 91.6923 107.666 92.2881C105.943 93.2773 103.909 93.8952 101.916 93.6819C100.88 93.6181 100.059 92.5763 100.326 91.5483C100.764 89.7499 102.054 88.3368 103.19 86.9402C104.391 85.5852 105.579 84.0474 107.316 83.3824Z" fill="#5C2F17"/>
<path d="M82.1845 88.5585C85.8641 87.7826 89.8964 89.7001 91.5998 93.0723C93.2204 96.1314 92.8291 100.152 90.5607 102.779C88.0443 105.899 83.3146 106.816 79.8059 104.918C76.4764 103.255 74.5581 99.3013 75.2471 95.6382C75.8011 92.1302 78.7034 89.1709 82.1845 88.5585ZM81.6581 91.3931C79.861 92.241 79.9933 95.1865 81.8483 95.882C83.5626 96.7355 85.7263 95.0341 85.3156 93.1637C85.1199 91.504 83.0693 90.5563 81.6581 91.3931Z" fill="#5C2F17"/>
<path d="M82.4409 19.7648C83.2898 19.5071 84.2104 19.4517 85.04 19.8147C94.1273 23.2867 102.84 28.2244 109.648 35.2931C111.31 37.0554 112.881 38.923 114.198 40.9624C106.781 38.7207 98.7908 38.2385 91.2112 39.9454C89.122 40.5966 86.7131 38.8869 86.7792 36.6564C86.5725 30.8153 84.9932 25.0711 82.4685 19.823L82.4409 19.7648Z" fill="#ED7D80"/>
<path d="M33.5786 77.4553L33.631 77.4719C39.1462 79.0874 44.9894 79.7496 50.7058 79.0043C52.1169 78.741 53.6549 79.3423 54.3936 80.6059C55.0826 81.6117 54.8676 82.878 54.8401 84.0224C54.5975 91.4097 56.4414 98.7637 59.6304 105.389C54.1097 102.862 49.2229 99.0879 45.0142 94.7237C40.7448 90.3124 37.1121 85.3026 34.0361 79.9879C33.5566 79.2343 33.4573 78.3254 33.5786 77.4553Z" fill="#ED7D80"/>
<path d="M80.3518 22.3445C80.542 21.1918 81.4212 20.2663 82.4685 19.823C84.9932 25.0711 86.5726 30.8152 86.7793 36.6563C86.7131 38.8869 89.1221 40.5966 91.2113 39.9454C98.7909 38.2385 106.781 38.7207 114.198 40.9623C115.262 42.1427 115.59 43.9632 117.015 44.7945C123.073 47.2496 128.831 50.6772 133.464 55.3462C132.723 60.4308 131.626 65.7565 128.36 69.8658C126.086 72.778 122.599 74.4267 119.074 75.2192C114.019 76.4162 108.611 76.7626 104.055 79.5003C99.4303 82.2352 96.0319 87.0067 95.0204 92.3102C93.8352 97.8188 94.9487 103.574 93.4741 109.035C92.5508 112.51 90.1942 115.47 87.2341 117.434C84.114 119.587 80.5309 120.926 76.9451 122.062C71.6338 118.257 67.3204 113.17 63.9275 107.6C62.8718 106.287 61.0169 106.209 59.6305 105.389C56.4416 98.7637 54.5977 91.4097 54.8402 84.0224C54.8678 82.878 55.0828 81.6117 54.3937 80.6059C53.655 79.3423 52.1171 78.741 50.7059 79.0043C44.9895 79.7497 39.1463 79.0874 33.6311 77.472C33.8929 76.322 34.7226 75.3106 35.8526 74.9449C42.9251 72.5065 50.0003 70.0708 57.0728 67.638C57.1913 67.602 57.4228 67.5244 57.5413 67.4856C58.8505 72.0243 61.2594 76.3941 65.0437 79.3035C66.6258 80.5034 68.3981 81.5397 70.3632 81.9359C72.8686 82.3737 75.5532 81.2626 77.0664 79.2149C79.0756 76.6185 78.9654 72.5203 76.6199 70.1706C73.1718 66.7901 69.4868 63.5703 66.7416 59.5524C67.8248 58.1199 69.0044 56.7649 70.2116 55.4376C73.5549 57.0309 76.5758 59.2088 79.5414 61.4145C80.994 62.4785 82.3225 63.8169 84.0809 64.3655C86.7627 65.1746 89.8966 64.2436 91.644 62.0241C93.2784 60.0096 93.7249 57.0337 92.5646 54.6839C91.7212 52.9576 90.4478 51.4724 89.0173 50.2089C85.8036 47.413 81.6858 45.7948 77.4991 45.2323C77.1353 45.1797 76.7356 45.1353 76.5289 44.7862C77.8657 37.3186 79.0508 29.8205 80.3518 22.3445ZM108.683 57.5795C105.469 58.034 102.636 60.4807 101.707 63.6063C100.549 67.1614 101.972 71.3676 105.081 73.4375C108.275 75.6986 112.961 75.4326 115.855 72.7836C117.754 71.1183 118.875 68.5801 118.776 66.0419C118.773 62.9773 116.974 60.0346 114.311 58.5715C112.619 57.5934 110.599 57.3246 108.683 57.5795ZM82.1847 88.5584C78.7036 89.1708 75.8013 92.1301 75.2472 95.6381C74.5582 99.3013 76.4765 103.255 79.806 104.918C83.3147 106.816 88.0444 105.899 90.5608 102.779C92.8292 100.152 93.2206 96.1313 91.5999 93.0722C89.8966 89.7 85.8642 87.7826 82.1847 88.5584Z" fill="#CED0D0"/>
<path d="M131.758 117.963C134.922 116.151 137.951 114.054 140.567 111.493C141.895 116.866 142.458 122.419 142.353 127.947C142.309 134.193 141.793 140.463 140.432 146.57C137.323 144.739 135.642 141.339 134.52 138.033C132.417 131.569 131.959 124.716 131.758 117.963Z" fill="#CED0D0"/>
<path d="M79.2825 129.659C82.4494 130.945 85.8423 131.704 89.2627 131.746C89.9656 131.765 90.6794 131.613 91.3768 131.768C91.3547 131.851 91.3134 132.017 91.2913 132.101C90.4259 131.901 89.5411 131.796 88.6536 131.86C88.1547 134.007 87.733 136.179 86.9916 138.263C85.8726 141.48 84.2106 144.811 81.1539 146.562C79.9495 141.015 79.3596 135.334 79.2825 129.659Z" fill="#CED0D0"/>
<path d="M76.4104 44.7614L76.5289 44.7863C76.7356 45.1354 77.1353 45.1798 77.4991 45.2324C81.6858 45.7949 85.8036 47.4131 89.0174 50.209C90.4478 51.4725 91.7212 52.9577 92.5646 54.684C93.725 57.0337 93.2785 60.0097 91.644 62.0242C89.8966 64.2437 86.7628 65.1747 84.081 64.3656C82.3225 63.817 80.994 62.4786 79.5415 61.4146C76.5758 59.2089 73.555 57.031 70.2117 55.4377C71.4933 54.1409 72.7612 52.8303 74.1696 51.6692C74.8008 51.1289 75.556 50.5775 75.7103 49.6991C76.0135 48.0643 76.3746 46.4267 76.4104 44.7614Z" fill="#7A7A79"/>
<path d="M63.3266 64.615C64.3602 62.861 65.4958 61.1652 66.7416 59.5525C69.4868 63.5703 73.1718 66.7901 76.6198 70.1707C78.9654 72.5204 79.0756 76.6186 77.0664 79.2149C75.5532 81.2626 72.8686 82.3738 70.3632 81.936C68.3981 81.5397 66.6258 80.5034 65.0437 79.3036C61.2594 76.3941 58.8505 72.0244 57.5413 67.4856C57.4228 67.5244 57.1913 67.602 57.0728 67.638C58.6769 67.0589 60.3141 66.5629 61.9072 65.9533C62.5494 65.7289 62.9986 65.1885 63.3266 64.615Z" fill="#7A7A79"/>
<path d="M43.4406 121.798C47.5473 122.957 51.4612 125.043 54.4599 128.124C51.5135 129.576 49.4243 132.356 48.4266 135.459C45.8192 132.514 42.0321 130.657 38.1128 130.449C39.2456 127.227 41.0426 124.229 43.4406 121.798Z" fill="#7A7A79"/>
<path d="M52.3486 142.963C55.1986 140.937 57.5744 138.302 59.4569 135.359C60.5346 137.659 61.3918 140.064 62.0037 142.533C62.4695 144.387 63.0455 146.219 63.8228 147.97C61.604 150.303 58.9388 152.115 56.2873 153.9L56.2487 153.927C54.7934 150.331 53.6826 146.607 52.3486 142.963Z" fill="#7A7A79"/>
<path d="M70.9144 152.251C70.5947 147.482 71.3885 142.381 74.2329 138.432C74.8586 144.043 75.8812 149.641 77.7857 154.964C74.809 154.484 72.5213 152.279 70.9668 149.804C70.9255 150.616 70.8786 151.433 70.9144 152.251Z" fill="#7A7A79"/>
<path d="M147.358 138.466C149.731 141.619 150.605 145.681 150.729 149.566C149.249 152.179 146.857 154.454 143.814 154.953C145.707 149.641 146.741 144.063 147.358 138.466Z" fill="#7A7A79"/>
<path d="M128.36 69.8658C131.626 65.7565 132.723 60.4308 133.464 55.3462C136.659 58.6214 138.943 62.8277 139.723 67.3664C140.763 73.2048 139.489 79.1983 137.337 84.6376C133.737 93.5433 128.004 101.415 121.563 108.454C115.75 114.672 109.085 120.338 101.222 123.738C96.5859 125.722 91.4235 126.789 86.3989 125.938C83.006 125.384 79.784 123.996 76.9451 122.062C80.5309 120.926 84.114 119.587 87.234 117.434C90.1942 115.47 92.5508 112.51 93.4741 109.036C94.9487 103.574 93.8352 97.8188 95.0203 92.3103C96.0319 87.0067 99.4303 82.2352 104.055 79.5003C108.611 76.7626 114.019 76.4163 119.074 75.2192C122.599 74.4267 126.086 72.778 128.36 69.8658ZM107.316 83.3824C105.579 84.0474 104.391 85.5852 103.19 86.9402C102.054 88.3368 100.764 89.7499 100.326 91.5483C100.059 92.5763 100.88 93.6181 101.916 93.6819C103.909 93.8952 105.943 93.2773 107.666 92.2881C108.782 91.6923 109.273 90.4427 109.543 89.2733C109.882 87.705 110.053 86.0203 109.521 84.4741C109.251 83.5763 108.195 83.0194 107.316 83.3824Z" fill="white"/>
<path d="M105.659 63.429C107.266 62.8609 109.099 64.3406 108.848 66.0447C108.804 67.965 106.293 69.0151 104.852 67.8098C103.253 66.7042 103.746 63.8696 105.659 63.429Z" fill="white"/>
<path d="M81.6582 91.3931C83.0694 90.5563 85.12 91.5039 85.3157 93.1637C85.7264 95.0341 83.5627 96.7355 81.8484 95.882C79.9934 95.1865 79.8611 92.241 81.6582 91.3931Z" fill="white"/>
<path d="M113.57 124.057C119.972 123.347 126.146 121.103 131.758 117.963C131.959 124.716 132.417 131.569 134.52 138.033C135.641 141.339 137.323 144.739 140.432 146.57C139.247 151.755 137.472 156.906 134.415 161.295C133.307 162.825 132.105 164.459 130.294 165.183C128.475 165.934 126.474 165.546 124.564 165.648C123.442 165.742 122.249 165.208 121.725 164.18C121.21 163.323 121.317 162.293 121.312 161.342C121.317 154.323 121.315 147.305 121.315 140.286C121.373 138.479 119.341 137.191 117.701 137.764C116.64 138.119 115.813 139.155 115.805 140.297C115.797 147.776 115.808 155.254 115.802 162.733C115.78 163.728 116.001 164.703 116.271 165.654C112.616 165.626 108.964 165.651 105.312 165.64C105.965 163.819 105.792 161.863 105.811 159.965C105.808 153.498 105.816 147.028 105.805 140.557C105.888 139.033 104.587 137.568 103.035 137.645C101.478 137.568 100.15 139.017 100.238 140.557C100.216 148.042 100.241 155.529 100.224 163.01C100.177 164.506 98.7164 165.723 97.2611 165.648C95.8913 165.626 94.5215 165.673 93.1544 165.623C91.3628 165.515 89.7229 164.518 88.6121 163.132C84.6211 158.452 82.5429 152.478 81.1538 146.562C84.2105 144.811 85.8725 141.48 86.9915 138.263C87.7329 136.179 88.1546 134.007 88.6535 131.86C89.541 131.796 90.4257 131.901 91.2912 132.101C91.3132 132.017 91.3546 131.851 91.3766 131.768L91.3959 131.688C98.7275 131.452 105.673 128.36 111.723 124.353C112.285 124.059 112.958 124.162 113.57 124.057Z" fill="white"/>
<path d="M121.353 116.597C126.714 111.419 131.576 105.699 135.724 99.4897C136.818 101.418 137.83 103.405 138.593 105.494C134.073 110.776 127.8 114.25 121.353 116.597Z" fill="#3BB9C5"/>
<path d="M33.8846 125.287C34.0528 122.929 36.1971 120.97 38.5371 120.967C40.1991 121.039 41.8363 121.374 43.4404 121.798C41.0425 124.229 39.2455 127.227 38.1127 130.449C35.6293 130.225 33.5897 127.792 33.8846 125.287Z" fill="#B4B5B5"/>
<path d="M54.4599 128.124C56.5794 130.167 58.2828 132.658 59.4569 135.359C57.5744 138.302 55.1985 140.937 52.3486 142.963C51.3013 140.339 50.3283 137.606 48.4265 135.459C49.4243 132.356 51.5135 129.576 54.4599 128.124Z" fill="#B4B5B5"/>
<path d="M56.2871 153.899C58.9386 152.115 61.6039 150.303 63.8226 147.97C64.2526 148.793 64.7377 149.582 65.2834 150.336C65.3578 155.138 66.3914 160.037 68.9823 164.13C65.1869 163.19 61.4385 161.428 58.9331 158.316C57.8389 156.986 56.9899 155.468 56.2871 153.899Z" fill="#B4B5B5"/>
<path d="M143.814 154.952C146.857 154.454 149.249 152.179 150.729 149.566C150.853 153.609 150.048 157.784 147.879 161.234C146.694 163.093 144.944 164.656 142.802 165.274C141.292 165.773 139.688 165.621 138.128 165.648C140.6 162.431 142.441 158.765 143.814 154.952Z" fill="#B4B5B5"/>
<path d="M70.9667 149.804C72.5212 152.279 74.8089 154.484 77.7856 154.964C79.1692 158.765 80.9938 162.428 83.4579 165.643C80.8781 165.798 78.0971 165.56 76.0271 163.833C72.6397 161.035 71.3085 156.488 70.9144 152.251C70.8785 151.433 70.9254 150.616 70.9667 149.804Z" fill="#B4B5B5"/>
</svg>
